<svg width="23" height="23" viewBox="0 0 23 23" fill="none" xmlns="http://www.w3.org/2000/svg">
<path d="M21.2288 1.77814C18.8575 -0.592712 14.9994 -0.592712 12.6293 1.77814L9.71686 4.68913C9.28171 5.12414 9.28171 5.82884 9.71686 6.26385C10.152 6.69887 10.857 6.69887 11.292 6.26385L14.2044 3.35286C17.9171 -0.133719 23.1491 5.09529 19.6537 8.80083L16.2503 12.204C14.5272 13.9738 11.451 13.5897 10.218 11.4529C9.90393 10.9229 9.22006 10.7497 8.69137 11.0629C7.5269 11.7971 8.51892 13.1004 9.22519 13.7787C10.4109 14.9643 11.968 15.5566 13.5249 15.5566C15.0828 15.5566 16.6397 14.9643 17.8255 13.7789L21.2288 10.3762C23.5893 8.11234 23.5903 4.04148 21.2288 1.77814Z" fill="#4F4E4F"/>
<path d="M11.7102 16.7437L8.79774 19.6547C5.11275 23.1519 -0.149851 17.8932 3.34858 14.2067C3.34845 14.2069 6.7519 10.8035 6.7519 10.8035C8.4726 9.03752 11.5438 9.41378 12.7785 11.5481C13.0918 12.0782 13.7763 12.2528 14.3043 11.9382C15.467 11.2084 14.4794 9.90176 13.777 9.22881C11.4056 6.85797 7.54816 6.85928 5.17678 9.22881L1.77333 12.632C-2.05815 16.4092 0.751666 23.0695 6.07329 23.0072C7.63023 23.0073 9.18796 22.4148 10.3729 21.2294L13.2854 18.3184C14.3022 17.2646 12.7635 15.7266 11.7102 16.7437Z" fill="#4F4E4F"/>
</svg>
