<svg width="408" height="254" viewBox="0 0 408 254" fill="none" xmlns="http://www.w3.org/2000/svg">
<path d="M77.6463 206.863C77.6573 205.271 78.2808 204.06 79.517 203.228C80.763 202.397 82.3528 201.988 84.2863 202.001L87.4503 202.023L87.4563 201.159C87.4608 200.495 87.2984 199.966 86.9691 199.573C86.6398 199.181 86.0649 198.981 85.2446 198.976C84.4341 198.97 83.847 199.132 83.4834 199.462C83.1199 199.781 82.9364 200.2 82.9328 200.718L82.9311 200.967L78.5368 200.922L78.5386 200.658C78.5479 199.301 79.1903 198.197 80.4657 197.346C81.7411 196.495 83.4237 196.077 85.5135 196.092C87.6228 196.106 89.241 196.532 90.3681 197.37C91.4952 198.198 92.0527 199.501 92.0405 201.278L91.9948 207.928C91.9907 208.524 92.0405 209.096 92.1442 209.643C92.2479 210.181 92.3961 210.646 92.5887 211.038L92.5872 211.258L88.0609 211.227C87.9356 210.991 87.8301 210.703 87.7446 210.36C87.6591 210.008 87.5981 209.656 87.5614 209.304C87.2549 209.859 86.6801 210.358 85.8372 210.801C85.0041 211.235 83.9626 211.448 82.7127 211.439C81.2185 211.429 79.9956 211.039 79.0438 210.271C78.1018 209.503 77.636 208.367 77.6463 206.863ZM82.2191 206.514C82.2148 207.148 82.392 207.652 82.7508 208.026C83.1194 208.39 83.6845 208.574 84.4462 208.58C85.2665 208.585 85.9666 208.322 86.5464 207.788C87.1263 207.255 87.4187 206.623 87.4237 205.89L87.4327 204.586L85.2501 204.571C84.2248 204.564 83.462 204.72 82.9617 205.039C82.4712 205.358 82.2237 205.85 82.2191 206.514Z" fill="url(#paint0_linear_682_13907)"/>
<path d="M71.8495 215.334L71.8784 211.115L59.6033 211.031L59.5744 215.25L55.1506 215.219L55.2049 207.324L76.3421 207.469L76.2878 215.364L71.8495 215.334ZM59.1054 189.699L74.0318 189.801L73.8852 211.129L69.1393 211.096L69.2605 193.445L63.0937 193.403L62.6916 200.754C62.5893 202.853 62.3876 204.497 62.0864 205.686C61.795 206.876 61.3921 207.962 60.8775 208.945L56.4098 208.914C57.0624 207.747 57.5489 206.578 57.8695 205.408C58.1999 204.229 58.421 202.595 58.5331 200.506L59.1054 189.699Z" fill="url(#paint1_linear_682_13907)"/>
<path d="M328.002 205.966L328.025 202.538L341.56 202.631L341.537 206.059L337.069 206.028L336.991 217.322L332.407 217.29L332.484 205.997L328.002 205.966Z" fill="url(#paint2_linear_682_13907)"/>
<path d="M311.935 210.001L311.938 209.532C311.954 207.257 312.67 205.44 314.085 204.083C315.511 202.716 317.351 202.04 319.607 202.055C321.863 202.071 323.611 202.732 324.853 204.04C326.103 205.347 326.721 207.138 326.705 209.414L326.695 210.893L314.786 210.811L314.804 208.189L322.216 208.24L322.218 207.991C322.223 207.239 321.998 206.603 321.543 206.082C321.097 205.562 320.439 205.298 319.57 205.292C318.584 205.286 317.83 205.647 317.307 206.376C316.794 207.095 316.534 208.04 316.526 209.212L316.519 210.193C316.51 211.463 316.777 212.466 317.319 213.202C317.87 213.928 318.678 214.295 319.743 214.303C320.505 214.308 321.155 214.137 321.695 213.789C322.234 213.441 322.667 213.019 322.992 212.523L326.467 214.202C325.982 215.234 325.17 216.064 324.033 216.691C322.906 217.318 321.492 217.625 319.793 217.614C317.313 217.597 315.379 216.9 313.992 215.523C312.605 214.136 311.92 212.296 311.935 210.001Z" fill="url(#paint3_linear_682_13907)"/>
<path d="M291.953 217.012L292.1 195.685L296.846 195.717L296.788 204.154L304.346 204.206L304.404 195.769L309.15 195.802L309.003 217.129L304.257 217.097L304.32 207.986L296.762 207.934L296.699 217.045L291.953 217.012Z" fill="url(#paint4_linear_682_13907)"/>
<path d="M132.823 242.958L132.825 242.568C132.839 240.639 133.439 239.097 134.627 237.941C135.823 236.786 137.357 236.214 139.229 236.227C141.109 236.24 142.57 236.8 143.612 237.905C144.662 239.011 145.181 240.529 145.168 242.457L145.159 243.702L135.223 243.634L135.238 241.437L141.476 241.48L141.477 241.248C141.482 240.589 141.286 240.034 140.89 239.584C140.503 239.133 139.939 238.906 139.198 238.9C138.352 238.895 137.703 239.204 137.251 239.827C136.807 240.451 136.582 241.283 136.575 242.325L136.569 243.131C136.562 244.213 136.792 245.073 137.259 245.711C137.735 246.341 138.437 246.659 139.365 246.665C140.008 246.67 140.562 246.519 141.028 246.213C141.502 245.907 141.879 245.543 142.159 245.122L144.944 246.618C144.539 247.446 143.859 248.121 142.903 248.643C141.948 249.157 140.778 249.41 139.395 249.4C137.328 249.386 135.712 248.793 134.548 247.621C133.385 246.449 132.809 244.895 132.823 242.958Z" fill="white"/>
<path d="M114.346 248.875L114.432 236.424L119.644 236.46L121.968 242.909C122.119 243.358 122.219 243.68 122.266 243.875C122.322 244.063 122.37 244.259 122.409 244.462L122.506 244.463C122.557 244.26 122.607 244.065 122.657 243.878C122.715 243.691 122.823 243.375 122.981 242.928L125.369 236.499L130.532 236.534L130.447 248.985L126.748 248.96L126.797 241.819C126.8 241.355 126.807 240.993 126.817 240.733C126.835 240.464 126.853 240.216 126.871 239.988L126.773 239.988C126.715 240.207 126.648 240.447 126.573 240.707C126.498 240.958 126.377 241.32 126.211 241.791L123.55 248.938L120.755 248.919L118.167 241.711C118.024 241.295 117.916 240.952 117.845 240.683C117.774 240.406 117.71 240.153 117.655 239.925L117.557 239.924C117.564 240.152 117.574 240.392 117.589 240.645C117.603 240.897 117.609 241.247 117.606 241.695L117.556 248.897L114.346 248.875Z" fill="white"/>
<path d="M99.3677 253.886L99.4884 236.32L103.053 236.345L103.104 237.773L103.165 237.774C103.445 237.287 103.912 236.888 104.565 236.575C105.218 236.254 105.948 236.096 106.753 236.102C108.356 236.113 109.642 236.687 110.611 237.825C111.58 238.955 112.058 240.484 112.044 242.413L112.042 242.803C112.029 244.716 111.534 246.242 110.558 247.383C109.581 248.516 108.308 249.077 106.737 249.066C105.932 249.06 105.217 248.921 104.592 248.648C103.975 248.375 103.502 248.006 103.171 247.54L103.127 253.912L99.3677 253.886ZM103.191 244.598C103.367 245.047 103.674 245.444 104.111 245.788C104.548 246.125 105.064 246.295 105.658 246.299C106.512 246.305 107.149 246.013 107.568 245.421C107.987 244.83 108.2 244.01 108.208 242.96L108.213 242.215C108.22 241.166 108.018 240.35 107.607 239.77C107.196 239.181 106.563 238.884 105.709 238.878C105.082 238.873 104.56 239.033 104.143 239.355C103.726 239.678 103.418 240.058 103.22 240.496L103.191 244.598Z" fill="white"/>
<path d="M83.9632 242.623L83.9659 242.233C83.9793 240.288 84.5962 238.742 85.8167 237.594C87.0371 236.447 88.628 235.88 90.5892 235.894C92.5504 235.907 94.1293 236.496 95.3257 237.66C96.5303 238.824 97.1259 240.378 97.1126 242.323L97.1099 242.714C97.0965 244.659 96.4796 246.205 95.2591 247.352C94.0468 248.499 92.46 249.066 90.4988 249.053C88.5376 249.039 86.9547 248.451 85.7501 247.287C84.5455 246.123 83.9498 244.568 83.9632 242.623ZM87.8123 242.076L87.8071 242.833C87.7995 243.932 88.0297 244.779 88.4976 245.377C88.9656 245.966 89.639 246.264 90.5179 246.27C91.3968 246.276 92.0702 245.987 92.5381 245.405C93.0141 244.814 93.2559 243.969 93.2635 242.87L93.2687 242.114C93.2762 241.015 93.042 240.171 92.5659 239.582C92.0979 238.993 91.4326 238.695 90.57 238.689C89.6992 238.683 89.0218 238.972 88.5376 239.554C88.0616 240.137 87.8198 240.977 87.8123 242.076Z" fill="white"/>
<path d="M69.9922 236.118L73.7519 236.144L73.7195 240.856L77.8942 240.884L77.9266 236.173L81.6862 236.199L81.6007 248.649L77.841 248.624L77.8751 243.668L73.7004 243.639L73.6663 248.595L69.9066 248.569L69.9922 236.118Z" fill="white"/>
<path d="M49.6879 248.43L49.7734 235.979L56.3651 236.025C57.9438 236.036 59.1057 236.308 59.8508 236.842C60.5959 237.368 60.9649 238.144 60.9578 239.169C60.9524 239.967 60.7242 240.604 60.2733 241.081C59.8306 241.55 59.2181 241.863 58.4357 242.021L58.4355 242.057C59.3541 242.202 60.0721 242.528 60.5895 243.036C61.1069 243.536 61.3627 244.205 61.3569 245.044C61.3494 246.134 60.9571 246.982 60.1798 247.587C59.4106 248.192 58.2652 248.489 56.7434 248.479L49.6879 248.43ZM53.4256 240.997L55.5129 241.012C56.0988 241.016 56.5229 240.897 56.7849 240.654C57.0552 240.412 57.1919 240.055 57.1951 239.583C57.198 239.16 57.066 238.833 56.799 238.604C56.532 238.374 56.1097 238.257 55.5319 238.253L53.4445 238.239L53.4256 240.997ZM53.3898 246.197L55.7824 246.214C56.4008 246.218 56.8574 246.091 57.1522 245.833C57.447 245.566 57.5961 245.193 57.5994 244.713C57.6026 244.241 57.4586 243.873 57.1675 243.611C56.8845 243.341 56.4297 243.203 55.8031 243.199L53.4106 243.182L53.3898 246.197Z" fill="white"/>
<path d="M29.1449 242.246L29.1475 241.856C29.1611 239.886 29.7577 238.336 30.9374 237.205C32.1171 236.066 33.6835 235.503 35.6366 235.516C37.5083 235.529 38.9334 235.986 39.9119 236.888C40.8986 237.79 41.4239 238.909 41.488 240.244L41.4986 240.476L37.8366 240.451L37.8377 240.292C37.8417 239.706 37.6578 239.225 37.2861 238.848C36.9225 238.463 36.3704 238.268 35.6299 238.263C34.7754 238.257 34.1223 238.561 33.6704 239.177C33.2268 239.784 33.0013 240.621 32.994 241.687L32.9887 242.456C32.9814 243.522 33.1872 244.37 33.606 244.999C34.0331 245.621 34.6901 245.935 35.5771 245.941C36.3746 245.946 36.9457 245.751 37.2902 245.354C37.6347 244.958 37.8089 244.483 37.8127 243.93L37.8137 243.783L41.4635 243.808L41.4623 243.991C41.445 245.318 40.9246 246.433 39.9011 247.338C38.8776 248.242 37.4301 248.688 35.5584 248.675C33.6134 248.662 32.0549 248.077 30.8828 246.922C29.7107 245.766 29.1314 244.208 29.1449 242.246Z" fill="white"/>
<path d="M15.2757 242.151L15.2784 241.76C15.2916 239.831 15.8923 238.289 17.0802 237.134C18.2764 235.978 19.8103 235.407 21.682 235.42C23.5618 235.433 25.0228 235.992 26.0651 237.098C27.1154 238.204 27.634 239.721 27.6208 241.65L27.6122 242.895L17.6759 242.826L17.691 240.629L23.9287 240.672L23.9302 240.44C23.9348 239.781 23.7392 239.226 23.3435 238.776C22.956 238.326 22.3919 238.098 21.6514 238.093C20.8051 238.087 20.156 238.396 19.7041 239.019C19.2603 239.643 19.0349 240.476 19.0277 241.517L19.0222 242.323C19.0147 243.405 19.2448 244.265 19.7125 244.903C20.1883 245.533 20.8901 245.851 21.8178 245.858C22.4607 245.862 23.0151 245.711 23.4811 245.405C23.9552 245.099 24.3321 244.736 24.6116 244.315L27.3968 245.811C26.9924 246.638 26.3123 247.313 25.3565 247.835C24.4008 248.35 23.2312 248.602 21.8478 248.593C19.7808 248.578 18.1654 247.985 17.0015 246.814C15.8377 245.642 15.2624 244.088 15.2757 242.151Z" fill="white"/>
<path d="M0.12006 248.089L0.242188 230.316L7.01693 230.363C8.92932 230.376 10.4077 230.773 11.4522 231.553C12.4967 232.325 13.0136 233.493 13.0029 235.055C12.9961 236.04 12.7667 236.852 12.3147 237.492C11.8628 238.123 11.3024 238.555 10.6335 238.786L10.6331 238.835C11.4616 239.077 12.1419 239.554 12.6741 240.265C13.2145 240.977 13.4806 241.923 13.4725 243.103C13.4615 244.706 12.8873 245.951 11.75 246.839C10.6128 247.718 9.10422 248.151 7.22438 248.138L0.12006 248.089ZM3.95931 245.418L6.90113 245.438C7.81257 245.444 8.48556 245.213 8.92011 244.744C9.35466 244.275 9.5747 243.638 9.58024 242.832C9.58577 242.026 9.37451 241.386 8.94645 240.911C8.51839 240.436 7.84864 240.196 6.9372 240.189L3.99538 240.169L3.95931 245.418ZM4.01215 237.728L6.6366 237.746C7.5399 237.752 8.19232 237.553 8.59387 237.149C8.99548 236.737 9.19883 236.16 9.20392 235.42C9.209 234.679 9.01351 234.112 8.61744 233.719C8.22143 233.317 7.57177 233.113 6.66848 233.107L4.04403 233.089L4.01215 237.728Z" fill="white"/>
<path d="M396.757 59.5373L396.784 55.89C397.774 55.3299 398.602 54.2903 399.268 52.7711C399.933 51.2519 400.277 48.9054 400.301 45.7317L400.303 45.3801C400.327 42.2357 400.012 39.9094 399.359 38.4012C398.706 36.8834 397.898 35.8088 396.936 35.1776L396.963 31.5303C399.427 32.3762 401.511 33.9472 403.213 36.2433C404.924 38.5297 405.766 41.6211 405.737 45.5175L405.736 45.664C405.707 49.5994 404.84 52.6945 403.133 54.9492C401.427 57.204 399.302 58.7333 396.757 59.5373Z" fill="url(#paint5_linear_682_13907)"/>
<path d="M378.351 45.8845L378.355 45.4158C378.372 43.0917 379.142 41.2557 380.666 39.9081C382.189 38.5604 384.172 37.8944 386.613 37.91C389.054 37.9257 391.027 38.6171 392.531 39.9842C394.034 41.3512 394.778 43.1969 394.76 45.521L394.757 45.9898C394.74 48.3139 393.969 50.1498 392.446 51.4975C390.922 52.8452 388.94 53.5112 386.498 53.4955C384.057 53.4799 382.085 52.7885 380.581 51.4214C379.077 50.0543 378.334 48.2087 378.351 45.8845ZM383.806 45.1578L383.798 46.1978C383.79 47.3501 384.023 48.2159 384.497 48.7951C384.971 49.3646 385.648 49.6521 386.527 49.6578C387.406 49.6634 388.086 49.3846 388.569 48.8212C389.052 48.2481 389.297 47.3806 389.306 46.2185L389.313 45.1931C389.322 44.0506 389.084 43.1945 388.6 42.625C388.116 42.0555 387.444 41.768 386.585 41.7625C385.725 41.757 385.049 42.0358 384.557 42.5991C384.065 43.1623 383.814 44.0152 383.806 45.1578Z" fill="url(#paint6_linear_682_13907)"/>
<path d="M366.904 42.1341L366.731 45.7512C366.603 48.5336 366.159 50.4839 365.398 51.6021C364.648 52.7106 363.35 53.259 361.504 53.2471C361.065 53.2443 360.665 53.2173 360.304 53.1662C359.953 53.1249 359.67 53.0596 359.456 52.9703L359.487 48.737C359.623 48.7965 359.759 48.8413 359.896 48.8715C360.042 48.892 360.203 48.9028 360.379 48.9039C360.975 48.9077 361.382 48.6369 361.601 48.0914C361.83 47.546 361.978 46.5801 362.047 45.1938L362.362 38.2084L375.633 38.2935L375.525 53.0148L370.164 52.9804L370.244 42.1555L366.904 42.1341Z" fill="url(#paint7_linear_682_13907)"/>
<path d="M341.92 48.4929C341.932 46.8718 342.571 45.6454 343.837 44.8137C345.103 43.9722 346.722 43.5577 348.695 43.5704L351.786 43.5902L351.791 42.8285C351.796 42.2524 351.657 41.7974 351.377 41.4635C351.096 41.1199 350.599 40.9458 349.886 40.9413C349.193 40.9368 348.689 41.0752 348.374 41.3564C348.06 41.6376 347.901 42.0028 347.897 42.452L347.895 42.7449L342.812 42.6977L342.815 42.4047C342.825 40.979 343.512 39.8359 344.876 38.9755C346.24 38.1151 348.025 37.692 350.232 37.7061C352.469 37.7205 354.179 38.1514 355.364 38.9988C356.559 39.8463 357.15 41.1734 357.137 42.98L357.088 49.6302C357.084 50.2161 357.133 50.778 357.237 51.3158C357.35 51.8536 357.503 52.3087 357.695 52.681L357.694 52.9008L352.406 52.8668C352.281 52.6414 352.175 52.3624 352.09 52.0298C352.014 51.6876 351.958 51.3454 351.922 51.0034C351.625 51.5483 351.05 52.0329 350.197 52.4572C349.344 52.8814 348.288 53.0895 347.028 53.0814C345.515 53.0717 344.282 52.6878 343.33 51.9297C342.379 51.1619 341.909 50.0163 341.92 48.4929ZM347.256 48.0583C347.251 48.615 347.404 49.0603 347.715 49.3943C348.025 49.7283 348.516 49.8975 349.19 49.9018C349.923 49.9065 350.53 49.676 351.012 49.2104C351.504 48.735 351.752 48.1506 351.757 47.4573L351.765 46.3587L349.89 46.3467C348.992 46.3409 348.327 46.4783 347.895 46.7587C347.473 47.0392 347.26 47.4724 347.256 48.0583Z" fill="url(#paint8_linear_682_13907)"/>
<path d="M318.683 52.65L318.791 37.9287L326.203 37.9762L328.438 44.7876C328.61 45.3356 328.724 45.7318 328.781 45.9763C328.838 46.2111 328.89 46.4556 328.937 46.7098L329.039 46.7104C329.09 46.4568 329.145 46.2131 329.206 45.9791C329.276 45.7451 329.391 45.3504 329.551 44.7947L331.872 38.0126L339.211 38.0597L339.102 52.7809L333.829 52.7471L333.887 44.8958C333.891 44.3392 333.899 43.8997 333.911 43.5776C333.933 43.2554 333.95 42.9577 333.961 42.6843L333.844 42.6836C333.784 42.9566 333.708 43.2442 333.618 43.5464C333.538 43.8486 333.403 44.2872 333.213 44.8622L330.518 52.7259L326.446 52.6998L323.838 44.7727C323.676 44.2639 323.552 43.848 323.467 43.5252C323.391 43.1927 323.325 42.8895 323.268 42.6157L323.137 42.6149C323.154 42.8884 323.167 43.1766 323.174 43.4794C323.191 43.7822 323.198 44.212 323.194 44.7686L323.136 52.6786L318.683 52.65Z" fill="url(#paint9_linear_682_13907)"/>
<path d="M315.802 59.0336C313.308 58.2071 311.215 56.6506 309.523 54.3643C307.841 52.0781 307.014 48.9673 307.043 45.0318L307.044 44.8854C307.072 41.0671 307.91 38.0158 309.558 35.7314C311.205 33.4372 313.356 31.8641 316.009 31.0119L315.982 34.6593C315.02 35.2781 314.202 36.3422 313.527 37.8516C312.851 39.3512 312.502 41.6732 312.479 44.8177L312.477 45.1692C312.453 48.343 312.748 50.6789 313.362 52.177C313.977 53.6654 314.799 54.7302 315.829 55.3716L315.802 59.0336Z" fill="url(#paint10_linear_682_13907)"/>
<path d="M289.737 52.4647L289.778 46.8838L289.885 46.3571L289.946 38.0663L289.799 38.0654L285.8 44.075L291.527 44.1117L292.304 44.0435L297.211 44.0749L297.181 48.2203L280.57 48.1138L280.597 44.4518L290.231 31.1393L295.168 31.1709L295.011 52.4985L289.737 52.4647Z" fill="url(#paint11_linear_682_13907)"/>
<path d="M270.003 52.3382L270.123 35.9763L264.792 37.7732L264.825 33.3495L272.021 30.8468L275.698 30.8704L275.54 52.3737L270.003 52.3382Z" fill="url(#paint12_linear_682_13907)"/>
<path d="M245.829 46.1773L245.833 45.5328L251.37 45.583L251.366 46.1249C251.36 46.9745 251.565 47.6204 251.982 48.0625C252.399 48.5047 253.002 48.7283 253.793 48.7333C254.614 48.7386 255.221 48.469 255.616 47.9247C256.011 47.3706 256.212 46.4881 256.221 45.2772C256.23 44.076 256.031 43.2202 255.625 42.7098C255.228 42.1897 254.654 41.9272 253.902 41.9224C253.297 41.9185 252.788 42.0519 252.376 42.3227C251.964 42.5838 251.619 42.9283 251.343 43.3562L246.535 41.8019L247.714 30.8668L260.78 30.9506L260.748 35.2425L251.931 35.1274L251.506 39.1237C251.947 38.8336 252.476 38.5928 253.093 38.4015C253.71 38.2101 254.409 38.1169 255.19 38.122C257.104 38.1342 258.687 38.7303 259.938 39.9103C261.189 41.0902 261.806 42.7934 261.79 45.0199C261.773 47.3538 261.08 49.2098 259.713 50.5877C258.355 51.956 256.387 52.6319 253.809 52.6153C251.26 52.599 249.287 52.0053 247.889 50.8342C246.501 49.6534 245.814 48.1011 245.829 46.1773Z" fill="url(#paint13_linear_682_13907)"/>
<path d="M236.894 49.4892C236.9 48.6689 237.174 47.9773 237.715 47.4143C238.266 46.8514 239.05 46.5733 240.065 46.5798C241.081 46.5863 241.855 46.8745 242.388 47.4443C242.931 48.0142 243.199 48.7093 243.193 49.5296C243.187 50.3499 242.909 51.0463 242.357 51.619C241.816 52.1819 241.038 52.4601 240.022 52.4536C239.007 52.4471 238.227 52.154 237.685 51.5744C237.152 50.9948 236.888 50.2997 236.894 49.4892Z" fill="url(#paint14_linear_682_13907)"/>
<path d="M224.975 52.0491L225.096 35.6873L219.765 37.4842L219.798 33.0605L226.994 30.5578L230.671 30.5813L230.512 52.0847L224.975 52.0491Z" fill="url(#paint15_linear_682_13907)"/>
<path d="M114.187 133.038L110.246 127.395L112.813 125.033L118.532 133.068L114.187 133.038ZM107.819 125.242L110.651 125.262L113.967 120.573L118.02 120.601L112.622 128.083L107.8 128.05L107.819 125.242ZM109.719 120.543L109.634 133.007L105.862 132.981L105.947 120.518L109.719 120.543Z" fill="white"/>
<path d="M90.4222 126.831L90.4249 126.441C90.4382 124.496 91.0552 122.95 92.2757 121.802C93.4961 120.655 95.087 120.088 97.0482 120.102C99.0094 120.115 100.588 120.704 101.785 121.868C102.989 123.032 103.585 124.586 103.572 126.531L103.569 126.922C103.556 128.867 102.939 130.413 101.718 131.56C100.506 132.707 98.919 133.274 96.9578 133.261C94.9966 133.247 93.4136 132.659 92.2091 131.495C91.0045 130.331 90.4088 128.776 90.4222 126.831ZM94.2713 126.284L94.2661 127.041C94.2585 128.14 94.4887 128.987 94.9566 129.585C95.4246 130.174 96.098 130.472 96.9769 130.478C97.8558 130.484 98.5292 130.195 98.997 129.613C99.4731 129.022 99.7149 128.177 99.7225 127.078L99.7277 126.322C99.7352 125.223 99.501 124.379 99.0249 123.79C98.5569 123.201 97.8916 122.903 97.029 122.897C96.1582 122.891 95.4808 123.18 94.9966 123.762C94.5206 124.345 94.2788 125.185 94.2713 126.284Z" fill="white"/>
<path d="M77.8967 123.144L77.916 120.337L89.2073 120.415L89.188 123.222L85.4283 123.196L85.362 132.84L81.5901 132.814L81.6564 123.17L77.8967 123.144Z" fill="white"/>
<path d="M64.4163 126.653L64.419 126.262C64.4323 124.333 65.0329 122.791 66.2209 121.636C67.417 120.48 68.9509 119.909 70.8226 119.922C72.7024 119.935 74.1635 120.494 75.2057 121.6C76.2561 122.706 76.7746 124.223 76.7614 126.152L76.7528 127.397L66.8165 127.328L66.8316 125.131L73.0693 125.174L73.0709 124.942C73.0754 124.283 72.8798 123.728 72.4842 123.278C72.0966 122.828 71.5326 122.6 70.792 122.595C69.9457 122.589 69.2966 122.898 68.8447 123.521C68.4009 124.145 68.1755 124.978 68.1683 126.019L68.1628 126.825C68.1554 127.907 68.3855 128.767 68.8531 129.405C69.3289 130.035 70.0307 130.353 70.9584 130.36C71.6013 130.364 72.1557 130.213 72.6217 129.907C73.0958 129.601 73.4727 129.238 73.7523 128.816L76.5375 130.313C76.133 131.14 75.4529 131.815 74.4971 132.337C73.5414 132.852 72.3719 133.104 70.9884 133.094C68.9214 133.08 67.306 132.487 66.1422 131.316C64.9783 130.144 64.403 128.589 64.4163 126.653Z" fill="white"/>
<path d="M55.0157 122.988L54.8445 126.588C54.7392 128.882 54.3944 130.507 53.81 131.464C53.2338 132.412 52.2092 132.881 50.7363 132.871C50.4352 132.869 50.1464 132.846 49.87 132.804C49.5936 132.769 49.3661 132.715 49.1875 132.64L49.2081 129.65C49.338 129.699 49.4639 129.737 49.5858 129.762C49.7158 129.779 49.8582 129.788 50.0128 129.789C50.5662 129.793 50.9423 129.535 51.1412 129.016C51.3483 128.488 51.4808 127.557 51.5388 126.223L51.8246 120.158L62.1271 120.229L62.0416 132.68L58.2819 132.654L58.3482 123.011L55.0157 122.988Z" fill="white"/>
<path d="M44.7901 132.561L40.8493 126.919L43.4169 124.556L49.1357 132.591L44.7901 132.561ZM38.4227 124.766L41.2546 124.785L44.5706 120.096L48.6233 120.124L43.225 127.607L38.4034 127.573L38.4227 124.766ZM40.3227 120.067L40.237 132.53L36.4651 132.504L36.5508 120.041L40.3227 120.067Z" fill="white"/>
<path d="M141.123 104.222L141.209 91.7715L144.956 91.7972L144.915 97.8152C144.913 98.0756 144.907 98.3685 144.897 98.694C144.887 99.0113 144.864 99.296 144.83 99.548L144.94 99.561C145.055 99.3258 145.175 99.0946 145.299 98.8676C145.422 98.6406 145.579 98.3446 145.768 97.9797L149.29 91.827L153.123 91.8533L153.037 104.304L149.29 104.278L149.331 98.2117C149.333 97.9513 149.335 97.6665 149.337 97.3573C149.348 97.0481 149.362 96.7633 149.38 96.503L149.258 96.5022C149.15 96.7375 149.039 96.9646 148.923 97.1835C148.816 97.4025 148.668 97.6904 148.478 98.0472L144.956 104.249L141.123 104.222Z" fill="white"/>
<path d="M127.979 94.4882L127.998 91.6807L139.289 91.7583L139.27 94.5658L135.51 94.54L135.444 104.183L131.672 104.157L131.738 94.514L127.979 94.4882Z" fill="white"/>
<path d="M114.598 97.9974L114.601 97.6068C114.614 95.6374 115.211 94.0871 116.39 92.9559C117.57 91.8165 119.137 91.2535 121.09 91.2669C122.961 91.2798 124.387 91.7372 125.365 92.6391C126.352 93.5411 126.877 94.6597 126.941 95.9948L126.952 96.2268L123.29 96.2016L123.291 96.0429C123.295 95.457 123.111 94.9756 122.739 94.5987C122.376 94.2137 121.824 94.0186 121.083 94.0135C120.229 94.0077 119.575 94.3124 119.124 94.9278C118.68 95.5352 118.454 96.3718 118.447 97.4379L118.442 98.2069C118.435 99.273 118.64 100.121 119.059 100.75C119.486 101.372 120.143 101.685 121.03 101.692C121.828 101.697 122.399 101.502 122.743 101.105C123.088 100.709 123.262 100.234 123.266 99.6805L123.267 99.5341L126.917 99.5591L126.915 99.7422C126.898 101.069 126.378 102.184 125.354 103.089C124.331 103.993 122.883 104.439 121.011 104.426C119.067 104.413 117.508 103.828 116.336 102.673C115.164 101.517 114.585 99.9586 114.598 97.9974Z" fill="white"/>
<path d="M99.7757 97.8949L99.7784 97.5042C99.7918 95.5593 100.409 94.0132 101.629 92.866C102.85 91.7187 104.44 91.1519 106.402 91.1653C108.363 91.1788 109.942 91.7675 111.138 92.9313C112.343 94.0952 112.938 95.6496 112.925 97.5946L112.922 97.9852C112.909 99.9301 112.292 101.476 111.072 102.623C109.859 103.771 108.272 104.338 106.311 104.324C104.35 104.311 102.767 103.722 101.563 102.558C100.358 101.394 99.7623 99.8398 99.7757 97.8949ZM103.625 97.3476L103.62 98.1044C103.612 99.203 103.842 100.051 104.31 100.648C104.778 101.237 105.452 101.535 106.33 101.541C107.209 101.547 107.883 101.259 108.351 100.676C108.827 100.085 109.068 99.2405 109.076 98.1419L109.081 97.3851C109.089 96.2865 108.854 95.4425 108.378 94.8533C107.91 94.2641 107.245 93.9666 106.382 93.9607C105.512 93.9547 104.834 94.243 104.35 94.8256C103.874 95.4083 103.632 96.249 103.625 97.3476Z" fill="white"/>
<path d="M85.8047 91.3906L89.5644 91.4165L89.532 96.1283L93.7067 96.1569L93.7391 91.4451L97.4988 91.471L97.4132 103.922L93.6535 103.896L93.6876 98.9401L89.5129 98.9114L89.4788 103.867L85.7191 103.842L85.8047 91.3906Z" fill="white"/>
<path d="M74.1015 97.548L74.0988 97.9386C74.0911 99.0535 74.3132 99.8973 74.765 100.47C75.2249 101.043 75.9066 101.332 76.8099 101.339C77.7132 101.345 78.3946 101.065 78.8543 100.498C79.322 99.9318 79.5597 99.0911 79.5674 97.9762L79.5701 97.5856C79.5773 96.5358 79.355 95.7245 78.9032 95.1518C78.4515 94.5708 77.7821 94.2773 76.895 94.2712C75.9836 94.265 75.2899 94.5491 74.8139 95.1237C74.3462 95.6901 74.1087 96.4982 74.1015 97.548ZM77.8907 91.4948C79.6159 91.5067 80.9711 92.0734 81.9563 93.1952C82.9414 94.3169 83.4277 95.7891 83.4152 97.612L83.4125 98.0026C83.3997 99.8662 82.7832 101.355 81.5629 102.47C80.3427 103.585 78.756 104.135 76.8029 104.122C74.7929 104.108 73.1977 103.532 72.0173 102.392C70.837 101.253 70.2552 99.4585 70.2721 97.009L70.2823 95.5198C70.3018 92.6878 70.8374 90.5349 71.8892 89.0609C72.941 87.587 74.6482 86.6791 77.0106 86.3373C78.3955 86.1352 79.1942 85.9576 79.4069 85.8044C79.6277 85.6432 79.7511 85.4487 79.7771 85.221L83.0851 85.2437C83.0357 86.513 82.6753 87.4464 82.0039 88.044C81.3324 88.6416 80.0844 89.0562 78.2599 89.2878C76.4435 89.5195 75.1789 89.9828 74.4661 90.6778C73.7614 91.3728 73.3555 92.4117 73.2483 93.7945L73.3827 93.7832C73.7864 93.0698 74.3721 92.5083 75.1399 92.0985C75.9159 91.6888 76.8328 91.4875 77.8907 91.4948Z" fill="white"/>
<path d="M56.3128 97.597L56.3155 97.2064C56.3288 95.2777 56.9294 93.7356 58.1174 92.58C59.3135 91.4244 60.8474 90.8531 62.7191 90.866C64.5989 90.8789 66.06 91.4383 67.1022 92.5441C68.1526 93.6499 68.6711 95.1672 68.6579 97.0959L68.6493 98.341L58.713 98.2727L58.7281 96.0755L64.9658 96.1183L64.9674 95.8864C64.9719 95.2273 64.7763 94.6725 64.3806 94.2222C63.9931 93.7719 63.4291 93.5442 62.6885 93.5392C61.8422 93.5333 61.1931 93.8422 60.7412 94.4657C60.2974 95.0893 60.072 95.922 60.0648 96.9636L60.0593 97.7692C60.0518 98.8516 60.2819 99.7117 60.7496 100.35C61.2254 100.98 61.9272 101.298 62.8549 101.304C63.4978 101.309 64.0522 101.158 64.5182 100.852C64.9923 100.546 65.3692 100.182 65.6488 99.7608L68.434 101.257C68.0295 102.084 67.3494 102.759 66.3936 103.282C65.4379 103.796 64.2684 104.048 62.8849 104.039C60.8179 104.025 59.2025 103.432 58.0386 102.26C56.8748 101.088 56.2995 99.5338 56.3128 97.597Z" fill="white"/>
<path d="M41.9517 108.655L42.0724 91.0898L45.6367 91.1143L45.688 92.5429L45.749 92.5434C46.029 92.057 46.4957 91.6574 47.1489 91.3445C47.8021 91.0234 48.5316 90.8657 49.3372 90.8712C50.9404 90.8822 52.2263 91.4567 53.1951 92.5945C54.1639 93.7243 54.6417 95.2535 54.6285 97.1821L54.6258 97.5727C54.6126 99.4851 54.1179 101.012 53.1416 102.152C52.1654 103.285 50.892 103.846 49.3214 103.835C48.5157 103.83 47.8005 103.691 47.1758 103.418C46.5591 103.145 46.0856 102.775 45.7551 102.309L45.7113 108.681L41.9517 108.655ZM45.7753 99.3674C45.9513 99.8162 46.2578 100.213 46.6949 100.558C47.1321 100.895 47.6477 101.065 48.2417 101.069C49.0962 101.075 49.733 100.782 50.1521 100.191C50.5712 99.5998 50.7844 98.7793 50.7916 97.7295L50.7967 96.9849C50.8039 95.9351 50.602 95.1199 50.191 94.5393C49.7799 93.9505 49.1472 93.6532 48.2927 93.6473C47.6661 93.643 47.1442 93.8022 46.7269 94.1248C46.3097 94.4475 46.0019 94.8279 45.8035 95.266L45.7753 99.3674Z" fill="white"/>
<path d="M28.844 93.8066L28.8633 90.999L40.1545 91.0766L40.1352 93.8842L36.3755 93.8583L36.3093 103.502L32.5374 103.476L32.6037 93.8324L28.844 93.8066Z" fill="white"/>
<path d="M14.4124 97.3089L14.4151 96.9183C14.4285 94.9734 15.0454 93.4273 16.2659 92.28C17.4864 91.1328 19.0772 90.5659 21.0384 90.5794C22.9996 90.5929 24.5785 91.1815 25.7749 92.3454C26.9795 93.5093 27.5751 95.0637 27.5618 97.0086L27.5591 97.3993C27.5457 99.3442 26.9288 100.89 25.7083 102.038C24.496 103.185 22.9092 103.752 20.948 103.738C18.9868 103.725 17.4039 103.136 16.1993 101.972C14.9947 100.808 14.3991 99.2539 14.4124 97.3089ZM18.2615 96.7616L18.2563 97.5184C18.2487 98.6171 18.4789 99.465 18.9468 100.062C19.4148 100.651 20.0882 100.949 20.9671 100.955C21.846 100.961 22.5194 100.673 22.9873 100.09C23.4634 99.4993 23.7052 98.6545 23.7127 97.5559L23.7179 96.7991C23.7255 95.7005 23.4912 94.8566 23.0151 94.2674C22.5471 93.6782 21.8818 93.3807 21.0192 93.3747C20.1485 93.3688 19.471 93.6571 18.9869 94.2397C18.5108 94.8224 18.269 95.663 18.2615 96.7616Z" fill="white"/>
<path d="M0.587891 90.8047L12.1355 90.884L12.0499 103.335L8.29024 103.309L8.3565 93.6658L4.32828 93.6381L4.26201 103.281L0.502334 103.256L0.587891 90.8047Z" fill="white"/>
<path d="M349.899 111.63L349.984 99.1795L353.732 99.2053L353.691 105.223C353.689 105.484 353.683 105.777 353.672 106.102C353.662 106.419 353.64 106.704 353.605 106.956L353.715 106.969C353.831 106.734 353.95 106.503 354.074 106.276C354.198 106.049 354.354 105.753 354.544 105.388L358.065 99.2351L361.898 99.2614L361.813 111.712L358.065 111.687L358.107 105.62C358.109 105.359 358.111 105.075 358.113 104.765C358.123 104.456 358.137 104.171 358.155 103.911L358.033 103.91C357.926 104.146 357.814 104.373 357.699 104.592C357.592 104.811 357.443 105.098 357.253 105.455L353.732 111.657L349.899 111.63ZM355.969 95.2289C356.571 95.233 357.064 95.0614 357.449 94.7141C357.834 94.3587 358.127 93.787 358.328 92.9989L360.616 94.0401C360.217 95.2174 359.605 96.0717 358.779 96.6032C357.962 97.1266 357.02 97.3846 355.954 97.3773C354.888 97.3699 353.95 97.1031 353.14 96.5766C352.329 96.0421 351.729 95.1753 351.339 93.9763L353.738 92.9552C353.92 93.7703 354.188 94.354 354.544 94.7064C354.908 95.0507 355.383 95.2248 355.969 95.2289Z" fill="white"/>
<path d="M335.004 111.528L335.09 99.0771L338.837 99.1029L338.796 105.121C338.794 105.381 338.788 105.674 338.778 106C338.767 106.317 338.745 106.602 338.711 106.854L338.821 106.867C338.936 106.631 339.056 106.4 339.179 106.173C339.303 105.946 339.46 105.65 339.649 105.285L343.171 99.1327L347.004 99.159L346.918 111.61L343.171 111.584L343.212 105.517C343.214 105.257 343.216 104.972 343.218 104.663C343.228 104.354 343.243 104.069 343.261 103.809L343.139 103.808C343.031 104.043 342.92 104.27 342.804 104.489C342.697 104.708 342.549 104.996 342.359 105.353L338.837 111.554L335.004 111.528Z" fill="white"/>
<path d="M320.026 116.54L320.147 98.9746L323.711 98.9991L323.762 100.428L323.823 100.428C324.103 99.9418 324.57 99.5421 325.223 99.2292C325.876 98.9082 326.606 98.7504 327.411 98.756C329.015 98.767 330.301 99.3414 331.269 100.479C332.238 101.609 332.716 103.138 332.703 105.067L332.7 105.457C332.687 107.37 332.192 108.896 331.216 110.037C330.24 111.17 328.966 111.731 327.396 111.72C326.59 111.714 325.875 111.575 325.25 111.302C324.633 111.03 324.16 110.66 323.829 110.194L323.786 116.566L320.026 116.54ZM323.85 107.252C324.026 107.701 324.332 108.098 324.769 108.443C325.206 108.779 325.722 108.95 326.316 108.954C327.17 108.96 327.807 108.667 328.226 108.076C328.645 107.485 328.859 106.664 328.866 105.614L328.871 104.87C328.878 103.82 328.676 103.005 328.265 102.424C327.854 101.835 327.221 101.538 326.367 101.532C325.74 101.528 325.218 101.687 324.801 102.01C324.384 102.332 324.076 102.713 323.878 103.151L323.85 107.252Z" fill="white"/>
<path d="M304.623 105.277L304.626 104.886C304.639 102.941 305.256 101.395 306.477 100.248C307.697 99.1006 309.288 98.5337 311.249 98.5472C313.211 98.5606 314.789 99.1493 315.986 100.313C317.19 101.477 317.786 103.031 317.773 104.976L317.77 105.367C317.757 107.312 317.14 108.858 315.919 110.005C314.707 111.153 313.12 111.72 311.159 111.706C309.198 111.693 307.615 111.104 306.41 109.94C305.206 108.776 304.61 107.222 304.623 105.277ZM308.472 104.729L308.467 105.486C308.46 106.585 308.69 107.433 309.158 108.03C309.626 108.619 310.299 108.917 311.178 108.923C312.057 108.929 312.73 108.641 313.198 108.058C313.674 107.467 313.916 106.622 313.924 105.524L313.929 104.767C313.936 103.668 313.702 102.824 313.226 102.235C312.758 101.646 312.093 101.348 311.23 101.343C310.359 101.337 309.682 101.625 309.198 102.207C308.722 102.79 308.48 103.631 308.472 104.729Z" fill="white"/>
<path d="M295.221 101.611L295.05 105.211C294.944 107.505 294.599 109.13 294.015 110.087C293.439 111.035 292.414 111.504 290.941 111.494C290.64 111.492 290.352 111.469 290.075 111.427C289.799 111.392 289.571 111.338 289.393 111.263L289.413 108.273C289.543 108.322 289.669 108.36 289.791 108.385C289.921 108.402 290.063 108.411 290.218 108.413C290.771 108.416 291.147 108.158 291.346 107.639C291.553 107.111 291.686 106.181 291.744 104.846L292.03 98.7812L302.332 98.852L302.247 111.303L298.487 111.277L298.553 101.634L295.221 101.611Z" fill="white"/>
<path d="M275.574 107.47C275.583 106.11 276.115 105.085 277.17 104.392C278.232 103.691 279.582 103.342 281.218 103.346L283.805 103.363L283.81 102.643C283.814 102.09 283.675 101.645 283.392 101.31C283.11 100.966 282.619 100.792 281.919 100.787C281.219 100.782 280.713 100.921 280.402 101.204C280.099 101.478 279.946 101.827 279.943 102.25L279.942 102.458L276.304 102.433L276.306 102.213C276.314 101.074 276.853 100.146 277.924 99.4288C278.995 98.7037 280.393 98.3471 282.118 98.359C283.868 98.371 285.217 98.7302 286.164 99.4366C287.111 100.143 287.58 101.241 287.57 102.73L287.531 108.394C287.527 108.899 287.569 109.383 287.655 109.848C287.749 110.304 287.877 110.691 288.038 111.01L288.036 111.205L284.325 111.18C284.221 110.992 284.133 110.751 284.062 110.458C283.991 110.156 283.94 109.859 283.909 109.565C283.654 110.036 283.175 110.456 282.472 110.825C281.77 111.195 280.898 111.376 279.856 111.369C278.611 111.36 277.584 111.032 276.775 110.383C275.965 109.726 275.565 108.755 275.574 107.47ZM279.336 107.178C279.332 107.723 279.484 108.156 279.791 108.475C280.098 108.795 280.581 108.957 281.24 108.961C281.948 108.966 282.548 108.742 283.039 108.29C283.531 107.829 283.778 107.286 283.783 106.659L283.79 105.524L281.923 105.511C281.044 105.505 280.392 105.643 279.967 105.925C279.55 106.207 279.339 106.625 279.336 107.178Z" fill="white"/>
<path d="M270.396 111.084L264.398 102.851L267.403 100.736L275.108 111.116L270.396 111.084ZM261.876 100.38L264.781 100.4L270.421 93.3099L274.559 93.3384L266.384 103.414L261.855 103.383L261.876 100.38ZM259.727 111.01L259.85 93.2373L263.744 93.2641L263.621 111.037L259.727 111.01Z" fill="white"/>
<path d="M395.289 245.56C395.298 244.201 395.83 243.175 396.885 242.483C397.947 241.782 399.297 241.433 400.932 241.436L403.52 241.454L403.525 240.734C403.529 240.181 403.39 239.736 403.107 239.401C402.825 239.057 402.333 238.883 401.634 238.878C400.934 238.873 400.428 239.012 400.117 239.295C399.814 239.569 399.661 239.918 399.658 240.341L399.657 240.549L396.019 240.524L396.021 240.304C396.028 239.165 396.568 238.237 397.639 237.52C398.71 236.795 400.108 236.438 401.833 236.45C403.583 236.462 404.931 236.821 405.879 237.527C406.826 238.234 407.295 239.332 407.284 240.821L407.245 246.485C407.242 246.989 407.283 247.474 407.37 247.938C407.464 248.395 407.592 248.782 407.752 249.101L407.751 249.296L404.04 249.27C403.936 249.083 403.848 248.842 403.777 248.548C403.705 248.247 403.655 247.949 403.624 247.656C403.369 248.126 402.89 248.546 402.187 248.916C401.485 249.285 400.613 249.467 399.571 249.459C398.326 249.451 397.299 249.122 396.489 248.474C395.68 247.817 395.28 246.846 395.289 245.56ZM399.051 245.269C399.047 245.814 399.198 246.246 399.505 246.566C399.813 246.885 400.296 247.047 400.955 247.052C401.663 247.057 402.262 246.833 402.754 246.381C403.245 245.92 403.493 245.377 403.498 244.75L403.505 243.615L401.638 243.602C400.759 243.596 400.107 243.734 399.682 244.016C399.265 244.298 399.054 244.715 399.051 245.269Z" fill="white"/>
<path d="M390.613 252.474L390.636 249.179L383.055 249.126L383.033 252.422L379.505 252.398L379.547 246.295L394.183 246.395L394.141 252.499L390.613 252.474ZM385.221 239.498L385.08 242.255C385.033 243.232 384.946 244.073 384.819 244.781C384.7 245.48 384.537 246.06 384.331 246.523L380.754 246.498C381.034 246.028 381.262 245.391 381.439 244.586C381.623 243.774 381.744 242.721 381.802 241.427L382.03 236.668L392.418 236.739L392.333 249.19L388.561 249.164L388.627 239.521L385.221 239.498Z" fill="white"/>
<path d="M365.418 242.963L365.421 242.573C365.434 240.628 366.051 239.082 367.272 237.934C368.492 236.787 370.083 236.22 372.044 236.234C374.005 236.247 375.584 236.836 376.781 238C377.985 239.164 378.581 240.718 378.568 242.663L378.565 243.054C378.552 244.998 377.935 246.545 376.714 247.692C375.502 248.839 373.915 249.406 371.954 249.393C369.993 249.379 368.41 248.79 367.205 247.626C366.001 246.463 365.405 244.908 365.418 242.963ZM369.267 242.416L369.262 243.173C369.255 244.271 369.485 245.119 369.953 245.717C370.421 246.306 371.094 246.603 371.973 246.609C372.852 246.615 373.525 246.327 373.993 245.744C374.469 245.154 374.711 244.309 374.719 243.21L374.724 242.453C374.731 241.355 374.497 240.511 374.021 239.922C373.553 239.333 372.888 239.035 372.025 239.029C371.154 239.023 370.477 239.311 369.993 239.894C369.517 240.477 369.275 241.317 369.267 242.416Z" fill="white"/>
<path d="M356.018 239.297L355.846 242.897C355.741 245.192 355.396 246.817 354.812 247.773C354.236 248.721 353.211 249.19 351.738 249.18C351.437 249.178 351.148 249.156 350.872 249.113C350.596 249.079 350.368 249.024 350.189 248.95L350.21 245.959C350.34 246.009 350.466 246.046 350.588 246.072C350.718 246.089 350.86 246.098 351.015 246.099C351.568 246.103 351.944 245.845 352.143 245.326C352.35 244.798 352.483 243.867 352.541 242.533L352.827 236.468L363.129 236.539L363.044 248.989L359.284 248.964L359.35 239.32L356.018 239.297Z" fill="white"/>
<path d="M335.922 242.76L335.925 242.369C335.938 240.425 336.555 238.878 337.776 237.731C338.996 236.584 340.587 236.017 342.548 236.031C344.509 236.044 346.088 236.633 347.285 237.797C348.489 238.96 349.085 240.515 349.072 242.46L349.069 242.85C349.055 244.795 348.439 246.341 347.218 247.489C346.006 248.636 344.419 249.203 342.458 249.189C340.497 249.176 338.914 248.587 337.709 247.423C336.504 246.259 335.909 244.705 335.922 242.76ZM339.771 242.213L339.766 242.97C339.759 244.068 339.989 244.916 340.457 245.513C340.925 246.103 341.598 246.4 342.477 246.406C343.356 246.412 344.029 246.124 344.497 245.541C344.973 244.95 345.215 244.106 345.222 243.007L345.228 242.25C345.235 241.152 345.001 240.308 344.525 239.719C344.057 239.129 343.392 238.832 342.529 238.826C341.658 238.82 340.981 239.108 340.497 239.691C340.021 240.274 339.779 241.114 339.771 242.213Z" fill="white"/>
<path d="M325.734 236.281L334.694 236.343L334.675 239.15L329.475 239.115L329.408 248.758L325.649 248.732L325.734 236.281Z" fill="white"/>
<path d="M304.055 242.541L304.058 242.151C304.071 240.206 304.688 238.66 305.908 237.512C307.129 236.365 308.72 235.798 310.681 235.812C312.642 235.825 314.221 236.414 315.418 237.578C316.622 238.742 317.218 240.296 317.204 242.241L317.202 242.632C317.188 244.577 316.571 246.123 315.351 247.27C314.139 248.417 312.552 248.984 310.591 248.971C308.629 248.957 307.046 248.369 305.842 247.205C304.637 246.041 304.042 244.486 304.055 242.541ZM307.904 241.994L307.899 242.751C307.891 243.849 308.122 244.697 308.589 245.295C309.057 245.884 309.731 246.182 310.61 246.188C311.489 246.194 312.162 245.905 312.63 245.322C313.106 244.732 313.348 243.887 313.355 242.788L313.36 242.032C313.368 240.933 313.134 240.089 312.658 239.5C312.19 238.911 311.524 238.613 310.662 238.607C309.791 238.601 309.114 238.889 308.629 239.472C308.153 240.055 307.912 240.895 307.904 241.994Z" fill="white"/>
<path d="M290.608 248.491L290.693 236.04L297.285 236.085C298.864 236.096 300.026 236.369 300.771 236.903C301.516 237.429 301.885 238.204 301.878 239.23C301.872 240.027 301.644 240.665 301.193 241.142C300.751 241.611 300.138 241.924 299.356 242.081L299.355 242.118C300.274 242.262 300.992 242.589 301.509 243.097C302.027 243.597 302.283 244.266 302.277 245.104C302.269 246.195 301.877 247.042 301.1 247.647C300.331 248.253 299.185 248.55 297.663 248.539L290.608 248.491ZM294.345 241.058L296.433 241.072C297.019 241.076 297.443 240.957 297.705 240.715C297.975 240.473 298.112 240.115 298.115 239.643C298.118 239.22 297.986 238.894 297.719 238.664C297.452 238.434 297.03 238.318 296.452 238.314L294.364 238.299L294.345 241.058ZM294.31 246.258L296.702 246.274C297.321 246.279 297.777 246.152 298.072 245.893C298.367 245.627 298.516 245.253 298.519 244.773C298.523 244.301 298.379 243.934 298.087 243.672C297.804 243.401 297.35 243.264 296.723 243.259L294.33 243.243L294.31 246.258Z" fill="white"/>
<path d="M277.465 238.758L277.484 235.95L288.776 236.028L288.756 238.835L284.997 238.809L284.93 248.453L281.158 248.427L281.225 238.784L277.465 238.758Z" fill="white"/>
<path d="M264.084 242.267L264.087 241.876C264.101 239.907 264.697 238.357 265.877 237.225C267.057 236.086 268.623 235.523 270.576 235.536C272.448 235.549 273.873 236.007 274.851 236.909C275.838 237.811 276.363 238.929 276.427 240.264L276.438 240.496L272.776 240.471L272.777 240.312C272.781 239.727 272.597 239.245 272.226 238.868C271.862 238.483 271.31 238.288 270.569 238.283C269.715 238.277 269.062 238.582 268.61 239.197C268.166 239.805 267.941 240.641 267.933 241.707L267.928 242.476C267.921 243.543 268.127 244.39 268.545 245.02C268.973 245.641 269.63 245.955 270.517 245.961C271.314 245.967 271.885 245.771 272.23 245.375C272.574 244.978 272.748 244.503 272.752 243.95L272.753 243.804L276.403 243.829L276.402 244.012C276.384 245.338 275.864 246.454 274.841 247.358C273.817 248.262 272.37 248.708 270.498 248.695C268.553 248.682 266.994 248.098 265.822 246.942C264.65 245.787 264.071 244.228 264.084 242.267Z" fill="white"/>
<path d="M250.637 248.217L250.723 235.766L257.314 235.811C258.893 235.822 260.055 236.094 260.8 236.628C261.545 237.154 261.914 237.93 261.907 238.955C261.902 239.753 261.673 240.39 261.223 240.867C260.78 241.336 260.167 241.649 259.385 241.807L259.385 241.843C260.303 241.988 261.021 242.314 261.539 242.823C262.056 243.323 262.312 243.992 262.306 244.83C262.299 245.92 261.906 246.768 261.129 247.373C260.36 247.978 259.214 248.275 257.693 248.265L250.637 248.217ZM254.375 240.784L256.462 240.798C257.048 240.802 257.472 240.683 257.734 240.44C258.004 240.198 258.141 239.841 258.144 239.369C258.147 238.946 258.015 238.619 257.748 238.39C257.481 238.16 257.059 238.043 256.481 238.039L254.394 238.025L254.375 240.784ZM254.339 245.984L256.732 246C257.35 246.004 257.807 245.877 258.101 245.619C258.396 245.352 258.545 244.979 258.549 244.499C258.552 244.027 258.408 243.66 258.117 243.397C257.834 243.127 257.379 242.989 256.752 242.985L254.36 242.969L254.339 245.984Z" fill="white"/>
<path d="M237.149 253.19L237.192 250.505C237.419 250.572 237.659 250.622 237.911 250.656C238.171 250.699 238.419 250.721 238.655 250.723C239.208 250.726 239.69 250.551 240.099 250.195C240.516 249.84 240.875 249.147 241.175 248.115L241.078 248.115L236.305 235.667L240.077 235.693L242.493 242.826C242.597 243.112 242.677 243.373 242.732 243.609C242.788 243.838 242.839 244.078 242.886 244.331L242.959 244.331C243.01 244.079 243.064 243.839 243.123 243.612C243.19 243.376 243.269 243.112 243.36 242.82L245.863 235.733L249.232 235.756L244.06 249.392C243.521 250.805 242.847 251.838 242.036 252.491C241.234 253.145 240.239 253.468 239.051 253.46C238.628 253.457 238.266 253.434 237.965 253.391C237.664 253.348 237.392 253.281 237.149 253.19Z" fill="white"/>
<path d="M224.439 235.304C224.431 236.558 224.685 237.402 225.203 237.837C225.721 238.272 226.582 238.493 227.787 238.501C228.649 238.507 229.443 238.472 230.168 238.396C230.901 238.319 231.699 238.195 232.563 238.021L232.543 240.939C231.418 241.167 230.445 241.323 229.622 241.407C228.808 241.483 227.933 241.518 226.997 241.511C224.645 241.495 222.976 241.007 221.99 240.048C221.012 239.081 220.53 237.585 220.544 235.558L220.58 230.236L224.474 230.263L224.439 235.304ZM234.569 230.332L234.447 248.105L230.553 248.079L230.675 230.306L234.569 230.332Z" fill="white"/>
<path d="M107.329 35.448C107.186 54.7774 91.4014 70.3465 72.0718 70.2226C52.7423 70.0986 37.1879 54.3285 37.3302 34.9991C37.4725 15.6696 53.2576 0.100496 72.5872 0.224464C91.9167 0.348432 107.471 16.1185 107.329 35.448ZM40.9579 35.0223C40.8304 52.3482 54.7725 66.4838 72.0985 66.5949C89.4246 66.706 103.574 52.7506 103.701 35.4247C103.829 18.0988 89.8865 3.96327 72.5605 3.85215C55.2344 3.74103 41.0855 17.6964 40.9579 35.0223Z" fill="black"/>
<path d="M79.2884 69.5179C71.9525 71.0131 64.3328 70.1175 57.5478 66.9628C50.7629 63.808 45.1701 58.5601 41.5906 51.9897C38.0111 45.4192 36.6335 37.8723 37.66 30.4569C38.6864 23.0415 42.0629 16.1482 47.2937 10.789C52.5245 5.42988 59.3341 1.88721 66.7227 0.68112C74.1113 -0.52497 81.6897 0.669053 88.3453 4.08789C95.0009 7.50674 100.383 12.9703 103.702 19.6764C107.02 26.3826 108.101 33.9781 106.784 41.3478L103.213 40.713C104.393 34.1072 103.425 27.299 100.45 21.2879C97.4754 15.2769 92.651 10.3796 86.6853 7.31513C80.7195 4.25065 73.9266 3.18039 67.3038 4.26147C60.6811 5.34255 54.5773 8.51801 49.8887 13.3217C45.2001 18.1253 42.1736 24.3041 41.2535 30.951C40.3334 37.5978 41.5683 44.3624 44.7767 50.2519C47.9852 56.1413 52.9983 60.8452 59.08 63.673C65.1617 66.5007 71.9916 67.3034 78.5671 65.9632L79.2884 69.5179Z" fill="url(#paint16_linear_682_13907)"/>
<path d="M76.9026 33.2249L76.9183 31.0888C76.9272 29.8844 77.3288 28.9429 78.1232 28.2644C78.9176 27.5859 79.9821 27.2509 81.3167 27.2595C82.6513 27.268 83.7067 27.6166 84.4829 28.3052C85.2673 28.9938 85.655 29.9403 85.6462 31.1447L85.6304 33.2809C85.6213 34.526 85.2194 35.4959 84.4249 36.1907C83.6385 36.8855 82.578 37.2287 81.2434 37.2201C79.9088 37.2116 78.8494 36.8548 78.0652 36.1499C77.2809 35.445 76.8934 34.47 76.9026 33.2249ZM80.136 33.4288C80.1328 33.8682 80.2158 34.2065 80.3849 34.4436C80.5622 34.6807 80.8543 34.8006 81.2612 34.8032C81.6599 34.8058 81.9456 34.6896 82.1183 34.4547C82.299 34.2198 82.391 33.8827 82.3943 33.4433L82.4119 31.0507C82.4151 30.6194 82.3321 30.2812 82.163 30.0359C81.9939 29.7907 81.7059 29.6668 81.299 29.6642C80.8921 29.6616 80.5983 29.7818 80.4174 30.0247C80.2447 30.2678 80.1568 30.605 80.1536 31.0363L80.136 33.4288ZM94.0409 28.3543L83.8419 45.7331L81.4476 44.3017L91.5974 26.9836L94.0409 28.3543ZM89.743 41.7425L89.7588 39.6063C89.7676 38.4019 90.1693 37.4605 90.9637 36.782C91.7581 36.1035 92.8226 35.7685 94.1572 35.777C95.4918 35.7856 96.5472 36.1342 97.3234 36.8228C98.1077 37.5114 98.4955 38.4579 98.4866 39.6623L98.4709 41.7985C98.4617 43.0436 98.0599 44.0135 97.2654 44.7083C96.479 45.4031 95.4185 45.7463 94.0839 45.7377C92.7493 45.7291 91.6898 45.3724 90.9056 44.6675C90.1214 43.9626 89.7339 42.9876 89.743 41.7425ZM92.9765 41.9464C92.9733 42.3858 93.0562 42.7241 93.2254 42.9612C93.4027 43.1983 93.6948 43.3182 94.1017 43.3208C94.5004 43.3233 94.7861 43.2072 94.9587 42.9723C95.1395 42.7374 95.2315 42.4003 95.2347 41.9608L95.2524 39.5683C95.2555 39.137 95.1726 38.7988 95.0035 38.5535C94.8344 38.3083 94.5464 38.1844 94.1395 38.1818C93.7326 38.1792 93.4387 38.2993 93.2579 38.5423C93.0852 38.7854 92.9973 39.1225 92.9941 39.5538L92.9765 41.9464Z" fill="url(#paint17_linear_682_13907)"/>
<path d="M67.529 45.1888L67.6299 31.4929L63.2974 32.9911L63.3238 29.4023L69.309 27.2678L72.1531 27.286L72.0211 45.2177L67.529 45.1888Z" fill="url(#paint18_linear_682_13907)"/>
<path d="M47.4 40.2745C47.4089 39.0701 47.766 38.0999 48.4713 37.3639C49.1848 36.6197 49.9574 36.1283 50.7893 35.8895L50.7897 35.8406C49.9784 35.4936 49.3108 34.9766 48.7869 34.2897C48.2711 33.6027 48.0169 32.7507 48.0244 31.7335C48.0347 30.3338 48.5762 29.1938 49.6488 28.3136C50.7295 27.4254 52.2343 26.9874 54.1629 26.9998C56.0916 27.0121 57.5898 27.4694 58.6574 28.3714C59.725 29.2734 60.2537 30.4203 60.2434 31.8118C60.2359 32.8372 59.9895 33.6901 59.5043 34.3706C59.0192 35.0511 58.3644 35.5515 57.5401 35.8717L57.5397 35.9205C58.3845 36.1457 59.1295 36.6428 59.7749 37.412C60.4204 38.1729 60.7387 39.1556 60.7298 40.36C60.7181 41.955 60.1107 43.2044 58.9077 44.1082C57.7129 45.0039 56.0861 45.4451 54.0272 45.4319C51.9765 45.4187 50.3563 44.9567 49.1667 44.0457C47.9772 43.1266 47.3883 41.8696 47.4 40.2745ZM51.9561 39.9009C51.9503 40.6903 52.1249 41.2977 52.4798 41.7232C52.8348 42.1405 53.3582 42.3514 54.0499 42.3558C54.7416 42.3602 55.268 42.1561 55.6292 41.7434C55.9903 41.3225 56.1738 40.7174 56.1796 39.928C56.1856 39.1142 56.0193 38.4906 55.6807 38.0571C55.3502 37.6237 54.8188 37.4046 54.0864 37.3999C53.354 37.3952 52.8153 37.6074 52.4703 38.0365C52.1335 38.4657 51.9621 39.0871 51.9561 39.9009ZM52.3782 32.3107C52.373 33.0187 52.5031 33.5811 52.7686 33.9978C53.0422 34.4146 53.4883 34.625 54.1068 34.629C54.7253 34.6329 55.1744 34.4283 55.4541 34.015C55.7339 33.6018 55.8763 33.0412 55.8815 32.3332C55.8866 31.6415 55.7482 31.0994 55.4663 30.7069C55.1925 30.3064 54.7505 30.1042 54.1401 30.1003C53.5298 30.0964 53.0848 30.2929 52.8052 30.6899C52.5256 31.0787 52.3833 31.619 52.3782 32.3107Z" fill="url(#paint19_linear_682_13907)"/>
<path fill-rule="evenodd" clip-rule="evenodd" d="M195 246L195 22L196 22L196 246L195 246Z" fill="url(#paint20_linear_682_13907)" fill-opacity="0.5"/>
<path fill-rule="evenodd" clip-rule="evenodd" d="M374 140H9V139H374V140Z" fill="url(#paint21_linear_682_13907)" fill-opacity="0.5"/>
<defs>
<linearGradient id="paint0_linear_682_13907" x1="74.7386" y1="183.134" x2="74.4981" y2="218.134" gradientUnits="userSpaceOnUse">
<stop offset="0.315" stop-color="#00B800"/>
<stop offset="1" stop-color="#00B800" stop-opacity="0"/>
</linearGradient>
<linearGradient id="paint1_linear_682_13907" x1="74.7397" y1="183.134" x2="74.4992" y2="218.133" gradientUnits="userSpaceOnUse">
<stop offset="0.315" stop-color="#00B800"/>
<stop offset="1" stop-color="#00B800" stop-opacity="0"/>
</linearGradient>
<linearGradient id="paint2_linear_682_13907" x1="316.241" y1="189.178" x2="316.001" y2="224.178" gradientUnits="userSpaceOnUse">
<stop offset="0.315" stop-color="#00B800"/>
<stop offset="1" stop-color="#00B800" stop-opacity="0"/>
</linearGradient>
<linearGradient id="paint3_linear_682_13907" x1="316.24" y1="189.178" x2="316" y2="224.177" gradientUnits="userSpaceOnUse">
<stop offset="0.315" stop-color="#00B800"/>
<stop offset="1" stop-color="#00B800" stop-opacity="0"/>
</linearGradient>
<linearGradient id="paint4_linear_682_13907" x1="316.241" y1="189.178" x2="316" y2="224.178" gradientUnits="userSpaceOnUse">
<stop offset="0.315" stop-color="#00B800"/>
<stop offset="1" stop-color="#00B800" stop-opacity="0"/>
</linearGradient>
<linearGradient id="paint5_linear_682_13907" x1="312.59" y1="24.6101" x2="312.276" y2="73.5084" gradientUnits="userSpaceOnUse">
<stop offset="0.315" stop-color="#00B800"/>
<stop offset="1" stop-color="#00B800" stop-opacity="0"/>
</linearGradient>
<linearGradient id="paint6_linear_682_13907" x1="312.59" y1="24.6108" x2="312.276" y2="73.5091" gradientUnits="userSpaceOnUse">
<stop offset="0.315" stop-color="#00B800"/>
<stop offset="1" stop-color="#00B800" stop-opacity="0"/>
</linearGradient>
<linearGradient id="paint7_linear_682_13907" x1="312.589" y1="24.6106" x2="312.276" y2="73.5088" gradientUnits="userSpaceOnUse">
<stop offset="0.315" stop-color="#00B800"/>
<stop offset="1" stop-color="#00B800" stop-opacity="0"/>
</linearGradient>
<linearGradient id="paint8_linear_682_13907" x1="312.589" y1="24.6109" x2="312.276" y2="73.5092" gradientUnits="userSpaceOnUse">
<stop offset="0.315" stop-color="#00B800"/>
<stop offset="1" stop-color="#00B800" stop-opacity="0"/>
</linearGradient>
<linearGradient id="paint9_linear_682_13907" x1="312.591" y1="24.6104" x2="312.277" y2="73.5086" gradientUnits="userSpaceOnUse">
<stop offset="0.315" stop-color="#00B800"/>
<stop offset="1" stop-color="#00B800" stop-opacity="0"/>
</linearGradient>
<linearGradient id="paint10_linear_682_13907" x1="312.589" y1="24.6109" x2="312.275" y2="73.5092" gradientUnits="userSpaceOnUse">
<stop offset="0.315" stop-color="#00B800"/>
<stop offset="1" stop-color="#00B800" stop-opacity="0"/>
</linearGradient>
<linearGradient id="paint11_linear_682_13907" x1="312.589" y1="24.6107" x2="312.275" y2="73.5089" gradientUnits="userSpaceOnUse">
<stop offset="0.315" stop-color="#00B800"/>
<stop offset="1" stop-color="#00B800" stop-opacity="0"/>
</linearGradient>
<linearGradient id="paint12_linear_682_13907" x1="312.59" y1="24.6108" x2="312.276" y2="73.509" gradientUnits="userSpaceOnUse">
<stop offset="0.315" stop-color="#00B800"/>
<stop offset="1" stop-color="#00B800" stop-opacity="0"/>
</linearGradient>
<linearGradient id="paint13_linear_682_13907" x1="312.589" y1="24.6109" x2="312.276" y2="73.5092" gradientUnits="userSpaceOnUse">
<stop offset="0.315" stop-color="#00B800"/>
<stop offset="1" stop-color="#00B800" stop-opacity="0"/>
</linearGradient>
<linearGradient id="paint14_linear_682_13907" x1="312.591" y1="24.6109" x2="312.277" y2="73.5091" gradientUnits="userSpaceOnUse">
<stop offset="0.315" stop-color="#00B800"/>
<stop offset="1" stop-color="#00B800" stop-opacity="0"/>
</linearGradient>
<linearGradient id="paint15_linear_682_13907" x1="312.59" y1="24.6105" x2="312.276" y2="73.5087" gradientUnits="userSpaceOnUse">
<stop offset="0.315" stop-color="#00B800"/>
<stop offset="1" stop-color="#00B800" stop-opacity="0"/>
</linearGradient>
<linearGradient id="paint16_linear_682_13907" x1="72.5872" y1="0.224464" x2="72.1382" y2="70.223" gradientUnits="userSpaceOnUse">
<stop offset="0.315" stop-color="#00B800"/>
<stop offset="1" stop-color="#00B800" stop-opacity="0"/>
</linearGradient>
<linearGradient id="paint17_linear_682_13907" x1="73.1899" y1="22.2248" x2="73.0196" y2="48.7761" gradientUnits="userSpaceOnUse">
<stop offset="0.315" stop-color="#00B800"/>
<stop offset="1" stop-color="#00B800" stop-opacity="0"/>
</linearGradient>
<linearGradient id="paint18_linear_682_13907" x1="73.1914" y1="22.2247" x2="73.0211" y2="48.776" gradientUnits="userSpaceOnUse">
<stop offset="0.315" stop-color="#00B800"/>
<stop offset="1" stop-color="#00B800" stop-opacity="0"/>
</linearGradient>
<linearGradient id="paint19_linear_682_13907" x1="73.1899" y1="22.2247" x2="73.0196" y2="48.776" gradientUnits="userSpaceOnUse">
<stop offset="0.315" stop-color="#00B800"/>
<stop offset="1" stop-color="#00B800" stop-opacity="0"/>
</linearGradient>
<linearGradient id="paint20_linear_682_13907" x1="195" y1="134" x2="194" y2="134" gradientUnits="userSpaceOnUse">
<stop stop-color="#00B800"/>
<stop offset="1" stop-color="#00B800" stop-opacity="0"/>
</linearGradient>
<linearGradient id="paint21_linear_682_13907" x1="191.5" y1="140" x2="191.5" y2="141" gradientUnits="userSpaceOnUse">
<stop stop-color="#00B800"/>
<stop offset="1" stop-color="#00B800" stop-opacity="0"/>
</linearGradient>
</defs>
</svg>
