<svg width="400" height="260" viewBox="0 0 400 260" fill="none" xmlns="http://www.w3.org/2000/svg">
<path d="M95.3968 206.548L99.7031 206.606L99.7014 206.856C99.6966 207.549 99.9227 208.048 100.38 208.354C100.846 208.651 101.47 208.801 102.252 208.807C103.023 208.812 103.605 208.679 103.997 208.409C104.39 208.138 104.588 207.763 104.591 207.285C104.595 206.796 104.372 206.433 103.925 206.196C103.477 205.949 102.503 205.669 101.001 205.356C99.1967 204.982 97.8822 204.416 97.0573 203.659C96.2422 202.901 95.8388 201.907 95.8473 200.677C95.8572 199.231 96.446 198.107 97.6137 197.305C98.7813 196.502 100.376 196.108 102.397 196.122C104.399 196.136 105.983 196.566 107.149 197.414C108.315 198.262 108.893 199.428 108.883 200.913L108.882 201.132L104.575 201.103L104.577 200.839C104.581 200.263 104.393 199.827 104.015 199.531C103.646 199.226 103.08 199.071 102.318 199.066C101.596 199.061 101.073 199.179 100.749 199.421C100.425 199.653 100.261 199.979 100.258 200.399C100.256 200.8 100.478 201.123 100.926 201.371C101.373 201.618 102.358 201.898 103.879 202.211C105.712 202.575 107.051 203.122 107.896 203.85C108.741 204.579 109.159 205.578 109.15 206.847C109.139 208.41 108.55 209.612 107.382 210.453C106.214 211.295 104.517 211.708 102.29 211.693C100.093 211.678 98.3968 211.241 97.2015 210.383C96.0062 209.525 95.4042 208.315 95.3954 206.753L95.3968 206.548Z" fill="url(#paint0_linear_682_13907)"/>
<path d="M78.9216 203.973L78.9248 203.505C78.9405 201.229 79.6561 199.413 81.0717 198.055C82.4971 196.688 84.3378 196.012 86.5936 196.028C88.8494 196.043 90.5978 196.705 91.8388 198.012C93.0897 199.32 93.7072 201.111 93.6916 203.386L93.6814 204.866L81.7725 204.784L81.7906 202.162L89.2025 202.213L89.2042 201.964C89.2094 201.212 88.9843 200.576 88.5288 200.055C88.0832 199.534 87.4258 199.271 86.5567 199.265C85.5704 199.258 84.8159 199.619 84.2933 200.348C83.7806 201.067 83.5201 202.013 83.5121 203.185L83.5054 204.166C83.4966 205.436 83.7632 206.438 84.305 207.175C84.8567 207.901 85.6647 208.268 86.7291 208.275C87.4908 208.28 88.1415 208.109 88.681 207.761C89.2205 207.413 89.6531 206.992 89.9788 206.496L93.4536 208.175C92.968 209.207 92.1566 210.036 91.0195 210.663C89.8921 211.29 88.4788 211.598 86.7796 211.586C84.2992 211.569 82.3655 210.872 80.9784 209.496C79.5914 208.109 78.9058 206.268 78.9216 203.973Z" fill="url(#paint1_linear_682_13907)"/>
<path d="M67.9041 211.046L67.9578 203.224L60.9316 189.67L66.1317 189.706L69.9469 197.291C70.0721 197.545 70.1827 197.79 70.2787 198.025C70.3748 198.26 70.4708 198.5 70.5668 198.745L70.64 198.746C70.7296 198.502 70.824 198.263 70.9233 198.03C71.0323 197.796 71.1512 197.553 71.2798 197.3L75.2282 189.768L79.8277 189.8L72.7342 203.096L72.6793 211.079L67.9041 211.046Z" fill="url(#paint2_linear_682_13907)"/>
<path d="M317.554 210.013L317.558 209.529C317.573 207.244 318.308 205.423 319.763 204.066C321.228 202.699 323.132 202.023 325.475 202.039C327.819 202.056 329.709 202.757 331.145 204.144C332.581 205.521 333.291 207.352 333.275 209.637L333.272 210.121C333.256 212.415 332.521 214.241 331.066 215.599C329.611 216.956 327.712 217.626 325.368 217.61C323.015 217.594 321.12 216.898 319.684 215.52C318.249 214.143 317.538 212.307 317.554 210.013ZM322.246 209.356L322.24 210.25C322.232 211.51 322.498 212.488 323.04 213.185C323.582 213.882 324.366 214.234 325.392 214.241C326.417 214.248 327.205 213.907 327.757 213.217C328.309 212.528 328.589 211.548 328.598 210.279L328.604 209.4C328.612 208.14 328.341 207.167 327.789 206.479C327.237 205.792 326.458 205.445 325.452 205.438C324.436 205.431 323.648 205.767 323.087 206.447C322.535 207.127 322.255 208.097 322.246 209.356Z" fill="url(#paint3_linear_682_13907)"/>
<path d="M297.953 217.012L298.1 195.685L303.036 195.718L309.775 208.421C309.929 208.725 310.064 209.029 310.179 209.332C310.304 209.626 310.414 209.925 310.51 210.228L310.612 210.229C310.595 209.907 310.587 209.589 310.59 209.277C310.592 208.954 310.594 208.627 310.596 208.295L310.682 195.771L314.754 195.799L314.608 217.127L309.657 217.093L302.903 204.419C302.749 204.125 302.614 203.826 302.499 203.523C302.384 203.219 302.279 202.916 302.183 202.612L302.08 202.612C302.098 202.944 302.105 203.271 302.103 203.593C302.111 203.915 302.113 204.243 302.111 204.575L302.025 217.04L297.953 217.012Z" fill="url(#paint4_linear_682_13907)"/>
<path d="M131.981 248.954L132.067 236.503L135.668 236.528L135.718 238.042L135.779 238.042C136.166 237.475 136.677 237.039 137.314 236.734C137.959 236.429 138.66 236.28 139.417 236.285C140.288 236.291 141.043 236.483 141.683 236.862C142.332 237.233 142.796 237.773 143.076 238.483L143.113 238.483C143.557 237.778 144.151 237.245 144.894 236.884C145.645 236.515 146.444 236.333 147.29 236.339C148.535 236.348 149.538 236.737 150.297 237.507C151.057 238.277 151.431 239.554 151.419 241.336L151.365 249.087L147.593 249.061L147.647 241.322C147.652 240.59 147.505 240.056 147.206 239.72C146.907 239.376 146.465 239.198 145.879 239.186C145.358 239.182 144.905 239.326 144.521 239.616C144.145 239.906 143.841 240.303 143.609 240.806L143.553 249.033L139.781 249.007L139.834 241.305C139.839 240.556 139.688 240.01 139.381 239.666C139.083 239.314 138.632 239.136 138.03 239.132C137.525 239.128 137.085 239.272 136.709 239.562C136.332 239.844 136.033 240.241 135.809 240.752L135.753 248.98L131.981 248.954Z" fill="white"/>
<path d="M122.703 248.89L122.789 236.439L126.439 236.465L126.49 237.905L126.539 237.906C126.819 237.419 127.192 237.007 127.658 236.668C128.132 236.33 128.662 236.162 129.248 236.166C129.436 236.168 129.623 236.189 129.809 236.231C129.996 236.265 130.126 236.299 130.199 236.332L130.178 239.444C130.032 239.403 129.869 239.373 129.69 239.356C129.52 239.33 129.328 239.316 129.117 239.315C128.572 239.311 128.066 239.475 127.6 239.805C127.134 240.127 126.789 240.548 126.566 241.068L126.512 248.916L122.703 248.89Z" fill="white"/>
<path d="M107.264 242.742L107.267 242.351C107.28 240.406 107.897 238.86 109.117 237.713C110.338 236.565 111.929 235.999 113.89 236.012C115.851 236.025 117.43 236.614 118.626 237.778C119.831 238.942 120.427 240.496 120.413 242.441L120.411 242.832C120.397 244.777 119.78 246.323 118.56 247.47C117.348 248.617 115.761 249.184 113.8 249.171C111.838 249.157 110.255 248.569 109.051 247.405C107.846 246.241 107.251 244.686 107.264 242.742ZM111.113 242.194L111.108 242.951C111.1 244.05 111.33 244.898 111.798 245.495C112.266 246.084 112.94 246.382 113.819 246.388C114.698 246.394 115.371 246.105 115.839 245.523C116.315 244.932 116.557 244.087 116.564 242.989L116.569 242.232C116.577 241.133 116.343 240.289 115.867 239.7C115.399 239.111 114.733 238.813 113.871 238.807C113 238.801 112.323 239.09 111.838 239.672C111.362 240.255 111.121 241.096 111.113 242.194Z" fill="white"/>
<path d="M93.2797 248.689L93.3653 236.238L96.9785 236.263L97.0294 237.728L97.0905 237.728C97.4114 237.218 97.8984 236.802 98.5517 236.481C99.205 236.16 99.9426 236.002 100.764 236.008C102.042 236.017 103.081 236.386 103.882 237.116C104.683 237.846 105.077 239.097 105.065 240.872L105.01 248.769L101.251 248.743L101.304 240.956C101.309 240.199 101.15 239.665 100.827 239.353C100.504 239.033 100.041 238.872 99.4386 238.867C98.9422 238.864 98.4814 239.007 98.0563 239.297C97.6393 239.579 97.3233 239.972 97.1082 240.475L97.0516 248.715L93.2797 248.689Z" fill="white"/>
<path d="M77.1682 238.848L77.1869 236.126L85.2068 236.181L85.188 238.904L77.1682 238.848ZM79.007 244.831L79.0588 237.299L79.0975 236.994L79.1254 232.929L82.8119 232.955L82.7323 244.539C82.7279 245.182 82.8307 245.618 83.0407 245.847C83.2589 246.068 83.5714 246.18 83.9783 246.183C84.1736 246.184 84.365 246.165 84.5525 246.126C84.74 246.078 84.9235 246.023 85.1029 245.959L85.0847 248.608C84.8807 248.696 84.5872 248.775 84.2042 248.846C83.8293 248.916 83.4019 248.95 82.9217 248.947C81.7092 248.939 80.7512 248.606 80.0476 247.951C79.3442 247.286 78.9973 246.246 79.007 244.831Z" fill="white"/>
<path d="M63.9024 248.486L64.0293 230.018L67.789 230.043L67.7363 237.709C68.0982 237.15 68.5978 236.694 69.235 236.34C69.8722 235.986 70.6587 235.813 71.5946 235.819C72.7827 235.827 73.7567 236.204 74.5166 236.95C75.2846 237.688 75.663 238.883 75.6516 240.535L75.5964 248.567L71.8246 248.541L71.8773 240.863C71.8827 240.073 71.7116 239.511 71.364 239.175C71.0245 238.839 70.5577 238.669 69.9637 238.665C69.4347 238.661 68.978 238.808 68.5934 239.107C68.217 239.405 67.9293 239.822 67.7303 240.358L67.6743 248.512L63.9024 248.486Z" fill="white"/>
<path d="M49.0196 252.095L50.3787 249.724C50.6859 250.019 51.1885 250.308 51.8864 250.589C52.5925 250.879 53.3402 251.026 54.1295 251.032C54.9922 251.038 55.7142 250.778 56.2956 250.253C56.877 249.736 57.1715 248.916 57.1792 247.793L57.1843 247.049C56.8554 247.551 56.3928 247.943 55.7968 248.223C55.2008 248.504 54.4756 248.642 53.6211 248.636C52.0342 248.625 50.7565 248.042 49.7878 246.888C48.8273 245.734 48.3535 244.221 48.3663 242.349L48.369 241.959C48.3819 240.079 48.8724 238.569 49.8406 237.428C50.8088 236.279 52.0985 235.71 53.7098 235.721C54.4992 235.726 55.2142 235.894 55.8549 236.224C56.5037 236.546 56.9688 236.96 57.2502 237.467L57.3112 237.467L57.3824 235.99L60.9956 236.015L60.9163 247.551C60.9025 249.569 60.2937 251.115 59.09 252.189C57.8944 253.263 56.3567 253.794 54.4769 253.781C53.3457 253.773 52.3052 253.607 51.3552 253.283C50.4134 252.959 49.6349 252.563 49.0196 252.095ZM52.1863 242.486C52.1793 243.495 52.3894 244.314 52.8164 244.944C53.2434 245.573 53.9004 245.891 54.7874 245.897C55.3733 245.901 55.875 245.734 56.2924 245.395C56.7097 245.056 57.0094 244.671 57.1914 244.241L57.2189 240.237C57.0352 239.732 56.7329 239.314 56.312 238.986C55.8992 238.658 55.3958 238.491 54.8017 238.487C53.9309 238.481 53.2777 238.794 52.8421 239.426C52.4146 240.05 52.1974 240.862 52.1905 241.863L52.1863 242.486Z" fill="white"/>
<path d="M42.1582 248.337L42.2438 235.887L46.0401 235.913L45.9545 248.364L42.1582 248.337ZM41.9883 232.21C41.9921 231.649 42.1826 231.178 42.5595 230.798C42.9446 230.418 43.4871 230.231 44.187 230.236C44.8868 230.241 45.4226 230.435 45.7943 230.821C46.1742 231.206 46.3622 231.679 46.3583 232.24C46.3544 232.802 46.1599 233.277 45.7748 233.665C45.3978 234.045 44.8553 234.232 44.1473 234.227C43.4475 234.222 42.9117 234.027 42.54 233.642C42.1683 233.249 41.9844 232.772 41.9883 232.21Z" fill="white"/>
<path d="M27.6351 242.195L27.6378 241.804C27.651 239.875 28.2516 238.333 29.4396 237.178C30.6357 236.022 32.1697 235.451 34.0414 235.464C35.9212 235.477 37.3822 236.036 38.4245 237.142C39.4748 238.248 39.9934 239.765 39.9801 241.694L39.9716 242.939L30.0353 242.87L30.0504 240.673L36.288 240.716L36.2896 240.484C36.2942 239.825 36.0986 239.27 35.7029 238.82C35.3154 238.37 34.7513 238.142 34.0108 238.137C33.1644 238.131 32.5153 238.44 32.0634 239.063C31.6197 239.687 31.3942 240.52 31.3871 241.561L31.3816 242.367C31.3741 243.449 31.6042 244.309 32.0718 244.947C32.5477 245.577 33.2494 245.895 34.1772 245.902C34.82 245.906 35.3745 245.755 35.8405 245.449C36.3146 245.143 36.6914 244.78 36.971 244.358L39.7562 245.855C39.3518 246.682 38.6717 247.357 37.7159 247.879C36.7602 248.394 35.5906 248.646 34.2072 248.636C32.1402 248.622 30.5248 248.029 29.3609 246.858C28.1971 245.686 27.6218 244.131 27.6351 242.195Z" fill="white"/>
<path d="M7.9379 248.163L3.86133 230.3L7.69425 230.326L10.2133 242.124C10.2605 242.368 10.2957 242.576 10.3189 242.747C10.3422 242.91 10.3652 243.121 10.3878 243.382L10.4855 243.383C10.5198 243.123 10.5497 242.911 10.5753 242.749C10.6009 242.578 10.6389 242.371 10.6894 242.127L13.6145 230.367L17.6916 230.395L20.5159 242.182C20.5712 242.427 20.6064 242.634 20.6215 242.805C20.6447 242.976 20.6717 243.192 20.7025 243.453L20.8002 243.454C20.8264 243.185 20.8523 242.97 20.8778 242.807C20.9116 242.636 20.9496 242.429 20.992 242.185L23.5752 230.435L27.0053 230.459L22.7691 248.265L18.5822 248.236L15.6848 236.411C15.6295 236.175 15.5822 235.951 15.543 235.739C15.5119 235.527 15.481 235.291 15.4502 235.03L15.3647 235.03C15.3385 235.29 15.3044 235.526 15.2622 235.737C15.2282 235.949 15.1779 236.172 15.1111 236.408L12.0638 248.191L7.9379 248.163Z" fill="white"/>
<path d="M390.47 59.3947L390.496 55.7474C391.487 55.1873 392.315 54.1477 392.98 52.6285C393.646 51.1093 393.99 48.7628 394.014 45.5891L394.016 45.2375C394.039 42.0931 393.725 39.7668 393.072 38.2587C392.419 36.7408 391.611 35.6662 390.649 35.0351L390.676 31.3877C393.14 32.2336 395.224 33.8046 396.925 36.1007C398.637 38.3871 399.479 41.4785 399.45 45.3749L399.449 45.5214C399.42 49.4568 398.552 52.5519 396.846 54.8066C395.14 57.0614 393.015 58.5907 390.47 59.3947Z" fill="url(#paint5_linear_682_13907)"/>
<path d="M364.24 38.1172L369.587 38.1515L371.466 45.5318C371.561 45.8938 371.637 46.2263 371.693 46.5294C371.75 46.8227 371.801 47.1405 371.847 47.4826L371.935 47.4831C371.996 47.1417 372.052 46.8247 372.103 46.532C372.164 46.2297 372.24 45.8981 372.33 45.5374L374.479 38.1829L379.504 38.2151L381.602 45.6261C381.707 45.9882 381.788 46.3207 381.844 46.6238C381.91 46.9172 381.971 47.2301 382.028 47.5625L382.101 47.563C382.162 47.2313 382.223 46.9143 382.284 46.612C382.344 46.3096 382.415 45.9829 382.496 45.6319L384.499 38.2471L389.186 38.2772L384.669 52.9702L379.337 52.936L377.062 45.4652C376.977 45.1619 376.901 44.8538 376.835 44.5409C376.769 44.2279 376.708 43.915 376.651 43.6022L376.607 43.6019C376.547 43.914 376.476 44.2261 376.395 44.538C376.325 44.8501 376.249 45.1572 376.169 45.4595L373.961 52.9015L368.526 52.8667L364.24 38.1172Z" fill="url(#paint6_linear_682_13907)"/>
<path d="M346.558 45.5779L346.562 45.1092C346.579 42.785 347.349 40.9491 348.873 39.6014C350.396 38.2537 352.379 37.5877 354.82 37.6034C357.261 37.619 359.234 38.3104 360.738 39.6775C362.241 41.0446 362.985 42.8902 362.967 45.2144L362.964 45.6831C362.947 48.0073 362.177 49.8432 360.653 51.1909C359.129 52.5386 357.147 53.2046 354.705 53.1889C352.264 53.1732 350.292 52.4819 348.788 51.1148C347.284 49.7477 346.541 47.9021 346.558 45.5779ZM352.013 44.8512L352.005 45.8912C351.997 47.0435 352.23 47.9092 352.704 48.4885C353.178 49.0579 353.855 49.3455 354.734 49.3511C355.613 49.3568 356.293 49.0779 356.776 48.5146C357.259 47.9415 357.504 47.0739 357.513 45.9118L357.521 44.8865C357.529 43.7439 357.291 42.8879 356.807 42.3184C356.323 41.7489 355.651 41.4613 354.792 41.4558C353.932 41.4503 353.257 41.7292 352.764 42.2924C352.272 42.8557 352.021 43.7086 352.013 44.8512Z" fill="url(#paint7_linear_682_13907)"/>
<path d="M338.357 52.6732L338.52 30.6572L343.91 30.6918L343.748 52.7078L338.357 52.6732Z" fill="url(#paint8_linear_682_13907)"/>
<path d="M335.462 59.0571C332.968 58.2305 330.875 56.6741 329.183 54.3878C327.501 52.1016 326.674 48.9907 326.703 45.0553L326.704 44.9088C326.732 41.0905 327.57 38.0392 329.218 35.7548C330.866 33.4607 333.016 31.8875 335.669 31.0354L335.642 34.6827C334.68 35.3016 333.862 36.3657 333.187 37.875C332.512 39.3746 332.162 41.6967 332.139 44.8411L332.137 45.1927C332.113 48.3664 332.409 50.7023 333.023 52.2004C333.637 53.6888 334.459 54.7537 335.489 55.395L335.462 59.0571Z" fill="url(#paint9_linear_682_13907)"/>
<path d="M309.397 52.4881L309.439 46.9072L309.545 46.3805L309.606 38.0897L309.46 38.0888L305.46 44.0984L311.188 44.1352L311.964 44.0669L316.872 44.0984L316.841 48.2438L300.23 48.1372L300.257 44.4752L309.891 31.1627L314.828 31.1944L314.671 52.5219L309.397 52.4881Z" fill="url(#paint10_linear_682_13907)"/>
<path d="M289.663 52.3616L289.783 35.9998L284.453 37.7967L284.485 33.373L291.681 30.8703L295.358 30.8938L295.2 52.3972L289.663 52.3616Z" fill="url(#paint11_linear_682_13907)"/>
<path d="M265.489 46.2008L265.494 45.5562L271.03 45.6064L271.026 46.1484C271.02 46.998 271.225 47.6438 271.642 48.086C272.059 48.5281 272.663 48.7517 273.454 48.7568C274.274 48.762 274.881 48.4925 275.276 47.9481C275.671 47.394 275.872 46.5115 275.881 45.3006C275.89 44.0995 275.691 43.2437 275.285 42.7332C274.888 42.2131 274.314 41.9506 273.562 41.9458C272.957 41.9419 272.448 42.0754 272.036 42.3462C271.624 42.6072 271.279 42.9517 271.003 43.3796L266.195 41.8253L267.374 30.8903L280.44 30.9741L280.409 35.2659L271.591 35.1508L271.166 39.1472C271.607 38.857 272.137 38.6163 272.753 38.4249C273.37 38.2336 274.069 38.1404 274.85 38.1454C276.764 38.1577 278.347 38.7538 279.598 39.9337C280.849 41.1136 281.466 42.8168 281.45 45.0433C281.433 47.3773 280.74 49.2332 279.373 50.6112C278.015 51.9794 276.047 52.6553 273.469 52.6388C270.92 52.6224 268.947 52.0287 267.549 50.8576C266.161 49.6768 265.475 48.1245 265.489 46.2008Z" fill="url(#paint12_linear_682_13907)"/>
<path d="M256.555 49.5126C256.561 48.6923 256.834 48.0007 257.376 47.4378C257.927 46.8749 258.71 46.5967 259.726 46.6032C260.741 46.6097 261.515 46.8979 262.048 47.4677C262.591 48.0376 262.859 48.7327 262.853 49.553C262.847 50.3733 262.569 51.0698 262.018 51.6424C261.476 52.2054 260.698 52.4836 259.682 52.4771C258.667 52.4706 257.888 52.1775 257.345 51.5978C256.812 51.0182 256.549 50.3231 256.555 49.5126Z" fill="url(#paint13_linear_682_13907)"/>
<path d="M244.636 52.0726L244.756 35.7107L239.425 37.5076L239.458 33.0839L246.654 30.5812L250.331 30.6048L250.173 52.1081L244.636 52.0726Z" fill="url(#paint14_linear_682_13907)"/>
<path d="M153.638 107.161L157.227 107.21L157.226 107.418C157.222 107.995 157.414 108.416 157.803 108.679C158.192 108.942 158.72 109.076 159.387 109.08C160.046 109.085 160.543 108.97 160.879 108.737C161.222 108.495 161.395 108.166 161.398 107.751C161.401 107.336 161.216 107.026 160.843 106.82C160.47 106.606 159.634 106.364 158.333 106.095C156.822 105.783 155.722 105.308 155.035 104.668C154.356 104.029 154.02 103.196 154.027 102.171C154.035 100.958 154.53 100.014 155.511 99.3367C156.492 98.6598 157.821 98.3272 159.497 98.3387C161.166 98.3501 162.49 98.7173 163.469 99.4402C164.449 100.155 164.935 101.135 164.926 102.38L164.925 102.551L161.349 102.526L161.35 102.319C161.353 101.831 161.197 101.459 160.882 101.205C160.566 100.942 160.087 100.809 159.444 100.804C158.825 100.8 158.373 100.899 158.087 101.1C157.809 101.302 157.668 101.581 157.666 101.939C157.664 102.298 157.849 102.584 158.222 102.798C158.595 103.004 159.443 103.242 160.768 103.511C162.288 103.823 163.395 104.286 164.091 104.901C164.795 105.508 165.143 106.349 165.136 107.423C165.127 108.733 164.632 109.743 163.65 110.452C162.677 111.162 161.262 111.51 159.407 111.498C157.56 111.485 156.134 111.117 155.13 110.394C154.134 109.671 153.636 108.646 153.637 107.32L153.638 107.161Z" fill="white"/>
<path d="M138.733 104.984L138.736 104.593C138.748 102.738 139.255 101.231 140.256 100.075C141.265 98.9177 142.571 98.3448 144.174 98.3558C144.988 98.3614 145.691 98.5086 146.283 98.7975C146.875 99.0864 147.332 99.4599 147.655 99.9178L147.705 92.606L151.428 92.6316L151.301 111.1L147.724 111.076L147.674 109.562L147.625 109.561C147.337 110.056 146.878 110.472 146.249 110.809C145.628 111.139 144.907 111.301 144.085 111.295C142.417 111.283 141.103 110.688 140.142 109.51C139.19 108.332 138.72 106.823 138.733 104.984ZM142.565 105.12C142.558 106.129 142.768 106.952 143.195 107.59C143.622 108.22 144.271 108.537 145.142 108.543C145.736 108.547 146.237 108.388 146.646 108.065C147.064 107.743 147.372 107.358 147.57 106.912L147.598 102.762C147.414 102.305 147.12 101.92 146.715 101.608C146.319 101.288 145.811 101.126 145.193 101.122C144.338 101.116 143.689 101.429 143.245 102.06C142.802 102.684 142.576 103.496 142.569 104.497L142.565 105.12Z" fill="white"/>
<path d="M124.864 104.876L124.866 104.486C124.88 102.557 125.48 101.015 126.668 99.8593C127.864 98.7037 129.398 98.1324 131.27 98.1453C133.15 98.1582 134.611 98.7175 135.653 99.8234C136.703 100.929 137.222 102.447 137.209 104.375L137.2 105.62L127.264 105.552L127.279 103.355L133.517 103.398L133.518 103.166C133.523 102.507 133.327 101.952 132.931 101.501C132.544 101.051 131.98 100.824 131.239 100.818C130.393 100.813 129.744 101.122 129.292 101.745C128.848 102.369 128.623 103.201 128.616 104.243L128.61 105.049C128.603 106.131 128.833 106.991 129.3 107.629C129.776 108.259 130.478 108.577 131.406 108.583C132.049 108.588 132.603 108.437 133.069 108.131C133.543 107.825 133.92 107.461 134.2 107.04L136.985 108.536C136.58 109.364 135.9 110.039 134.944 110.561C133.989 111.075 132.819 111.328 131.436 111.318C129.369 111.304 127.753 110.711 126.589 109.539C125.426 108.367 124.85 106.813 124.864 104.876Z" fill="white"/>
<path d="M110.994 104.781L110.997 104.39C111.01 102.461 111.611 100.919 112.799 99.7636C113.995 98.608 115.529 98.0367 117.401 98.0496C119.281 98.0625 120.742 98.6218 121.784 99.7277C122.834 100.834 123.353 102.351 123.34 104.279L123.331 105.525L113.395 105.456L113.41 103.259L119.647 103.302L119.649 103.07C119.654 102.411 119.458 101.856 119.062 101.406C118.675 100.956 118.111 100.728 117.37 100.723C116.524 100.717 115.875 101.026 115.423 101.649C114.979 102.273 114.754 103.106 114.746 104.147L114.741 104.953C114.733 106.035 114.964 106.895 115.431 107.533C115.907 108.163 116.609 108.481 117.537 108.488C118.179 108.492 118.734 108.341 119.2 108.035C119.674 107.729 120.051 107.366 120.33 106.944L123.116 108.441C122.711 109.268 122.031 109.943 121.075 110.465C120.12 110.98 118.95 111.232 117.567 111.222C115.5 111.208 113.884 110.615 112.72 109.443C111.556 108.272 110.981 106.717 110.994 104.781Z" fill="white"/>
<path d="M97.0102 110.728L97.0957 98.2768L100.709 98.3017L100.76 99.7669L100.821 99.7673C101.142 99.2568 101.629 98.8411 102.282 98.52C102.935 98.199 103.673 98.0413 104.495 98.0469C105.773 98.0557 106.812 98.425 107.612 99.1548C108.413 99.8846 108.807 101.137 108.795 102.911L108.741 110.808L104.981 110.782L105.035 102.995C105.04 102.238 104.881 101.704 104.557 101.392C104.234 101.073 103.771 100.911 103.169 100.907C102.673 100.903 102.212 101.046 101.787 101.336C101.37 101.618 101.054 102.011 100.839 102.514L100.782 110.754L97.0102 110.728Z" fill="white"/>
<path d="M77.0133 106.635L80.6019 106.684L80.6005 106.891C80.5965 107.469 80.789 107.889 81.1778 108.152C81.5666 108.416 82.0947 108.549 82.762 108.554C83.4212 108.559 83.9184 108.444 84.2536 108.21C84.5971 107.968 84.7703 107.64 84.7731 107.225C84.776 106.81 84.5909 106.499 84.218 106.293C83.8451 106.079 83.0085 105.838 81.7083 105.568C80.1967 105.257 79.0972 104.781 78.4099 104.142C77.7307 103.502 77.3946 102.67 77.4016 101.644C77.41 100.432 77.9047 99.4872 78.886 98.8103C79.8672 98.1335 81.196 97.8008 82.8724 97.8123C84.5407 97.8238 85.8647 98.1909 86.8444 98.9138C87.8243 99.6286 88.3099 100.609 88.3013 101.854L88.3001 102.025L84.7236 102L84.725 101.792C84.7284 101.304 84.5722 100.933 84.2566 100.678C83.941 100.416 83.4617 100.282 82.8189 100.278C82.2004 100.274 81.748 100.372 81.4618 100.574C81.1837 100.775 81.0435 101.055 81.041 101.413C81.0385 101.771 81.2237 102.057 81.5966 102.271C81.9696 102.477 82.8184 102.715 84.1431 102.985C85.6628 103.296 86.7704 103.76 87.4661 104.375C88.17 104.982 88.5182 105.822 88.5108 106.897C88.5018 108.207 88.0066 109.217 87.0251 109.926C86.0518 110.636 84.6374 110.984 82.782 110.971C80.9347 110.958 79.509 110.591 78.5048 109.868C77.5088 109.145 77.0113 108.12 77.0122 106.793L77.0133 106.635Z" fill="white"/>
<path d="M76.1298 92.786L76.1174 94.5804C76.1105 95.5895 75.8639 96.5359 75.3777 97.4197C74.8996 98.3034 74.174 99.0838 73.2009 99.7607L70.9897 98.2318C71.3838 97.7299 71.6805 97.1867 71.8798 96.6021C72.0873 96.0095 72.1937 95.3347 72.1989 94.5779L72.2114 92.7591L76.1298 92.786Z" fill="white"/>
<path d="M65.045 110.508L65.1719 92.0391L68.956 92.0651L68.8291 110.534L65.045 110.508Z" fill="white"/>
<path d="M58.2305 110.461L58.3574 91.9922L62.1415 92.0182L62.0146 110.487L58.2305 110.461Z" fill="white"/>
<path d="M43.7191 104.319L43.7218 103.928C43.735 101.999 44.3356 100.457 45.5236 99.3017C46.7197 98.1461 48.2536 97.5748 50.1253 97.5876C52.0052 97.6006 53.4662 98.1599 54.5084 99.2658C55.5588 100.372 56.0774 101.889 56.0641 103.818L56.0556 105.063L46.1193 104.994L46.1344 102.797L52.372 102.84L52.3736 102.608C52.3781 101.949 52.1826 101.394 51.7869 100.944C51.3993 100.494 50.8353 100.266 50.0948 100.261C49.2484 100.255 48.5993 100.564 48.1474 101.187C47.7037 101.811 47.4782 102.644 47.4711 103.685L47.4655 104.491C47.4581 105.573 47.6882 106.433 48.1558 107.071C48.6317 107.701 49.3334 108.019 50.2611 108.026C50.904 108.03 51.4585 107.879 51.9244 107.573C52.3986 107.267 52.7754 106.904 53.055 106.482L55.8402 107.979C55.4357 108.806 54.7556 109.481 53.7999 110.003C52.8442 110.518 51.6746 110.77 50.2912 110.76C48.2242 110.746 46.6087 110.153 45.4449 108.982C44.281 107.81 43.7058 106.255 43.7191 104.319Z" fill="white"/>
<path d="M29.9476 104.224L29.9503 103.833C29.9638 101.864 30.5604 100.314 31.7401 99.1824C32.9198 98.0431 34.4862 97.4801 36.4393 97.4935C38.311 97.5064 39.7361 97.9638 40.7146 98.8657C41.7013 99.7677 42.2267 100.886 42.2907 102.221L42.3014 102.453L38.6393 102.428L38.6404 102.269C38.6444 101.684 38.4606 101.202 38.0888 100.825C37.7252 100.44 37.1732 100.245 36.4326 100.24C35.5782 100.234 34.925 100.539 34.4732 101.154C34.0295 101.762 33.8041 102.598 33.7967 103.664L33.7915 104.433C33.7841 105.5 33.9899 106.347 34.4088 106.977C34.8358 107.598 35.4929 107.912 36.3799 107.918C37.1774 107.924 37.7484 107.728 38.0929 107.332C38.4375 106.935 38.6116 106.46 38.6154 105.907L38.6164 105.761L42.2662 105.786L42.265 105.969C42.2477 107.295 41.7274 108.411 40.7039 109.315C39.6804 110.22 38.2328 110.665 36.3611 110.652C34.4161 110.639 32.8576 110.055 31.6855 108.899C30.5134 107.744 29.9341 106.185 29.9476 104.224Z" fill="white"/>
<path d="M16.9012 110.177L16.9955 96.4443C17.0069 94.7842 17.4834 93.5423 18.425 92.7187C19.3747 91.8951 20.5982 91.4885 22.0955 91.4988C22.4129 91.501 22.7139 91.5193 22.9985 91.5538C23.2912 91.5884 23.5635 91.6391 23.8154 91.7059L23.6743 94.4638C23.5199 94.4302 23.3533 94.4006 23.1744 94.3749C23.0037 94.3493 22.8166 94.3358 22.6132 94.3344C22.0191 94.3304 21.558 94.5225 21.2298 94.9109C20.9017 95.2911 20.7348 95.8841 20.7293 96.6897L20.7152 98.7404L20.7259 98.9603L20.6486 110.203L16.9012 110.177ZM15.2469 100.436L15.2656 97.7142L18.2196 97.7345L18.6224 97.7373L23.0168 97.7675L22.9981 100.49L15.2469 100.436Z" fill="white"/>
<path d="M0.96126 104.025L0.963944 103.634C0.977309 101.689 1.59423 100.143 2.81471 98.9959C4.03518 97.8486 5.62603 97.2817 7.58725 97.2952C9.54846 97.3087 11.1273 97.8973 12.3238 99.0612C13.5284 100.225 14.124 101.78 14.1106 103.724L14.1079 104.115C14.0946 106.06 13.4776 107.606 12.2572 108.753C11.0448 109.901 9.45804 110.468 7.49683 110.454C5.53561 110.441 3.9527 109.852 2.74811 108.688C1.54351 107.524 0.947895 105.97 0.96126 104.025ZM4.81033 103.477L4.80513 104.234C4.79758 105.333 5.02776 106.181 5.49567 106.778C5.96364 107.367 6.63706 107.665 7.51595 107.671C8.39484 107.677 9.06822 107.389 9.5361 106.806C10.0122 106.215 10.254 105.37 10.2615 104.272L10.2667 103.515C10.2743 102.416 10.04 101.572 9.56391 100.983C9.09594 100.394 8.43065 100.096 7.56804 100.091C6.69729 100.085 6.01984 100.373 5.53568 100.956C5.05966 101.538 4.81788 102.379 4.81033 103.477Z" fill="white"/>
<path d="M338.531 111.312L338.658 92.8428L342.442 92.8688L342.315 111.338L338.531 111.312Z" fill="white"/>
<path d="M323.541 107.558C323.55 106.199 324.082 105.174 325.136 104.481C326.199 103.78 327.549 103.431 329.184 103.434L331.772 103.452L331.777 102.732C331.781 102.179 331.642 101.734 331.359 101.399C331.077 101.055 330.585 100.881 329.886 100.876C329.186 100.871 328.68 101.01 328.369 101.293C328.066 101.567 327.913 101.916 327.91 102.339L327.909 102.547L324.271 102.522L324.273 102.302C324.28 101.163 324.82 100.235 325.891 99.5177C326.962 98.7926 328.36 98.436 330.085 98.4479C331.835 98.4599 333.183 98.8191 334.131 99.5255C335.078 100.232 335.547 101.33 335.536 102.819L335.497 108.483C335.494 108.987 335.535 109.472 335.622 109.936C335.716 110.393 335.844 110.78 336.004 111.099L336.003 111.294L332.292 111.269C332.188 111.081 332.1 110.84 332.029 110.546C331.957 110.245 331.907 109.947 331.876 109.654C331.62 110.125 331.142 110.544 330.439 110.914C329.737 111.283 328.865 111.465 327.823 111.458C326.578 111.449 325.551 111.12 324.741 110.472C323.932 109.815 323.532 108.844 323.541 107.558ZM327.302 107.267C327.299 107.812 327.45 108.244 327.757 108.564C328.064 108.883 328.548 109.045 329.207 109.05C329.915 109.055 330.514 108.831 331.006 108.379C331.497 107.918 331.745 107.375 331.749 106.748L331.757 105.613L329.89 105.6C329.011 105.594 328.359 105.732 327.934 106.014C327.517 106.296 327.306 106.713 327.302 107.267Z" fill="white"/>
<path d="M309.737 105.071L309.739 104.68C309.753 102.711 310.349 101.16 311.529 100.029C312.709 98.8897 314.275 98.3268 316.228 98.3402C318.1 98.353 319.525 98.8104 320.504 99.7124C321.49 100.614 322.016 101.733 322.08 103.068L322.09 103.3L318.428 103.275L318.429 103.116C318.434 102.53 318.25 102.049 317.878 101.672C317.514 101.287 316.962 101.092 316.222 101.087C315.367 101.081 314.714 101.386 314.262 102.001C313.819 102.608 313.593 103.445 313.586 104.511L313.581 105.28C313.573 106.346 313.779 107.194 314.198 107.824C314.625 108.445 315.282 108.759 316.169 108.765C316.966 108.77 317.537 108.575 317.882 108.178C318.227 107.782 318.401 107.307 318.404 106.754L318.405 106.607L322.055 106.632L322.054 106.815C322.037 108.142 321.516 109.257 320.493 110.162C319.469 111.066 318.022 111.512 316.15 111.499C314.205 111.486 312.647 110.901 311.475 109.746C310.302 108.59 309.723 107.032 309.737 105.071Z" fill="white"/>
<path d="M294.727 111.01L294.85 93.2373L298.731 93.264L298.682 100.429L304.798 93.3057L308.948 93.3342L298.651 105.019L298.609 111.037L294.727 111.01ZM305.03 111.081L299.169 102.484L301.629 99.6805L309.656 111.113L305.03 111.081Z" fill="white"/>
<path d="M345.381 259.562L345.424 256.877C345.651 256.944 345.891 256.994 346.143 257.028C346.403 257.071 346.651 257.093 346.887 257.095C347.441 257.098 347.922 256.923 348.331 256.567C348.749 256.212 349.108 255.519 349.408 254.487L349.31 254.487L344.537 242.039L348.309 242.065L350.726 249.198C350.83 249.484 350.909 249.745 350.965 249.981C351.02 250.21 351.071 250.45 351.118 250.703L351.192 250.703C351.242 250.451 351.297 250.212 351.355 249.984C351.422 249.748 351.501 249.485 351.593 249.192L354.095 242.105L357.464 242.128L352.292 255.765C351.753 257.177 351.079 258.21 350.269 258.864C349.467 259.517 348.472 259.84 347.284 259.832C346.86 259.829 346.498 259.806 346.198 259.763C345.897 259.721 345.625 259.654 345.381 259.562Z" fill="white"/>
<path d="M336.404 254.435L336.49 241.984L340.14 242.009L340.191 243.45L340.24 243.451C340.52 242.964 340.893 242.552 341.359 242.213C341.833 241.875 342.364 241.707 342.95 241.711C343.137 241.713 343.324 241.734 343.511 241.776C343.698 241.81 343.828 241.844 343.901 241.877L343.879 244.989C343.733 244.948 343.57 244.918 343.392 244.901C343.221 244.875 343.03 244.861 342.818 244.86C342.273 244.856 341.767 245.02 341.301 245.35C340.835 245.672 340.49 246.093 340.267 246.612L340.213 254.461L336.404 254.435Z" fill="white"/>
<path d="M321.522 258.044L322.881 255.673C323.188 255.968 323.69 256.256 324.388 256.537C325.094 256.827 325.842 256.975 326.631 256.98C327.494 256.986 328.216 256.726 328.798 256.201C329.379 255.685 329.673 254.865 329.681 253.742L329.686 252.997C329.357 253.499 328.895 253.891 328.299 254.172C327.703 254.452 326.978 254.59 326.123 254.584C324.536 254.573 323.258 253.991 322.29 252.836C321.329 251.682 320.855 250.169 320.868 248.298L320.871 247.907C320.884 246.027 321.374 244.517 322.343 243.376C323.311 242.227 324.6 241.658 326.212 241.669C327.001 241.675 327.716 241.842 328.357 242.172C329.006 242.494 329.471 242.908 329.752 243.415L329.813 243.415L329.884 241.939L333.498 241.963L333.418 253.499C333.404 255.517 332.796 257.063 331.592 258.137C330.396 259.211 328.859 259.742 326.979 259.729C325.848 259.721 324.807 259.555 323.857 259.232C322.915 258.908 322.137 258.512 321.522 258.044ZM324.688 248.434C324.681 249.443 324.891 250.262 325.318 250.892C325.745 251.521 326.402 251.839 327.289 251.845C327.875 251.849 328.377 251.682 328.794 251.343C329.212 251.004 329.511 250.62 329.693 250.189L329.721 246.186C329.537 245.68 329.235 245.263 328.814 244.934C328.401 244.606 327.898 244.44 327.304 244.436C326.433 244.43 325.78 244.742 325.344 245.374C324.917 245.998 324.699 246.81 324.692 247.811L324.688 248.434Z" fill="white"/>
<path d="M306.883 254.233L306.969 241.782L310.582 241.807L310.633 243.272L310.694 243.272C311.015 242.762 311.502 242.346 312.155 242.025C312.808 241.704 313.546 241.546 314.368 241.552C315.646 241.561 316.685 241.93 317.485 242.66C318.286 243.389 318.68 244.641 318.668 246.415L318.614 254.313L314.854 254.287L314.908 246.499C314.913 245.743 314.754 245.209 314.43 244.897C314.107 244.577 313.644 244.416 313.042 244.411C312.546 244.408 312.085 244.551 311.66 244.841C311.243 245.123 310.927 245.516 310.712 246.019L310.655 254.259L306.883 254.233Z" fill="white"/>
<path d="M292.205 249.432L292.258 241.681L296.03 241.707L295.977 249.385C295.971 250.207 296.134 250.781 296.466 251.109C296.797 251.429 297.256 251.591 297.842 251.595C298.362 251.598 298.827 251.447 299.236 251.14C299.645 250.834 299.953 250.45 300.16 249.987L300.217 241.735L303.988 241.761L303.903 254.212L300.29 254.187L300.239 252.71L300.178 252.709C299.816 253.236 299.309 253.656 298.655 253.969C298.01 254.273 297.269 254.423 296.431 254.417C295.177 254.409 294.155 254.023 293.362 253.261C292.578 252.49 292.192 251.214 292.205 249.432Z" fill="white"/>
<path d="M274.727 254.011L274.85 236.238L278.731 236.265L278.683 243.345L285.25 243.39L285.299 236.31L289.18 236.337L289.058 254.11L285.176 254.083L285.229 246.442L278.662 246.397L278.609 254.038L274.727 254.011Z" fill="white"/>
<path d="M113.329 35.448C113.186 54.7774 97.4014 70.3465 78.0718 70.2226C58.7423 70.0986 43.1879 54.3285 43.3302 34.9991C43.4725 15.6696 59.2576 0.100496 78.5872 0.224464C97.9167 0.348432 113.471 16.1185 113.329 35.448ZM46.9579 35.0223C46.8304 52.3482 60.7725 66.4838 78.0985 66.5949C95.4246 66.706 109.574 52.7506 109.701 35.4247C109.829 18.0988 95.8865 3.96327 78.5605 3.85215C61.2344 3.74103 47.0855 17.6964 46.9579 35.0223Z" fill="black"/>
<path d="M85.2884 69.5179C77.9525 71.0131 70.3328 70.1175 63.5478 66.9628C56.7629 63.808 51.1701 58.5601 47.5906 51.9897C44.0111 45.4192 42.6335 37.8723 43.66 30.4569C44.6864 23.0415 48.0629 16.1482 53.2937 10.789C58.5245 5.42988 65.3341 1.88721 72.7227 0.68112C80.1113 -0.52497 87.6897 0.669053 94.3453 4.08789C101.001 7.50674 106.383 12.9703 109.702 19.6764C113.02 26.3826 114.101 33.9781 112.784 41.3478L109.213 40.713C110.393 34.1072 109.425 27.299 106.45 21.2879C103.475 15.2769 98.651 10.3796 92.6853 7.31513C86.7195 4.25065 79.9266 3.18039 73.3038 4.26147C66.6811 5.34255 60.5773 8.51801 55.8887 13.3217C51.2001 18.1253 48.1736 24.3041 47.2535 30.951C46.3334 37.5978 47.5683 44.3624 50.7767 50.2519C53.9852 56.1413 58.9983 60.8452 65.08 63.673C71.1617 66.5007 77.9916 67.3034 84.5671 65.9632L85.2884 69.5179Z" fill="url(#paint15_linear_682_13907)"/>
<path d="M82.9026 33.2249L82.9183 31.0888C82.9272 29.8844 83.3288 28.9429 84.1232 28.2644C84.9176 27.5859 85.9821 27.2509 87.3167 27.2595C88.6513 27.268 89.7067 27.6166 90.4829 28.3052C91.2673 28.9938 91.655 29.9403 91.6462 31.1447L91.6304 33.2809C91.6213 34.526 91.2194 35.4959 90.4249 36.1907C89.6385 36.8855 88.578 37.2287 87.2434 37.2201C85.9088 37.2116 84.8494 36.8548 84.0652 36.1499C83.2809 35.445 82.8934 34.47 82.9026 33.2249ZM86.136 33.4288C86.1328 33.8682 86.2158 34.2065 86.3849 34.4436C86.5622 34.6807 86.8543 34.8006 87.2612 34.8032C87.6599 34.8058 87.9456 34.6896 88.1183 34.4547C88.299 34.2198 88.391 33.8827 88.3943 33.4433L88.4119 31.0507C88.4151 30.6194 88.3321 30.2812 88.163 30.0359C87.9939 29.7907 87.7059 29.6668 87.299 29.6642C86.8921 29.6616 86.5983 29.7818 86.4174 30.0247C86.2447 30.2678 86.1568 30.605 86.1536 31.0363L86.136 33.4288ZM100.041 28.3543L89.8419 45.7331L87.4476 44.3017L97.5974 26.9836L100.041 28.3543ZM95.743 41.7425L95.7588 39.6063C95.7676 38.4019 96.1693 37.4605 96.9637 36.782C97.7581 36.1035 98.8226 35.7685 100.157 35.777C101.492 35.7856 102.547 36.1342 103.323 36.8228C104.108 37.5114 104.495 38.4579 104.487 39.6623L104.471 41.7985C104.462 43.0436 104.06 44.0135 103.265 44.7083C102.479 45.4031 101.418 45.7463 100.084 45.7377C98.7493 45.7291 97.6898 45.3724 96.9056 44.6675C96.1214 43.9626 95.7339 42.9876 95.743 41.7425ZM98.9765 41.9464C98.9733 42.3858 99.0562 42.7241 99.2254 42.9612C99.4027 43.1983 99.6948 43.3182 100.102 43.3208C100.5 43.3233 100.786 43.2072 100.959 42.9723C101.14 42.7374 101.232 42.4003 101.235 41.9608L101.252 39.5683C101.256 39.137 101.173 38.7988 101.003 38.5535C100.834 38.3083 100.546 38.1844 100.139 38.1818C99.7326 38.1792 99.4387 38.2993 99.2579 38.5423C99.0852 38.7854 98.9973 39.1225 98.9941 39.5538L98.9765 41.9464Z" fill="url(#paint16_linear_682_13907)"/>
<path d="M73.529 45.1888L73.6299 31.4929L69.2974 32.9911L69.3238 29.4023L75.309 27.2678L78.1531 27.286L78.0211 45.2177L73.529 45.1888Z" fill="url(#paint17_linear_682_13907)"/>
<path d="M53.4 40.2745C53.4089 39.0701 53.766 38.0999 54.4713 37.3639C55.1848 36.6197 55.9574 36.1283 56.7893 35.8895L56.7897 35.8406C55.9784 35.4936 55.3108 34.9766 54.7869 34.2897C54.2711 33.6027 54.0169 32.7507 54.0244 31.7335C54.0347 30.3338 54.5762 29.1938 55.6488 28.3136C56.7295 27.4254 58.2343 26.9874 60.1629 26.9998C62.0916 27.0121 63.5898 27.4694 64.6574 28.3714C65.725 29.2734 66.2537 30.4203 66.2434 31.8118C66.2359 32.8372 65.9895 33.6901 65.5043 34.3706C65.0192 35.0511 64.3644 35.5515 63.5401 35.8717L63.5397 35.9205C64.3845 36.1457 65.1295 36.6428 65.7749 37.412C66.4204 38.1729 66.7387 39.1556 66.7298 40.36C66.7181 41.955 66.1107 43.2044 64.9077 44.1082C63.7129 45.0039 62.0861 45.4451 60.0272 45.4319C57.9765 45.4187 56.3563 44.9567 55.1667 44.0457C53.9772 43.1266 53.3883 41.8696 53.4 40.2745ZM57.9561 39.9009C57.9503 40.6903 58.1249 41.2977 58.4798 41.7232C58.8348 42.1405 59.3582 42.3514 60.0499 42.3558C60.7416 42.3602 61.268 42.1561 61.6292 41.7434C61.9903 41.3225 62.1738 40.7174 62.1796 39.928C62.1856 39.1142 62.0193 38.4906 61.6807 38.0571C61.3502 37.6237 60.8188 37.4046 60.0864 37.3999C59.354 37.3952 58.8153 37.6074 58.4703 38.0365C58.1335 38.4657 57.9621 39.0871 57.9561 39.9009ZM58.3782 32.3107C58.373 33.0187 58.5031 33.5811 58.7686 33.9978C59.0422 34.4146 59.4883 34.625 60.1068 34.629C60.7253 34.6329 61.1744 34.4283 61.4541 34.015C61.7339 33.6018 61.8763 33.0412 61.8815 32.3332C61.8866 31.6415 61.7482 31.0994 61.4663 30.7069C61.1925 30.3064 60.7505 30.1042 60.1401 30.1003C59.5298 30.0964 59.0848 30.2929 58.8052 30.6899C58.5256 31.0787 58.3833 31.619 58.3782 32.3107Z" fill="url(#paint18_linear_682_13907)"/>
<path fill-rule="evenodd" clip-rule="evenodd" d="M201 246L201 22L202 22L202 246L201 246Z" fill="url(#paint19_linear_682_13907)" fill-opacity="0.5"/>
<path fill-rule="evenodd" clip-rule="evenodd" d="M380 140H15V139H380V140Z" fill="url(#paint20_linear_682_13907)" fill-opacity="0.5"/>
<defs>
<linearGradient id="paint0_linear_682_13907" x1="86.241" y1="183.172" x2="86.0005" y2="218.171" gradientUnits="userSpaceOnUse">
<stop offset="0.315" stop-color="#00B800"/>
<stop offset="1" stop-color="#00B800" stop-opacity="0"/>
</linearGradient>
<linearGradient id="paint1_linear_682_13907" x1="86.2401" y1="183.172" x2="85.9996" y2="218.171" gradientUnits="userSpaceOnUse">
<stop offset="0.315" stop-color="#00B800"/>
<stop offset="1" stop-color="#00B800" stop-opacity="0"/>
</linearGradient>
<linearGradient id="paint2_linear_682_13907" x1="86.2406" y1="183.172" x2="86.0001" y2="218.171" gradientUnits="userSpaceOnUse">
<stop offset="0.315" stop-color="#00B800"/>
<stop offset="1" stop-color="#00B800" stop-opacity="0"/>
</linearGradient>
<linearGradient id="paint3_linear_682_13907" x1="315.74" y1="189.133" x2="315.5" y2="224.133" gradientUnits="userSpaceOnUse">
<stop offset="0.315" stop-color="#00B800"/>
<stop offset="1" stop-color="#00B800" stop-opacity="0"/>
</linearGradient>
<linearGradient id="paint4_linear_682_13907" x1="315.741" y1="189.134" x2="315.5" y2="224.133" gradientUnits="userSpaceOnUse">
<stop offset="0.315" stop-color="#00B800"/>
<stop offset="1" stop-color="#00B800" stop-opacity="0"/>
</linearGradient>
<linearGradient id="paint5_linear_682_13907" x1="319.276" y1="24.5507" x2="318.962" y2="73.449" gradientUnits="userSpaceOnUse">
<stop offset="0.315" stop-color="#00B800"/>
<stop offset="1" stop-color="#00B800" stop-opacity="0"/>
</linearGradient>
<linearGradient id="paint6_linear_682_13907" x1="319.277" y1="24.5502" x2="318.963" y2="73.4485" gradientUnits="userSpaceOnUse">
<stop offset="0.315" stop-color="#00B800"/>
<stop offset="1" stop-color="#00B800" stop-opacity="0"/>
</linearGradient>
<linearGradient id="paint7_linear_682_13907" x1="319.277" y1="24.551" x2="318.963" y2="73.4492" gradientUnits="userSpaceOnUse">
<stop offset="0.315" stop-color="#00B800"/>
<stop offset="1" stop-color="#00B800" stop-opacity="0"/>
</linearGradient>
<linearGradient id="paint8_linear_682_13907" x1="319.278" y1="24.5503" x2="318.964" y2="73.4486" gradientUnits="userSpaceOnUse">
<stop offset="0.315" stop-color="#00B800"/>
<stop offset="1" stop-color="#00B800" stop-opacity="0"/>
</linearGradient>
<linearGradient id="paint9_linear_682_13907" x1="319.276" y1="24.5512" x2="318.962" y2="73.4494" gradientUnits="userSpaceOnUse">
<stop offset="0.315" stop-color="#00B800"/>
<stop offset="1" stop-color="#00B800" stop-opacity="0"/>
</linearGradient>
<linearGradient id="paint10_linear_682_13907" x1="319.276" y1="24.5509" x2="318.962" y2="73.4492" gradientUnits="userSpaceOnUse">
<stop offset="0.315" stop-color="#00B800"/>
<stop offset="1" stop-color="#00B800" stop-opacity="0"/>
</linearGradient>
<linearGradient id="paint11_linear_682_13907" x1="319.277" y1="24.551" x2="318.963" y2="73.4493" gradientUnits="userSpaceOnUse">
<stop offset="0.315" stop-color="#00B800"/>
<stop offset="1" stop-color="#00B800" stop-opacity="0"/>
</linearGradient>
<linearGradient id="paint12_linear_682_13907" x1="319.276" y1="24.5511" x2="318.963" y2="73.4494" gradientUnits="userSpaceOnUse">
<stop offset="0.315" stop-color="#00B800"/>
<stop offset="1" stop-color="#00B800" stop-opacity="0"/>
</linearGradient>
<linearGradient id="paint13_linear_682_13907" x1="319.278" y1="24.5511" x2="318.964" y2="73.4493" gradientUnits="userSpaceOnUse">
<stop offset="0.315" stop-color="#00B800"/>
<stop offset="1" stop-color="#00B800" stop-opacity="0"/>
</linearGradient>
<linearGradient id="paint14_linear_682_13907" x1="319.277" y1="24.5507" x2="318.963" y2="73.449" gradientUnits="userSpaceOnUse">
<stop offset="0.315" stop-color="#00B800"/>
<stop offset="1" stop-color="#00B800" stop-opacity="0"/>
</linearGradient>
<linearGradient id="paint15_linear_682_13907" x1="78.5872" y1="0.224464" x2="78.1382" y2="70.223" gradientUnits="userSpaceOnUse">
<stop offset="0.315" stop-color="#00B800"/>
<stop offset="1" stop-color="#00B800" stop-opacity="0"/>
</linearGradient>
<linearGradient id="paint16_linear_682_13907" x1="79.1899" y1="22.2248" x2="79.0196" y2="48.7761" gradientUnits="userSpaceOnUse">
<stop offset="0.315" stop-color="#00B800"/>
<stop offset="1" stop-color="#00B800" stop-opacity="0"/>
</linearGradient>
<linearGradient id="paint17_linear_682_13907" x1="79.1914" y1="22.2247" x2="79.0211" y2="48.776" gradientUnits="userSpaceOnUse">
<stop offset="0.315" stop-color="#00B800"/>
<stop offset="1" stop-color="#00B800" stop-opacity="0"/>
</linearGradient>
<linearGradient id="paint18_linear_682_13907" x1="79.1899" y1="22.2247" x2="79.0196" y2="48.776" gradientUnits="userSpaceOnUse">
<stop offset="0.315" stop-color="#00B800"/>
<stop offset="1" stop-color="#00B800" stop-opacity="0"/>
</linearGradient>
<linearGradient id="paint19_linear_682_13907" x1="201" y1="134" x2="200" y2="134" gradientUnits="userSpaceOnUse">
<stop stop-color="#00B800"/>
<stop offset="1" stop-color="#00B800" stop-opacity="0"/>
</linearGradient>
<linearGradient id="paint20_linear_682_13907" x1="197.5" y1="140" x2="197.5" y2="141" gradientUnits="userSpaceOnUse">
<stop stop-color="#00B800"/>
<stop offset="1" stop-color="#00B800" stop-opacity="0"/>
</linearGradient>
</defs>
</svg>
