<svg width="447" height="311" viewBox="0 0 447 311" fill="none" xmlns="http://www.w3.org/2000/svg">
<path d="M0 30C0 13.4315 13.4315 0 30 0H417C433.569 0 447 13.4315 447 30V281C447 297.569 433.569 311 417 311H30C13.4315 311 0 297.569 0 281V30Z" fill="url(#paint0_linear_682_13908)" fill-opacity="0.05"/>
<path d="M117.396 233.548L121.702 233.606L121.7 233.856C121.696 234.549 121.922 235.048 122.379 235.354C122.845 235.651 123.469 235.801 124.251 235.807C125.022 235.812 125.604 235.679 125.997 235.409C126.389 235.138 126.587 234.763 126.59 234.285C126.594 233.796 126.371 233.433 125.924 233.196C125.476 232.949 124.502 232.669 123 232.356C121.196 231.982 119.881 231.416 119.056 230.659C118.241 229.901 117.838 228.907 117.846 227.677C117.856 226.231 118.445 225.107 119.613 224.305C120.78 223.502 122.375 223.108 124.396 223.122C126.398 223.136 127.982 223.566 129.148 224.414C130.314 225.262 130.892 226.428 130.882 227.913L130.881 228.132L126.574 228.103L126.576 227.839C126.58 227.263 126.392 226.827 126.014 226.531C125.645 226.226 125.079 226.071 124.317 226.066C123.595 226.061 123.072 226.179 122.748 226.421C122.424 226.653 122.26 226.979 122.258 227.399C122.255 227.8 122.477 228.123 122.925 228.371C123.372 228.618 124.357 228.898 125.878 229.211C127.711 229.575 129.05 230.122 129.895 230.85C130.74 231.579 131.158 232.578 131.149 233.847C131.138 235.41 130.549 236.612 129.381 237.453C128.213 238.295 126.516 238.708 124.289 238.693C122.092 238.678 120.396 238.241 119.201 237.383C118.005 236.525 117.403 235.315 117.394 233.753L117.396 233.548Z" fill="#00B800"/>
<path d="M100.922 230.973L100.925 230.505C100.94 228.229 101.656 226.413 103.072 225.055C104.497 223.688 106.338 223.012 108.594 223.028C110.849 223.043 112.598 223.705 113.839 225.012C115.09 226.32 115.707 228.111 115.692 230.386L115.681 231.866L103.773 231.784L103.791 229.162L111.202 229.213L111.204 228.964C111.209 228.212 110.984 227.576 110.529 227.055C110.083 226.534 109.426 226.271 108.557 226.265C107.57 226.258 106.816 226.619 106.293 227.348C105.781 228.067 105.52 229.013 105.512 230.185L105.505 231.166C105.497 232.436 105.763 233.438 106.305 234.175C106.857 234.901 107.665 235.268 108.729 235.275C109.491 235.28 110.141 235.109 110.681 234.761C111.22 234.413 111.653 233.992 111.979 233.496L115.454 235.175C114.968 236.207 114.157 237.036 113.019 237.663C111.892 238.29 110.479 238.598 108.78 238.586C106.299 238.569 104.365 237.872 102.978 236.496C101.591 235.109 100.906 233.268 100.922 230.973Z" fill="#00B800"/>
<path d="M89.9031 238.046L89.9568 230.224L82.9307 216.67L88.1307 216.706L91.9459 224.291C92.0711 224.545 92.1817 224.79 92.2778 225.025C92.3738 225.26 92.4698 225.5 92.5658 225.745L92.639 225.746C92.7286 225.502 92.823 225.263 92.9223 225.03C93.0313 224.796 93.1502 224.553 93.2789 224.3L97.2272 216.768L101.827 216.8L94.7332 230.096L94.6784 238.079L89.9031 238.046Z" fill="#00B800"/>
<path d="M339.554 237.013L339.558 236.529C339.573 234.244 340.308 232.423 341.763 231.066C343.228 229.699 345.132 229.023 347.475 229.039C349.819 229.056 351.709 229.757 353.145 231.144C354.581 232.521 355.291 234.352 355.275 236.637L355.272 237.121C355.256 239.415 354.521 241.241 353.066 242.599C351.611 243.956 349.712 244.626 347.368 244.61C345.015 244.594 343.12 243.898 341.684 242.52C340.249 241.143 339.538 239.307 339.554 237.013ZM344.246 236.356L344.24 237.25C344.232 238.51 344.498 239.488 345.04 240.185C345.582 240.882 346.366 241.234 347.392 241.241C348.417 241.248 349.205 240.907 349.757 240.217C350.309 239.528 350.589 238.548 350.598 237.279L350.604 236.4C350.612 235.14 350.341 234.167 349.789 233.479C349.237 232.792 348.458 232.445 347.452 232.438C346.436 232.431 345.648 232.767 345.087 233.447C344.535 234.127 344.255 235.097 344.246 236.356Z" fill="#00B800"/>
<path d="M319.952 244.012L320.099 222.685L325.035 222.718L331.774 235.421C331.928 235.725 332.063 236.029 332.178 236.332C332.303 236.626 332.413 236.925 332.509 237.228L332.611 237.229C332.594 236.907 332.586 236.589 332.589 236.277C332.591 235.954 332.593 235.627 332.595 235.295L332.681 222.771L336.754 222.799L336.607 244.127L331.656 244.093L324.902 231.419C324.748 231.125 324.613 230.826 324.498 230.523C324.383 230.219 324.278 229.916 324.182 229.612L324.079 229.612C324.097 229.944 324.104 230.271 324.102 230.593C324.11 230.915 324.112 231.243 324.11 231.575L324.024 244.04L319.952 244.012Z" fill="#00B800"/>
<path d="M153.982 275.954L154.067 263.503L157.668 263.528L157.719 265.042L157.78 265.042C158.167 264.475 158.678 264.039 159.315 263.734C159.96 263.429 160.661 263.28 161.418 263.285C162.289 263.291 163.044 263.483 163.684 263.862C164.333 264.233 164.797 264.773 165.077 265.483L165.114 265.483C165.558 264.778 166.152 264.245 166.895 263.884C167.646 263.515 168.445 263.333 169.291 263.339C170.536 263.348 171.539 263.737 172.298 264.507C173.058 265.277 173.432 266.554 173.42 268.336L173.366 276.087L169.594 276.061L169.648 268.322C169.653 267.59 169.506 267.056 169.207 266.72C168.908 266.376 168.466 266.198 167.88 266.186C167.359 266.182 166.906 266.326 166.522 266.616C166.146 266.906 165.842 267.303 165.61 267.806L165.554 276.033L161.782 276.007L161.835 268.305C161.84 267.556 161.689 267.01 161.382 266.666C161.084 266.314 160.633 266.136 160.031 266.132C159.526 266.128 159.086 266.272 158.71 266.562C158.333 266.844 158.034 267.241 157.81 267.752L157.754 275.98L153.982 275.954Z" fill="#252525"/>
<path d="M144.702 275.89L144.788 263.439L148.438 263.465L148.489 264.905L148.538 264.906C148.818 264.419 149.191 264.007 149.657 263.668C150.131 263.33 150.661 263.162 151.247 263.166C151.435 263.168 151.622 263.189 151.808 263.231C151.995 263.265 152.125 263.299 152.198 263.332L152.177 266.444C152.031 266.403 151.868 266.373 151.689 266.356C151.519 266.33 151.327 266.316 151.116 266.315C150.571 266.311 150.065 266.475 149.599 266.805C149.133 267.127 148.788 267.548 148.565 268.068L148.511 275.916L144.702 275.89Z" fill="#252525"/>
<path d="M129.263 269.742L129.266 269.351C129.279 267.406 129.896 265.86 131.116 264.713C132.337 263.565 133.928 262.999 135.889 263.012C137.85 263.025 139.429 263.614 140.626 264.778C141.83 265.942 142.426 267.496 142.412 269.441L142.41 269.832C142.396 271.777 141.779 273.323 140.559 274.47C139.347 275.617 137.76 276.184 135.799 276.171C133.837 276.157 132.254 275.569 131.05 274.405C129.845 273.241 129.25 271.686 129.263 269.742ZM133.112 269.194L133.107 269.951C133.099 271.05 133.33 271.898 133.797 272.495C134.265 273.084 134.939 273.382 135.818 273.388C136.697 273.394 137.37 273.105 137.838 272.523C138.314 271.932 138.556 271.087 138.563 269.989L138.568 269.232C138.576 268.133 138.342 267.289 137.866 266.7C137.398 266.111 136.732 265.813 135.87 265.807C134.999 265.801 134.322 266.09 133.837 266.672C133.361 267.255 133.12 268.096 133.112 269.194Z" fill="#252525"/>
<path d="M115.28 275.689L115.365 263.238L118.978 263.263L119.029 264.728L119.09 264.728C119.411 264.218 119.898 263.802 120.552 263.481C121.205 263.16 121.943 263.002 122.764 263.008C124.042 263.017 125.081 263.386 125.882 264.116C126.683 264.846 127.077 266.097 127.065 267.872L127.01 275.769L123.251 275.743L123.304 267.956C123.309 267.199 123.15 266.665 122.827 266.353C122.504 266.033 122.041 265.872 121.439 265.867C120.942 265.864 120.481 266.007 120.056 266.297C119.639 266.579 119.323 266.972 119.108 267.475L119.052 275.715L115.28 275.689Z" fill="#252525"/>
<path d="M99.1672 265.848L99.1859 263.126L107.206 263.181L107.187 265.904L99.1672 265.848ZM101.006 271.831L101.058 264.299L101.097 263.994L101.124 259.929L104.811 259.955L104.731 271.539C104.727 272.182 104.83 272.618 105.04 272.847C105.258 273.068 105.57 273.18 105.977 273.183C106.173 273.184 106.364 273.165 106.551 273.126C106.739 273.078 106.922 273.023 107.102 272.959L107.084 275.608C106.88 275.696 106.586 275.775 106.203 275.846C105.828 275.916 105.401 275.95 104.921 275.947C103.708 275.939 102.75 275.606 102.047 274.951C101.343 274.286 100.996 273.246 101.006 271.831Z" fill="#252525"/>
<path d="M85.9034 275.486L86.0303 257.018L89.79 257.043L89.7373 264.709C90.0992 264.15 90.5988 263.694 91.236 263.34C91.8732 262.986 92.6597 262.813 93.5956 262.819C94.7837 262.827 95.7577 263.204 96.5176 263.95C97.2856 264.688 97.664 265.883 97.6526 267.535L97.5974 275.567L93.8255 275.541L93.8783 267.863C93.8837 267.073 93.7126 266.511 93.365 266.175C93.0255 265.839 92.5587 265.669 91.9646 265.665C91.4357 265.661 90.9789 265.808 90.5944 266.107C90.218 266.405 89.9303 266.822 89.7313 267.358L89.6752 275.512L85.9034 275.486Z" fill="#252525"/>
<path d="M71.0196 279.095L72.3787 276.724C72.6859 277.019 73.1885 277.308 73.8864 277.589C74.5925 277.879 75.3402 278.026 76.1295 278.032C76.9922 278.038 77.7142 277.778 78.2956 277.253C78.877 276.736 79.1715 275.916 79.1792 274.793L79.1843 274.049C78.8554 274.551 78.3928 274.943 77.7968 275.223C77.2008 275.504 76.4756 275.642 75.6211 275.636C74.0342 275.625 72.7565 275.042 71.7878 273.888C70.8273 272.734 70.3535 271.221 70.3663 269.349L70.369 268.959C70.3819 267.079 70.8724 265.569 71.8406 264.428C72.8088 263.279 74.0985 262.71 75.7098 262.721C76.4992 262.726 77.2142 262.894 77.8549 263.224C78.5037 263.546 78.9688 263.96 79.2502 264.467L79.3112 264.467L79.3824 262.99L82.9956 263.015L82.9163 274.551C82.9025 276.569 82.2937 278.115 81.09 279.189C79.8944 280.263 78.3567 280.794 76.4769 280.781C75.3457 280.773 74.3052 280.607 73.3552 280.283C72.4134 279.959 71.6349 279.563 71.0196 279.095ZM74.1863 269.486C74.1793 270.495 74.3894 271.314 74.8164 271.944C75.2434 272.573 75.9004 272.891 76.7874 272.897C77.3733 272.901 77.875 272.734 78.2924 272.395C78.7097 272.056 79.0094 271.671 79.1914 271.241L79.2189 267.237C79.0352 266.732 78.7329 266.314 78.312 265.986C77.8992 265.658 77.3958 265.491 76.8017 265.487C75.9309 265.481 75.2777 265.794 74.8421 266.426C74.4146 267.05 74.1974 267.862 74.1905 268.863L74.1863 269.486Z" fill="#252525"/>
<path d="M64.1582 275.337L64.2438 262.887L68.0401 262.913L67.9545 275.364L64.1582 275.337ZM63.9883 259.21C63.9921 258.649 64.1826 258.178 64.5595 257.798C64.9446 257.418 65.4871 257.231 66.187 257.236C66.8868 257.241 67.4226 257.435 67.7943 257.821C68.1742 258.206 68.3622 258.679 68.3583 259.24C68.3544 259.802 68.1599 260.277 67.7748 260.665C67.3978 261.045 66.8553 261.232 66.1473 261.227C65.4475 261.222 64.9117 261.027 64.54 260.642C64.1683 260.249 63.9844 259.772 63.9883 259.21Z" fill="#252525"/>
<path d="M49.6341 269.195L49.6368 268.804C49.65 266.875 50.2507 265.333 51.4386 264.178C52.6348 263.022 54.1687 262.451 56.0404 262.464C57.9202 262.477 59.3813 263.036 60.4235 264.142C61.4738 265.248 61.9924 266.765 61.9792 268.694L61.9706 269.939L52.0343 269.87L52.0494 267.673L58.2871 267.716L58.2886 267.484C58.2932 266.825 58.0976 266.27 57.7019 265.82C57.3144 265.37 56.7503 265.142 56.0098 265.137C55.1635 265.131 54.5144 265.44 54.0625 266.063C53.6187 266.687 53.3933 267.52 53.3861 268.561L53.3806 269.367C53.3731 270.449 53.6032 271.309 54.0709 271.947C54.5467 272.577 55.2485 272.895 56.1762 272.902C56.8191 272.906 57.3735 272.755 57.8395 272.449C58.3136 272.143 58.6905 271.78 58.97 271.358L61.7552 272.855C61.3508 273.682 60.6707 274.357 59.7149 274.879C58.7592 275.394 57.5896 275.646 56.2062 275.636C54.1392 275.622 52.5238 275.029 51.3599 273.858C50.1961 272.686 49.6208 271.131 49.6341 269.195Z" fill="#252525"/>
<path d="M29.9379 275.163L25.8613 257.3L29.6942 257.326L32.2133 269.124C32.2605 269.368 32.2957 269.576 32.3189 269.747C32.3422 269.91 32.3652 270.121 32.3878 270.382L32.4855 270.383C32.5198 270.123 32.5497 269.911 32.5753 269.749C32.6009 269.578 32.6389 269.371 32.6894 269.127L35.6145 257.367L39.6916 257.395L42.5159 269.182C42.5712 269.427 42.6064 269.634 42.6215 269.805C42.6447 269.976 42.6717 270.192 42.7025 270.453L42.8002 270.454C42.8264 270.185 42.8523 269.97 42.8778 269.807C42.9116 269.636 42.9496 269.429 42.992 269.185L45.5752 257.435L49.0053 257.459L44.7691 275.265L40.5822 275.236L37.6848 263.411C37.6295 263.175 37.5822 262.951 37.543 262.739C37.5119 262.527 37.481 262.291 37.4502 262.03L37.3647 262.03C37.3385 262.29 37.3044 262.526 37.2622 262.737C37.2282 262.949 37.1779 263.172 37.1111 263.408L34.0638 275.191L29.9379 275.163Z" fill="#252525"/>
<path d="M412.472 86.3947L412.498 82.7474C413.489 82.1873 414.317 81.1477 414.982 79.6285C415.648 78.1093 415.992 75.7628 416.016 72.5891L416.018 72.2375C416.041 69.0931 415.726 66.7668 415.074 65.2587C414.421 63.7408 413.613 62.6662 412.651 62.0351L412.678 58.3877C415.142 59.2336 417.225 60.8046 418.927 63.1007C420.639 65.3871 421.481 68.4785 421.452 72.3749L421.451 72.5214C421.422 76.4568 420.554 79.5519 418.848 81.8066C417.142 84.0614 415.017 85.5907 412.472 86.3947Z" fill="#00B800"/>
<path d="M386.241 65.1172L391.588 65.1515L393.467 72.5318C393.562 72.8938 393.638 73.2263 393.694 73.5294C393.751 73.8227 393.802 74.1405 393.848 74.4826L393.936 74.4831C393.997 74.1417 394.053 73.8247 394.104 73.532C394.165 73.2297 394.241 72.8981 394.331 72.5374L396.48 65.1829L401.505 65.2151L403.603 72.6261C403.708 72.9882 403.789 73.3207 403.845 73.6238C403.911 73.9172 403.972 74.2301 404.029 74.5625L404.102 74.563C404.163 74.2313 404.224 73.9143 404.285 73.612C404.345 73.3096 404.416 72.9829 404.497 72.6319L406.5 65.2471L411.187 65.2772L406.67 79.9702L401.338 79.936L399.063 72.4652C398.978 72.1619 398.902 71.8538 398.836 71.5409C398.77 71.2279 398.709 70.915 398.652 70.6022L398.608 70.6019C398.547 70.914 398.477 71.2261 398.396 71.538C398.326 71.8501 398.25 72.1572 398.17 72.4595L395.962 79.9015L390.527 79.8667L386.241 65.1172Z" fill="#00B800"/>
<path d="M368.559 72.5779L368.563 72.1092C368.58 69.785 369.35 67.9491 370.874 66.6014C372.397 65.2537 374.38 64.5877 376.821 64.6034C379.262 64.619 381.235 65.3104 382.739 66.6775C384.242 68.0446 384.986 69.8902 384.968 72.2144L384.965 72.6831C384.948 75.0073 384.177 76.8432 382.654 78.1909C381.13 79.5386 379.148 80.2046 376.706 80.1889C374.265 80.1732 372.293 79.4819 370.789 78.1148C369.285 76.7477 368.542 74.9021 368.559 72.5779ZM374.014 71.8512L374.006 72.8912C373.998 74.0435 374.231 74.9092 374.705 75.4885C375.179 76.0579 375.856 76.3455 376.735 76.3511C377.614 76.3568 378.294 76.0779 378.777 75.5146C379.26 74.9415 379.505 74.0739 379.514 72.9118L379.521 71.8865C379.53 70.7439 379.292 69.8879 378.808 69.3184C378.324 68.7489 377.652 68.4613 376.793 68.4558C375.933 68.4503 375.258 68.7292 374.765 69.2924C374.273 69.8557 374.022 70.7086 374.014 71.8512Z" fill="#00B800"/>
<path d="M360.357 79.6732L360.52 57.6572L365.91 57.6918L365.748 79.7078L360.357 79.6732Z" fill="#00B800"/>
<path d="M357.464 86.0571C354.97 85.2305 352.877 83.6741 351.185 81.3878C349.503 79.1016 348.676 75.9907 348.705 72.0553L348.706 71.9088C348.734 68.0905 349.572 65.0392 351.22 62.7548C352.868 60.4607 355.018 58.8875 357.671 58.0354L357.644 61.6827C356.682 62.3016 355.864 63.3657 355.189 64.875C354.514 66.3746 354.164 68.6967 354.141 71.8411L354.139 72.1927C354.115 75.3664 354.411 77.7023 355.025 79.2004C355.639 80.6888 356.461 81.7537 357.491 82.395L357.464 86.0571Z" fill="#00B800"/>
<path d="M331.399 79.4881L331.441 73.9072L331.547 73.3805L331.608 65.0897L331.461 65.0888L327.462 71.0984L333.189 71.1352L333.966 71.0669L338.874 71.0984L338.843 75.2438L322.232 75.1372L322.259 71.4752L331.893 58.1627L336.83 58.1944L336.673 79.5219L331.399 79.4881Z" fill="#00B800"/>
<path d="M311.664 79.3616L311.784 62.9998L306.454 64.7967L306.486 60.373L313.682 57.8703L317.359 57.8938L317.201 79.3972L311.664 79.3616Z" fill="#00B800"/>
<path d="M287.49 73.2008L287.494 72.5562L293.031 72.6064L293.027 73.1484C293.021 73.998 293.226 74.6438 293.643 75.086C294.06 75.5281 294.664 75.7517 295.455 75.7568C296.275 75.762 296.882 75.4925 297.277 74.9481C297.672 74.394 297.873 73.5115 297.882 72.3006C297.891 71.0995 297.692 70.2437 297.286 69.7332C296.889 69.2131 296.315 68.9506 295.563 68.9458C294.958 68.9419 294.449 69.0754 294.037 69.3462C293.625 69.6072 293.28 69.9517 293.004 70.3796L288.196 68.8253L289.375 57.8903L302.441 57.9741L302.41 62.2659L293.592 62.1508L293.167 66.1472C293.608 65.857 294.138 65.6163 294.754 65.4249C295.371 65.2336 296.07 65.1404 296.851 65.1454C298.765 65.1577 300.348 65.7538 301.599 66.9337C302.85 68.1136 303.467 69.8168 303.451 72.0433C303.434 74.3773 302.741 76.2332 301.374 77.6112C300.016 78.9794 298.048 79.6553 295.47 79.6388C292.921 79.6224 290.948 79.0287 289.55 77.8576C288.162 76.6768 287.476 75.1245 287.49 73.2008Z" fill="#00B800"/>
<path d="M278.555 76.5126C278.561 75.6923 278.834 75.0007 279.376 74.4378C279.927 73.8749 280.71 73.5967 281.726 73.6032C282.741 73.6097 283.515 73.8979 284.048 74.4677C284.591 75.0376 284.859 75.7327 284.853 76.553C284.847 77.3733 284.569 78.0698 284.018 78.6424C283.476 79.2054 282.698 79.4836 281.682 79.4771C280.667 79.4706 279.888 79.1775 279.345 78.5978C278.812 78.0182 278.549 77.3231 278.555 76.5126Z" fill="#00B800"/>
<path d="M266.636 79.0726L266.757 62.7107L261.426 64.5076L261.459 60.0839L268.655 57.5812L272.332 57.6048L272.173 79.1081L266.636 79.0726Z" fill="#00B800"/>
<path d="M175.638 134.161L179.227 134.21L179.226 134.418C179.222 134.995 179.414 135.416 179.803 135.679C180.192 135.942 180.72 136.076 181.387 136.08C182.046 136.085 182.543 135.97 182.879 135.737C183.222 135.495 183.395 135.166 183.398 134.751C183.401 134.336 183.216 134.026 182.843 133.82C182.47 133.606 181.634 133.364 180.333 133.095C178.822 132.783 177.722 132.308 177.035 131.668C176.356 131.029 176.02 130.196 176.027 129.171C176.035 127.958 176.53 127.014 177.511 126.337C178.492 125.66 179.821 125.327 181.497 125.339C183.166 125.35 184.49 125.717 185.469 126.44C186.449 127.155 186.935 128.135 186.926 129.38L186.925 129.551L183.349 129.526L183.35 129.319C183.353 128.831 183.197 128.459 182.882 128.205C182.566 127.942 182.087 127.809 181.444 127.804C180.825 127.8 180.373 127.899 180.087 128.1C179.809 128.302 179.668 128.581 179.666 128.939C179.664 129.298 179.849 129.584 180.222 129.798C180.595 130.004 181.443 130.242 182.768 130.511C184.288 130.823 185.395 131.286 186.091 131.901C186.795 132.508 187.143 133.349 187.136 134.423C187.127 135.733 186.632 136.743 185.65 137.452C184.677 138.162 183.262 138.51 181.407 138.498C179.56 138.485 178.134 138.117 177.13 137.394C176.134 136.671 175.636 135.646 175.637 134.32L175.638 134.161Z" fill="#252525"/>
<path d="M160.733 131.984L160.736 131.593C160.748 129.738 161.255 128.231 162.256 127.075C163.265 125.918 164.571 125.345 166.174 125.356C166.988 125.361 167.691 125.509 168.283 125.798C168.875 126.086 169.332 126.46 169.655 126.918L169.705 119.606L173.428 119.632L173.301 138.1L169.724 138.076L169.674 136.562L169.625 136.561C169.337 137.056 168.878 137.472 168.249 137.809C167.628 138.139 166.907 138.301 166.085 138.295C164.417 138.283 163.103 137.688 162.142 136.51C161.19 135.332 160.72 133.823 160.733 131.984ZM164.565 132.12C164.558 133.129 164.768 133.952 165.195 134.59C165.622 135.22 166.271 135.537 167.142 135.543C167.736 135.547 168.237 135.388 168.646 135.065C169.064 134.743 169.372 134.358 169.57 133.912L169.598 129.762C169.414 129.305 169.12 128.92 168.715 128.608C168.319 128.288 167.811 128.126 167.193 128.122C166.338 128.116 165.689 128.429 165.245 129.06C164.802 129.684 164.576 130.496 164.569 131.497L164.565 132.12Z" fill="#252525"/>
<path d="M146.864 131.876L146.866 131.486C146.88 129.557 147.48 128.015 148.668 126.859C149.864 125.704 151.398 125.132 153.27 125.145C155.15 125.158 156.611 125.718 157.653 126.823C158.703 127.929 159.222 129.447 159.209 131.375L159.2 132.62L149.264 132.552L149.279 130.355L155.517 130.398L155.518 130.166C155.523 129.507 155.327 128.952 154.931 128.501C154.544 128.051 153.98 127.824 153.239 127.818C152.393 127.813 151.744 128.122 151.292 128.745C150.848 129.369 150.623 130.201 150.616 131.243L150.61 132.049C150.603 133.131 150.833 133.991 151.3 134.629C151.776 135.259 152.478 135.577 153.406 135.583C154.049 135.588 154.603 135.437 155.069 135.131C155.543 134.825 155.92 134.461 156.2 134.04L158.985 135.536C158.58 136.364 157.9 137.039 156.944 137.561C155.989 138.075 154.819 138.328 153.436 138.318C151.369 138.304 149.753 137.711 148.589 136.539C147.426 135.367 146.85 133.813 146.864 131.876Z" fill="#252525"/>
<path d="M132.994 131.781L132.997 131.39C133.01 129.461 133.611 127.919 134.799 126.764C135.995 125.608 137.529 125.037 139.401 125.05C141.281 125.062 142.742 125.622 143.784 126.728C144.834 127.834 145.353 129.351 145.34 131.279L145.331 132.525L135.395 132.456L135.41 130.259L141.647 130.302L141.649 130.07C141.654 129.411 141.458 128.856 141.062 128.406C140.675 127.956 140.111 127.728 139.37 127.723C138.524 127.717 137.875 128.026 137.423 128.649C136.979 129.273 136.754 130.106 136.746 131.147L136.741 131.953C136.733 133.035 136.964 133.895 137.431 134.533C137.907 135.163 138.609 135.481 139.537 135.488C140.179 135.492 140.734 135.341 141.2 135.035C141.674 134.729 142.051 134.366 142.33 133.944L145.116 135.441C144.711 136.268 144.031 136.943 143.075 137.465C142.12 137.98 140.95 138.232 139.567 138.222C137.5 138.208 135.884 137.615 134.72 136.443C133.556 135.272 132.981 133.717 132.994 131.781Z" fill="#252525"/>
<path d="M119.011 137.728L119.097 125.277L122.71 125.302L122.761 126.767L122.822 126.767C123.143 126.257 123.63 125.841 124.283 125.52C124.936 125.199 125.674 125.041 126.496 125.047C127.774 125.056 128.813 125.425 129.613 126.155C130.414 126.885 130.808 128.137 130.796 129.911L130.742 137.808L126.982 137.782L127.036 129.995C127.041 129.238 126.882 128.704 126.558 128.392C126.235 128.073 125.772 127.911 125.17 127.907C124.674 127.903 124.213 128.046 123.788 128.336C123.371 128.618 123.055 129.011 122.84 129.514L122.783 137.754L119.011 137.728Z" fill="#252525"/>
<path d="M99.0143 133.635L102.603 133.684L102.601 133.891C102.598 134.469 102.79 134.889 103.179 135.152C103.568 135.416 104.096 135.549 104.763 135.554C105.422 135.559 105.919 135.444 106.255 135.21C106.598 134.968 106.771 134.64 106.774 134.225C106.777 133.81 106.592 133.499 106.219 133.293C105.846 133.079 105.01 132.838 103.709 132.568C102.198 132.257 101.098 131.781 100.411 131.142C99.7316 130.502 99.3956 129.67 99.4026 128.644C99.4109 127.432 99.9057 126.487 100.887 125.81C101.868 125.133 103.197 124.801 104.873 124.812C106.542 124.824 107.866 125.191 108.845 125.914C109.825 126.629 110.311 127.609 110.302 128.854L110.301 129.025L106.725 129L106.726 128.792C106.729 128.304 106.573 127.933 106.258 127.678C105.942 127.416 105.463 127.282 104.82 127.278C104.201 127.274 103.749 127.372 103.463 127.574C103.185 127.775 103.044 128.055 103.042 128.413C103.04 128.771 103.225 129.057 103.598 129.271C103.971 129.477 104.819 129.715 106.144 129.985C107.664 130.296 108.771 130.76 109.467 131.375C110.171 131.982 110.519 132.822 110.512 133.897C110.503 135.207 110.008 136.217 109.026 136.926C108.053 137.636 106.638 137.984 104.783 137.971C102.936 137.958 101.51 137.591 100.506 136.868C99.5098 136.145 99.0122 135.12 99.0132 133.793L99.0143 133.635Z" fill="#252525"/>
<path d="M98.1307 119.786L98.1184 121.58C98.1115 122.59 97.8649 123.536 97.3787 124.42C96.9006 125.303 96.175 126.084 95.2019 126.761L92.9907 125.232C93.3847 124.73 93.6815 124.187 93.8808 123.602C94.0883 123.009 94.1947 122.335 94.1999 121.578L94.2124 119.759L98.1307 119.786Z" fill="#252525"/>
<path d="M87.044 137.508L87.1709 119.039L90.955 119.065L90.8281 137.534L87.044 137.508Z" fill="#252525"/>
<path d="M80.2305 137.461L80.3574 118.992L84.1415 119.018L84.0146 137.487L80.2305 137.461Z" fill="#252525"/>
<path d="M65.7191 131.319L65.7218 130.928C65.735 128.999 66.3356 127.457 67.5236 126.302C68.7197 125.146 70.2536 124.575 72.1253 124.588C74.0052 124.601 75.4662 125.16 76.5084 126.266C77.5588 127.372 78.0774 128.889 78.0641 130.818L78.0556 132.063L68.1193 131.994L68.1344 129.797L74.372 129.84L74.3736 129.608C74.3781 128.949 74.1826 128.394 73.7869 127.944C73.3993 127.494 72.8353 127.266 72.0948 127.261C71.2484 127.255 70.5993 127.564 70.1474 128.187C69.7037 128.811 69.4782 129.644 69.4711 130.685L69.4655 131.491C69.4581 132.573 69.6882 133.433 70.1558 134.071C70.6317 134.701 71.3334 135.019 72.2611 135.026C72.904 135.03 73.4585 134.879 73.9244 134.573C74.3986 134.267 74.7754 133.904 75.055 133.482L77.8402 134.979C77.4357 135.806 76.7556 136.481 75.7999 137.003C74.8442 137.518 73.6746 137.77 72.2912 137.76C70.2242 137.746 68.6087 137.153 67.4449 135.982C66.281 134.81 65.7058 133.255 65.7191 131.319Z" fill="#252525"/>
<path d="M51.9476 131.224L51.9503 130.833C51.9638 128.864 52.5604 127.314 53.7401 126.182C54.9198 125.043 56.4862 124.48 58.4393 124.494C60.311 124.506 61.7361 124.964 62.7146 125.866C63.7013 126.768 64.2267 127.886 64.2907 129.221L64.3014 129.453L60.6393 129.428L60.6404 129.269C60.6444 128.684 60.4606 128.202 60.0888 127.825C59.7252 127.44 59.1732 127.245 58.4326 127.24C57.5782 127.234 56.925 127.539 56.4732 128.154C56.0295 128.762 55.8041 129.598 55.7967 130.664L55.7915 131.433C55.7841 132.5 55.9899 133.347 56.4088 133.977C56.8358 134.598 57.4929 134.912 58.3799 134.918C59.1774 134.924 59.7484 134.728 60.0929 134.332C60.4375 133.935 60.6116 133.46 60.6154 132.907L60.6164 132.761L64.2662 132.786L64.265 132.969C64.2477 134.295 63.7274 135.411 62.7039 136.315C61.6804 137.22 60.2328 137.665 58.3611 137.652C56.4161 137.639 54.8576 137.055 53.6855 135.899C52.5134 134.744 51.9341 133.185 51.9476 131.224Z" fill="#252525"/>
<path d="M38.9012 137.177L38.9955 123.444C39.0069 121.784 39.4834 120.542 40.425 119.719C41.3747 118.895 42.5982 118.488 44.0955 118.499C44.4129 118.501 44.7139 118.519 44.9985 118.554C45.2912 118.588 45.5635 118.639 45.8154 118.706L45.6743 121.464C45.5199 121.43 45.3533 121.401 45.1744 121.375C45.0037 121.349 44.8166 121.336 44.6132 121.334C44.0191 121.33 43.558 121.523 43.2298 121.911C42.9017 122.291 42.7348 122.884 42.7293 123.69L42.7152 125.74L42.7259 125.96L42.6486 137.203L38.9012 137.177ZM37.2469 127.436L37.2656 124.714L40.2196 124.735L40.6224 124.737L45.0168 124.767L44.9981 127.49L37.2469 127.436Z" fill="#252525"/>
<path d="M22.9613 131.025L22.9639 130.634C22.9773 128.689 23.5942 127.143 24.8147 125.996C26.0352 124.849 27.626 124.282 29.5872 124.295C31.5485 124.309 33.1273 124.897 34.3238 126.061C35.5284 127.225 36.124 128.78 36.1106 130.724L36.1079 131.115C36.0946 133.06 35.4776 134.606 34.2572 135.753C33.0448 136.901 31.458 137.468 29.4968 137.454C27.5356 137.441 25.9527 136.852 24.7481 135.688C23.5435 134.524 22.9479 132.97 22.9613 131.025ZM26.8103 130.477L26.8051 131.234C26.7976 132.333 27.0278 133.181 27.4957 133.778C27.9636 134.367 28.6371 134.665 29.516 134.671C30.3948 134.677 31.0682 134.389 31.5361 133.806C32.0122 133.215 32.254 132.37 32.2615 131.272L32.2667 130.515C32.2743 129.416 32.04 128.572 31.5639 127.983C31.0959 127.394 30.4306 127.096 29.568 127.091C28.6973 127.085 28.0198 127.373 27.5357 127.956C27.0597 128.538 26.8179 129.379 26.8103 130.477Z" fill="#252525"/>
<path d="M360.53 138.312L360.657 119.843L364.441 119.869L364.314 138.338L360.53 138.312Z" fill="#252525"/>
<path d="M345.539 134.558C345.548 133.199 346.08 132.174 347.135 131.481C348.197 130.78 349.547 130.431 351.182 130.434L353.77 130.452L353.775 129.732C353.779 129.179 353.64 128.734 353.357 128.399C353.075 128.055 352.583 127.881 351.884 127.876C351.184 127.871 350.678 128.01 350.367 128.293C350.064 128.567 349.911 128.916 349.908 129.339L349.907 129.547L346.269 129.522L346.271 129.302C346.278 128.163 346.818 127.235 347.889 126.518C348.96 125.793 350.358 125.436 352.083 125.448C353.833 125.46 355.181 125.819 356.129 126.525C357.076 127.232 357.545 128.33 357.534 129.819L357.495 135.483C357.492 135.987 357.533 136.472 357.62 136.936C357.714 137.393 357.842 137.78 358.002 138.099L358.001 138.294L354.29 138.269C354.186 138.081 354.098 137.84 354.027 137.546C353.955 137.245 353.905 136.947 353.874 136.654C353.619 137.125 353.14 137.544 352.437 137.914C351.735 138.283 350.863 138.465 349.821 138.458C348.576 138.449 347.549 138.12 346.739 137.472C345.93 136.815 345.53 135.844 345.539 134.558ZM349.301 134.267C349.297 134.812 349.448 135.244 349.755 135.564C350.063 135.883 350.546 136.045 351.205 136.05C351.913 136.055 352.512 135.831 353.004 135.379C353.495 134.918 353.743 134.375 353.748 133.748L353.755 132.613L351.888 132.6C351.009 132.594 350.357 132.732 349.932 133.014C349.515 133.296 349.304 133.713 349.301 134.267Z" fill="#252525"/>
<path d="M331.735 132.071L331.737 131.68C331.751 129.711 332.348 128.16 333.527 127.029C334.707 125.89 336.273 125.327 338.226 125.34C340.098 125.353 341.523 125.81 342.502 126.712C343.488 127.614 344.014 128.733 344.078 130.068L344.088 130.3L340.426 130.275L340.428 130.116C340.432 129.53 340.248 129.049 339.876 128.672C339.512 128.287 338.96 128.092 338.22 128.087C337.365 128.081 336.712 128.386 336.26 129.001C335.817 129.608 335.591 130.445 335.584 131.511L335.579 132.28C335.571 133.346 335.777 134.194 336.196 134.824C336.623 135.445 337.28 135.759 338.167 135.765C338.964 135.77 339.536 135.575 339.88 135.178C340.225 134.782 340.399 134.307 340.403 133.754L340.404 133.607L344.053 133.632L344.052 133.815C344.035 135.142 343.514 136.257 342.491 137.162C341.467 138.066 340.02 138.512 338.148 138.499C336.203 138.486 334.645 137.901 333.473 136.746C332.301 135.59 331.721 134.032 331.735 132.071Z" fill="#252525"/>
<path d="M316.726 138.01L316.848 120.237L320.729 120.264L320.68 127.429L326.796 120.306L330.946 120.334L320.649 132.019L320.607 138.037L316.726 138.01ZM327.028 138.081L321.167 129.484L323.627 126.681L331.654 138.113L327.028 138.081Z" fill="#252525"/>
<path d="M367.379 286.562L367.422 283.877C367.649 283.944 367.889 283.994 368.141 284.028C368.401 284.071 368.649 284.093 368.885 284.095C369.439 284.098 369.92 283.923 370.329 283.567C370.747 283.212 371.106 282.519 371.406 281.487L371.308 281.487L366.535 269.039L370.307 269.065L372.724 276.198C372.828 276.484 372.907 276.745 372.963 276.981C373.018 277.21 373.069 277.45 373.116 277.703L373.19 277.703C373.24 277.451 373.295 277.212 373.353 276.984C373.42 276.748 373.499 276.485 373.591 276.192L376.093 269.105L379.462 269.128L374.29 282.765C373.751 284.177 373.077 285.21 372.267 285.864C371.465 286.517 370.47 286.84 369.282 286.832C368.858 286.829 368.496 286.806 368.196 286.763C367.895 286.721 367.623 286.654 367.379 286.562Z" fill="#252525"/>
<path d="M358.403 281.435L358.489 268.984L362.139 269.009L362.19 270.45L362.239 270.451C362.519 269.964 362.892 269.552 363.358 269.213C363.833 268.875 364.363 268.707 364.949 268.711C365.136 268.713 365.323 268.734 365.51 268.776C365.697 268.81 365.827 268.844 365.9 268.877L365.878 271.989C365.732 271.948 365.569 271.918 365.391 271.901C365.22 271.875 365.029 271.861 364.817 271.86C364.272 271.856 363.766 272.02 363.3 272.35C362.834 272.672 362.489 273.093 362.266 273.612L362.212 281.461L358.403 281.435Z" fill="#252525"/>
<path d="M343.52 285.044L344.879 282.673C345.186 282.968 345.688 283.256 346.386 283.537C347.092 283.827 347.84 283.975 348.63 283.98C349.492 283.986 350.214 283.726 350.796 283.201C351.377 282.685 351.671 281.865 351.679 280.742L351.684 279.997C351.355 280.499 350.893 280.891 350.297 281.172C349.701 281.452 348.976 281.59 348.121 281.584C346.534 281.573 345.256 280.991 344.288 279.836C343.327 278.682 342.853 277.169 342.866 275.298L342.869 274.907C342.882 273.027 343.372 271.517 344.341 270.376C345.309 269.227 346.599 268.658 348.21 268.669C348.999 268.675 349.714 268.842 350.355 269.172C351.004 269.494 351.469 269.908 351.75 270.415L351.811 270.415L351.882 268.939L355.496 268.963L355.416 280.499C355.402 282.517 354.794 284.063 353.59 285.137C352.394 286.211 350.857 286.742 348.977 286.729C347.846 286.721 346.805 286.555 345.855 286.232C344.913 285.908 344.135 285.512 343.52 285.044ZM346.686 275.434C346.679 276.443 346.889 277.262 347.316 277.892C347.743 278.521 348.4 278.839 349.287 278.845C349.873 278.849 350.375 278.682 350.792 278.343C351.21 278.004 351.509 277.62 351.691 277.189L351.719 273.186C351.535 272.68 351.233 272.263 350.812 271.934C350.399 271.606 349.896 271.44 349.302 271.436C348.431 271.43 347.778 271.742 347.342 272.374C346.915 272.998 346.697 273.81 346.691 274.811L346.686 275.434Z" fill="#252525"/>
<path d="M328.883 281.233L328.969 268.782L332.582 268.807L332.633 270.272L332.694 270.272C333.015 269.762 333.502 269.346 334.155 269.025C334.808 268.704 335.546 268.546 336.368 268.552C337.646 268.561 338.685 268.93 339.485 269.66C340.286 270.389 340.68 271.641 340.668 273.415L340.614 281.313L336.854 281.287L336.908 273.499C336.913 272.743 336.754 272.209 336.43 271.897C336.107 271.577 335.644 271.416 335.042 271.411C334.546 271.408 334.085 271.551 333.66 271.841C333.243 272.123 332.927 272.516 332.712 273.019L332.655 281.259L328.883 281.233Z" fill="#252525"/>
<path d="M314.204 276.432L314.257 268.681L318.029 268.707L317.976 276.385C317.97 277.207 318.133 277.781 318.465 278.109C318.796 278.429 319.255 278.591 319.841 278.595C320.362 278.598 320.826 278.447 321.235 278.14C321.644 277.834 321.952 277.45 322.159 276.987L322.216 268.735L325.988 268.761L325.902 281.212L322.289 281.187L322.238 279.71L322.177 279.709C321.815 280.236 321.308 280.656 320.654 280.969C320.009 281.273 319.268 281.423 318.43 281.417C317.176 281.409 316.154 281.023 315.361 280.261C314.577 279.49 314.191 278.214 314.204 276.432Z" fill="#252525"/>
<path d="M296.726 281.011L296.848 263.238L300.729 263.265L300.681 270.345L307.248 270.39L307.297 263.31L311.178 263.337L311.056 281.11L307.175 281.083L307.227 273.442L300.66 273.397L300.607 281.038L296.726 281.011Z" fill="#252525"/>
<path d="M135.33 62.448C135.187 81.7774 119.402 97.3465 100.073 97.2226C80.7432 97.0986 65.1889 81.3285 65.3312 61.9991C65.4735 42.6696 81.2586 27.1005 100.588 27.2245C119.918 27.3484 135.472 43.1185 135.33 62.448ZM68.9589 62.0223C68.8313 79.3482 82.7735 93.4838 100.1 93.5949C117.426 93.706 131.574 79.7506 131.702 62.4247C131.83 45.0988 117.887 30.9633 100.561 30.8521C83.2354 30.741 69.0865 44.6964 68.9589 62.0223Z" fill="#969AAD" fill-opacity="0.24"/>
<path d="M107.289 96.5179C99.9535 98.0131 92.3338 97.1175 85.5488 93.9628C78.7639 90.808 73.1711 85.5601 69.5916 78.9897C66.0121 72.4192 64.6345 64.8723 65.6609 57.4569C66.6874 50.0415 70.0639 43.1482 75.2947 37.789C80.5255 32.4299 87.335 28.8872 94.7237 27.6811C102.112 26.475 109.691 27.6691 116.346 31.0879C123.002 34.5067 128.384 39.9703 131.703 46.6764C135.021 53.3826 136.102 60.9781 134.785 68.3478L131.214 67.713C132.394 61.1072 131.426 54.299 128.451 48.2879C125.476 42.2769 120.652 37.3796 114.686 34.3151C108.72 31.2507 101.928 30.1804 95.3048 31.2615C88.682 32.3425 82.5783 35.518 77.8897 40.3217C73.201 45.1253 70.1745 51.3041 69.2545 57.951C68.3344 64.5978 69.5692 71.3624 72.7777 77.2519C75.9862 83.1413 80.9993 87.8452 87.0809 90.673C93.1626 93.5007 99.9926 94.3034 106.568 92.9632L107.289 96.5179Z" fill="#00B800"/>
<path d="M104.904 60.2249L104.919 58.0888C104.928 56.8844 105.33 55.9429 106.124 55.2644C106.919 54.5859 107.983 54.2509 109.318 54.2595C110.652 54.268 111.708 54.6166 112.484 55.3052C113.268 55.9938 113.656 56.9403 113.647 58.1447L113.631 60.2809C113.622 61.526 113.22 62.4959 112.426 63.1907C111.639 63.8855 110.579 64.2287 109.244 64.2201C107.91 64.2116 106.85 63.8548 106.066 63.1499C105.282 62.445 104.894 61.47 104.904 60.2249ZM108.137 60.4288C108.134 60.8682 108.217 61.2065 108.386 61.4436C108.563 61.6807 108.855 61.8006 109.262 61.8032C109.661 61.8058 109.947 61.6896 110.119 61.4547C110.3 61.2198 110.392 60.8827 110.395 60.4433L110.413 58.0507C110.416 57.6194 110.333 57.2812 110.164 57.0359C109.995 56.7907 109.707 56.6668 109.3 56.6642C108.893 56.6616 108.599 56.7818 108.418 57.0247C108.246 57.2678 108.158 57.605 108.155 58.0363L108.137 60.4288ZM122.042 55.3543L111.843 72.7331L109.449 71.3017L119.598 53.9836L122.042 55.3543ZM117.744 68.7425L117.76 66.6063C117.769 65.4019 118.17 64.4605 118.965 63.782C119.759 63.1035 120.824 62.7685 122.158 62.777C123.493 62.7856 124.548 63.1342 125.324 63.8228C126.109 64.5114 126.496 65.4579 126.488 66.6623L126.472 68.7985C126.463 70.0436 126.061 71.0135 125.266 71.7083C124.48 72.4031 123.419 72.7463 122.085 72.7377C120.75 72.7291 119.691 72.3724 118.907 71.6675C118.122 70.9626 117.735 69.9876 117.744 68.7425ZM120.977 68.9464C120.974 69.3858 121.057 69.7241 121.226 69.9612C121.404 70.1983 121.696 70.3182 122.103 70.3208C122.501 70.3233 122.787 70.2072 122.96 69.9723C123.14 69.7374 123.232 69.4003 123.236 68.9608L123.253 66.5683C123.257 66.137 123.174 65.7988 123.004 65.5535C122.835 65.3083 122.547 65.1844 122.14 65.1818C121.734 65.1792 121.44 65.2993 121.259 65.5423C121.086 65.7854 120.998 66.1225 120.995 66.5538L120.977 68.9464Z" fill="#00B800"/>
<path d="M95.528 72.1888L95.6289 58.4929L91.2964 59.9911L91.3229 56.4023L97.308 54.2678L100.152 54.286L100.02 72.2177L95.528 72.1888Z" fill="#00B800"/>
<path d="M75.401 67.2745C75.4098 66.0701 75.7669 65.0999 76.4722 64.3639C77.1857 63.6197 77.9584 63.1283 78.7903 62.8895L78.7906 62.8406C77.9794 62.4936 77.3118 61.9766 76.7878 61.2897C76.2721 60.6027 76.0179 59.7507 76.0254 58.7335C76.0357 57.3338 76.5771 56.1938 77.6497 55.3136C78.7305 54.4254 80.2353 53.9874 82.1639 53.9998C84.0926 54.0121 85.5907 54.4694 86.6583 55.3714C87.7259 56.2734 88.2546 57.4203 88.2444 58.8118C88.2368 59.8372 87.9905 60.6901 87.5053 61.3706C87.0201 62.0511 86.3654 62.5515 85.5411 62.8717L85.5407 62.9205C86.3854 63.1457 87.1305 63.6428 87.7759 64.412C88.4214 65.1729 88.7396 66.1556 88.7308 67.36C88.719 68.955 88.1117 70.2044 86.9087 71.1082C85.7139 72.0039 84.0871 72.4451 82.0282 72.4319C79.9775 72.4187 78.3573 71.9567 77.1677 71.0457C75.9781 70.1266 75.3892 68.8696 75.401 67.2745ZM79.9571 66.9009C79.9513 67.6903 80.1258 68.2977 80.4808 68.7232C80.8358 69.1405 81.3592 69.3514 82.0509 69.3558C82.7426 69.3602 83.269 69.1561 83.6301 68.7434C83.9913 68.3225 84.1748 67.7174 84.1806 66.928C84.1866 66.1142 84.0203 65.4906 83.6817 65.0571C83.3512 64.6237 82.8198 64.4046 82.0874 64.3999C81.3549 64.3952 80.8163 64.6074 80.4713 65.0365C80.1345 65.4657 79.9631 66.0871 79.9571 66.9009ZM80.3792 59.3107C80.374 60.0187 80.5041 60.5811 80.7696 60.9978C81.0432 61.4146 81.4893 61.625 82.1078 61.629C82.7262 61.6329 83.1753 61.4283 83.4551 61.015C83.7348 60.6018 83.8773 60.0412 83.8825 59.3332C83.8876 58.6415 83.7492 58.0994 83.4672 57.7069C83.1935 57.3064 82.7514 57.1042 82.1411 57.1003C81.5308 57.0964 81.0858 57.2929 80.8062 57.6899C80.5266 58.0787 80.3843 58.619 80.3792 59.3107Z" fill="#00B800"/>
<path fill-rule="evenodd" clip-rule="evenodd" d="M223 273L223 49L224 49L224 273L223 273Z" fill="#00B800"/>
<path fill-rule="evenodd" clip-rule="evenodd" d="M402 167H37V166H402V167Z" fill="#00B800"/>
<defs>
<linearGradient id="paint0_linear_682_13908" x1="9.28771e-06" y1="23.6615" x2="464.562" y2="245.337" gradientUnits="userSpaceOnUse">
<stop stop-color="#00B800"/>
<stop offset="1" stop-color="#00B800" stop-opacity="0"/>
</linearGradient>
</defs>
</svg>
