<svg width="447" height="311" viewBox="0 0 447 311" fill="none" xmlns="http://www.w3.org/2000/svg">
<path d="M0 30C0 13.4315 13.4315 0 30 0H417C433.569 0 447 13.4315 447 30V281C447 297.569 433.569 311 417 311H30C13.4315 311 0 297.569 0 281V30Z" fill="url(#paint0_linear_684_15085)" fill-opacity="0.05"/>
<path d="M105.646 233.863C105.657 232.271 106.281 231.06 107.517 230.228C108.763 229.397 110.353 228.988 112.286 229.001L115.45 229.023L115.456 228.159C115.461 227.495 115.298 226.966 114.969 226.573C114.64 226.181 114.065 225.981 113.245 225.976C112.434 225.97 111.847 226.132 111.483 226.462C111.12 226.781 110.936 227.2 110.933 227.718L110.931 227.967L106.537 227.922L106.539 227.658C106.548 226.301 107.19 225.197 108.466 224.346C109.741 223.495 111.424 223.077 113.513 223.092C115.623 223.106 117.241 223.532 118.368 224.37C119.495 225.198 120.053 226.501 120.041 228.278L119.995 234.928C119.991 235.524 120.04 236.096 120.144 236.643C120.248 237.181 120.396 237.646 120.589 238.038L120.587 238.258L116.061 238.227C115.936 237.991 115.83 237.703 115.745 237.36C115.659 237.008 115.598 236.656 115.561 236.304C115.255 236.859 114.68 237.358 113.837 237.801C113.004 238.235 111.963 238.448 110.713 238.439C109.219 238.429 107.996 238.039 107.044 237.271C106.102 236.503 105.636 235.367 105.646 233.863ZM110.219 233.514C110.215 234.148 110.392 234.652 110.751 235.026C111.119 235.39 111.685 235.574 112.446 235.58C113.267 235.585 113.967 235.322 114.546 234.788C115.126 234.255 115.419 233.623 115.424 232.89L115.433 231.586L113.25 231.571C112.225 231.564 111.462 231.72 110.962 232.039C110.471 232.358 110.224 232.85 110.219 233.514Z" fill="#00B800"/>
<path d="M99.8495 242.334L99.8784 238.115L87.6033 238.031L87.5744 242.25L83.1506 242.219L83.2049 234.324L104.342 234.469L104.288 242.364L99.8495 242.334ZM87.1054 216.699L102.032 216.801L101.885 238.129L97.1393 238.096L97.2605 220.445L91.0937 220.403L90.6916 227.754C90.5893 229.853 90.3876 231.497 90.0864 232.686C89.795 233.876 89.3921 234.962 88.8775 235.945L84.4098 235.914C85.0624 234.747 85.5489 233.578 85.8695 232.408C86.1999 231.229 86.421 229.595 86.5331 227.506L87.1054 216.699Z" fill="#00B800"/>
<path d="M358.002 226.966L358.025 223.538L371.56 223.631L371.537 227.059L367.069 227.028L366.991 238.322L362.407 238.29L362.484 226.997L358.002 226.966Z" fill="#00B800"/>
<path d="M341.935 231.001L341.938 230.532C341.954 228.257 342.67 226.44 344.085 225.083C345.511 223.716 347.351 223.04 349.607 223.055C351.863 223.071 353.611 223.732 354.853 225.04C356.103 226.347 356.721 228.138 356.705 230.414L356.695 231.893L344.786 231.811L344.804 229.189L352.216 229.24L352.218 228.991C352.223 228.239 351.998 227.603 351.543 227.082C351.097 226.562 350.439 226.298 349.57 226.292C348.584 226.286 347.83 226.647 347.307 227.376C346.794 228.095 346.534 229.04 346.526 230.212L346.519 231.193C346.51 232.463 346.777 233.466 347.319 234.202C347.87 234.928 348.678 235.295 349.743 235.303C350.505 235.308 351.155 235.137 351.695 234.789C352.234 234.441 352.667 234.019 352.992 233.523L356.467 235.202C355.982 236.234 355.17 237.064 354.033 237.691C352.906 238.318 351.492 238.625 349.793 238.614C347.313 238.597 345.379 237.9 343.992 236.523C342.605 235.136 341.92 233.296 341.935 231.001Z" fill="#00B800"/>
<path d="M321.953 238.012L322.1 216.685L326.846 216.717L326.788 225.154L334.346 225.206L334.404 216.769L339.15 216.802L339.003 238.129L334.257 238.097L334.32 228.986L326.762 228.934L326.699 238.045L321.953 238.012Z" fill="#00B800"/>
<path d="M166.397 269.99L166.399 269.599C166.413 267.67 167.013 266.128 168.201 264.973C169.397 263.817 170.931 263.246 172.803 263.259C174.683 263.271 176.144 263.831 177.186 264.937C178.237 266.043 178.755 267.56 178.742 269.488L178.733 270.734L168.797 270.665L168.812 268.468L175.05 268.511L175.051 268.279C175.056 267.62 174.86 267.065 174.465 266.615C174.077 266.165 173.513 265.937 172.772 265.932C171.926 265.926 171.277 266.235 170.825 266.858C170.381 267.482 170.156 268.315 170.149 269.356L170.143 270.162C170.136 271.244 170.366 272.104 170.834 272.742C171.309 273.372 172.011 273.69 172.939 273.697C173.582 273.701 174.136 273.55 174.602 273.244C175.076 272.938 175.453 272.575 175.733 272.153L178.518 273.65C178.113 274.477 177.433 275.152 176.478 275.674C175.522 276.189 174.352 276.441 172.969 276.431C170.902 276.417 169.286 275.824 168.123 274.652C166.959 273.481 166.383 271.926 166.397 269.99Z" fill="#252525"/>
<path d="M147.92 275.906L148.006 263.455L153.218 263.491L155.542 269.94C155.694 270.389 155.793 270.711 155.841 270.907C155.896 271.094 155.944 271.29 155.983 271.493L156.081 271.494C156.131 271.291 156.181 271.096 156.231 270.909C156.289 270.722 156.397 270.406 156.555 269.959L158.943 263.53L164.107 263.566L164.021 276.017L160.322 275.991L160.371 268.85C160.375 268.386 160.381 268.024 160.391 267.764C160.409 267.495 160.427 267.247 160.445 267.02L160.347 267.019C160.289 267.238 160.222 267.478 160.147 267.738C160.072 267.99 159.952 268.351 159.786 268.822L157.124 275.969L154.329 275.95L151.742 268.742C151.598 268.326 151.49 267.984 151.419 267.714C151.348 267.437 151.284 267.185 151.229 266.956L151.131 266.956C151.138 267.184 151.148 267.424 151.163 267.676C151.178 267.928 151.183 268.278 151.18 268.726L151.131 275.928L147.92 275.906Z" fill="#252525"/>
<path d="M132.942 280.918L133.063 263.353L136.627 263.377L136.678 264.806L136.739 264.806C137.019 264.32 137.486 263.92 138.139 263.607C138.792 263.286 139.522 263.128 140.327 263.134C141.931 263.145 143.217 263.719 144.185 264.857C145.154 265.987 145.632 267.516 145.619 269.445L145.616 269.835C145.603 271.748 145.108 273.274 144.132 274.415C143.156 275.548 141.882 276.109 140.312 276.098C139.506 276.092 138.791 275.953 138.166 275.68C137.549 275.408 137.076 275.038 136.745 274.572L136.702 280.944L132.942 280.918ZM136.766 271.63C136.942 272.079 137.248 272.476 137.685 272.821C138.122 273.157 138.638 273.328 139.232 273.332C140.086 273.338 140.723 273.045 141.142 272.454C141.561 271.862 141.775 271.042 141.782 269.992L141.787 269.248C141.794 268.198 141.592 267.383 141.181 266.802C140.77 266.213 140.137 265.916 139.283 265.91C138.656 265.906 138.134 266.065 137.717 266.388C137.3 266.71 136.992 267.091 136.794 267.529L136.766 271.63Z" fill="#252525"/>
<path d="M117.537 269.655L117.54 269.264C117.553 267.319 118.17 265.773 119.391 264.626C120.611 263.478 122.202 262.912 124.163 262.925C126.125 262.939 127.703 263.527 128.9 264.691C130.105 265.855 130.7 267.409 130.687 269.354L130.684 269.745C130.671 271.69 130.054 273.236 128.833 274.383C127.621 275.531 126.034 276.097 124.073 276.084C122.112 276.07 120.529 275.482 119.324 274.318C118.12 273.154 117.524 271.6 117.537 269.655ZM121.386 269.107L121.381 269.864C121.374 270.963 121.604 271.811 122.072 272.408C122.54 272.997 123.213 273.295 124.092 273.301C124.971 273.307 125.644 273.019 126.112 272.436C126.588 271.845 126.83 271 126.838 269.902L126.843 269.145C126.85 268.046 126.616 267.202 126.14 266.613C125.672 266.024 125.007 265.726 124.144 265.72C123.273 265.714 122.596 266.003 122.112 266.585C121.636 267.168 121.394 268.009 121.386 269.107Z" fill="#252525"/>
<path d="M103.566 263.149L107.326 263.175L107.294 267.887L111.468 267.916L111.501 263.204L115.26 263.23L115.175 275.681L111.415 275.655L111.449 270.699L107.275 270.67L107.241 275.626L103.481 275.6L103.566 263.149Z" fill="#252525"/>
<path d="M83.2621 275.462L83.3477 263.011L89.9393 263.056C91.518 263.067 92.6799 263.339 93.425 263.873C94.1701 264.399 94.5391 265.175 94.5321 266.2C94.5266 266.998 94.2984 267.635 93.8475 268.112C93.4048 268.581 92.7923 268.894 92.01 269.052L92.0097 269.088C92.9283 269.233 93.6463 269.56 94.1637 270.068C94.6811 270.568 94.9369 271.237 94.9312 272.075C94.9237 273.165 94.5313 274.013 93.754 274.618C92.9848 275.223 91.8394 275.521 90.3176 275.51L83.2621 275.462ZM86.9998 268.029L89.0871 268.043C89.6731 268.047 90.0971 267.928 90.3592 267.685C90.6294 267.443 90.7661 267.086 90.7694 266.614C90.7723 266.191 90.6402 265.864 90.3732 265.635C90.1063 265.405 89.6839 265.288 89.1061 265.284L87.0187 265.27L86.9998 268.029ZM86.9641 273.229L89.3566 273.245C89.9751 273.249 90.4317 273.122 90.7264 272.864C91.0212 272.597 91.1703 272.224 91.1736 271.744C91.1768 271.272 91.0329 270.905 90.7417 270.642C90.4587 270.372 90.0039 270.234 89.3773 270.23L86.9848 270.214L86.9641 273.229Z" fill="#252525"/>
<path d="M62.7191 269.278L62.7218 268.887C62.7353 266.918 63.3319 265.367 64.5116 264.236C65.6913 263.097 67.2577 262.534 69.2108 262.547C71.0825 262.56 72.5076 263.017 73.4861 263.919C74.4728 264.821 74.9982 265.94 75.0622 267.275L75.0728 267.507L71.4108 267.482L71.4119 267.323C71.4159 266.737 71.2321 266.256 70.8603 265.879C70.4967 265.494 69.9447 265.299 69.2041 265.294C68.3496 265.288 67.6965 265.593 67.2447 266.208C66.801 266.815 66.5755 267.652 66.5682 268.718L66.5629 269.487C66.5556 270.553 66.7614 271.401 67.1802 272.031C67.6073 272.652 68.2643 272.966 69.1514 272.972C69.9489 272.977 70.5199 272.782 70.8644 272.385C71.2089 271.989 71.3831 271.514 71.3869 270.961L71.3879 270.814L75.0377 270.839L75.0365 271.023C75.0192 272.349 74.4989 273.464 73.4754 274.369C72.4519 275.273 71.0043 275.719 69.1326 275.706C67.1876 275.693 65.6291 275.108 64.457 273.953C63.2849 272.797 62.7056 271.239 62.7191 269.278Z" fill="#252525"/>
<path d="M48.8499 269.182L48.8526 268.791C48.8659 266.863 49.4665 265.321 50.6545 264.165C51.8506 263.009 53.3845 262.438 55.2562 262.451C57.136 262.464 58.5971 263.023 59.6393 264.129C60.6897 265.235 61.2082 266.752 61.195 268.681L61.1864 269.926L51.2501 269.858L51.2652 267.66L57.5029 267.703L57.5045 267.471C57.509 266.812 57.3134 266.257 56.9177 265.807C56.5302 265.357 55.9662 265.129 55.2256 265.124C54.3793 265.118 53.7302 265.427 53.2783 266.051C52.8345 266.674 52.6091 267.507 52.6019 268.549L52.5964 269.354C52.589 270.437 52.8191 271.297 53.2867 271.935C53.7625 272.565 54.4643 272.883 55.392 272.889C56.0349 272.894 56.5893 272.743 57.0553 272.437C57.5294 272.131 57.9063 271.767 58.1859 271.346L60.9711 272.842C60.5666 273.669 59.8865 274.344 58.9307 274.867C57.975 275.381 56.8055 275.633 55.422 275.624C53.355 275.61 51.7396 275.017 50.5757 273.845C49.4119 272.673 48.8366 271.119 48.8499 269.182Z" fill="#252525"/>
<path d="M33.6943 275.121L33.8164 257.348L40.5911 257.394C42.5035 257.407 43.982 257.804 45.0264 258.584C46.071 259.357 46.5879 260.524 46.5771 262.086C46.5703 263.071 46.341 263.883 45.889 264.523C45.437 265.155 44.8766 265.586 44.2077 265.818L44.2073 265.867C45.0358 266.108 45.7161 266.585 46.2483 267.297C46.7887 268.008 47.0548 268.954 47.0467 270.134C47.0357 271.737 46.4616 272.983 45.3242 273.87C44.187 274.749 42.6784 275.182 40.7986 275.169L33.6943 275.121ZM37.5335 272.449L40.4754 272.469C41.3868 272.476 42.0598 272.244 42.4943 271.775C42.9289 271.306 43.1489 270.669 43.1545 269.863C43.16 269.058 42.9487 268.417 42.5207 267.942C42.0926 267.467 41.4229 267.227 40.5114 267.221L37.5696 267.2L37.5335 272.449ZM37.5864 264.759L40.2108 264.777C41.1141 264.783 41.7665 264.584 42.1681 264.18C42.5697 263.768 42.773 263.191 42.7781 262.451C42.7832 261.71 42.5877 261.143 42.1917 260.75C41.7956 260.349 41.146 260.145 40.2427 260.138L37.6182 260.12L37.5864 264.759Z" fill="#252525"/>
<path d="M413.89 86.5383L413.916 82.8909C414.907 82.3309 415.735 81.2912 416.4 79.772C417.066 78.2528 417.41 75.9064 417.434 72.7326L417.436 72.3811C417.459 69.2366 417.144 66.9103 416.491 65.4022C415.839 63.8843 415.031 62.8098 414.069 62.1786L414.096 58.5312C416.56 59.3772 418.643 60.9482 420.345 63.2443C422.057 65.5307 422.899 68.6221 422.87 72.5185L422.869 72.6649C422.84 76.6004 421.972 79.6955 420.266 81.9502C418.56 84.2049 416.435 85.7343 413.89 86.5383Z" fill="#00B800"/>
<path d="M395.484 72.8855L395.487 72.4168C395.504 70.0926 396.275 68.2567 397.798 66.909C399.322 65.5614 401.305 64.8953 403.746 64.911C406.187 64.9267 408.16 65.618 409.663 66.9851C411.167 68.3522 411.91 70.1978 411.893 72.522L411.89 72.9907C411.873 75.3149 411.102 77.1508 409.579 78.4985C408.055 79.8462 406.073 80.5122 403.631 80.4965C401.19 80.4809 399.217 79.7895 397.714 78.4224C396.21 77.0553 395.467 75.2097 395.484 72.8855ZM400.939 72.1588L400.931 73.1988C400.922 74.3511 401.155 75.2169 401.63 75.7961C402.104 76.3656 402.781 76.6531 403.659 76.6587C404.538 76.6644 405.219 76.3855 405.702 75.8222C406.185 75.2491 406.43 74.3815 406.439 73.2195L406.446 72.1941C406.455 71.0515 406.217 70.1955 405.733 69.626C405.249 69.0565 404.577 68.769 403.718 68.7634C402.858 68.7579 402.182 69.0368 401.69 69.6001C401.197 70.1633 400.947 71.0162 400.939 72.1588Z" fill="#00B800"/>
<path d="M384.037 69.135L383.863 72.7522C383.736 75.5346 383.292 77.4849 382.531 78.6031C381.781 79.7116 380.483 80.2599 378.637 80.2481C378.198 80.2453 377.798 80.2183 377.437 80.1672C377.085 80.1258 376.803 80.0605 376.588 79.9713L376.62 75.738C376.756 75.7975 376.892 75.8423 377.029 75.8725C377.175 75.8929 377.336 75.9037 377.512 75.9049C378.108 75.9087 378.515 75.6378 378.734 75.0924C378.962 74.5469 379.111 73.5811 379.18 72.1948L379.495 65.2093L392.766 65.2945L392.658 80.0157L387.297 79.9814L387.376 69.1565L384.037 69.135Z" fill="#00B800"/>
<path d="M359.053 75.4938C359.065 73.8728 359.704 72.6464 360.97 71.8147C362.236 70.9732 363.855 70.5587 365.828 70.5714L368.918 70.5912L368.924 69.8295C368.928 69.2533 368.79 68.7983 368.509 68.4645C368.229 68.1209 367.732 67.9468 367.019 67.9422C366.326 67.9378 365.822 68.0762 365.507 68.3574C365.193 68.6386 365.034 69.0038 365.03 69.453L365.028 69.7459L359.945 69.6987L359.947 69.4057C359.958 67.98 360.645 66.8369 362.009 65.9765C363.373 65.1161 365.158 64.6929 367.365 64.7071C369.601 64.7214 371.312 65.1523 372.497 65.9998C373.692 66.8473 374.283 68.1744 374.27 69.981L374.221 76.6312C374.217 77.2171 374.266 77.779 374.37 78.3167C374.483 78.8546 374.636 79.3097 374.828 79.682L374.827 79.9017L369.539 79.8678C369.413 79.6424 369.308 79.3634 369.223 79.0308C369.147 78.6885 369.091 78.3464 369.054 78.0043C368.757 78.5493 368.182 79.0339 367.33 79.4581C366.477 79.8824 365.421 80.0904 364.161 80.0824C362.647 80.0727 361.415 79.6888 360.463 78.9307C359.512 78.1629 359.042 77.0172 359.053 75.4938ZM364.388 75.0593C364.384 75.6159 364.537 76.0613 364.847 76.3953C365.157 76.7293 365.649 76.8985 366.323 76.9028C367.056 76.9075 367.663 76.677 368.145 76.2113C368.636 75.736 368.885 75.1516 368.89 74.4583L368.898 73.3597L367.023 73.3477C366.125 73.3419 365.46 73.4792 365.028 73.7597C364.606 74.0402 364.393 74.4734 364.388 75.0593Z" fill="#00B800"/>
<path d="M335.815 79.651L335.924 64.9297L343.336 64.9772L345.571 71.7886C345.743 72.3366 345.857 72.7328 345.914 72.9773C345.971 73.2121 346.022 73.4565 346.069 73.7108L346.172 73.7114C346.223 73.4578 346.278 73.214 346.338 72.98C346.409 72.7461 346.524 72.3513 346.684 71.7957L349.005 65.0136L356.343 65.0606L356.235 79.7819L350.962 79.7481L351.019 71.8968C351.024 71.3401 351.032 70.9007 351.044 70.5785C351.066 70.2564 351.083 69.9586 351.094 69.6853L350.977 69.6845C350.917 69.9576 350.841 70.2452 350.751 70.5474C350.671 70.8496 350.536 71.2882 350.346 71.8631L347.651 79.7269L343.579 79.7008L340.971 71.7737C340.809 71.2649 340.685 70.849 340.6 70.5262C340.524 70.1937 340.458 69.8905 340.401 69.6167L340.269 69.6159C340.287 69.8894 340.299 70.1776 340.307 70.4804C340.324 70.7832 340.331 71.213 340.327 71.7696L340.268 79.6795L335.815 79.651Z" fill="#00B800"/>
<path d="M332.935 86.0346C330.441 85.208 328.348 83.6516 326.656 81.3653C324.973 79.0791 324.147 75.9683 324.176 72.0328L324.177 71.8863C324.205 68.0681 325.043 65.0168 326.69 62.7324C328.338 60.4382 330.489 58.865 333.141 58.0129L333.115 61.6603C332.153 62.2791 331.335 63.3432 330.659 64.8526C329.984 66.3522 329.635 68.6742 329.612 71.8187L329.609 72.1702C329.586 75.344 329.881 77.6799 330.495 79.178C331.109 80.6663 331.932 81.7312 332.962 82.3726L332.935 86.0346Z" fill="#00B800"/>
<path d="M306.87 79.4656L306.911 73.8847L307.018 73.3581L307.079 65.0673L306.932 65.0663L302.933 71.076L308.66 71.1127L309.437 71.0444L314.344 71.0759L314.314 75.2213L297.703 75.1148L297.73 71.4528L307.364 58.1403L312.3 58.1719L312.143 79.4995L306.87 79.4656Z" fill="#00B800"/>
<path d="M287.136 79.3392L287.256 62.9773L281.925 64.7742L281.958 60.3505L289.154 57.8478L292.831 57.8714L292.673 79.3747L287.136 79.3392Z" fill="#00B800"/>
<path d="M262.961 73.1783L262.966 72.5338L268.503 72.5839L268.499 73.1259C268.493 73.9755 268.698 74.6214 269.115 75.0635C269.531 75.5056 270.135 75.7292 270.926 75.7343C271.747 75.7396 272.354 75.47 272.749 74.9257C273.143 74.3715 273.345 73.489 273.354 72.2781C273.363 71.077 273.164 70.2212 272.758 69.7108C272.361 69.1906 271.787 68.9282 271.035 68.9233C270.429 68.9195 269.921 69.0529 269.509 69.3237C269.096 69.5848 268.752 69.9292 268.475 70.3572L263.667 68.8029L264.847 57.8678L277.913 57.9516L277.881 62.2435L269.063 62.1283L268.638 66.1247C269.08 65.8346 269.609 65.5938 270.226 65.4025C270.843 65.2111 271.541 65.1179 272.323 65.1229C274.237 65.1352 275.819 65.7313 277.07 66.9112C278.322 68.0912 278.939 69.7944 278.923 72.0209C278.905 74.3548 278.213 76.2107 276.845 77.5887C275.488 78.957 273.52 79.6329 270.942 79.6163C268.393 79.6 266.42 79.0063 265.022 77.8352C263.634 76.6544 262.947 75.1021 262.961 73.1783Z" fill="#00B800"/>
<path d="M254.027 76.4902C254.033 75.6699 254.307 74.9782 254.848 74.4153C255.399 73.8524 256.183 73.5742 257.198 73.5807C258.214 73.5873 258.988 73.8754 259.521 74.4453C260.064 75.0152 260.332 75.7103 260.326 76.5306C260.32 77.3508 260.041 78.0473 259.49 78.62C258.949 79.1829 258.171 79.4611 257.155 79.4546C256.139 79.4481 255.36 79.155 254.818 78.5753C254.285 77.9957 254.021 77.3007 254.027 76.4902Z" fill="#00B800"/>
<path d="M242.108 79.0501L242.229 62.6883L236.898 64.4852L236.93 60.0615L244.127 57.5587L247.803 57.5823L247.645 79.0856L242.108 79.0501Z" fill="#00B800"/>
<path d="M137.995 153.927L134.054 148.284L136.622 145.921L142.341 153.956L137.995 153.927ZM131.628 146.131L134.46 146.151L137.776 141.461L141.828 141.489L136.43 148.972L131.608 148.939L131.628 146.131ZM133.528 141.432L133.442 153.895L129.67 153.869L129.756 141.406L133.528 141.432Z" fill="#252525"/>
<path d="M114.231 147.72L114.233 147.329C114.247 145.384 114.864 143.838 116.084 142.691C117.305 141.544 118.896 140.977 120.857 140.991C122.818 141.004 124.397 141.593 125.593 142.757C126.798 143.92 127.394 145.475 127.38 147.42L127.377 147.81C127.364 149.755 126.747 151.301 125.527 152.449C124.314 153.596 122.728 154.163 120.766 154.149C118.805 154.136 117.222 153.547 116.018 152.383C114.813 151.219 114.217 149.665 114.231 147.72ZM118.08 147.173L118.075 147.93C118.067 149.028 118.297 149.876 118.765 150.473C119.233 151.063 119.907 151.36 120.785 151.366C121.664 151.372 122.338 151.084 122.806 150.501C123.282 149.91 123.524 149.066 123.531 147.967L123.536 147.21C123.544 146.112 123.31 145.268 122.833 144.679C122.365 144.089 121.7 143.792 120.838 143.786C119.967 143.78 119.289 144.068 118.805 144.651C118.329 145.234 118.087 146.074 118.08 147.173Z" fill="#252525"/>
<path d="M101.705 144.033L101.725 141.226L113.016 141.303L112.997 144.111L109.237 144.085L109.171 153.728L105.399 153.702L105.465 144.059L101.705 144.033Z" fill="#252525"/>
<path d="M88.2249 147.541L88.2276 147.151C88.2409 145.222 88.8415 143.68 90.0295 142.524C91.2256 141.369 92.7595 140.797 94.6312 140.81C96.511 140.823 97.9721 141.383 99.0143 142.488C100.065 143.594 100.583 145.112 100.57 147.04L100.561 148.285L90.6251 148.217L90.6402 146.02L96.8779 146.063L96.8795 145.831C96.884 145.172 96.6884 144.617 96.2927 144.167C95.9052 143.716 95.3412 143.489 94.6006 143.483C93.7543 143.478 93.1052 143.787 92.6533 144.41C92.2095 145.034 91.9841 145.866 91.9769 146.908L91.9714 147.714C91.964 148.796 92.1941 149.656 92.6617 150.294C93.1375 150.924 93.8393 151.242 94.767 151.248C95.4099 151.253 95.9643 151.102 96.4303 150.796C96.9044 150.49 97.2813 150.126 97.5609 149.705L100.346 151.201C99.9416 152.029 99.2615 152.704 98.3057 153.226C97.35 153.74 96.1805 153.993 94.797 153.983C92.73 153.969 91.1146 153.376 89.9507 152.204C88.7869 151.032 88.2116 149.478 88.2249 147.541Z" fill="#252525"/>
<path d="M78.8243 143.876L78.6531 147.476C78.5478 149.771 78.203 151.396 77.6186 152.352C77.0424 153.3 76.0178 153.769 74.5449 153.759C74.2438 153.757 73.955 153.735 73.6786 153.692C73.4022 153.658 73.1747 153.603 72.9961 153.529L73.0167 150.538C73.1466 150.588 73.2724 150.626 73.3943 150.651C73.5244 150.668 73.6668 150.677 73.8214 150.678C74.3748 150.682 74.7509 150.424 74.9498 149.905C75.1569 149.377 75.2894 148.446 75.3474 147.112L75.6332 141.047L85.9357 141.118L85.8502 153.568L82.0905 153.543L82.1568 143.899L78.8243 143.876Z" fill="#252525"/>
<path d="M68.5987 153.449L64.6579 147.807L67.2255 145.444L72.9443 153.479L68.5987 153.449ZM62.2312 145.654L65.0632 145.673L68.3792 140.984L72.4318 141.012L67.0336 148.494L62.212 148.461L62.2312 145.654ZM64.1313 140.955L64.0456 153.418L60.2737 153.392L60.3594 140.929L64.1313 140.955Z" fill="#252525"/>
<path d="M164.932 125.111L165.018 112.66L168.765 112.686L168.724 118.704C168.722 118.964 168.716 119.257 168.705 119.583C168.695 119.9 168.673 120.185 168.639 120.437L168.748 120.45C168.864 120.214 168.983 119.983 169.107 119.756C169.231 119.529 169.387 119.233 169.577 118.868L173.098 112.716L176.931 112.742L176.846 125.193L173.098 125.167L173.14 119.1C173.142 118.84 173.144 118.555 173.146 118.246C173.156 117.937 173.17 117.652 173.188 117.392L173.066 117.391C172.959 117.626 172.847 117.853 172.732 118.072C172.625 118.291 172.476 118.579 172.287 118.936L168.765 125.137L164.932 125.111Z" fill="#252525"/>
<path d="M151.787 115.377L151.807 112.569L163.098 112.647L163.079 115.454L159.319 115.429L159.253 125.072L155.481 125.046L155.547 115.403L151.787 115.377Z" fill="#252525"/>
<path d="M138.407 118.886L138.409 118.495C138.423 116.526 139.019 114.976 140.199 113.845C141.379 112.705 142.945 112.142 144.898 112.156C146.77 112.168 148.195 112.626 149.174 113.528C150.16 114.43 150.686 115.548 150.75 116.883L150.76 117.115L147.098 117.09L147.099 116.932C147.103 116.346 146.92 115.864 146.548 115.487C146.184 115.102 145.632 114.907 144.892 114.902C144.037 114.896 143.384 115.201 142.932 115.817C142.489 116.424 142.263 117.261 142.256 118.327L142.25 119.096C142.243 120.162 142.449 121.009 142.868 121.639C143.295 122.26 143.952 122.574 144.839 122.58C145.636 122.586 146.207 122.39 146.552 121.994C146.896 121.597 147.071 121.123 147.074 120.569L147.075 120.423L150.725 120.448L150.724 120.631C150.707 121.957 150.186 123.073 149.163 123.977C148.139 124.882 146.692 125.327 144.82 125.315C142.875 125.301 141.317 124.717 140.145 123.561C138.972 122.406 138.393 120.847 138.407 118.886Z" fill="#252525"/>
<path d="M123.584 118.784L123.587 118.393C123.6 116.448 124.217 114.902 125.438 113.755C126.658 112.607 128.249 112.041 130.21 112.054C132.172 112.067 133.75 112.656 134.947 113.82C136.151 114.984 136.747 116.538 136.734 118.483L136.731 118.874C136.718 120.819 136.101 122.365 134.88 123.512C133.668 124.659 132.081 125.226 130.12 125.213C128.159 125.199 126.576 124.611 125.371 123.447C124.167 122.283 123.571 120.728 123.584 118.784ZM127.433 118.236L127.428 118.993C127.421 120.092 127.651 120.94 128.119 121.537C128.587 122.126 129.26 122.424 130.139 122.43C131.018 122.436 131.691 122.147 132.159 121.565C132.635 120.974 132.877 120.129 132.885 119.031L132.89 118.274C132.897 117.175 132.663 116.331 132.187 115.742C131.719 115.153 131.054 114.855 130.191 114.849C129.32 114.843 128.643 115.132 128.159 115.714C127.683 116.297 127.441 117.138 127.433 118.236Z" fill="#252525"/>
<path d="M109.613 112.279L113.373 112.305L113.341 117.017L117.515 117.046L117.548 112.334L121.307 112.36L121.222 124.811L117.462 124.785L117.496 119.829L113.321 119.8L113.287 124.756L109.528 124.73L109.613 112.279Z" fill="#252525"/>
<path d="M97.9101 118.437L97.9074 118.827C97.8997 119.942 98.1218 120.786 98.5736 121.359C99.0335 121.932 99.7152 122.221 100.618 122.227C101.522 122.234 102.203 121.953 102.663 121.387C103.131 120.82 103.368 119.98 103.376 118.865L103.379 118.474C103.386 117.424 103.164 116.613 102.712 116.04C102.26 115.46 101.591 115.166 100.704 115.16C99.7922 115.154 99.0985 115.438 98.6225 116.012C98.1548 116.579 97.9173 117.387 97.9101 118.437ZM101.699 112.383C103.425 112.395 104.78 112.962 105.765 114.084C106.75 115.206 107.236 116.678 107.224 118.501L107.221 118.891C107.208 120.755 106.592 122.244 105.372 123.359C104.151 124.473 102.565 125.024 100.612 125.011C98.6015 124.997 97.0063 124.42 95.8259 123.281C94.6456 122.142 94.0638 120.347 94.0807 117.898L94.0909 116.408C94.1104 113.576 94.646 111.424 95.6978 109.95C96.7496 108.476 98.4568 107.568 100.819 107.226C102.204 107.024 103.003 106.846 103.215 106.693C103.436 106.532 103.56 106.337 103.586 106.11L106.894 106.132C106.844 107.402 106.484 108.335 105.812 108.933C105.141 109.53 103.893 109.945 102.068 110.176C100.252 110.408 98.9875 110.871 98.2747 111.566C97.57 112.262 97.1641 113.3 97.0569 114.683L97.1913 114.672C97.595 113.959 98.1807 113.397 98.9485 112.987C99.7245 112.577 100.641 112.376 101.699 112.383Z" fill="#252525"/>
<path d="M80.1214 118.486L80.1241 118.095C80.1374 116.166 80.738 114.624 81.926 113.469C83.1221 112.313 84.656 111.742 86.5277 111.755C88.4075 111.768 89.8686 112.327 90.9108 113.433C91.9612 114.539 92.4797 116.056 92.4665 117.985L92.4579 119.23L82.5216 119.161L82.5367 116.964L88.7744 117.007L88.776 116.775C88.7805 116.116 88.5849 115.561 88.1892 115.111C87.8017 114.661 87.2376 114.433 86.4971 114.428C85.6508 114.422 85.0017 114.731 84.5498 115.354C84.106 115.978 83.8806 116.811 83.8734 117.852L83.8679 118.658C83.8604 119.74 84.0905 120.6 84.5582 121.238C85.034 121.868 85.7358 122.186 86.6635 122.193C87.3064 122.197 87.8608 122.046 88.3268 121.74C88.8009 121.434 89.1778 121.071 89.4574 120.649L92.2425 122.146C91.8381 122.973 91.158 123.648 90.2022 124.17C89.2465 124.685 88.0769 124.937 86.6935 124.927C84.6265 124.913 83.0111 124.32 81.8472 123.149C80.6834 121.977 80.1081 120.422 80.1214 118.486Z" fill="#252525"/>
<path d="M65.7603 129.544L65.881 111.979L69.4453 112.003L69.4966 113.432L69.5576 113.432C69.8376 112.946 70.3043 112.546 70.9575 112.233C71.6107 111.912 72.3402 111.754 73.1458 111.76C74.749 111.771 76.0349 112.345 77.0037 113.483C77.9725 114.613 78.4503 116.142 78.4371 118.071L78.4344 118.461C78.4212 120.374 77.9265 121.9 76.9502 123.041C75.974 124.174 74.7006 124.735 73.13 124.724C72.3243 124.718 71.6091 124.579 70.9844 124.306C70.3677 124.034 69.8942 123.664 69.5637 123.198L69.5199 129.57L65.7603 129.544ZM69.5839 120.256C69.7599 120.705 70.0664 121.102 70.5035 121.447C70.9407 121.783 71.4563 121.954 72.0503 121.958C72.9048 121.964 73.5416 121.671 73.9607 121.08C74.3798 120.488 74.593 119.668 74.6002 118.618L74.6053 117.874C74.6125 116.824 74.4106 116.009 73.9996 115.428C73.5885 114.839 72.9558 114.542 72.1013 114.536C71.4747 114.532 70.9528 114.691 70.5355 115.013C70.1183 115.336 69.8105 115.717 69.6121 116.155L69.5839 120.256Z" fill="#252525"/>
<path d="M52.6526 114.695L52.6719 111.888L63.9631 111.965L63.9438 114.773L60.1841 114.747L60.1179 124.39L56.346 124.364L56.4123 114.721L52.6526 114.695Z" fill="#252525"/>
<path d="M38.221 118.198L38.2237 117.807C38.2371 115.862 38.854 114.316 40.0745 113.169C41.2949 112.021 42.8858 111.455 44.847 111.468C46.8082 111.482 48.3871 112.07 49.5835 113.234C50.7881 114.398 51.3837 115.952 51.3704 117.897L51.3677 118.288C51.3543 120.233 50.7374 121.779 49.5169 122.926C48.3046 124.073 46.7178 124.64 44.7566 124.627C42.7954 124.613 41.2125 124.025 40.0079 122.861C38.8033 121.697 38.2077 120.143 38.221 118.198ZM42.0701 117.65L42.0649 118.407C42.0573 119.506 42.2875 120.354 42.7554 120.951C43.2234 121.54 43.8968 121.838 44.7757 121.844C45.6546 121.85 46.328 121.561 46.7959 120.979C47.2719 120.388 47.5138 119.543 47.5213 118.445L47.5265 117.688C47.5341 116.589 47.2998 115.745 46.8237 115.156C46.3557 114.567 45.6904 114.269 44.8278 114.263C43.9571 114.257 43.2796 114.546 42.7954 115.128C42.3194 115.711 42.0776 116.552 42.0701 117.65Z" fill="#252525"/>
<path d="M24.3965 111.693L35.9441 111.773L35.8585 124.224L32.0988 124.198L32.1651 114.554L28.1369 114.527L28.0706 124.17L24.3109 124.144L24.3965 111.693Z" fill="#252525"/>
<path d="M367.899 138.63L367.984 126.18L371.732 126.205L371.691 132.223C371.689 132.484 371.683 132.777 371.672 133.102C371.662 133.419 371.64 133.704 371.605 133.956L371.715 133.969C371.831 133.734 371.95 133.503 372.074 133.276C372.198 133.049 372.354 132.753 372.544 132.388L376.065 126.235L379.898 126.261L379.813 138.712L376.065 138.687L376.107 132.62C376.109 132.359 376.111 132.075 376.113 131.765C376.123 131.456 376.137 131.171 376.155 130.911L376.033 130.91C375.926 131.146 375.814 131.373 375.699 131.592C375.592 131.811 375.443 132.098 375.253 132.455L371.732 138.657L367.899 138.63ZM373.969 122.229C374.571 122.233 375.064 122.061 375.449 121.714C375.834 121.359 376.127 120.787 376.328 119.999L378.616 121.04C378.217 122.217 377.605 123.072 376.779 123.603C375.962 124.127 375.02 124.385 373.954 124.377C372.888 124.37 371.95 124.103 371.14 123.577C370.329 123.042 369.729 122.175 369.339 120.976L371.738 119.955C371.92 120.77 372.188 121.354 372.544 121.706C372.908 122.051 373.383 122.225 373.969 122.229Z" fill="#252525"/>
<path d="M353.004 138.528L353.09 126.077L356.837 126.103L356.796 132.121C356.794 132.381 356.788 132.674 356.778 133C356.767 133.317 356.745 133.602 356.711 133.854L356.821 133.867C356.936 133.631 357.056 133.4 357.179 133.173C357.303 132.946 357.46 132.65 357.649 132.285L361.171 126.133L365.004 126.159L364.918 138.61L361.171 138.584L361.212 132.517C361.214 132.257 361.216 131.972 361.218 131.663C361.228 131.354 361.243 131.069 361.261 130.809L361.139 130.808C361.031 131.043 360.92 131.27 360.804 131.489C360.697 131.708 360.549 131.996 360.359 132.353L356.837 138.554L353.004 138.528Z" fill="#252525"/>
<path d="M338.026 143.54L338.147 125.975L341.711 125.999L341.762 127.428L341.823 127.428C342.103 126.942 342.57 126.542 343.223 126.229C343.876 125.908 344.606 125.75 345.411 125.756C347.015 125.767 348.301 126.341 349.269 127.479C350.238 128.609 350.716 130.138 350.703 132.067L350.7 132.457C350.687 134.37 350.192 135.896 349.216 137.037C348.24 138.17 346.966 138.731 345.396 138.72C344.59 138.714 343.875 138.575 343.25 138.302C342.633 138.03 342.16 137.66 341.829 137.194L341.786 143.566L338.026 143.54ZM341.85 134.252C342.026 134.701 342.332 135.098 342.769 135.443C343.206 135.779 343.722 135.95 344.316 135.954C345.17 135.96 345.807 135.667 346.226 135.076C346.645 134.485 346.859 133.664 346.866 132.614L346.871 131.87C346.878 130.82 346.676 130.005 346.265 129.424C345.854 128.835 345.221 128.538 344.367 128.532C343.74 128.528 343.218 128.687 342.801 129.01C342.384 129.332 342.076 129.713 341.878 130.151L341.85 134.252Z" fill="#252525"/>
<path d="M322.623 132.277L322.626 131.886C322.639 129.941 323.256 128.395 324.477 127.248C325.697 126.101 327.288 125.534 329.249 125.547C331.211 125.561 332.789 126.149 333.986 127.313C335.19 128.477 335.786 130.031 335.773 131.976L335.77 132.367C335.757 134.312 335.14 135.858 333.919 137.005C332.707 138.153 331.12 138.72 329.159 138.706C327.198 138.693 325.615 138.104 324.41 136.94C323.206 135.776 322.61 134.222 322.623 132.277ZM326.472 131.729L326.467 132.486C326.46 133.585 326.69 134.433 327.158 135.03C327.626 135.619 328.299 135.917 329.178 135.923C330.057 135.929 330.73 135.641 331.198 135.058C331.674 134.467 331.916 133.622 331.924 132.524L331.929 131.767C331.936 130.668 331.702 129.824 331.226 129.235C330.758 128.646 330.093 128.348 329.23 128.343C328.359 128.337 327.682 128.625 327.198 129.207C326.722 129.79 326.48 130.631 326.472 131.729Z" fill="#252525"/>
<path d="M313.221 128.611L313.05 132.211C312.944 134.505 312.599 136.13 312.015 137.087C311.439 138.035 310.414 138.504 308.941 138.494C308.64 138.492 308.352 138.469 308.075 138.427C307.799 138.392 307.571 138.338 307.393 138.263L307.413 135.273C307.543 135.322 307.669 135.36 307.791 135.385C307.921 135.402 308.063 135.411 308.218 135.413C308.771 135.416 309.147 135.158 309.346 134.639C309.553 134.111 309.686 133.181 309.744 131.846L310.03 125.781L320.332 125.852L320.247 138.303L316.487 138.277L316.553 128.634L313.221 128.611Z" fill="#252525"/>
<path d="M293.574 134.47C293.583 133.11 294.115 132.085 295.17 131.392C296.232 130.691 297.582 130.342 299.218 130.346L301.805 130.363L301.81 129.643C301.814 129.09 301.675 128.645 301.392 128.31C301.11 127.966 300.619 127.792 299.919 127.787C299.219 127.782 298.713 127.921 298.402 128.204C298.099 128.478 297.946 128.827 297.943 129.25L297.942 129.458L294.304 129.433L294.306 129.213C294.314 128.074 294.853 127.146 295.924 126.429C296.995 125.704 298.393 125.347 300.118 125.359C301.868 125.371 303.217 125.73 304.164 126.437C305.111 127.143 305.58 128.241 305.57 129.73L305.531 135.394C305.527 135.899 305.569 136.383 305.655 136.848C305.749 137.304 305.877 137.691 306.038 138.01L306.036 138.205L302.325 138.18C302.221 137.992 302.133 137.751 302.062 137.458C301.991 137.156 301.94 136.859 301.909 136.565C301.654 137.036 301.175 137.456 300.472 137.825C299.77 138.195 298.898 138.376 297.856 138.369C296.611 138.36 295.584 138.032 294.775 137.383C293.965 136.726 293.565 135.755 293.574 134.47ZM297.336 134.178C297.332 134.723 297.484 135.156 297.791 135.475C298.098 135.795 298.581 135.957 299.24 135.961C299.948 135.966 300.548 135.742 301.039 135.29C301.531 134.829 301.778 134.286 301.783 133.659L301.79 132.524L299.923 132.511C299.044 132.505 298.392 132.643 297.967 132.925C297.55 133.207 297.339 133.625 297.336 134.178Z" fill="#252525"/>
<path d="M288.396 138.084L282.398 129.851L285.403 127.736L293.108 138.116L288.396 138.084ZM279.876 127.38L282.781 127.4L288.421 120.31L292.559 120.338L284.384 130.414L279.855 130.383L279.876 127.38ZM277.727 138.01L277.85 120.237L281.744 120.264L281.621 138.037L277.727 138.01Z" fill="#252525"/>
<path d="M411.289 272.56C411.298 271.201 411.83 270.175 412.885 269.483C413.947 268.782 415.297 268.433 416.932 268.436L419.52 268.454L419.525 267.734C419.529 267.181 419.39 266.736 419.107 266.401C418.825 266.057 418.333 265.883 417.634 265.878C416.934 265.873 416.428 266.012 416.117 266.295C415.814 266.569 415.661 266.918 415.658 267.341L415.657 267.549L412.019 267.524L412.021 267.304C412.028 266.165 412.568 265.237 413.639 264.52C414.71 263.795 416.108 263.438 417.833 263.45C419.583 263.462 420.931 263.821 421.879 264.527C422.826 265.234 423.295 266.332 423.284 267.821L423.245 273.485C423.242 273.989 423.283 274.474 423.37 274.938C423.464 275.395 423.592 275.782 423.752 276.101L423.751 276.296L420.04 276.27C419.936 276.083 419.848 275.842 419.777 275.548C419.705 275.247 419.655 274.949 419.624 274.656C419.369 275.126 418.89 275.546 418.187 275.916C417.485 276.285 416.613 276.467 415.571 276.459C414.326 276.451 413.299 276.122 412.489 275.474C411.68 274.817 411.28 273.846 411.289 272.56ZM415.051 272.269C415.047 272.814 415.198 273.246 415.505 273.566C415.813 273.885 416.296 274.047 416.955 274.052C417.663 274.057 418.262 273.833 418.754 273.381C419.245 272.92 419.493 272.377 419.498 271.75L419.505 270.615L417.638 270.602C416.759 270.596 416.107 270.734 415.682 271.016C415.265 271.298 415.054 271.715 415.051 272.269Z" fill="#252525"/>
<path d="M406.613 279.474L406.636 276.179L399.055 276.126L399.033 279.422L395.505 279.398L395.547 273.295L410.183 273.395L410.141 279.499L406.613 279.474ZM401.221 266.498L401.08 269.255C401.033 270.232 400.946 271.073 400.819 271.781C400.7 272.48 400.537 273.06 400.331 273.523L396.754 273.498C397.034 273.028 397.262 272.391 397.439 271.586C397.623 270.774 397.744 269.721 397.802 268.427L398.03 263.668L408.418 263.739L408.333 276.19L404.561 276.164L404.627 266.521L401.221 266.498Z" fill="#252525"/>
<path d="M381.418 269.963L381.421 269.573C381.434 267.628 382.051 266.082 383.272 264.934C384.492 263.787 386.083 263.22 388.044 263.234C390.005 263.247 391.584 263.836 392.781 265C393.985 266.164 394.581 267.718 394.568 269.663L394.565 270.054C394.552 271.998 393.935 273.545 392.714 274.692C391.502 275.839 389.915 276.406 387.954 276.393C385.993 276.379 384.41 275.79 383.205 274.626C382.001 273.463 381.405 271.908 381.418 269.963ZM385.267 269.416L385.262 270.173C385.255 271.271 385.485 272.119 385.953 272.717C386.421 273.306 387.094 273.603 387.973 273.609C388.852 273.615 389.525 273.327 389.993 272.744C390.469 272.154 390.711 271.309 390.719 270.21L390.724 269.453C390.731 268.355 390.497 267.511 390.021 266.922C389.553 266.333 388.888 266.035 388.025 266.029C387.154 266.023 386.477 266.311 385.993 266.894C385.517 267.477 385.275 268.317 385.267 269.416Z" fill="#252525"/>
<path d="M372.018 266.297L371.846 269.897C371.741 272.192 371.396 273.817 370.812 274.773C370.236 275.721 369.211 276.19 367.738 276.18C367.437 276.178 367.148 276.156 366.872 276.113C366.596 276.079 366.368 276.024 366.189 275.95L366.21 272.959C366.34 273.009 366.466 273.046 366.588 273.072C366.718 273.089 366.86 273.098 367.015 273.099C367.568 273.103 367.944 272.845 368.143 272.326C368.35 271.798 368.483 270.867 368.541 269.533L368.827 263.468L379.129 263.539L379.044 275.989L375.284 275.964L375.35 266.32L372.018 266.297Z" fill="#252525"/>
<path d="M351.922 269.76L351.925 269.369C351.938 267.425 352.555 265.878 353.776 264.731C354.996 263.584 356.587 263.017 358.548 263.031C360.509 263.044 362.088 263.633 363.285 264.797C364.489 265.96 365.085 267.515 365.072 269.46L365.069 269.85C365.055 271.795 364.439 273.341 363.218 274.489C362.006 275.636 360.419 276.203 358.458 276.189C356.497 276.176 354.914 275.587 353.709 274.423C352.504 273.259 351.909 271.705 351.922 269.76ZM355.771 269.213L355.766 269.97C355.759 271.068 355.989 271.916 356.457 272.513C356.925 273.103 357.598 273.4 358.477 273.406C359.356 273.412 360.029 273.124 360.497 272.541C360.973 271.95 361.215 271.106 361.222 270.007L361.228 269.25C361.235 268.152 361.001 267.308 360.525 266.719C360.057 266.129 359.392 265.832 358.529 265.826C357.658 265.82 356.981 266.108 356.497 266.691C356.021 267.274 355.779 268.114 355.771 269.213Z" fill="#252525"/>
<path d="M341.734 263.281L350.694 263.343L350.675 266.15L345.475 266.115L345.408 275.758L341.649 275.732L341.734 263.281Z" fill="#252525"/>
<path d="M320.055 269.541L320.058 269.151C320.071 267.206 320.688 265.66 321.908 264.512C323.129 263.365 324.72 262.798 326.681 262.812C328.642 262.825 330.221 263.414 331.418 264.578C332.622 265.742 333.218 267.296 333.204 269.241L333.202 269.632C333.188 271.577 332.571 273.123 331.351 274.27C330.139 275.417 328.552 275.984 326.591 275.971C324.629 275.957 323.046 275.369 321.842 274.205C320.637 273.041 320.042 271.486 320.055 269.541ZM323.904 268.994L323.899 269.751C323.891 270.849 324.122 271.697 324.589 272.295C325.057 272.884 325.731 273.182 326.61 273.188C327.489 273.194 328.162 272.905 328.63 272.322C329.106 271.732 329.348 270.887 329.355 269.788L329.36 269.032C329.368 267.933 329.134 267.089 328.658 266.5C328.19 265.911 327.524 265.613 326.662 265.607C325.791 265.601 325.114 265.889 324.629 266.472C324.153 267.055 323.912 267.895 323.904 268.994Z" fill="#252525"/>
<path d="M306.608 275.491L306.693 263.04L313.285 263.085C314.864 263.096 316.026 263.369 316.771 263.903C317.516 264.429 317.885 265.204 317.878 266.23C317.872 267.027 317.644 267.665 317.193 268.142C316.751 268.611 316.138 268.924 315.356 269.081L315.355 269.118C316.274 269.262 316.992 269.589 317.509 270.097C318.027 270.597 318.283 271.266 318.277 272.104C318.269 273.195 317.877 274.042 317.1 274.647C316.331 275.253 315.185 275.55 313.663 275.539L306.608 275.491ZM310.345 268.058L312.433 268.072C313.019 268.076 313.443 267.957 313.705 267.715C313.975 267.473 314.112 267.115 314.115 266.643C314.118 266.22 313.986 265.894 313.719 265.664C313.452 265.434 313.03 265.318 312.452 265.314L310.364 265.299L310.345 268.058ZM310.31 273.258L312.702 273.274C313.321 273.279 313.777 273.152 314.072 272.893C314.367 272.627 314.516 272.253 314.519 271.773C314.523 271.301 314.379 270.934 314.087 270.672C313.804 270.401 313.35 270.264 312.723 270.259L310.33 270.243L310.31 273.258Z" fill="#252525"/>
<path d="M293.465 265.758L293.484 262.95L304.776 263.028L304.756 265.835L300.997 265.809L300.93 275.453L297.158 275.427L297.225 265.784L293.465 265.758Z" fill="#252525"/>
<path d="M280.084 269.267L280.087 268.876C280.101 266.907 280.697 265.357 281.877 264.225C283.057 263.086 284.623 262.523 286.576 262.536C288.448 262.549 289.873 263.007 290.851 263.909C291.838 264.811 292.363 265.929 292.427 267.264L292.438 267.496L288.776 267.471L288.777 267.312C288.781 266.727 288.597 266.245 288.226 265.868C287.862 265.483 287.31 265.288 286.569 265.283C285.715 265.277 285.062 265.582 284.61 266.197C284.166 266.805 283.941 267.641 283.933 268.707L283.928 269.476C283.921 270.543 284.127 271.39 284.545 272.02C284.973 272.641 285.63 272.955 286.517 272.961C287.314 272.967 287.885 272.771 288.23 272.375C288.574 271.978 288.748 271.503 288.752 270.95L288.753 270.804L292.403 270.829L292.402 271.012C292.384 272.338 291.864 273.454 290.841 274.358C289.817 275.262 288.37 275.708 286.498 275.695C284.553 275.682 282.994 275.098 281.822 273.942C280.65 272.787 280.071 271.228 280.084 269.267Z" fill="#252525"/>
<path d="M266.637 275.217L266.723 262.766L273.314 262.811C274.893 262.822 276.055 263.094 276.8 263.628C277.545 264.154 277.914 264.93 277.907 265.955C277.902 266.753 277.673 267.39 277.223 267.867C276.78 268.336 276.167 268.649 275.385 268.807L275.385 268.843C276.303 268.988 277.021 269.314 277.539 269.823C278.056 270.323 278.312 270.992 278.306 271.83C278.299 272.92 277.906 273.768 277.129 274.373C276.36 274.978 275.214 275.275 273.693 275.265L266.637 275.217ZM270.375 267.784L272.462 267.798C273.048 267.802 273.472 267.683 273.734 267.44C274.004 267.198 274.141 266.841 274.144 266.369C274.147 265.946 274.015 265.619 273.748 265.39C273.481 265.16 273.059 265.043 272.481 265.039L270.394 265.025L270.375 267.784ZM270.339 272.984L272.732 273C273.35 273.004 273.807 272.877 274.101 272.619C274.396 272.352 274.545 271.979 274.549 271.499C274.552 271.027 274.408 270.66 274.117 270.397C273.834 270.127 273.379 269.989 272.752 269.985L270.36 269.969L270.339 272.984Z" fill="#252525"/>
<path d="M253.149 280.19L253.192 277.505C253.419 277.572 253.659 277.622 253.911 277.656C254.171 277.699 254.419 277.721 254.655 277.723C255.208 277.726 255.69 277.551 256.099 277.195C256.516 276.84 256.875 276.147 257.175 275.115L257.078 275.115L252.305 262.667L256.077 262.693L258.493 269.826C258.597 270.112 258.677 270.373 258.732 270.609C258.788 270.838 258.839 271.078 258.886 271.331L258.959 271.331C259.01 271.079 259.064 270.839 259.123 270.612C259.19 270.376 259.269 270.112 259.36 269.82L261.863 262.733L265.232 262.756L260.06 276.392C259.521 277.805 258.847 278.838 258.036 279.491C257.234 280.145 256.239 280.468 255.051 280.46C254.628 280.457 254.266 280.434 253.965 280.391C253.664 280.348 253.392 280.281 253.149 280.19Z" fill="#252525"/>
<path d="M240.439 262.304C240.431 263.558 240.685 264.402 241.203 264.837C241.721 265.272 242.582 265.493 243.787 265.501C244.649 265.507 245.443 265.472 246.168 265.396C246.901 265.319 247.699 265.195 248.563 265.021L248.543 267.939C247.418 268.167 246.445 268.323 245.622 268.407C244.808 268.483 243.933 268.518 242.997 268.511C240.645 268.495 238.976 268.007 237.99 267.048C237.012 266.081 236.53 264.585 236.544 262.558L236.58 257.236L240.474 257.263L240.439 262.304ZM250.569 257.332L250.447 275.105L246.553 275.079L246.675 257.306L250.569 257.332Z" fill="#252525"/>
<path d="M135.331 62.448C135.188 81.7774 119.403 97.3465 100.074 97.2226C80.7442 97.0986 65.1899 81.3285 65.3322 61.9991C65.4745 42.6696 81.2596 27.1005 100.589 27.2245C119.919 27.3484 135.473 43.1185 135.331 62.448ZM68.9599 62.0223C68.8323 79.3482 82.7744 93.4838 100.1 93.5949C117.427 93.706 131.575 79.7506 131.703 62.4247C131.831 45.0988 117.888 30.9633 100.562 30.8521C83.2364 30.741 69.0874 44.6964 68.9599 62.0223Z" fill="#969AAD" fill-opacity="0.24"/>
<path d="M107.29 96.5179C99.9545 98.0131 92.3348 97.1175 85.5498 93.9628C78.7648 90.808 73.1721 85.5601 69.5926 78.9897C66.0131 72.4192 64.6355 64.8723 65.6619 57.4569C66.6884 50.0415 70.0649 43.1482 75.2957 37.789C80.5265 32.4299 87.336 28.8872 94.7246 27.6811C102.113 26.475 109.692 27.6691 116.347 31.0879C123.003 34.5067 128.385 39.9703 131.704 46.6764C135.022 53.3826 136.103 60.9781 134.786 68.3478L131.215 67.713C132.395 61.1072 131.427 54.299 128.452 48.2879C125.477 42.2769 120.653 37.3796 114.687 34.3151C108.721 31.2507 101.929 30.1804 95.3058 31.2615C88.683 32.3425 82.5793 35.518 77.8906 40.3217C73.202 45.1253 70.1755 51.3041 69.2554 57.951C68.3354 64.5978 69.5702 71.3624 72.7787 77.2519C75.9872 83.1413 81.0002 87.8452 87.0819 90.673C93.1636 93.5007 99.9936 94.3034 106.569 92.9632L107.29 96.5179Z" fill="#00B800"/>
<path d="M104.903 60.2249L104.918 58.0888C104.927 56.8844 105.329 55.9429 106.123 55.2644C106.918 54.5859 107.982 54.2509 109.317 54.2595C110.651 54.268 111.707 54.6166 112.483 55.3052C113.267 55.9938 113.655 56.9403 113.646 58.1447L113.63 60.2809C113.621 61.526 113.219 62.4959 112.425 63.1907C111.639 63.8855 110.578 64.2287 109.243 64.2201C107.909 64.2116 106.849 63.8548 106.065 63.1499C105.281 62.445 104.893 61.47 104.903 60.2249ZM108.136 60.4288C108.133 60.8682 108.216 61.2065 108.385 61.4436C108.562 61.6807 108.854 61.8006 109.261 61.8032C109.66 61.8058 109.946 61.6896 110.118 61.4547C110.299 61.2198 110.391 60.8827 110.394 60.4433L110.412 58.0507C110.415 57.6194 110.332 57.2812 110.163 57.0359C109.994 56.7907 109.706 56.6668 109.299 56.6642C108.892 56.6616 108.598 56.7818 108.417 57.0247C108.245 57.2678 108.157 57.605 108.154 58.0363L108.136 60.4288ZM122.041 55.3543L111.842 72.7331L109.448 71.3017L119.597 53.9836L122.041 55.3543ZM117.743 68.7425L117.759 66.6063C117.768 65.4019 118.169 64.4605 118.964 63.782C119.758 63.1035 120.823 62.7685 122.157 62.777C123.492 62.7856 124.547 63.1342 125.323 63.8228C126.108 64.5114 126.495 65.4579 126.487 66.6623L126.471 68.7985C126.462 70.0436 126.06 71.0135 125.265 71.7083C124.479 72.4031 123.418 72.7463 122.084 72.7377C120.749 72.7291 119.69 72.3724 118.906 71.6675C118.121 70.9626 117.734 69.9876 117.743 68.7425ZM120.976 68.9464C120.973 69.3858 121.056 69.7241 121.225 69.9612C121.403 70.1983 121.695 70.3182 122.102 70.3208C122.5 70.3233 122.786 70.2072 122.959 69.9723C123.14 69.7374 123.232 69.4003 123.235 68.9608L123.252 66.5683C123.256 66.137 123.173 65.7988 123.003 65.5535C122.834 65.3083 122.546 65.1844 122.139 65.1818C121.733 65.1792 121.439 65.2993 121.258 65.5423C121.085 65.7854 120.997 66.1225 120.994 66.5538L120.976 68.9464Z" fill="#00B800"/>
<path d="M95.529 72.1888L95.6299 58.4929L91.2974 59.9911L91.3238 56.4023L97.309 54.2678L100.153 54.286L100.021 72.2177L95.529 72.1888Z" fill="#00B800"/>
<path d="M75.4 67.2745C75.4089 66.0701 75.766 65.0999 76.4713 64.3639C77.1848 63.6197 77.9574 63.1283 78.7893 62.8895L78.7897 62.8406C77.9784 62.4936 77.3108 61.9766 76.7869 61.2897C76.2711 60.6027 76.0169 59.7507 76.0244 58.7335C76.0347 57.3338 76.5762 56.1938 77.6488 55.3136C78.7295 54.4254 80.2343 53.9874 82.1629 53.9998C84.0916 54.0121 85.5898 54.4694 86.6574 55.3714C87.725 56.2734 88.2537 57.4203 88.2434 58.8118C88.2359 59.8372 87.9895 60.6901 87.5043 61.3706C87.0192 62.0511 86.3644 62.5515 85.5401 62.8717L85.5397 62.9205C86.3845 63.1457 87.1295 63.6428 87.7749 64.412C88.4204 65.1729 88.7387 66.1556 88.7298 67.36C88.7181 68.955 88.1107 70.2044 86.9077 71.1082C85.7129 72.0039 84.0861 72.4451 82.0272 72.4319C79.9765 72.4187 78.3563 71.9567 77.1667 71.0457C75.9772 70.1266 75.3883 68.8696 75.4 67.2745ZM79.9561 66.9009C79.9503 67.6903 80.1249 68.2977 80.4798 68.7232C80.8348 69.1405 81.3582 69.3514 82.0499 69.3558C82.7416 69.3602 83.268 69.1561 83.6292 68.7434C83.9903 68.3225 84.1738 67.7174 84.1796 66.928C84.1856 66.1142 84.0193 65.4906 83.6807 65.0571C83.3502 64.6237 82.8188 64.4046 82.0864 64.3999C81.354 64.3952 80.8153 64.6074 80.4703 65.0365C80.1335 65.4657 79.9621 66.0871 79.9561 66.9009ZM80.3782 59.3107C80.373 60.0187 80.5031 60.5811 80.7686 60.9978C81.0422 61.4146 81.4883 61.625 82.1068 61.629C82.7253 61.6329 83.1744 61.4283 83.4541 61.015C83.7339 60.6018 83.8763 60.0412 83.8815 59.3332C83.8866 58.6415 83.7482 58.0994 83.4663 57.7069C83.1925 57.3064 82.7505 57.1042 82.1401 57.1003C81.5298 57.0964 81.0848 57.2929 80.8052 57.6899C80.5256 58.0787 80.3833 58.619 80.3782 59.3107Z" fill="#00B800"/>
<path fill-rule="evenodd" clip-rule="evenodd" d="M223 273L223 49L224 49L224 273L223 273Z" fill="#969AAD"/>
<path fill-rule="evenodd" clip-rule="evenodd" d="M402 167H37V166H402V167Z" fill="#969AAD"/>
<defs>
<linearGradient id="paint0_linear_684_15085" x1="9.28771e-06" y1="23.6615" x2="464.562" y2="245.337" gradientUnits="userSpaceOnUse">
<stop stop-color="#00B800"/>
<stop offset="1" stop-color="#00B800" stop-opacity="0"/>
</linearGradient>
</defs>
</svg>
