<svg width="441" height="313" viewBox="0 0 441 313" fill="none" xmlns="http://www.w3.org/2000/svg">
<path d="M30.7119 312.172V306.898H31.7129L31.752 307.567H31.7812C31.9701 307.323 32.2061 307.134 32.4893 307.001C32.7725 306.868 33.0866 306.801 33.4316 306.801C33.9883 306.801 34.4326 306.957 34.7646 307.27C35.0967 307.582 35.2627 308.109 35.2627 308.852V312.172H34.1738V308.837C34.1738 308.424 34.0794 308.129 33.8906 307.953C33.7051 307.774 33.4414 307.685 33.0996 307.685C32.8066 307.685 32.5479 307.763 32.3232 307.919C32.1019 308.072 31.9261 308.274 31.7959 308.524V312.172H30.7119Z" fill="#252525"/>
<path d="M24.2295 309.613V309.457C24.2295 308.656 24.4688 308.005 24.9473 307.504C25.4258 307.003 26.0622 306.752 26.8564 306.752C27.6507 306.752 28.2871 307.003 28.7656 307.504C29.2441 308.005 29.4834 308.656 29.4834 309.457V309.613C29.4834 310.411 29.2441 311.062 28.7656 311.566C28.2871 312.068 27.6507 312.318 26.8564 312.318C26.0622 312.318 25.4258 312.068 24.9473 311.566C24.4688 311.062 24.2295 310.411 24.2295 309.613ZM25.3477 309.447V309.623C25.3477 310.144 25.4746 310.58 25.7285 310.932C25.9824 311.28 26.3584 311.454 26.8564 311.454C27.3545 311.454 27.7305 311.28 27.9844 310.932C28.2415 310.58 28.3701 310.142 28.3701 309.618V309.447C28.3701 308.926 28.2415 308.492 27.9844 308.144C27.7305 307.792 27.3545 307.616 26.8564 307.616C26.3584 307.616 25.9824 307.792 25.7285 308.144C25.4746 308.492 25.3477 308.926 25.3477 309.447Z" fill="#252525"/>
<path d="M15.502 312.172V305.062H16.9814L18.959 310.097C18.998 310.198 19.0355 310.302 19.0713 310.409C19.1104 310.513 19.1462 310.616 19.1787 310.717H19.2178C19.2471 310.616 19.2796 310.512 19.3154 310.404C19.3545 310.297 19.3936 310.194 19.4326 310.097L21.3809 305.062H22.9043V312.172H21.8008V307.152C21.8008 307.051 21.8024 306.939 21.8057 306.815C21.8122 306.688 21.8219 306.575 21.835 306.474H21.7861C21.7601 306.575 21.7259 306.688 21.6836 306.815C21.6445 306.939 21.6055 307.051 21.5664 307.152L19.623 312.172H18.6709L16.7031 307.152C16.6641 307.051 16.625 306.938 16.5859 306.811C16.5469 306.684 16.5192 306.57 16.5029 306.469H16.4492C16.4622 306.57 16.472 306.684 16.4785 306.811C16.485 306.938 16.4883 307.051 16.4883 307.152V312.172H15.502Z" fill="#252525"/>
<path d="M93.7607 309.613V309.457C93.7607 308.66 93.9919 308.01 94.4541 307.509C94.9163 307.004 95.5234 306.752 96.2754 306.752C97.0339 306.752 97.6182 306.988 98.0283 307.46C98.4417 307.929 98.6484 308.565 98.6484 309.369V309.799H94.4639V308.993H97.5547V308.949C97.5547 308.578 97.4538 308.261 97.252 307.997C97.0501 307.73 96.7262 307.597 96.2803 307.597C95.8148 307.597 95.46 307.774 95.2158 308.129C94.9749 308.484 94.8545 308.923 94.8545 309.447V309.618C94.8545 310.142 94.9831 310.582 95.2402 310.937C95.4974 311.291 95.8913 311.469 96.4219 311.469C96.7539 311.469 97.0404 311.397 97.2812 311.254C97.5221 311.111 97.7174 310.943 97.8672 310.751L98.5801 311.308C98.4108 311.565 98.1406 311.798 97.7695 312.006C97.3984 312.214 96.9492 312.318 96.4219 312.318C95.5658 312.318 94.9082 312.068 94.4492 311.566C93.9902 311.062 93.7607 310.411 93.7607 309.613Z" fill="#252525"/>
<path d="M87.9863 310.204V306.898H89.0752V310.219C89.0752 310.639 89.168 310.938 89.3535 311.117C89.5423 311.296 89.8076 311.386 90.1494 311.386C90.4391 311.386 90.6963 311.308 90.9209 311.151C91.1455 310.995 91.3213 310.793 91.4482 310.546V306.898H92.5371V312.172H91.5312L91.4971 311.498H91.4678C91.2757 311.745 91.0365 311.936 90.75 312.069C90.4668 312.203 90.1543 312.27 89.8125 312.27C89.2591 312.27 88.8164 312.112 88.4844 311.796C88.1523 311.477 87.9863 310.946 87.9863 310.204Z" fill="#252525"/>
<path d="M81.8418 305.951V305.062H87.6279V305.951H85.2939V312.172H84.1758V305.951H81.8418Z" fill="#252525"/>
<path d="M160.311 309.613V309.457C160.311 308.686 160.519 308.051 160.936 307.553C161.355 307.051 161.914 306.801 162.61 306.801C162.985 306.801 163.304 306.864 163.567 306.991C163.834 307.118 164.046 307.287 164.202 307.499V304.677H165.291V312.172H164.285L164.246 311.503H164.222C164.088 311.718 163.88 311.9 163.597 312.05C163.313 312.196 162.985 312.27 162.61 312.27C161.91 312.27 161.352 312.019 160.936 311.518C160.519 311.016 160.311 310.382 160.311 309.613ZM161.429 309.623C161.429 310.128 161.544 310.551 161.775 310.893C162.007 311.234 162.368 311.405 162.859 311.405C163.188 311.405 163.468 311.319 163.699 311.146C163.93 310.971 164.098 310.769 164.202 310.541V308.529C164.098 308.301 163.93 308.101 163.699 307.929C163.471 307.753 163.191 307.665 162.859 307.665C162.368 307.665 162.007 307.836 161.775 308.178C161.544 308.52 161.429 308.943 161.429 309.447V309.623Z" fill="#252525"/>
<path d="M154.551 309.613V309.457C154.551 308.66 154.782 308.01 155.244 307.509C155.706 307.004 156.313 306.752 157.065 306.752C157.824 306.752 158.408 306.988 158.818 307.46C159.232 307.929 159.438 308.565 159.438 309.369V309.799H155.254V308.993H158.345V308.949C158.345 308.578 158.244 308.261 158.042 307.997C157.84 307.73 157.516 307.597 157.07 307.597C156.605 307.597 156.25 307.774 156.006 308.129C155.765 308.484 155.645 308.923 155.645 309.447V309.618C155.645 310.142 155.773 310.582 156.03 310.937C156.287 311.291 156.681 311.469 157.212 311.469C157.544 311.469 157.83 311.397 158.071 311.254C158.312 311.111 158.507 310.943 158.657 310.751L159.37 311.308C159.201 311.565 158.931 311.798 158.56 312.006C158.188 312.214 157.739 312.318 157.212 312.318C156.356 312.318 155.698 312.068 155.239 311.566C154.78 311.062 154.551 310.411 154.551 309.613Z" fill="#252525"/>
<path d="M146.868 312.211L145.101 305.062H146.238L147.425 310.233C147.451 310.347 147.47 310.445 147.483 310.526C147.5 310.608 147.514 310.702 147.527 310.81H147.586C147.599 310.702 147.612 310.608 147.625 310.526C147.641 310.445 147.662 310.347 147.688 310.233L148.958 305.062H150.184L151.497 310.233C151.526 310.344 151.548 310.442 151.561 310.526C151.574 310.608 151.588 310.702 151.604 310.81H151.658C151.674 310.699 151.689 310.603 151.702 310.521C151.715 310.44 151.735 310.344 151.761 310.233L152.913 305.062H153.958L152.195 312.211H151.014L149.69 307.055C149.661 306.944 149.637 306.838 149.617 306.737C149.598 306.636 149.58 306.532 149.563 306.425H149.505C149.489 306.532 149.471 306.635 149.451 306.732C149.432 306.83 149.407 306.936 149.378 307.05L148.045 312.206L146.868 312.211Z" fill="#252525"/>
<path d="M224.276 310.204V306.898H225.365V310.219C225.365 310.639 225.458 310.938 225.644 311.117C225.832 311.296 226.098 311.386 226.439 311.386C226.729 311.386 226.986 311.308 227.211 311.151C227.436 310.995 227.611 310.793 227.738 310.546V306.898H228.827V312.172H227.821L227.787 311.498H227.758C227.566 311.745 227.326 311.936 227.04 312.069C226.757 312.203 226.444 312.27 226.103 312.27C225.549 312.27 225.106 312.112 224.774 311.796C224.442 311.477 224.276 310.946 224.276 310.204Z" fill="#252525"/>
<path d="M218.297 312.172V304.677H219.381V307.567C219.573 307.33 219.809 307.143 220.089 307.006C220.372 306.869 220.688 306.801 221.036 306.801C221.583 306.801 222.021 306.959 222.35 307.274C222.682 307.587 222.848 308.111 222.848 308.847V312.172H221.754V308.847C221.754 308.43 221.66 308.132 221.471 307.953C221.285 307.774 221.021 307.685 220.68 307.685C220.387 307.685 220.128 307.763 219.903 307.919C219.682 308.075 219.508 308.279 219.381 308.529V312.172H218.297Z" fill="#252525"/>
<path d="M211.576 305.951V305.062H217.362V305.951H215.028V312.172H213.91V305.951H211.576Z" fill="#252525"/>
<path d="M289.762 312.172V306.898H290.851V312.172H289.762ZM289.659 305.404C289.659 305.235 289.715 305.092 289.825 304.975C289.936 304.857 290.095 304.799 290.304 304.799C290.512 304.799 290.672 304.857 290.782 304.975C290.896 305.092 290.953 305.237 290.953 305.409C290.953 305.582 290.896 305.727 290.782 305.844C290.672 305.961 290.512 306.02 290.304 306.02C290.095 306.02 289.936 305.961 289.825 305.844C289.715 305.727 289.659 305.58 289.659 305.404Z" fill="#252525"/>
<path d="M285.999 312.172V306.898H287L287.039 307.553H287.068C287.199 307.338 287.371 307.151 287.586 306.991C287.804 306.832 288.063 306.752 288.362 306.752C288.434 306.752 288.509 306.76 288.587 306.776C288.668 306.793 288.724 306.807 288.753 306.82V307.807C288.688 307.794 288.619 307.784 288.548 307.777C288.476 307.771 288.396 307.768 288.309 307.768C288.012 307.768 287.76 307.844 287.552 307.997C287.343 308.15 287.189 308.339 287.088 308.563V312.172H285.999Z" fill="#252525"/>
<path d="M280.343 312.172V305.062H285.03V305.951H281.466V308.251H284.552V309.14H281.466V312.172H280.343Z" fill="#252525"/>
<path d="M355.092 307.714V306.898H358.236V307.714H355.092ZM356.02 310.805V307.372V307.23V305.771H357.108V310.8C357.108 311.028 357.154 311.19 357.245 311.288C357.34 311.382 357.484 311.43 357.68 311.43C357.771 311.43 357.86 311.42 357.948 311.4C358.036 311.381 358.126 311.356 358.217 311.327V312.172C358.129 312.211 358.015 312.245 357.875 312.274C357.738 312.304 357.587 312.318 357.421 312.318C356.998 312.318 356.658 312.196 356.4 311.952C356.146 311.708 356.02 311.326 356.02 310.805Z" fill="#252525"/>
<path d="M349.61 310.619C349.61 310.076 349.835 309.654 350.284 309.354C350.733 309.055 351.303 308.905 351.993 308.905H353.185V308.52C353.185 308.24 353.103 308.012 352.94 307.836C352.778 307.657 352.499 307.567 352.105 307.567C351.708 307.567 351.425 307.646 351.256 307.802C351.087 307.958 351.002 308.139 351.002 308.344V308.378H349.913V308.344C349.913 307.914 350.113 307.541 350.514 307.226C350.917 306.91 351.458 306.752 352.135 306.752C352.812 306.752 353.338 306.9 353.712 307.196C354.086 307.489 354.273 307.93 354.273 308.52V311C354.273 311.212 354.29 311.412 354.322 311.601C354.358 311.789 354.405 311.954 354.464 312.094V312.172H353.409C353.364 312.09 353.321 311.983 353.282 311.85C353.246 311.716 353.222 311.586 353.209 311.459C353.085 311.671 352.879 311.859 352.589 312.025C352.302 312.188 351.935 312.27 351.485 312.27C350.965 312.27 350.522 312.13 350.157 311.85C349.793 311.566 349.61 311.156 349.61 310.619ZM350.699 310.565C350.699 310.842 350.784 311.06 350.953 311.22C351.126 311.376 351.391 311.454 351.749 311.454C352.117 311.454 352.447 311.335 352.74 311.098C353.036 310.86 353.185 310.606 353.185 310.336V309.643H352.105C351.643 309.643 351.293 309.726 351.056 309.892C350.818 310.058 350.699 310.282 350.699 310.565Z" fill="#252525"/>
<path d="M343.212 310.189V310.116H344.34V310.189C344.34 310.593 344.483 310.896 344.77 311.098C345.059 311.299 345.461 311.4 345.976 311.4C346.493 311.4 346.889 311.299 347.162 311.098C347.439 310.893 347.577 310.626 347.577 310.297C347.577 309.991 347.45 309.748 347.196 309.569C346.946 309.39 346.42 309.2 345.619 308.998C344.805 308.79 344.224 308.531 343.876 308.222C343.528 307.912 343.354 307.473 343.354 306.903C343.354 306.33 343.581 305.857 344.037 305.482C344.493 305.105 345.123 304.916 345.927 304.916C346.731 304.916 347.369 305.118 347.841 305.521C348.316 305.922 348.554 306.42 348.554 307.016V307.084H347.431V307.016C347.431 306.661 347.305 306.376 347.055 306.161C346.804 305.943 346.428 305.834 345.927 305.834C345.432 305.834 345.066 305.925 344.828 306.107C344.594 306.286 344.477 306.521 344.477 306.811C344.477 307.113 344.594 307.348 344.828 307.514C345.066 307.68 345.554 307.855 346.293 308.041C347.107 308.249 347.711 308.521 348.104 308.856C348.498 309.188 348.695 309.657 348.695 310.263C348.695 310.871 348.45 311.366 347.958 311.747C347.47 312.128 346.809 312.318 345.976 312.318C345.146 312.318 344.477 312.13 343.969 311.752C343.464 311.371 343.212 310.85 343.212 310.189Z" fill="#252525"/>
<path d="M419.659 312.172V306.898H420.66L420.699 307.567H420.729C420.917 307.323 421.153 307.134 421.437 307.001C421.72 306.868 422.034 306.801 422.379 306.801C422.936 306.801 423.38 306.957 423.712 307.27C424.044 307.582 424.21 308.109 424.21 308.852V312.172H423.121V308.837C423.121 308.424 423.027 308.129 422.838 307.953C422.652 307.774 422.389 307.685 422.047 307.685C421.754 307.685 421.495 307.763 421.271 307.919C421.049 308.072 420.873 308.274 420.743 308.524V312.172H419.659Z" fill="#00B800"/>
<path d="M413.582 310.204V306.898H414.671V310.219C414.671 310.639 414.764 310.938 414.949 311.117C415.138 311.296 415.403 311.386 415.745 311.386C416.035 311.386 416.292 311.308 416.517 311.151C416.741 310.995 416.917 310.793 417.044 310.546V306.898H418.133V312.172H417.127L417.093 311.498H417.063C416.871 311.745 416.632 311.936 416.346 312.069C416.062 312.203 415.75 312.27 415.408 312.27C414.855 312.27 414.412 312.112 414.08 311.796C413.748 311.477 413.582 310.946 413.582 310.204Z" fill="#00B800"/>
<path d="M406.949 310.189V310.116H408.077V310.189C408.077 310.593 408.22 310.896 408.507 311.098C408.797 311.299 409.199 311.4 409.713 311.4C410.23 311.4 410.626 311.299 410.899 311.098C411.176 310.893 411.314 310.626 411.314 310.297C411.314 309.991 411.188 309.748 410.934 309.569C410.683 309.39 410.157 309.2 409.356 308.998C408.543 308.79 407.962 308.531 407.613 308.222C407.265 307.912 407.091 307.473 407.091 306.903C407.091 306.33 407.319 305.857 407.774 305.482C408.23 305.105 408.86 304.916 409.664 304.916C410.468 304.916 411.106 305.118 411.578 305.521C412.053 305.922 412.291 306.42 412.291 307.016V307.084H411.168V307.016C411.168 306.661 411.043 306.376 410.792 306.161C410.541 305.943 410.165 305.834 409.664 305.834C409.169 305.834 408.803 305.925 408.565 306.107C408.331 306.286 408.214 306.521 408.214 306.811C408.214 307.113 408.331 307.348 408.565 307.514C408.803 307.68 409.291 307.855 410.03 308.041C410.844 308.249 411.448 308.521 411.842 308.856C412.236 309.188 412.433 309.657 412.433 310.263C412.433 310.871 412.187 311.366 411.695 311.747C411.207 312.128 410.546 312.318 409.713 312.318C408.883 312.318 408.214 312.13 407.706 311.752C407.201 311.371 406.949 310.85 406.949 310.189Z" fill="#00B800"/>
<path d="M0 250.768C0 248.558 1.79086 246.768 4 246.768H46.6066C48.8157 246.768 50.6066 248.558 50.6066 250.768V289.07H0V250.768Z" fill="#F88181"/>
<path d="M65.0654 201.414C65.0654 199.205 66.8563 197.414 69.0654 197.414H111.672C113.881 197.414 115.672 199.205 115.672 201.414V289.07H65.0654V201.414Z" fill="#F88181"/>
<path d="M130.132 159.11C130.132 156.901 131.923 155.11 134.132 155.11H176.738C178.948 155.11 180.738 156.901 180.738 159.11V289.07H130.132V159.11Z" fill="#F9E34E"/>
<path d="M195.197 102.706C195.197 100.497 196.988 98.7061 199.197 98.7061H241.804C244.013 98.7061 245.804 100.497 245.804 102.706V289.069H195.197V102.706Z" fill="#F9E34E"/>
<path d="M390.394 102.706C390.394 100.497 392.184 98.7061 394.394 98.7061H437C439.209 98.7061 441 100.497 441 102.706V289.069H390.394V102.706Z" fill="#F9E34E"/>
<path d="M260.263 3.99999C260.263 1.79085 262.054 0 264.263 0H306.869C309.078 0 310.869 1.79086 310.869 4V289.07H260.263V3.99999Z" fill="#83ED83"/>
<path d="M325.328 78.0312C325.328 75.8221 327.119 74.0312 329.328 74.0312H371.935C374.144 74.0312 375.935 75.8221 375.935 78.0312V289.071H325.328V78.0312Z" fill="#83ED83"/>
</svg>
