<svg width="441" height="313" viewBox="0 0 441 313" fill="none" xmlns="http://www.w3.org/2000/svg">
<path d="M30.7109 312.172V306.898H31.7119L31.751 307.567H31.7803C31.9691 307.323 32.2051 307.134 32.4883 307.001C32.7715 306.868 33.0856 306.801 33.4307 306.801C33.9873 306.801 34.4316 306.957 34.7637 307.27C35.0957 307.582 35.2617 308.109 35.2617 308.852V312.172H34.1729V308.837C34.1729 308.424 34.0785 308.129 33.8896 307.953C33.7041 307.774 33.4404 307.685 33.0986 307.685C32.8057 307.685 32.5469 307.763 32.3223 307.919C32.1009 308.072 31.9251 308.274 31.7949 308.524V312.172H30.7109Z" fill="#F7FCFF"/>
<path d="M24.2305 309.613V309.457C24.2305 308.656 24.4697 308.005 24.9482 307.504C25.4268 307.003 26.0632 306.752 26.8574 306.752C27.6517 306.752 28.2881 307.003 28.7666 307.504C29.2451 308.005 29.4844 308.656 29.4844 309.457V309.613C29.4844 310.411 29.2451 311.062 28.7666 311.566C28.2881 312.068 27.6517 312.318 26.8574 312.318C26.0632 312.318 25.4268 312.068 24.9482 311.566C24.4697 311.062 24.2305 310.411 24.2305 309.613ZM25.3486 309.447V309.623C25.3486 310.144 25.4756 310.58 25.7295 310.932C25.9834 311.28 26.3594 311.454 26.8574 311.454C27.3555 311.454 27.7314 311.28 27.9854 310.932C28.2425 310.58 28.3711 310.142 28.3711 309.618V309.447C28.3711 308.926 28.2425 308.492 27.9854 308.144C27.7314 307.792 27.3555 307.616 26.8574 307.616C26.3594 307.616 25.9834 307.792 25.7295 308.144C25.4756 308.492 25.3486 308.926 25.3486 309.447Z" fill="#F7FCFF"/>
<path d="M15.502 312.172V305.062H16.9814L18.959 310.097C18.998 310.198 19.0355 310.302 19.0713 310.409C19.1104 310.513 19.1462 310.616 19.1787 310.717H19.2178C19.2471 310.616 19.2796 310.512 19.3154 310.404C19.3545 310.297 19.3936 310.194 19.4326 310.097L21.3809 305.062H22.9043V312.172H21.8008V307.152C21.8008 307.051 21.8024 306.939 21.8057 306.815C21.8122 306.688 21.8219 306.575 21.835 306.474H21.7861C21.7601 306.575 21.7259 306.688 21.6836 306.815C21.6445 306.939 21.6055 307.051 21.5664 307.152L19.623 312.172H18.6709L16.7031 307.152C16.6641 307.051 16.625 306.938 16.5859 306.811C16.5469 306.684 16.5192 306.57 16.5029 306.469H16.4492C16.4622 306.57 16.472 306.684 16.4785 306.811C16.485 306.938 16.4883 307.051 16.4883 307.152V312.172H15.502Z" fill="#F7FCFF"/>
<path d="M93.7598 309.613V309.457C93.7598 308.66 93.9909 308.01 94.4531 307.509C94.9154 307.004 95.5225 306.752 96.2744 306.752C97.0329 306.752 97.6172 306.988 98.0273 307.46C98.4408 307.929 98.6475 308.565 98.6475 309.369V309.799H94.4629V308.993H97.5537V308.949C97.5537 308.578 97.4528 308.261 97.251 307.997C97.0492 307.73 96.7253 307.597 96.2793 307.597C95.8138 307.597 95.459 307.774 95.2148 308.129C94.974 308.484 94.8535 308.923 94.8535 309.447V309.618C94.8535 310.142 94.9821 310.582 95.2393 310.937C95.4964 311.291 95.8903 311.469 96.4209 311.469C96.7529 311.469 97.0394 311.397 97.2803 311.254C97.5212 311.111 97.7165 310.943 97.8662 310.751L98.5791 311.308C98.4098 311.565 98.1396 311.798 97.7686 312.006C97.3975 312.214 96.9482 312.318 96.4209 312.318C95.5648 312.318 94.9072 312.068 94.4482 311.566C93.9893 311.062 93.7598 310.411 93.7598 309.613Z" fill="#F7FCFF"/>
<path d="M87.9863 310.204V306.898H89.0752V310.219C89.0752 310.639 89.168 310.938 89.3535 311.117C89.5423 311.296 89.8076 311.386 90.1494 311.386C90.4391 311.386 90.6963 311.308 90.9209 311.151C91.1455 310.995 91.3213 310.793 91.4482 310.546V306.898H92.5371V312.172H91.5312L91.4971 311.498H91.4678C91.2757 311.745 91.0365 311.936 90.75 312.069C90.4668 312.203 90.1543 312.27 89.8125 312.27C89.2591 312.27 88.8164 312.112 88.4844 311.796C88.1523 311.477 87.9863 310.946 87.9863 310.204Z" fill="#F7FCFF"/>
<path d="M81.8418 305.951V305.062H87.6279V305.951H85.2939V312.172H84.1758V305.951H81.8418Z" fill="#F7FCFF"/>
<path d="M160.311 309.613V309.457C160.311 308.686 160.519 308.051 160.936 307.553C161.355 307.051 161.914 306.801 162.61 306.801C162.985 306.801 163.304 306.864 163.567 306.991C163.834 307.118 164.046 307.287 164.202 307.499V304.677H165.291V312.172H164.285L164.246 311.503H164.222C164.088 311.718 163.88 311.9 163.597 312.05C163.313 312.196 162.985 312.27 162.61 312.27C161.91 312.27 161.352 312.019 160.936 311.518C160.519 311.016 160.311 310.382 160.311 309.613ZM161.429 309.623C161.429 310.128 161.544 310.551 161.775 310.893C162.007 311.234 162.368 311.405 162.859 311.405C163.188 311.405 163.468 311.319 163.699 311.146C163.93 310.971 164.098 310.769 164.202 310.541V308.529C164.098 308.301 163.93 308.101 163.699 307.929C163.471 307.753 163.191 307.665 162.859 307.665C162.368 307.665 162.007 307.836 161.775 308.178C161.544 308.52 161.429 308.943 161.429 309.447V309.623Z" fill="#F7FCFF"/>
<path d="M154.553 309.613V309.457C154.553 308.66 154.784 308.01 155.246 307.509C155.708 307.004 156.315 306.752 157.067 306.752C157.826 306.752 158.41 306.988 158.82 307.46C159.234 307.929 159.44 308.565 159.44 309.369V309.799H155.256V308.993H158.347V308.949C158.347 308.578 158.246 308.261 158.044 307.997C157.842 307.73 157.518 307.597 157.072 307.597C156.607 307.597 156.252 307.774 156.008 308.129C155.767 308.484 155.646 308.923 155.646 309.447V309.618C155.646 310.142 155.775 310.582 156.032 310.937C156.289 311.291 156.683 311.469 157.214 311.469C157.546 311.469 157.832 311.397 158.073 311.254C158.314 311.111 158.509 310.943 158.659 310.751L159.372 311.308C159.203 311.565 158.933 311.798 158.562 312.006C158.19 312.214 157.741 312.318 157.214 312.318C156.358 312.318 155.7 312.068 155.241 311.566C154.782 311.062 154.553 310.411 154.553 309.613Z" fill="#F7FCFF"/>
<path d="M146.869 312.211L145.102 305.062H146.239L147.426 310.233C147.452 310.347 147.471 310.445 147.484 310.526C147.501 310.608 147.515 310.702 147.528 310.81H147.587C147.6 310.702 147.613 310.608 147.626 310.526C147.642 310.445 147.663 310.347 147.689 310.233L148.959 305.062H150.185L151.498 310.233C151.527 310.344 151.549 310.442 151.562 310.526C151.575 310.608 151.589 310.702 151.605 310.81H151.659C151.675 310.699 151.69 310.603 151.703 310.521C151.716 310.44 151.736 310.344 151.762 310.233L152.914 305.062H153.959L152.196 312.211H151.015L149.691 307.055C149.662 306.944 149.638 306.838 149.618 306.737C149.599 306.636 149.581 306.532 149.564 306.425H149.506C149.49 306.532 149.472 306.635 149.452 306.732C149.433 306.83 149.408 306.936 149.379 307.05L148.046 312.206L146.869 312.211Z" fill="#F7FCFF"/>
<path d="M224.275 310.204V306.898H225.364V310.219C225.364 310.639 225.457 310.938 225.643 311.117C225.831 311.296 226.097 311.386 226.438 311.386C226.728 311.386 226.985 311.308 227.21 311.151C227.435 310.995 227.61 310.793 227.737 310.546V306.898H228.826V312.172H227.82L227.786 311.498H227.757C227.565 311.745 227.326 311.936 227.039 312.069C226.756 312.203 226.443 312.27 226.102 312.27C225.548 312.27 225.105 312.112 224.773 311.796C224.441 311.477 224.275 310.946 224.275 310.204Z" fill="#F7FCFF"/>
<path d="M218.297 312.172V304.677H219.381V307.567C219.573 307.33 219.809 307.143 220.089 307.006C220.372 306.869 220.688 306.801 221.036 306.801C221.583 306.801 222.021 306.959 222.35 307.274C222.682 307.587 222.848 308.111 222.848 308.847V312.172H221.754V308.847C221.754 308.43 221.66 308.132 221.471 307.953C221.285 307.774 221.021 307.685 220.68 307.685C220.387 307.685 220.128 307.763 219.903 307.919C219.682 308.075 219.508 308.279 219.381 308.529V312.172H218.297Z" fill="#F7FCFF"/>
<path d="M211.576 305.951V305.062H217.362V305.951H215.028V312.172H213.91V305.951H211.576Z" fill="#F7FCFF"/>
<path d="M289.763 312.172V306.898H290.852V312.172H289.763ZM289.66 305.404C289.66 305.235 289.715 305.092 289.826 304.975C289.937 304.857 290.096 304.799 290.305 304.799C290.513 304.799 290.673 304.857 290.783 304.975C290.897 305.092 290.954 305.237 290.954 305.409C290.954 305.582 290.897 305.727 290.783 305.844C290.673 305.961 290.513 306.02 290.305 306.02C290.096 306.02 289.937 305.961 289.826 305.844C289.715 305.727 289.66 305.58 289.66 305.404Z" fill="#F7FCFF"/>
<path d="M286 312.172V306.898H287.001L287.04 307.553H287.069C287.2 307.338 287.372 307.151 287.587 306.991C287.805 306.832 288.064 306.752 288.363 306.752C288.435 306.752 288.51 306.76 288.588 306.776C288.669 306.793 288.725 306.807 288.754 306.82V307.807C288.689 307.794 288.62 307.784 288.549 307.777C288.477 307.771 288.397 307.768 288.31 307.768C288.013 307.768 287.761 307.844 287.553 307.997C287.344 308.15 287.19 308.339 287.089 308.563V312.172H286Z" fill="#F7FCFF"/>
<path d="M280.344 312.172V305.062H285.031V305.951H281.467V308.251H284.553V309.14H281.467V312.172H280.344Z" fill="#F7FCFF"/>
<path d="M355.092 307.714V306.898H358.236V307.714H355.092ZM356.02 310.805V307.372V307.23V305.771H357.108V310.8C357.108 311.028 357.154 311.19 357.245 311.288C357.34 311.382 357.484 311.43 357.68 311.43C357.771 311.43 357.86 311.42 357.948 311.4C358.036 311.381 358.126 311.356 358.217 311.327V312.172C358.129 312.211 358.015 312.245 357.875 312.274C357.738 312.304 357.587 312.318 357.421 312.318C356.998 312.318 356.658 312.196 356.4 311.952C356.146 311.708 356.02 311.326 356.02 310.805Z" fill="#F7FCFF"/>
<path d="M349.611 310.619C349.611 310.076 349.836 309.654 350.285 309.354C350.734 309.055 351.304 308.905 351.994 308.905H353.186V308.52C353.186 308.24 353.104 308.012 352.941 307.836C352.779 307.657 352.5 307.567 352.106 307.567C351.709 307.567 351.426 307.646 351.257 307.802C351.088 307.958 351.003 308.139 351.003 308.344V308.378H349.914V308.344C349.914 307.914 350.114 307.541 350.515 307.226C350.918 306.91 351.459 306.752 352.136 306.752C352.813 306.752 353.339 306.9 353.713 307.196C354.087 307.489 354.274 307.93 354.274 308.52V311C354.274 311.212 354.291 311.412 354.323 311.601C354.359 311.789 354.406 311.954 354.465 312.094V312.172H353.41C353.365 312.09 353.322 311.983 353.283 311.85C353.247 311.716 353.223 311.586 353.21 311.459C353.086 311.671 352.88 311.859 352.59 312.025C352.303 312.188 351.936 312.27 351.486 312.27C350.965 312.27 350.523 312.13 350.158 311.85C349.794 311.566 349.611 311.156 349.611 310.619ZM350.7 310.565C350.7 310.842 350.785 311.06 350.954 311.22C351.127 311.376 351.392 311.454 351.75 311.454C352.118 311.454 352.448 311.335 352.741 311.098C353.037 310.86 353.186 310.606 353.186 310.336V309.643H352.106C351.644 309.643 351.294 309.726 351.057 309.892C350.819 310.058 350.7 310.282 350.7 310.565Z" fill="#F7FCFF"/>
<path d="M343.213 310.189V310.116H344.341V310.189C344.341 310.593 344.484 310.896 344.771 311.098C345.06 311.299 345.462 311.4 345.977 311.4C346.494 311.4 346.89 311.299 347.163 311.098C347.44 310.893 347.578 310.626 347.578 310.297C347.578 309.991 347.451 309.748 347.197 309.569C346.947 309.39 346.421 309.2 345.62 308.998C344.806 308.79 344.225 308.531 343.877 308.222C343.529 307.912 343.354 307.473 343.354 306.903C343.354 306.33 343.582 305.857 344.038 305.482C344.494 305.105 345.124 304.916 345.928 304.916C346.732 304.916 347.37 305.118 347.842 305.521C348.317 305.922 348.555 306.42 348.555 307.016V307.084H347.432V307.016C347.432 306.661 347.306 306.376 347.056 306.161C346.805 305.943 346.429 305.834 345.928 305.834C345.433 305.834 345.067 305.925 344.829 306.107C344.595 306.286 344.478 306.521 344.478 306.811C344.478 307.113 344.595 307.348 344.829 307.514C345.067 307.68 345.555 307.855 346.294 308.041C347.108 308.249 347.712 308.521 348.105 308.856C348.499 309.188 348.696 309.657 348.696 310.263C348.696 310.871 348.451 311.366 347.959 311.747C347.471 312.128 346.81 312.318 345.977 312.318C345.146 312.318 344.478 312.13 343.97 311.752C343.465 311.371 343.213 310.85 343.213 310.189Z" fill="#F7FCFF"/>
<path d="M419.658 312.172V306.898H420.659L420.698 307.567H420.728C420.916 307.323 421.152 307.134 421.436 307.001C421.719 306.868 422.033 306.801 422.378 306.801C422.935 306.801 423.379 306.957 423.711 307.27C424.043 307.582 424.209 308.109 424.209 308.852V312.172H423.12V308.837C423.12 308.424 423.026 308.129 422.837 307.953C422.651 307.774 422.388 307.685 422.046 307.685C421.753 307.685 421.494 307.763 421.27 307.919C421.048 308.072 420.872 308.274 420.742 308.524V312.172H419.658Z" fill="#009BFF"/>
<path d="M413.582 310.204V306.898H414.671V310.219C414.671 310.639 414.764 310.938 414.949 311.117C415.138 311.296 415.403 311.386 415.745 311.386C416.035 311.386 416.292 311.308 416.517 311.151C416.741 310.995 416.917 310.793 417.044 310.546V306.898H418.133V312.172H417.127L417.093 311.498H417.063C416.871 311.745 416.632 311.936 416.346 312.069C416.062 312.203 415.75 312.27 415.408 312.27C414.855 312.27 414.412 312.112 414.08 311.796C413.748 311.477 413.582 310.946 413.582 310.204Z" fill="#009BFF"/>
<path d="M406.949 310.189V310.116H408.077V310.189C408.077 310.593 408.22 310.896 408.507 311.098C408.797 311.299 409.199 311.4 409.713 311.4C410.23 311.4 410.626 311.299 410.899 311.098C411.176 310.893 411.314 310.626 411.314 310.297C411.314 309.991 411.188 309.748 410.934 309.569C410.683 309.39 410.157 309.2 409.356 308.998C408.543 308.79 407.962 308.531 407.613 308.222C407.265 307.912 407.091 307.473 407.091 306.903C407.091 306.33 407.319 305.857 407.774 305.482C408.23 305.105 408.86 304.916 409.664 304.916C410.468 304.916 411.106 305.118 411.578 305.521C412.053 305.922 412.291 306.42 412.291 307.016V307.084H411.168V307.016C411.168 306.661 411.043 306.376 410.792 306.161C410.541 305.943 410.165 305.834 409.664 305.834C409.169 305.834 408.803 305.925 408.565 306.107C408.331 306.286 408.214 306.521 408.214 306.811C408.214 307.113 408.331 307.348 408.565 307.514C408.803 307.68 409.291 307.855 410.03 308.041C410.844 308.249 411.448 308.521 411.842 308.856C412.236 309.188 412.433 309.657 412.433 310.263C412.433 310.871 412.187 311.366 411.695 311.747C411.207 312.128 410.546 312.318 409.713 312.318C408.883 312.318 408.214 312.13 407.706 311.752C407.201 311.371 406.949 310.85 406.949 310.189Z" fill="#009BFF"/>
<path d="M0 250.768C0 248.558 1.79086 246.768 4 246.768H46.6066C48.8157 246.768 50.6066 248.558 50.6066 250.768V289.07H0V250.768Z" fill="url(#paint0_linear_665_8287)" fill-opacity="0.5"/>
<path d="M65.0664 201.414C65.0664 199.205 66.8573 197.414 69.0664 197.414H111.673C113.882 197.414 115.673 199.205 115.673 201.414V289.07H65.0664V201.414Z" fill="url(#paint1_linear_665_8287)" fill-opacity="0.5"/>
<path d="M130.131 159.11C130.131 156.901 131.922 155.11 134.131 155.11H176.737C178.947 155.11 180.737 156.901 180.737 159.11V289.07H130.131V159.11Z" fill="url(#paint2_linear_665_8287)" fill-opacity="0.76"/>
<path d="M195.197 102.706C195.197 100.497 196.988 98.7061 199.197 98.7061H241.804C244.013 98.7061 245.804 100.497 245.804 102.706V289.069H195.197V102.706Z" fill="url(#paint3_linear_665_8287)" fill-opacity="0.76"/>
<path d="M390.395 102.706C390.395 100.497 392.185 98.7061 394.395 98.7061H437.001C439.21 98.7061 441.001 100.497 441.001 102.706V289.069H390.395V102.706Z" fill="url(#paint4_linear_665_8287)" fill-opacity="0.76"/>
<path d="M260.262 3.99999C260.262 1.79085 262.053 0 264.262 0H306.868C309.077 0 310.868 1.79086 310.868 4V289.07H260.262V3.99999Z" fill="url(#paint5_linear_665_8287)" fill-opacity="0.5"/>
<path d="M325.328 78.0312C325.328 75.8221 327.119 74.0312 329.328 74.0312H371.935C374.144 74.0312 375.935 75.8221 375.935 78.0312V289.071H325.328V78.0312Z" fill="url(#paint6_linear_665_8287)" fill-opacity="0.5"/>
<defs>
<linearGradient id="paint0_linear_665_8287" x1="25.3033" y1="246.768" x2="25.3033" y2="289.07" gradientUnits="userSpaceOnUse">
<stop stop-color="#FF0000"/>
<stop offset="1" stop-color="#FF0000" stop-opacity="0"/>
</linearGradient>
<linearGradient id="paint1_linear_665_8287" x1="90.3697" y1="197.414" x2="90.3697" y2="289.07" gradientUnits="userSpaceOnUse">
<stop stop-color="#FF0000"/>
<stop offset="1" stop-color="#FF0000" stop-opacity="0"/>
</linearGradient>
<linearGradient id="paint2_linear_665_8287" x1="155.434" y1="155.11" x2="155.434" y2="289.07" gradientUnits="userSpaceOnUse">
<stop stop-color="#FFE800"/>
<stop offset="1" stop-color="#FFE800" stop-opacity="0"/>
</linearGradient>
<linearGradient id="paint3_linear_665_8287" x1="220.501" y1="98.7061" x2="220.501" y2="289.069" gradientUnits="userSpaceOnUse">
<stop stop-color="#FFE800"/>
<stop offset="1" stop-color="#FFE800" stop-opacity="0"/>
</linearGradient>
<linearGradient id="paint4_linear_665_8287" x1="415.698" y1="98.7061" x2="415.698" y2="289.069" gradientUnits="userSpaceOnUse">
<stop stop-color="#FFE800"/>
<stop offset="1" stop-color="#FFE800" stop-opacity="0"/>
</linearGradient>
<linearGradient id="paint5_linear_665_8287" x1="285.565" y1="0" x2="285.565" y2="289.07" gradientUnits="userSpaceOnUse">
<stop stop-color="#00C95A"/>
<stop offset="1" stop-color="#00C95A" stop-opacity="0"/>
</linearGradient>
<linearGradient id="paint6_linear_665_8287" x1="350.631" y1="74.0312" x2="350.631" y2="289.071" gradientUnits="userSpaceOnUse">
<stop stop-color="#00C95A"/>
<stop offset="1" stop-color="#00C95A" stop-opacity="0"/>
</linearGradient>
</defs>
</svg>
