<svg width="441" height="315" viewBox="0 0 441 315" fill="none" xmlns="http://www.w3.org/2000/svg">
<path d="M26.7793 306.898H27.8633V309.076H30.2021V306.898H31.2861V312.172H30.2021V309.911H27.8633V312.172H26.7793V306.898Z" fill="#252525"/>
<path d="M19.4238 312.172V305.062H25.1416V312.172H24.0137V305.956H20.5469V312.172H19.4238Z" fill="#252525"/>
<path d="M91.4609 307.733V306.898H95.8848V307.733H94.2148V312.172H93.126V307.733H91.4609Z" fill="#252525"/>
<path d="M85.4961 312.172V305.062H88.0205C88.792 305.062 89.3991 305.214 89.8418 305.517C90.2845 305.819 90.5059 306.296 90.5059 306.947C90.5059 307.338 90.4066 307.657 90.208 307.904C90.0094 308.148 89.7637 308.321 89.4707 308.422V308.441C89.8288 308.542 90.1217 308.734 90.3496 309.018C90.5807 309.298 90.6963 309.665 90.6963 310.121C90.6963 310.772 90.4652 311.277 90.0029 311.635C89.5407 311.993 88.9303 312.172 88.1719 312.172H85.4961ZM86.6045 311.303H88.167C88.6553 311.303 89.0133 311.195 89.2412 310.98C89.4691 310.762 89.583 310.468 89.583 310.097C89.583 309.726 89.4691 309.433 89.2412 309.218C89.0133 309.003 88.6553 308.896 88.167 308.896H86.6045V311.303ZM86.6045 308.046H88.0205C88.5055 308.046 88.8555 307.953 89.0703 307.768C89.2852 307.579 89.3926 307.315 89.3926 306.977C89.3926 306.641 89.2852 306.384 89.0703 306.205C88.8555 306.023 88.5039 305.932 88.0156 305.932H86.6045V308.046Z" fill="#252525"/>
<path d="M156.648 314.203V306.898H157.649L157.688 307.562H157.713C157.846 307.351 158.055 307.172 158.338 307.025C158.624 306.876 158.956 306.801 159.334 306.801C160.024 306.801 160.577 307.05 160.994 307.548C161.414 308.046 161.624 308.682 161.624 309.457V309.613C161.624 310.385 161.416 311.021 160.999 311.522C160.582 312.021 160.029 312.27 159.339 312.27C158.965 312.27 158.642 312.208 158.372 312.084C158.102 311.957 157.889 311.786 157.732 311.571V314.203H156.648ZM157.732 310.541C157.837 310.766 158.004 310.966 158.235 311.142C158.47 311.317 158.751 311.405 159.08 311.405C159.572 311.405 159.931 311.236 160.159 310.897C160.39 310.556 160.506 310.129 160.506 309.618V309.447C160.506 308.939 160.39 308.516 160.159 308.178C159.931 307.836 159.572 307.665 159.08 307.665C158.748 307.665 158.466 307.753 158.235 307.929C158.004 308.104 157.837 308.305 157.732 308.529V310.541Z" fill="#252525"/>
<path d="M149.395 308.827V308.407C149.395 307.307 149.692 306.451 150.288 305.839C150.884 305.224 151.632 304.916 152.534 304.916C153.436 304.916 154.132 305.15 154.624 305.619C155.116 306.088 155.382 306.661 155.425 307.338L155.43 307.396H154.297L154.292 307.338C154.269 306.938 154.116 306.588 153.833 306.288C153.553 305.989 153.12 305.839 152.534 305.839C151.951 305.839 151.473 306.059 151.099 306.498C150.724 306.938 150.537 307.569 150.537 308.393V308.842C150.537 309.646 150.723 310.272 151.094 310.722C151.468 311.171 151.948 311.396 152.534 311.396C153.11 311.396 153.538 311.244 153.818 310.941C154.098 310.639 154.256 310.29 154.292 309.896L154.297 309.838H155.43L155.425 309.896C155.366 310.57 155.094 311.143 154.609 311.615C154.128 312.084 153.436 312.318 152.534 312.318C151.632 312.318 150.884 312.012 150.288 311.4C149.692 310.785 149.395 309.927 149.395 308.827Z" fill="#252525"/>
<path d="M221.922 307.733V306.898H226.346V307.733H224.676V312.172H223.587V307.733H221.922Z" fill="#252525"/>
<path d="M216.309 307.108C216.309 307.691 216.447 308.087 216.724 308.295C217 308.5 217.459 308.603 218.101 308.603C218.524 308.603 218.906 308.581 219.248 308.539C219.593 308.493 219.932 308.427 220.264 308.339V309.232C219.889 309.317 219.531 309.384 219.189 309.433C218.851 309.478 218.455 309.501 218.003 309.501C216.932 309.501 216.195 309.304 215.791 308.91C215.387 308.513 215.186 307.917 215.186 307.123V305.062H216.309V307.108ZM220.82 305.062V312.172H219.697V305.062H220.82Z" fill="#252525"/>
<path d="M287.086 307.733V306.898H291.51V307.733H289.84V312.172H288.751V307.733H287.086Z" fill="#252525"/>
<path d="M280.262 312.172V305.062H285.979V312.172H284.852V305.956H281.385V312.172H280.262Z" fill="#252525"/>
<path d="M352.678 309.594V309.75C352.678 310.235 352.805 310.64 353.059 310.966C353.312 311.291 353.69 311.454 354.191 311.454C354.693 311.454 355.07 311.291 355.324 310.966C355.578 310.64 355.705 310.235 355.705 309.75V309.594C355.705 309.112 355.578 308.71 355.324 308.388C355.07 308.062 354.693 307.899 354.191 307.899C353.69 307.899 353.312 308.062 353.059 308.388C352.805 308.71 352.678 309.112 352.678 309.594ZM354.411 307.035C355.121 307.035 355.699 307.274 356.145 307.753C356.594 308.228 356.818 308.842 356.818 309.594V309.75C356.818 310.502 356.579 311.119 356.101 311.601C355.625 312.079 354.989 312.318 354.191 312.318C353.378 312.318 352.736 312.074 352.268 311.586C351.799 311.098 351.564 310.346 351.564 309.33V309.047C351.564 307.885 351.771 306.978 352.185 306.327C352.601 305.676 353.337 305.269 354.392 305.106C354.981 305.015 355.323 304.94 355.417 304.882C355.511 304.823 355.567 304.753 355.583 304.672H356.55C356.517 305.069 356.376 305.37 356.125 305.575C355.874 305.78 355.371 305.932 354.616 306.029C353.786 306.14 353.228 306.378 352.941 306.742C352.655 307.104 352.487 307.577 352.438 308.163H352.492C352.658 307.802 352.904 307.523 353.229 307.328C353.558 307.133 353.952 307.035 354.411 307.035Z" fill="#252525"/>
<path d="M344.6 308.827V308.407C344.6 307.307 344.897 306.451 345.493 305.839C346.089 305.224 346.838 304.916 347.739 304.916C348.641 304.916 349.338 305.15 349.829 305.619C350.321 306.088 350.588 306.661 350.63 307.338L350.635 307.396H349.502L349.497 307.338C349.474 306.938 349.321 306.588 349.038 306.288C348.758 305.989 348.325 305.839 347.739 305.839C347.157 305.839 346.678 306.059 346.304 306.498C345.929 306.938 345.742 307.569 345.742 308.393V308.842C345.742 309.646 345.928 310.272 346.299 310.722C346.673 311.171 347.153 311.396 347.739 311.396C348.315 311.396 348.743 311.244 349.023 310.941C349.303 310.639 349.461 310.29 349.497 309.896L349.502 309.838H350.635L350.63 309.896C350.571 310.57 350.299 311.143 349.814 311.615C349.333 312.084 348.641 312.318 347.739 312.318C346.838 312.318 346.089 312.012 345.493 311.4C344.897 310.785 344.6 309.927 344.6 308.827Z" fill="#252525"/>
<path d="M416.65 309.613V309.457C416.65 308.656 416.88 308.005 417.339 307.504C417.801 307.003 418.433 306.752 419.233 306.752C419.979 306.752 420.545 306.942 420.933 307.323C421.32 307.704 421.515 308.131 421.519 308.603V308.637H420.454V308.607C420.454 308.34 420.356 308.108 420.161 307.909C419.969 307.707 419.658 307.606 419.229 307.606C418.73 307.606 418.363 307.784 418.125 308.139C417.887 308.49 417.769 308.926 417.769 309.447V309.623C417.769 310.144 417.886 310.582 418.12 310.937C418.358 311.288 418.727 311.464 419.229 311.464C419.658 311.464 419.969 311.363 420.161 311.161C420.356 310.959 420.454 310.727 420.454 310.463V310.434H421.519V310.463C421.519 310.938 421.323 311.366 420.933 311.747C420.545 312.128 419.979 312.318 419.233 312.318C418.433 312.318 417.801 312.068 417.339 311.566C416.88 311.065 416.65 310.414 416.65 309.613Z" fill="#00B800"/>
<path d="M410.461 312.172V305.062H412.985C413.757 305.062 414.364 305.214 414.807 305.517C415.249 305.819 415.471 306.296 415.471 306.947C415.471 307.338 415.371 307.657 415.173 307.904C414.974 308.148 414.729 308.321 414.436 308.422V308.441C414.794 308.542 415.087 308.734 415.314 309.018C415.546 309.298 415.661 309.665 415.661 310.121C415.661 310.772 415.43 311.277 414.968 311.635C414.506 311.993 413.895 312.172 413.137 312.172H410.461ZM411.569 311.303H413.132C413.62 311.303 413.978 311.195 414.206 310.98C414.434 310.762 414.548 310.468 414.548 310.097C414.548 309.726 414.434 309.433 414.206 309.218C413.978 309.003 413.62 308.896 413.132 308.896H411.569V311.303ZM411.569 308.046H412.985C413.47 308.046 413.82 307.953 414.035 307.768C414.25 307.579 414.357 307.315 414.357 306.977C414.357 306.641 414.25 306.384 414.035 306.205C413.82 306.023 413.469 305.932 412.98 305.932H411.569V308.046Z" fill="#00B800"/>
<path d="M0 250.768C0 248.558 1.79086 246.768 4 246.768H46.6066C48.8157 246.768 50.6066 248.558 50.6066 250.768V289.07H0V250.768Z" fill="#F88181"/>
<path d="M65.0664 201.414C65.0664 199.205 66.8573 197.414 69.0664 197.414H111.673C113.882 197.414 115.673 199.205 115.673 201.414V289.07H65.0664V201.414Z" fill="#F88181"/>
<path d="M130.131 159.11C130.131 156.901 131.922 155.11 134.131 155.11H176.737C178.947 155.11 180.737 156.901 180.737 159.11V289.07H130.131V159.11Z" fill="#F9E34E"/>
<path d="M195.197 102.706C195.197 100.497 196.988 98.7061 199.197 98.7061H241.804C244.013 98.7061 245.804 100.497 245.804 102.706V289.069H195.197V102.706Z" fill="#F9E34E"/>
<path d="M390.395 102.706C390.395 100.497 392.185 98.7061 394.395 98.7061H437.001C439.21 98.7061 441.001 100.497 441.001 102.706V289.069H390.395V102.706Z" fill="#F9E34E"/>
<path d="M260.262 3.99999C260.262 1.79085 262.053 0 264.262 0H306.868C309.077 0 310.868 1.79086 310.868 4V289.07H260.262V3.99999Z" fill="#83ED83"/>
<path d="M325.328 78.0312C325.328 75.8221 327.119 74.0312 329.328 74.0312H371.935C374.144 74.0312 375.935 75.8221 375.935 78.0312V289.071H325.328V78.0312Z" fill="#83ED83"/>
</svg>
