<svg width="108" height="108" viewBox="0 0 108 108" fill="none" xmlns="http://www.w3.org/2000/svg">
<g filter="url(#filter0_d_665_11809)">
<path d="M91.9923 0H16.0077C9.37603 0 4 5.37603 4 12.0077V87.9923C4 94.624 9.37603 100 16.0077 100H91.9923C98.624 100 104 94.624 104 87.9923V12.0077C104 5.37603 98.624 0 91.9923 0Z" fill="white"/>
</g>
<g filter="url(#filter1_d_665_11809)">
<path d="M50.7364 74.6427C50.732 74.7435 50.7383 74.8568 50.8195 74.9262C50.8819 74.9792 50.9727 74.992 51.0578 75.0027C52.7669 75.2124 54.4762 75.4221 56.1853 75.6318C56.6263 73.7892 56.8275 71.9002 56.7834 70.0155C56.7731 69.5673 56.7236 69.0683 56.3551 68.7684C56.1793 68.6252 55.952 68.5475 55.7305 68.4728C54.8776 68.1857 54.0248 67.8985 53.1721 67.6113C52.3688 67.3407 51.7558 66.4788 51.6595 67.303C51.435 69.2229 50.7668 73.9505 50.7364 74.6427Z" fill="#67B654"/>
<path d="M50.9656 74.6513C50.9611 74.754 50.9767 74.7777 50.9798 74.7815C50.9956 74.7923 51.0681 74.8013 51.0955 74.8047L56.0194 75.4089C56.427 73.6394 56.6122 71.8277 56.57 70.0203C56.56 69.5897 56.5101 69.158 56.2149 68.9178C56.0682 68.7985 55.8611 68.7285 55.661 68.6612L53.1027 67.7995C52.798 67.6968 52.5223 67.5195 52.3009 67.3769C52.1751 67.296 52.0082 67.1884 51.9241 67.1618C51.9131 67.187 51.898 67.2356 51.8876 67.3246C51.7954 68.1134 51.6259 69.3951 51.4618 70.6346C51.2265 72.4125 50.9833 74.2508 50.9656 74.6513ZM56.3665 75.8557L51.0359 75.2015C50.9447 75.1905 50.7922 75.1717 50.6757 75.0727C50.5101 74.9315 50.5191 74.7238 50.523 74.6355V74.6353C50.5413 74.219 50.7748 72.4548 51.022 70.5869C51.1859 69.3491 51.3553 68.0685 51.4472 67.2823C51.4672 67.1113 51.5189 66.8735 51.7356 66.7854C51.9866 66.6828 52.2388 66.8453 52.5577 67.0506C52.7685 67.1862 53.0073 67.3399 53.2573 67.4241L55.8155 68.2857C56.0435 68.3626 56.3017 68.4495 56.5112 68.62C56.9315 68.9623 57.0007 69.4911 57.0128 70.0117C57.0572 71.9119 56.8544 73.8172 56.4098 75.6748L56.3665 75.8557Z" fill="black"/>
<path d="M50.9957 74.4113C48.306 73.014 44.5375 71.6596 41.2641 70.7155C40.1629 75.4873 40.5558 80.9794 41.9145 85.5273C43.4309 84.3896 48.3901 79.2626 50.4611 77.8289C50.7232 79.5144 55.3279 80.6514 56.0401 77.7271C57.3225 78.6431 64.3846 80.32 66.0679 80.8983C66.1372 79.5401 66.1864 70.8957 66.4707 67.1077C57.6044 71.4522 56.0291 74.8848 56.0291 74.8848C56.0291 74.8848 53.1291 71.9834 50.9957 74.4113Z" fill="#D80106"/>
<path d="M51.7458 74.749C52.1837 73.8394 53.362 73.5125 54.1888 73.958C56.0136 74.9409 55.4509 77.7784 53.5614 78.4206C51.0379 79.2784 51.1233 76.0424 51.7458 74.749ZM41.9145 85.5273C43.4309 84.3896 48.3901 79.2626 50.4611 77.8289C50.7232 79.5144 55.3279 80.6514 56.0401 77.7271C57.3225 78.6431 64.3846 80.32 66.0679 80.8983C66.0719 80.82 66.0756 80.7152 66.0796 80.5911C65.673 80.4366 65.2682 80.2776 64.86 80.1242C64.1631 79.8625 63.4387 79.6452 62.7807 79.3059C61.529 78.6607 60.8283 77.5562 60.487 76.3192C59.9201 74.2635 60.1998 71.7513 61.4819 69.9047C56.972 72.8375 56.0291 74.8848 56.0291 74.8848C56.0291 74.8848 53.1291 71.9834 50.9957 74.4111C50.5704 74.1902 50.1156 73.9708 49.6426 73.7535C50.4025 77.0359 47.345 79.3882 44.9168 81.3542C44.4768 81.7105 43.9366 82.5133 43.258 82.4725C42.6511 82.4359 42.4275 81.6745 42.3049 81.2466C41.7533 79.3221 41.7166 77.2931 41.8488 75.3207C41.9145 74.3392 41.859 73.2151 42.3082 72.2979C42.555 71.7941 42.979 71.5426 43.4707 71.3924C42.7227 71.15 41.9812 70.9224 41.2641 70.7155C40.1629 75.4873 40.5558 80.9794 41.9145 85.5273Z" fill="#830006"/>
<path d="M55.8969 77.371L56.1743 77.5691C57.0226 78.1753 60.6576 79.1709 63.3116 79.8976C64.3512 80.1823 65.2713 80.4345 65.8542 80.6163C65.8719 80.0679 65.8897 79.0566 65.9107 77.8309C65.9641 74.7368 66.0438 70.1321 66.2212 67.4572C57.8328 71.6362 56.2459 74.9279 56.2307 74.9612L56.0967 75.253L55.8619 75.0187C55.8478 75.0046 54.4214 73.5993 52.9166 73.6434C52.2576 73.6626 51.6689 73.9629 51.166 74.5353L51.0475 74.6701L50.8824 74.5842C48.5365 73.3657 45.0173 72.0227 41.4286 70.9741C40.4685 75.3321 40.6884 80.4709 42.0341 85.1632C42.7335 84.585 43.8933 83.4806 45.1126 82.3199C46.9952 80.5276 49.1288 78.4961 50.3234 77.6695L50.6245 77.461L50.6773 77.8006C50.7965 78.5668 52.0507 79.2789 53.3613 79.3247C53.9755 79.3464 55.4443 79.229 55.8207 77.6833L55.8969 77.371ZM66.2719 81.183L65.9862 81.0848C65.4667 80.9066 64.4085 80.6165 63.1832 80.2812C60.5746 79.5665 57.3792 78.6916 56.1705 78.0474C55.7768 79.1519 54.7414 79.7738 53.3443 79.7249C52.1188 79.6821 50.7268 79.065 50.3334 78.175C49.1293 79.0774 47.1736 80.9394 45.4337 82.5959C43.9749 83.9848 42.715 85.1842 42.0529 85.6808L41.7877 85.8799L41.6977 85.579C40.23 80.6664 39.992 75.234 41.0442 70.6741L41.0944 70.4568L41.3283 70.5242C44.9446 71.567 48.5193 72.9174 50.9411 74.1537C51.5035 73.5705 52.163 73.2644 52.9041 73.2429C54.2526 73.2043 55.4778 74.1237 55.9672 74.5457C56.5161 73.6554 58.8122 70.6306 66.362 66.931L66.7159 66.7578L66.6885 67.1207C66.494 69.7128 66.4094 74.6018 66.3536 77.8371C66.3282 79.312 66.308 80.4769 66.2861 80.907L66.2719 81.183Z" fill="black"/>
<path d="M80.3148 60.1899C79.4479 59.7036 78.9288 59.1297 78.7754 58.4823C78.5406 57.4878 79.221 56.575 79.5875 56.0843C79.6594 55.9877 79.7206 55.9084 79.7589 55.8449C82.6421 51.1606 80.4975 47.8522 79.5197 47.065C76.3499 44.507 73.7429 46.485 71.6456 48.074C70.9323 48.617 70.3131 49.0847 69.7731 49.2736C68.4705 49.7269 67.489 49.416 66.5387 49.1183C65.5778 48.8151 64.6715 48.4421 63.5669 49.0502C63.4841 49.0955 62.7884 49.4534 62.3344 49.8142C62.2459 49.8857 62.111 49.8795 62.0295 49.7998C61.9478 49.7182 61.9529 49.5905 62.0459 49.5177C62.4494 49.1965 62.8232 48.9591 63.1773 48.7848C63.3625 47.9131 63.0507 47.28 62.2897 47.0166C61.4397 46.7233 60.3843 47.0224 60.0777 47.6437C59.7936 48.218 60.0137 48.8281 60.2498 49.3761C60.3025 49.4981 60.2492 49.6337 60.1245 49.6996C60.0253 49.7511 59.9026 49.7481 59.8082 49.6862C59.313 49.3597 57.6578 48.6478 56.4344 48.9072C55.6432 49.0769 55.1651 49.6243 55.0129 50.5377C54.8061 51.7738 55.8982 52.2607 56.5679 52.4428C57.7268 52.7554 59.0114 52.5619 59.389 52.1848C59.4479 52.1287 59.5349 52.1053 59.6113 52.1383L59.6793 52.1651C59.7941 52.2116 59.8224 52.3438 59.7407 52.4303C59.5469 52.6337 59.2311 52.7819 58.8551 52.8744C58.1391 53.0505 57.2012 53.0301 56.4396 52.8249C55.1812 52.4868 54.506 51.7375 54.5487 50.7494C53.6419 51.0388 52.5725 51.2147 51.3444 51.1452C50.6 51.1041 46.8586 50.6751 46.5199 46.2893C46.1942 42.0539 47.5472 39.5312 50.5453 38.7937C53.0862 38.1686 54.5112 38.7711 55.1336 39.1845C55.4408 39.3892 55.681 39.6312 55.8422 39.8924C56.0432 39.4695 56.4026 38.97 56.9821 38.5846C57.6663 38.1277 58.8954 37.6885 60.8631 38.1802C60.9818 38.209 61.096 38.2453 61.2088 38.284C60.6462 37.0088 60.0095 35.7996 59.2488 34.6893C58.5043 33.6021 56.8074 31.8666 55.1812 32.2668C54.7452 32.374 54.3553 31.7871 53.4368 30.3275C52.856 29.4033 52.1961 28.3533 51.4859 27.5483C47.3735 22.8785 43.8866 20.6701 41.57 21.24C41.3842 21.2856 41.204 21.3507 41.0334 21.4321C38.4479 22.6719 37.9496 28.0753 39.9011 33.7335C41.469 38.2842 42.3568 40.4508 42.7829 41.4938C43.231 42.5875 43.2578 42.6536 43.0121 42.9963C42.973 43.0496 42.9261 43.1151 42.8728 43.205C42.2439 44.2814 42.4268 45.3552 42.7409 46.4757C42.8954 46.3712 43.2453 47.063 42.9666 46.6642C42.9646 46.6612 42.9647 46.6586 42.9631 46.6558C42.4835 46.4391 42.0266 46.263 41.6098 46.0944C41.3657 45.9946 41.1115 45.9335 41.0432 45.9145C38.7907 45.2505 37.4786 45.6162 36.8326 46.2244C36.3089 46.7173 36.2461 47.4063 36.6682 48.0207C37.4213 49.1179 39.4732 49.9538 43.342 48.9293C43.3458 48.9264 43.5701 49.9127 44.0453 50.6384C47.4641 60.9176 51.3237 67.4265 58.3689 75.1259C62.9452 80.1258 65.8608 82.2961 67.2726 81.7477C69.3497 80.9461 68.4716 74.0566 67.4549 66.0804C67.0226 62.6807 66.2829 57.4119 65.3125 52.4362C64.4047 52.4478 63.4743 52.8113 62.4556 53.9877C62.3807 54.0748 62.2443 54.0937 62.1466 54.0286C62.0483 53.9613 62.0284 53.8335 62.1026 53.7445C64.0605 51.4861 65.8471 51.9705 67.4272 52.4017C68.2067 52.6126 68.942 52.8137 69.6529 52.6825C70.655 52.4962 72.0449 51.295 72.878 50.5773C73.204 50.2957 73.439 50.0926 73.5912 49.9951C75.4313 48.8179 76.4775 49.3204 76.9368 49.7265C78.3249 50.9459 77.979 54.1385 76.1953 56.5574C75.6138 57.348 75.3996 58.3227 75.6136 59.233C75.8255 60.1356 76.4358 60.899 77.3753 61.436C81.0369 63.5307 81.6728 64.9581 81.5319 66.7114C81.4542 67.7042 80.9441 68.8093 80.2632 68.873C79.8247 68.9103 79.2836 68.5307 78.5632 67.6762C78.4162 67.5008 77.9134 67.3317 77.4687 67.4411C76.9685 67.5704 76.6653 68.0205 76.5953 68.7414C76.5105 69.6195 77.397 70.7821 78.2729 71.4279C79.1421 72.0674 80.1119 72.2169 81.0748 71.8618C82.7657 71.2342 84.1425 69.1955 84.424 66.9032L84.4324 66.847C84.5562 65.8388 84.9378 62.7724 80.3148 60.1899Z" fill="#80E165"/>
<path d="M44.2021 49.1338C43.93 48.3127 42.7879 49.0114 42.0176 48.8499C41.7147 48.7862 41.1433 48.6492 40.9422 48.4C40.6081 47.9862 41.478 47.7829 41.7618 47.6952C42.1707 47.5688 42.6189 47.4751 42.987 47.2643C43.3728 47.0434 43.6242 46.681 43.8066 46.3109C44.281 45.3488 44.3847 44.2233 44.3472 43.1814C44.2531 40.5722 42.7046 38.1213 41.673 35.7411C39.6627 31.1031 38.8637 25.6586 41.783 21.1963C41.711 21.2083 41.6399 21.2227 41.57 21.24C41.3842 21.2856 41.204 21.3507 41.0334 21.4321C38.4479 22.6719 37.9496 28.0753 39.9011 33.7335C41.469 38.2841 42.3568 40.4508 42.7829 41.4938C43.231 42.5875 43.2578 42.6536 43.0121 42.9963C42.973 43.0496 42.9261 43.1151 42.8728 43.205C42.2439 44.2814 42.4268 45.3552 42.7409 46.4757C42.8954 46.3712 43.2453 47.063 42.9666 46.6642C42.9646 46.6612 42.9647 46.6586 42.9631 46.6558C42.4835 46.4391 42.0266 46.263 41.6098 46.0944C41.3657 45.9946 41.1115 45.9335 41.0432 45.9145C38.7907 45.2505 37.4786 45.6162 36.8326 46.2244C36.3089 46.7173 36.2461 47.4063 36.6682 48.0207C37.4213 49.1179 39.4732 49.9538 43.342 48.9292C43.3458 48.9264 43.5701 49.9127 44.0453 50.6384C47.4641 60.9176 51.3237 67.4264 58.3689 75.1259C62.9452 80.1258 65.8608 82.2961 67.2726 81.7477C67.6772 81.5915 67.9685 81.2015 68.1695 80.6204C66.9189 82.5443 51.1793 70.1888 44.2021 49.1338Z" fill="#67B654"/>
<path d="M61.1641 43.959C61.0079 44.7654 60.676 45.5398 60.5918 46.3542C60.7439 46.3338 60.8941 46.3124 61.0403 46.289C61.1459 46.2739 61.5104 46.204 61.5146 46.205C65.1995 45.5038 66.8058 43.8485 67.0494 42.5347C67.1861 41.7988 66.8807 41.1995 66.2524 40.9725C65.4773 40.6927 64.2209 40.914 62.5358 42.467C62.4844 42.513 62.2893 42.6757 62.1168 42.8694C61.8218 43.1981 61.4951 43.551 61.1638 43.9498C61.1634 43.953 61.1645 43.9556 61.1641 43.959Z" fill="#80E165"/>
<path d="M66.2526 40.9728C65.9762 40.873 65.6374 40.839 65.2412 40.9041C66.4116 41.6654 66.112 43.2991 65.4999 44.6523C66.4395 43.9731 66.9248 43.2094 67.0497 42.5349C67.1863 41.799 66.8809 41.1997 66.2526 40.9728Z" fill="#B1E165"/>
<path d="M61.3701 44.029C61.3036 44.3613 61.2089 44.6892 61.1172 45.0065C61.0076 45.3854 60.9028 45.7472 60.8419 46.1153C60.8939 46.1077 60.9455 46.0999 60.9967 46.0917C61.064 46.0821 61.2215 46.0528 61.3349 46.032C61.3951 46.0208 61.4354 46.0136 61.464 46.0092V46.009C65.0652 45.3237 66.595 43.7477 66.826 42.5017C66.9445 41.8633 66.6914 41.3485 66.1652 41.1586C65.6545 40.9742 64.523 40.9169 62.6889 42.6074L62.6539 42.6383C62.5788 42.7034 62.4231 42.8392 62.2841 42.9952L62.0905 43.2099C61.8571 43.4681 61.6164 43.7349 61.3701 44.029ZM60.3398 46.5898L60.3662 46.3355C60.4169 45.8443 60.5551 45.3668 60.6886 44.9051C60.7797 44.5902 60.8738 44.2647 60.9374 43.9428L60.9455 43.8731L60.9816 43.8295C61.2452 43.5124 61.5005 43.2298 61.7475 42.9563L61.9395 42.7432C62.0958 42.5682 62.265 42.4205 62.3465 42.3496L62.3751 42.3246C64.3864 40.4708 65.7158 40.5653 66.3295 40.7865C67.0601 41.0505 67.4178 41.7331 67.263 42.5678C67.0076 43.9444 65.3741 45.6743 61.555 46.4012L61.5034 46.4108L61.5012 46.4102C61.4802 46.414 61.4534 46.419 61.423 46.4246C61.303 46.4468 61.1362 46.4773 61.0696 46.4867C60.9258 46.5099 60.7735 46.5314 60.6193 46.5524L60.3398 46.5898Z" fill="black"/>
<path d="M54.6084 50.298C54.6049 50.3226 54.5987 50.3434 54.5933 50.3701C54.5946 50.3458 54.6028 50.3228 54.6061 50.2982C53.7066 50.6149 52.6268 50.8158 51.3706 50.7432C50.7171 50.7088 47.5712 50.3434 47.0212 46.7736C47.0127 46.6919 46.965 46.2957 46.9602 46.2599C46.9557 46.2078 46.8733 45.3958 46.9171 44.7111C46.9154 44.6468 46.9197 44.5617 46.9236 44.4726C46.9335 44.3786 46.9487 44.1713 46.957 44.0311C47.1969 41.3286 48.414 39.7312 50.6582 39.1769C52.3848 38.7551 53.9192 38.8743 54.8702 39.508C55.2638 39.7704 55.5212 40.0997 55.6039 40.4399L55.6074 40.4495C55.6364 40.5512 55.7348 40.6213 55.851 40.6229C55.9691 40.6223 56.073 40.5466 56.0991 40.4411C56.192 40.0619 56.5241 39.3825 57.2418 38.9039C57.5436 38.706 57.8747 38.5614 58.2417 38.4695C58.9548 38.296 59.7928 38.3247 60.7433 38.5652C61.8664 38.8458 62.7814 39.6653 63.3865 40.8889C63.443 41.0139 63.5058 41.1525 63.5338 41.212C63.5532 41.2583 63.5707 41.307 63.5905 41.3552C63.6693 41.5646 63.7251 41.734 63.7424 41.7807C63.7876 41.9209 63.9443 42.4852 63.9886 42.7203C64.0316 42.9457 64.1109 43.6149 64.1357 43.822C64.1421 43.9201 64.1501 44.0161 64.1538 44.1126C64.1545 44.1851 64.1618 44.4768 64.1585 44.5377C64.1581 44.8383 64.141 45.1326 64.1089 45.4144C64.0119 46.2539 63.7918 46.9876 63.4751 47.4775C63.1914 46.9495 62.6798 46.7222 62.4462 46.6424C61.3734 46.2697 60.0756 46.6615 59.6701 47.4777C59.4201 47.9847 59.4562 48.461 59.5857 48.9049C59.4445 48.8818 59.3045 48.8524 59.1656 48.8129C57.8821 48.4488 57.4732 48.0674 57.572 48.448C57.5634 48.467 57.5655 48.4666 57.5547 48.486C57.1829 48.4394 56.8096 48.4332 56.4625 48.4906C55.7635 48.6022 54.8876 49.0132 54.6084 50.298Z" fill="white"/>
<path d="M51.716 49.8505C48.8925 48.9031 48.7185 45.5083 49.0186 43.2183C49.2545 41.4177 50.008 39.6072 51.8602 38.9674C51.474 39.0067 51.0719 39.0758 50.6582 39.1769C48.414 39.7312 47.1969 41.3286 46.957 44.0311C46.9487 44.1713 46.9335 44.3786 46.9236 44.4726C46.9197 44.5617 46.9153 44.6468 46.9171 44.7111C46.8733 45.3958 46.9557 46.2078 46.9602 46.2599C46.965 46.2957 47.0127 46.6919 47.0212 46.7736C47.5712 50.3434 50.7171 50.7088 51.3706 50.7432C52.6268 50.8158 53.7066 50.6149 54.6061 50.2982C54.6028 50.3228 54.5946 50.3458 54.5933 50.3701C54.5987 50.3434 54.6049 50.3226 54.6084 50.298C54.6255 50.2191 54.645 50.1433 54.6665 50.0708C53.7029 50.2533 52.6992 50.1804 51.716 49.8505Z" fill="#EDEDED"/>
<path d="M59.5006 48.035C58.3984 47.7254 57.371 47.1295 56.5088 46.4408C56.828 47.1978 57.2748 47.9014 57.9954 48.4078C58.2531 48.5092 58.6334 48.6626 59.1666 48.8138C59.3055 48.8533 59.4455 48.8827 59.5868 48.9058C59.5057 48.6279 59.4614 48.3377 59.5006 48.035Z" fill="#EDEDED"/>
<path d="M55.9608 41.9741C56.3859 40.7284 57.3007 39.6292 58.5047 38.9129C58.8442 38.7112 59.2132 38.5281 59.5992 38.3761C59.1073 38.3398 58.6535 38.3703 58.2423 38.4704C57.8753 38.5624 57.544 38.707 57.2424 38.9049C56.5247 39.3834 56.1926 40.0628 56.0997 40.4418C56.0809 40.5177 56.0215 40.5768 55.9462 40.605C55.781 41.0812 55.8346 41.5132 55.9608 41.9741Z" fill="#EDEDED"/>
<path d="M41.5327 21.7685C41.9237 22.0387 42.2423 22.3852 42.6896 22.5799C42.6983 22.5823 42.707 22.5835 42.716 22.5885C42.7272 22.5945 42.7385 22.6005 42.7496 22.6067C42.7536 22.6083 42.7573 22.6103 42.7612 22.6119C42.7671 22.6141 42.77 22.6177 42.7748 22.6204C44.6751 23.6563 46.5388 24.5511 48.0394 26.069C49.3205 27.3645 50.4976 28.7855 51.437 30.3044C52.26 31.6348 52.9033 33.1124 54.7581 33.3983C56.1829 33.6178 57.5908 33.4127 58.6866 34.4478C59.743 35.446 60.1471 36.7736 60.4727 38.0924C60.5998 38.1176 60.7298 38.146 60.8638 38.1795C60.9825 38.2083 61.0968 38.2446 61.2095 38.2834C60.647 37.0081 60.0103 35.7989 59.2495 34.6886C58.505 33.6014 56.8081 31.8659 55.1819 32.2661C54.746 32.3733 54.3561 31.7864 53.4374 30.3268C52.8567 29.4026 52.1968 28.3528 51.4864 27.5476C47.3742 22.8777 43.8873 20.6694 41.5708 21.2393C41.3848 21.2849 41.2048 21.35 41.0342 21.4314C40.9967 21.4494 40.9612 21.471 40.9248 21.4908C41.1378 21.5475 41.3405 21.6357 41.5327 21.7685Z" fill="#B1E165"/>
<path d="M67.255 81.7515C67.2599 81.7498 67.265 81.7489 67.2696 81.7471C69.3467 80.9455 68.4686 74.056 67.4519 66.0798C67.0196 62.68 66.2799 57.4112 65.3095 52.4355C65.0944 52.4383 64.8783 52.4616 64.6602 52.51C65.4667 55.5362 69.3773 78.394 67.255 81.7515Z" fill="#B1E165"/>
<path d="M55.2393 49.821C55.914 49.506 56.6949 49.4244 57.4535 49.4299C57.8641 49.4329 58.2726 49.4599 58.6786 49.5148C58.9603 49.553 59.3323 49.6312 59.6526 49.5923C59.028 49.2422 57.5521 48.6691 56.4342 48.9061C55.8791 49.025 55.4816 49.3341 55.2393 49.821Z" fill="#B1E165"/>
<path d="M63.1912 48.0005C63.098 47.534 62.7913 47.1927 62.2832 47.0168C61.7526 46.8337 61.142 46.8816 60.6836 47.0943C60.9294 47.1043 61.1735 47.1362 61.4025 47.1831C61.4164 47.1859 61.4268 47.1913 61.4368 47.1971C62.1198 47.2371 62.7678 47.5294 63.1912 48.0005Z" fill="#B1E165"/>
<path d="M78.7735 58.4828C78.5387 57.4883 79.219 56.5755 79.5856 56.0848C79.6575 55.9882 79.7187 55.9089 79.757 55.8454C82.6402 51.1611 80.4956 47.8527 79.5178 47.0655C76.348 44.5075 73.741 46.4855 71.6437 48.0745C70.9304 48.6175 70.3112 49.0852 69.7712 49.2741C68.4686 49.7274 67.4871 49.4165 66.5368 49.1188C65.5759 48.8156 64.6696 48.4426 63.565 49.0507C63.5063 49.0828 63.1409 49.2715 62.7715 49.5068C63.2755 49.6084 63.7663 49.4203 64.2761 49.3213C64.7082 49.2372 65.1325 49.2813 65.5661 49.343C66.6531 49.4976 67.7294 49.8992 68.8449 49.8267C69.8651 49.7604 70.7426 49.2284 71.5733 48.7339C72.3052 48.298 73.0143 47.8303 73.7717 47.4301C74.9922 46.7849 76.4262 46.2799 77.8396 46.6916C79.382 47.1408 80.4156 48.4282 80.6931 49.8371C80.9872 51.3304 80.5954 52.8978 79.9917 54.2885C79.7091 54.9396 79.3681 55.569 78.9819 56.1747C78.5722 56.8171 78.0639 57.4777 77.9337 58.2244C77.6292 59.9735 80.158 60.7823 81.4428 61.5611C82.8967 62.4418 83.7092 63.7814 83.8915 65.3492C84.0759 66.9388 83.7898 68.6714 83.1538 70.1763C83.8084 69.274 84.2719 68.126 84.4221 66.9037L84.4305 66.8475C84.5543 65.8393 84.9359 62.7729 80.3128 60.1904C79.446 59.704 78.9269 59.1302 78.7735 58.4828Z" fill="#B1E165"/>
<path d="M72.8742 50.5779C73.2002 50.2962 73.4352 50.0931 73.5873 49.9956C75.4274 48.8186 76.4736 49.321 76.9329 49.727C78.3211 50.9464 77.9751 54.139 76.1915 56.5579C75.6099 57.3487 75.3958 58.3232 75.6097 59.2335C75.8216 60.1363 76.432 60.8995 77.3714 61.4365C81.0331 63.5312 81.6689 64.9586 81.5281 66.7119C81.4503 67.7047 80.9403 68.8098 80.2593 68.8735C79.8208 68.9108 79.2798 68.5312 78.5594 67.6767C78.4123 67.5013 77.9096 67.3322 77.4649 67.4416C76.9646 67.5709 76.6614 68.0211 76.5914 68.7419C76.5666 68.9991 76.6269 69.2812 76.744 69.5668C76.9958 69.5373 77.2585 69.5337 77.534 69.5602C78.4161 69.6447 79.344 69.957 80.2263 69.7212C81.2616 69.4444 82.1322 68.4897 82.3705 67.5575C82.5805 66.7365 82.3809 65.8736 82.0357 65.106C81.2962 63.4613 79.9041 62.3997 78.5534 61.1769C77.9342 60.6162 77.3145 59.9969 76.9883 59.2498C76.663 58.5038 76.7839 57.8054 77.0773 57.0693C77.7758 55.3182 79.0774 53.7204 79.2379 51.8183C79.3157 50.8985 79.1077 49.9291 78.3211 49.2871C77.6164 48.712 76.6311 48.5265 75.7063 48.5534C74.4858 48.5886 73.4657 49.0435 72.4904 49.6793C71.6119 50.2518 70.7743 50.9366 69.7638 51.3174C68.1338 51.9313 66.8405 50.6988 65.2493 50.6411C63.7823 50.5881 62.5789 51.4844 61.546 52.3125C60.884 52.8433 60.1078 53.3887 59.7614 54.1511C59.2483 55.2812 60.7848 55.6407 61.7437 55.6139C62.368 55.5964 63.1618 55.4612 63.2652 54.7834C63.3285 54.3676 63.0366 53.9626 62.8183 53.5962C62.6973 53.7158 62.5753 53.8458 62.4517 53.9882C62.3769 54.0753 62.2405 54.0942 62.1428 54.0291C62.0445 53.9618 62.0245 53.834 62.0987 53.745C64.0567 51.4866 65.8432 51.971 67.4234 52.4022C68.2029 52.6131 68.9382 52.8142 69.649 52.683C70.6512 52.4968 72.0411 51.2955 72.8742 50.5779Z" fill="#67B654"/>
<path d="M51.3436 51.1448C50.5991 51.1038 46.8577 50.6747 46.5189 46.2889C46.4356 45.205 46.4629 44.234 46.5989 43.3757C45.8714 45.2916 45.4019 47.5842 46.7189 49.3016C47.5453 50.3795 48.8683 51.0585 50.2632 51.3483C51.5244 51.6101 53.3962 51.916 54.5931 51.2506C54.5562 51.0915 54.5402 50.9243 54.5478 50.749C53.641 51.0385 52.5716 51.2143 51.3436 51.1448Z" fill="#67B654"/>
<path d="M61.063 47.6354C61.3879 47.2615 61.8219 47.0906 62.2976 47.0211C62.2939 47.0197 62.2908 47.0183 62.287 47.0169C61.4368 46.7237 60.3815 47.0227 60.075 47.6441C59.8438 48.1116 59.9479 48.6021 60.1213 49.0642C60.4531 48.5959 60.681 48.0753 61.063 47.6354Z" fill="#67B654"/>
<path d="M58.2924 49.0498C57.6879 48.8808 57.0118 48.7844 56.4318 48.9074C55.6406 49.0771 55.1626 49.6245 55.0103 50.5379C54.979 50.7243 54.9805 50.8918 55.0025 51.0458C55.0693 51.0715 55.1108 51.1482 55.0414 51.2025C55.0392 51.2043 55.0368 51.2055 55.0346 51.2071C55.2366 51.9596 56.0332 52.2983 56.5654 52.4429C57.016 52.5645 57.4851 52.6088 57.913 52.5964C56.8527 52.0459 55.6781 50.9867 56.392 49.9051C56.7601 49.3475 57.539 49.0544 58.2924 49.0498Z" fill="#67B654"/>
<path d="M54.5664 50.4766C54.5778 50.4155 54.5906 50.3584 54.6027 50.2993L54.6006 50.2999C54.5878 50.357 54.5758 50.4161 54.5664 50.4766Z" fill="#80E165"/>
<path d="M64.1371 47.1405C63.9976 47.4632 63.8341 47.7442 63.6426 47.9615C63.674 48.1426 63.6831 48.3479 63.6561 48.5789C63.932 48.4819 64.1936 48.4196 64.4443 48.3912C64.3437 47.9655 64.2419 47.5505 64.1371 47.1405Z" fill="#80E165"/>
<path d="M64.299 47.787C64.2456 47.5697 64.1918 47.354 64.1371 47.1402C63.9976 47.4629 63.8341 47.7439 63.6426 47.9613C63.6576 48.0472 63.6669 48.1389 63.6703 48.2361C63.8948 48.0905 64.1189 47.9575 64.299 47.787Z" fill="#67B654"/>
<path d="M54.8775 34.1234C55.2205 34.006 55.5732 33.894 55.92 33.8409C56.2663 33.7877 56.6115 33.7764 56.9489 33.8447C57.2864 33.9104 57.6189 34.0669 57.9124 34.308C58.2083 34.5454 58.4672 34.8509 58.7028 35.1711C58.6197 34.7942 58.5119 34.4136 58.3137 34.0406C58.1204 33.6679 57.8105 33.3075 57.3969 33.0395C56.9863 32.7683 56.499 32.5954 56.0134 32.4915C55.5245 32.3867 55.0423 32.3585 54.5586 32.3437L54.8775 34.1234Z" fill="black"/>
<path d="M51.3278 32.8702C50.9778 33.0046 50.6293 33.1272 50.2878 33.271L49.7817 33.5048L49.5311 33.6219L49.2875 33.7581L48.806 34.0299L48.3485 34.3408C48.1943 34.4384 48.0551 34.5606 47.9143 34.6763C47.7733 34.7917 47.633 34.9055 47.5094 35.0395C46.9916 35.5414 46.5768 36.1347 46.3433 36.7735C46.1092 37.4073 46.0362 38.0903 46.2191 38.7092C46.2027 38.0719 46.4453 37.4691 46.7955 36.9628C47.1473 36.4532 47.626 36.039 48.1647 35.7185C48.2921 35.6316 48.4368 35.5625 48.5789 35.493C48.7208 35.4233 48.8559 35.3487 49.0097 35.2957L49.4527 35.1226L49.9156 34.985L50.1445 34.9165L50.3832 34.8648L50.8563 34.7623C51.1761 34.7046 51.5039 34.6659 51.8218 34.6166L51.3278 32.8702Z" fill="black"/>
<path d="M84.4334 66.8456L84.4243 66.9013C84.1439 69.1947 82.7675 71.2306 81.0765 71.86C80.1149 72.2147 79.144 72.0643 78.2734 71.4262C77.3993 70.78 76.5108 69.618 76.5967 68.7398C76.668 68.0176 76.9686 67.5683 77.4702 67.4393C77.916 67.3291 78.4167 67.4986 78.5644 67.6727C79.2857 68.5295 79.825 68.9083 80.2641 68.87C80.9471 68.8058 81.4556 67.7003 81.5331 66.7104C81.6735 64.9571 81.0364 63.5284 77.3769 61.434C76.4362 60.8958 75.826 60.133 75.6141 59.2309C75.401 58.3205 75.6148 57.3462 76.1959 56.5544C77.9802 54.1366 78.3268 50.9447 76.9373 49.7263C76.4774 49.3173 75.4318 48.8147 73.5908 49.9935C73.4429 50.0915 73.2059 50.2954 72.8817 50.577C72.0446 51.2927 70.6578 52.4931 69.6541 52.6802C68.9423 52.814 68.2073 52.6129 67.4271 52.3992C65.8492 51.9679 64.0613 51.4854 62.1049 53.7428C62.0294 53.8321 62.0469 53.9607 62.1479 54.0274C62.2424 54.0913 62.3806 54.0731 62.4561 53.986C63.4746 52.8088 64.4039 52.447 65.3123 52.4358C66.2837 57.4091 67.0222 62.6793 67.4565 66.0788C68.4724 74.0537 69.3496 80.9463 67.2747 81.7447C65.8633 82.2935 62.9464 80.1231 58.3686 75.1229C51.3287 67.4275 47.6072 60.885 44.0531 50.6527C44.0149 50.5461 43.6765 49.4599 43.5952 49.0709L43.6112 49.0665L43.6138 49.0647C43.6368 49.0589 43.6668 49.0499 43.7035 49.0415C43.8279 49.0076 44.0056 48.9589 44.0704 48.9393C44.1628 48.9125 44.2555 48.8834 44.3483 48.8546C44.4571 48.8211 44.5146 48.7162 44.482 48.618C44.4801 48.616 44.4805 48.6138 44.4805 48.6138C44.446 48.5137 44.3303 48.4578 44.2198 48.4868C43.9803 48.5495 43.607 48.6489 43.5748 48.6577C43.5124 48.6755 43.4711 48.6855 43.4456 48.6929C41.8079 49.1264 40.4869 49.231 39.4546 49.127C38.1076 48.9912 37.2593 48.4985 36.8566 47.9138C36.4901 47.381 36.5434 46.7857 36.9924 46.3614C37.2769 46.0958 37.8397 45.7595 38.8828 45.7579C39.4355 45.7573 40.1256 45.8531 40.9793 46.1042L41.0246 46.1168C41.1216 46.1429 41.3265 46.1978 41.5197 46.2757L41.7894 46.3837C41.9634 46.4536 42.1396 46.5257 42.3198 46.6004C42.4103 46.6436 42.8367 46.8177 43.0445 46.903C43.1189 46.9329 43.2025 46.9231 43.2643 46.875C43.2666 46.8732 43.2694 46.8694 43.2718 46.8676C43.3755 46.7853 43.3585 46.6344 43.2393 46.5701L43.0637 46.4758C42.9394 46.4189 42.8206 46.3706 42.702 46.3204C42.4121 45.2551 42.2733 44.2296 42.8746 43.2018C42.9281 43.1123 42.9719 43.0462 43.0137 42.9961C43.2588 42.652 43.2335 42.5869 42.7845 41.4937C42.3561 40.4489 41.4689 38.2814 39.9017 33.7317C37.9521 28.0732 38.4463 22.6714 41.0351 21.4289C41.2055 21.3474 41.3874 21.2829 41.571 21.239C43.8876 20.6685 47.3746 22.8763 51.4872 27.5476C52.1971 28.351 52.8562 29.403 53.4379 30.3242C54.3564 31.7854 54.7474 32.3729 55.1818 32.2655C56.8067 31.8651 58.5046 33.6003 59.2485 34.6872C60.0119 35.7978 60.647 37.0089 61.21 38.2808C61.0966 38.2431 60.9827 38.2077 60.866 38.1796C58.8968 37.6869 57.6661 38.1252 56.9814 38.5821C56.4035 38.9672 56.0455 39.4672 55.8418 39.89C55.6822 39.63 55.4425 39.3883 55.1334 39.1838C54.5114 38.7703 53.0863 38.165 50.5467 38.7918C47.5478 39.5293 46.1964 42.0513 46.5188 46.2861C46.8606 50.6719 50.6003 51.1014 51.3438 51.1441C52.5742 51.2138 53.6432 51.0373 54.5502 50.7481C54.5065 51.7351 55.1828 52.4847 56.4403 52.823C57.2037 53.0289 58.1416 53.0489 58.8563 52.8731C59.233 52.7821 59.5479 52.6325 59.7443 52.4306C59.8265 52.3423 59.7959 52.2101 59.679 52.164L59.6132 52.1374C59.5373 52.1033 59.4498 52.1267 59.3895 52.1812C59.0108 52.5602 57.728 52.7533 56.5698 52.441C55.8996 52.2565 54.805 51.7712 55.013 50.5365C55.166 49.6209 55.6433 49.0745 56.4353 48.9045C57.6592 48.6469 59.314 49.3579 59.811 49.6842C59.9036 49.7459 60.026 49.7481 60.1235 49.6977C60.2521 49.63 60.3022 49.496 60.2504 49.3738C60.0147 48.8259 59.7959 48.2156 60.0785 47.6414C60.3846 47.0192 61.4416 46.7228 62.2925 47.0162C63.051 47.28 63.3632 47.9102 63.1779 48.7823C62.824 48.9581 62.4517 49.1947 62.0469 49.5146C61.9552 49.5901 61.9481 49.7183 62.0298 49.7972C62.1113 49.8779 62.2442 49.8833 62.3332 49.8136C62.7877 49.4523 63.487 49.0936 63.5663 49.0471C64.6705 48.441 65.5783 48.8127 66.5392 49.1172C67.4922 49.4128 68.4719 49.7253 69.7737 49.27C70.3163 49.0809 70.933 48.615 71.6486 48.0704C73.7452 46.482 76.3511 44.5036 79.5205 47.0645C80.4998 47.8505 82.6411 51.1601 79.7599 55.8418C79.7231 55.9065 79.662 55.985 79.59 56.0825C79.2215 56.5755 78.5414 57.4842 78.7752 58.4793C78.9314 59.1279 79.4492 59.7 80.3162 60.1865C84.9381 62.769 84.5576 65.8383 84.4334 66.8456ZM64.1404 47.138C64.2455 47.5496 64.3481 47.965 64.4473 48.3903C64.1986 48.4175 63.9368 48.4818 63.6598 48.577C63.6861 48.3458 63.6782 48.1393 63.6467 47.9608C63.8385 47.7423 64.0002 47.4625 64.1404 47.138ZM63.3909 40.8891C63.4467 41.0135 63.5098 41.1529 63.5382 41.2122C63.5397 41.2184 63.5431 41.2268 63.5466 41.2353C63.5805 41.3394 63.6565 41.591 63.7154 41.6918C63.7282 41.7312 63.7397 41.7647 63.7468 41.7795C63.7918 41.9211 63.9475 42.485 63.992 42.7193C64.0354 42.9453 64.1133 43.6143 64.139 43.8224C64.1448 43.9197 64.1532 44.0153 64.1567 44.1124C64.159 44.1851 64.1654 44.4762 64.1621 44.5383C64.1623 44.6632 64.1561 44.7874 64.1521 44.91C64.1286 44.8892 64.0879 45.4438 64.1058 45.4657C64.005 46.2819 63.7902 46.9958 63.4791 47.4765C63.1943 46.9499 62.6831 46.721 62.4502 46.641C61.3774 46.2689 60.0787 46.6619 59.673 47.4775C59.4232 47.9845 59.4604 48.4598 59.5884 48.9041C59.4487 48.8818 59.3076 48.8514 59.1696 48.8133C58.2244 48.5443 57.5162 47.9112 57.0875 47.3615C56.8998 47.3776 56.7357 47.4921 56.7865 47.6666C56.9931 47.9234 57.2554 48.197 57.5747 48.447C57.5678 48.4664 57.57 48.4666 57.5588 48.4856C57.1858 48.438 56.8121 48.4326 56.4664 48.4904C55.7664 48.6012 54.8911 49.0128 54.6125 50.2968C54.6097 50.3186 54.6031 50.336 54.5981 50.3599C54.6004 50.3398 54.6076 50.3184 54.6101 50.2984C53.7109 50.6151 52.6298 50.8164 51.3733 50.742C50.9129 50.7178 49.2136 50.5281 48.0599 49.1683C48.0819 49.1328 47.7995 48.7763 47.7819 48.8017C47.4297 48.2785 47.1548 47.6159 47.0249 46.7724C47.0171 46.6911 46.9679 46.2951 46.9635 46.2585C46.9613 46.2218 46.9177 45.7984 46.9086 45.3116C46.913 45.2213 46.918 45.0002 46.9159 44.8187C46.9159 44.7822 46.9181 44.7462 46.9203 44.7103C46.9194 44.6456 46.9231 44.5613 46.9272 44.473C46.9369 44.3772 46.9512 44.1711 46.9596 44.0309C47.2013 41.3284 48.4167 39.7298 50.662 39.1761C52.3876 38.7537 53.9236 38.8743 54.8729 39.508C55.2684 39.7696 55.524 40.0997 55.6071 40.4387L55.6103 40.4491C55.6401 40.5508 55.7384 40.6211 55.8541 40.6229C55.9721 40.6227 56.0774 40.5466 56.1037 40.4405C56.1952 40.0607 56.5283 39.3829 57.2449 38.9027C57.5477 38.7056 57.8774 38.5616 58.2452 38.4697C58.9575 38.2956 59.7964 38.3237 60.7471 38.5646C61.869 38.8451 62.7841 39.6651 63.3909 40.8891ZM79.2086 58.398C79.0144 57.5684 79.602 56.779 79.9563 56.3089C80.0365 56.2021 80.1009 56.1118 80.1481 56.0379C83.1693 51.1246 80.8621 47.6069 79.8139 46.7636C76.3584 43.9744 73.3521 46.2549 71.3602 47.7691C70.6795 48.2851 70.0897 48.7316 69.6147 48.8973C68.4666 49.2975 67.5998 49.0266 66.6838 48.7388C66.1134 48.5581 65.5362 48.3771 64.8958 48.3669C64.8187 48.0347 64.4256 46.4694 64.3977 46.3698C64.6136 45.5047 64.6714 44.4565 64.543 43.3835C64.5162 43.1309 64.4409 42.7121 64.4285 42.6504C64.0409 40.6967 63.1024 39.2537 61.7995 38.5418C61.1863 37.0994 60.4862 35.7289 59.6289 34.4754C58.8182 33.2993 56.9579 31.4328 55.0897 31.8733C54.8607 31.7798 54.2846 30.867 53.8253 30.1275C53.2346 29.189 52.5654 28.128 51.8343 27.2986C45.9485 20.6163 42.5983 20.2261 40.829 21.0756C38.0134 22.4242 37.4344 27.9163 39.4793 33.8503C41.052 38.4106 41.9383 40.5841 42.3685 41.6311C42.7678 42.6045 42.7678 42.6045 42.6401 42.773C42.5943 42.8369 42.5432 42.9084 42.4852 43.0174C41.8738 44.0541 41.9486 45.0915 42.1911 46.1076C42.1168 46.078 42.0428 46.0463 41.9681 46.0187L41.7028 45.9113C41.48 45.8204 41.2556 45.7613 41.1476 45.7325L41.1132 45.7229C38.4253 44.9317 37.1785 45.6103 36.6742 46.0854C36.0768 46.6479 36.0028 47.4284 36.4807 48.1257C37.0208 48.9137 38.249 49.5617 40.2456 49.5615C41.0835 49.5613 42.0584 49.4439 43.172 49.1773C43.264 49.7327 43.7694 51.2005 43.8008 51.2885C47.3945 61.2543 51.0639 67.7676 58.0316 75.3811C62.6935 80.4766 65.5595 82.5896 67.2508 82.1738C67.3172 82.1582 67.3821 82.1385 67.4452 82.1147C69.8268 81.1959 69.022 74.8367 67.8966 66.0346C67.4649 62.6495 66.7306 57.4159 65.767 52.4534C66.2733 52.5045 66.7842 52.6427 67.2995 52.7833C68.0994 53.0011 68.923 53.2252 69.7442 53.0702C70.8659 52.8649 72.2598 51.661 73.1847 50.8656C73.4695 50.6161 73.7235 50.3999 73.8493 50.3198C75.0175 49.5731 76.0052 49.4611 76.6299 50.0139C77.7337 50.9836 77.627 53.8932 75.8289 56.3321C75.1787 57.2136 74.9422 58.3003 75.1809 59.31C75.4212 60.3257 76.0964 61.176 77.1369 61.7725C80.6109 63.7615 81.2217 65.0787 81.0935 66.6802C81.0133 67.6374 80.5531 68.4416 80.2198 68.4704C80.1003 68.4825 79.7337 68.4014 78.917 67.4341C78.655 67.1194 77.9691 66.8993 77.3461 67.0539C76.9502 67.1573 76.2736 67.5102 76.1553 68.7054C76.0428 69.8532 77.1958 71.1463 77.9964 71.739C78.8769 72.386 79.854 72.5953 80.8399 72.3523C80.9733 72.3193 81.1072 72.2804 81.2428 72.2296C83.078 71.5501 84.5689 69.3786 84.8668 66.9458L84.8712 66.8919C85.0079 65.8193 85.4116 62.5625 80.5498 59.8454C79.7889 59.42 79.3364 58.935 79.2086 58.398Z" fill="black"/>
<path d="M36.7126 18.2595C37.3321 20.3198 38.3584 21.0076 39.2729 21.6069C39.4168 21.1771 39.8191 20.7212 40.1731 20.3184C40.3149 20.1571 40.4479 20.0039 40.5502 19.8707C40.593 19.8146 41.0914 19.1668 41.6964 18.4161C41.4786 17.7453 40.9701 16.9467 39.8098 16.1567C39.0797 15.6595 37.664 15.1339 36.9349 15.579C36.3653 15.9287 36.2901 16.8543 36.7126 18.2595Z" fill="#F4D94E"/>
<path d="M37.5717 19.0647C37.152 18.6947 36.8488 18.237 36.582 17.7671C36.6188 17.924 36.6627 18.088 36.7142 18.2595C37.3337 20.3198 38.36 21.0076 39.2745 21.6069C39.4184 21.1771 39.8207 20.7212 40.1747 20.3184C40.2855 20.1924 40.3904 20.0716 40.48 19.961C39.4324 20.2437 38.3343 19.7371 37.5717 19.0647Z" fill="#E7A628"/>
<path d="M39.6553 21.8883C39.8303 21.951 40.5681 21.6263 40.811 21.5189C40.8781 21.4901 40.9388 21.4626 40.9936 21.4388C43.3533 20.4327 44.8876 19.1005 45.3592 18.2269C45.9631 17.1131 46.2087 15.6785 45.8395 15.4351C45.6399 15.3057 45.0475 15.5032 43.9753 16.448C43.3326 17.0127 41.6879 19.0842 40.9099 20.0998C40.7999 20.245 40.6611 20.4016 40.5139 20.5687C40.1856 20.942 39.8112 21.3685 39.6929 21.7232C39.6552 21.8344 39.6605 21.8829 39.6553 21.8883Z" fill="#E7A628"/>
<path d="M46.1018 15.1124C46.8532 15.6043 46.252 17.4978 45.7622 18.403C45.1425 19.5477 43.3466 20.8797 41.1864 21.8015C41.1338 21.8247 41.0747 21.8496 41.0099 21.878C40.6412 22.0415 40.3113 22.1807 40.0334 22.249C39.7535 22.3179 39.5278 22.3153 39.372 22.1937C39.3485 22.1767 39.3287 22.1566 39.3105 22.1342C39.2209 22.0731 39.1266 22.0112 39.0317 21.9475C38.1029 21.3394 36.9494 20.5788 36.284 18.3659C35.8005 16.7577 35.9346 15.7077 36.6849 15.249C37.6539 14.6557 39.2781 15.2941 40.0748 15.8371C41.1748 16.5878 41.7358 17.3466 42.0174 18.0162C42.6333 17.2628 43.2927 16.4947 43.6697 16.161C44.8275 15.1414 45.6239 14.7981 46.1018 15.1124ZM45.8431 15.4355C45.6435 15.3061 45.0511 15.5036 43.9788 16.4484C43.3362 17.0131 41.6915 19.0846 40.9135 20.1001C40.8035 20.2453 40.6647 20.402 40.5174 20.569C40.1891 20.9424 39.8147 21.3688 39.6965 21.7236C39.6588 21.8347 39.6641 21.8832 39.6589 21.8886C39.8339 21.9513 40.5717 21.6266 40.8146 21.5193C40.8817 21.4904 40.9424 21.463 40.9972 21.4391C43.3569 20.433 44.8912 19.1008 45.3628 18.2273C45.9666 17.1134 46.2123 15.6788 45.8431 15.4355ZM39.2716 21.6082C39.4155 21.1784 39.8178 20.7225 40.1718 20.3197C40.3136 20.1584 40.4466 20.0052 40.5489 19.872C40.5917 19.8159 41.0901 19.1681 41.6951 18.4174C41.4773 17.7466 40.9688 16.948 39.8085 16.158C39.0784 15.6608 37.6627 15.1352 36.9336 15.5803C36.364 15.93 36.2888 16.8556 36.7113 18.2607C37.3308 20.3211 38.3571 21.0089 39.2716 21.6082Z" fill="black"/>
<path d="M49.7793 55.8758C51.0081 57.8138 52.37 59.6768 53.8968 61.4196C54.6638 62.2877 55.4654 63.1304 56.3265 63.9196C57.1819 64.7132 58.0906 65.4597 59.0647 66.1251C60.0345 66.7914 61.0758 67.3834 62.1993 67.7794C62.7605 67.9717 63.3445 68.1176 63.9334 68.1456C64.5183 68.173 65.1144 68.0843 65.6019 67.8039C66.0911 67.5287 66.4556 67.086 66.6791 66.5875C66.9151 66.0913 67.0228 65.5437 67.0806 64.9966C67.1975 63.8954 67.0622 62.7777 66.8824 61.6748C67.1605 62.7621 67.3421 63.8794 67.2972 65.0101C67.2642 65.5735 67.1774 66.144 66.9486 66.685C66.7333 67.2258 66.3411 67.735 65.789 68.0666C65.5142 68.2314 65.2052 68.3517 64.8859 68.4184C64.5659 68.4853 64.2388 68.5055 63.9163 68.4961C63.2694 68.4749 62.646 68.3279 62.0514 68.1344C60.8663 67.729 59.7949 67.1207 58.7974 66.4443C56.8128 65.07 55.116 63.3996 53.6244 61.6099C52.8753 60.7158 52.1898 59.7806 51.5442 58.8255C50.9127 57.8627 50.3121 56.884 49.7793 55.8758Z" fill="black"/>
<path d="M53.4276 45.0508C53.3463 46.0854 52.6196 46.8814 51.8043 46.8291C50.989 46.7766 50.394 45.8955 50.4752 44.8611C50.5564 43.8266 51.2832 43.0304 52.0984 43.0828C52.9137 43.1353 53.5088 44.0165 53.4276 45.0508Z" fill="black"/>
<path d="M61.7928 44.1496C61.7115 45.184 60.9849 45.9802 60.1697 45.9277C59.3542 45.8754 58.7592 44.9943 58.8404 43.9597C58.9217 42.9252 59.6486 42.129 60.4638 42.1815C61.279 42.2339 61.874 43.1151 61.7928 44.1496Z" fill="black"/>
</g>
<defs>
<filter id="filter0_d_665_11809" x="0" y="0" width="108" height="108" filterUnits="userSpaceOnUse" color-interpolation-filters="sRGB">
<feFlood flood-opacity="0" result="BackgroundImageFix"/>
<feColorMatrix in="SourceAlpha" type="matrix" values="0 0 0 0 0 0 0 0 0 0 0 0 0 0 0 0 0 0 127 0" result="hardAlpha"/>
<feOffset dy="4"/>
<feGaussianBlur stdDeviation="2"/>
<feComposite in2="hardAlpha" operator="out"/>
<feColorMatrix type="matrix" values="0 0 0 0 0 0 0 0 0 0 0 0 0 0 0 0 0 0 0.25 0"/>
<feBlend mode="normal" in2="BackgroundImageFix" result="effect1_dropShadow_665_11809"/>
<feBlend mode="normal" in="SourceGraphic" in2="effect1_dropShadow_665_11809" result="shape"/>
</filter>
<filter id="filter1_d_665_11809" x="32" y="15" width="56.9414" height="78.8799" filterUnits="userSpaceOnUse" color-interpolation-filters="sRGB">
<feFlood flood-opacity="0" result="BackgroundImageFix"/>
<feColorMatrix in="SourceAlpha" type="matrix" values="0 0 0 0 0 0 0 0 0 0 0 0 0 0 0 0 0 0 127 0" result="hardAlpha"/>
<feOffset dy="4"/>
<feGaussianBlur stdDeviation="2"/>
<feComposite in2="hardAlpha" operator="out"/>
<feColorMatrix type="matrix" values="0 0 0 0 0 0 0 0 0 0 0 0 0 0 0 0 0 0 0.25 0"/>
<feBlend mode="normal" in2="BackgroundImageFix" result="effect1_dropShadow_665_11809"/>
<feBlend mode="normal" in="SourceGraphic" in2="effect1_dropShadow_665_11809" result="shape"/>
</filter>
</defs>
</svg>
