<svg width="450" height="426" viewBox="0 0 450 426" fill="none" xmlns="http://www.w3.org/2000/svg">
<path d="M343.703 318.047C285.207 376.543 190.367 376.543 131.871 318.047C73.375 259.552 73.375 164.711 131.871 106.215C190.367 47.7191 285.207 47.7191 343.703 106.215C402.199 164.711 402.199 259.552 343.703 318.047Z" fill="url(#paint0_linear_2803_568)" fill-opacity="0.14"/>
<path d="M387.189 212.431C387.189 232.922 382.991 253.197 374.853 272.003C366.714 290.809 354.809 307.748 339.872 321.776C324.934 335.803 307.28 346.621 288 353.563C268.72 360.504 248.222 363.421 227.771 362.135L237.189 212.431L387.189 212.431Z" fill="url(#paint1_linear_2803_568)" fill-opacity="0.3"/>
<path d="M387.189 212.431C387.189 232.922 382.991 253.197 374.853 272.003C366.714 290.809 354.809 307.748 339.872 321.776C324.934 335.803 307.28 346.621 288 353.563C268.72 360.504 248.222 363.421 227.771 362.135L237.189 212.431L387.189 212.431Z" fill="url(#paint2_linear_2803_568)" fill-opacity="0.3"/>
<path d="M92.8939 174.311C100.261 146.816 115.299 121.986 136.251 102.719C157.204 83.4522 183.206 70.5448 211.22 65.5042L237.783 213.134L92.8939 174.311Z" fill="url(#paint3_linear_2803_568)" fill-opacity="0.3"/>
<path d="M92.8939 174.311C100.261 146.816 115.299 121.986 136.251 102.719C157.204 83.4522 183.206 70.5448 211.22 65.5042L237.783 213.134L92.8939 174.311Z" fill="#563B1D"/>
<path d="M323.359 260.464V256.997C323.359 254.474 324.132 252.505 325.679 251.089C327.225 249.673 329.292 248.965 331.88 248.965C334.484 248.965 336.551 249.681 338.081 251.113C339.627 252.546 340.4 254.507 340.4 256.997V260.464C340.4 263.149 339.627 265.225 338.081 266.689C336.535 268.154 334.468 268.887 331.88 268.887C329.292 268.887 327.225 268.154 325.679 266.689C324.132 265.225 323.359 263.149 323.359 260.464ZM329.902 261.27C329.902 262.262 330.049 262.987 330.342 263.442C330.651 263.882 331.164 264.102 331.88 264.102C332.596 264.102 333.101 263.882 333.394 263.442C333.703 262.987 333.857 262.262 333.857 261.27V256.68C333.857 255.703 333.711 254.971 333.418 254.482C333.125 253.994 332.612 253.75 331.88 253.75C331.147 253.75 330.635 253.994 330.342 254.482C330.049 254.971 329.902 255.703 329.902 256.68V261.27ZM356.709 251.479L337.007 285.732L331.636 282.656L351.24 248.574L356.709 251.479ZM347.847 277.236V273.77C347.847 271.247 348.62 269.277 350.166 267.861C351.712 266.445 353.779 265.737 356.367 265.737C358.971 265.737 361.038 266.453 362.568 267.886C364.115 269.318 364.888 271.279 364.888 273.77V277.236C364.888 279.922 364.115 281.997 362.568 283.462C361.022 284.927 358.955 285.659 356.367 285.659C353.779 285.659 351.712 284.927 350.166 283.462C348.62 281.997 347.847 279.922 347.847 277.236ZM354.39 278.042C354.39 279.035 354.536 279.759 354.829 280.215C355.138 280.654 355.651 280.874 356.367 280.874C357.083 280.874 357.588 280.654 357.881 280.215C358.19 279.759 358.345 279.035 358.345 278.042V273.452C358.345 272.476 358.198 271.743 357.905 271.255C357.612 270.767 357.1 270.522 356.367 270.522C355.635 270.522 355.122 270.767 354.829 271.255C354.536 271.743 354.39 272.476 354.39 273.452V278.042Z" fill="#FF0000" fill-opacity="0.5"/>
<path d="M294.127 270.425V268.643C294.127 262.604 295.95 257.835 299.596 254.336C303.242 250.82 308.499 249.062 315.367 249.062H317.32V256.729H315.636C311.762 256.729 308.784 257.689 306.7 259.609C304.633 261.514 303.6 265.078 303.6 270.303L303.844 271.035C303.844 274.29 304.202 276.423 304.918 277.432C305.634 278.441 306.594 278.945 307.799 278.945C308.987 278.945 309.882 278.538 310.484 277.725C311.103 276.895 311.412 275.275 311.412 272.866C311.412 271.141 311.119 269.814 310.533 268.887C309.947 267.943 309.036 267.471 307.799 267.471C306.643 267.471 305.691 267.91 304.942 268.789C304.21 269.668 303.844 270.824 303.844 272.256L302.037 272.231C302.037 269.041 302.908 266.502 304.649 264.614C306.407 262.71 308.613 261.758 311.266 261.758C314.309 261.758 316.726 262.743 318.517 264.712C320.307 266.681 321.202 269.448 321.202 273.013C321.202 276.886 319.965 279.954 317.491 282.217C315.017 284.463 311.778 285.586 307.774 285.586C303.657 285.586 300.353 284.373 297.862 281.948C295.372 279.523 294.127 275.682 294.127 270.425Z" fill="#FF0000" fill-opacity="0.5"/>
<path d="M265.016 285V279.141L277.931 265.957C278.924 264.867 279.745 263.792 280.396 262.734C281.048 261.66 281.373 260.529 281.373 259.341C281.373 258.088 281.096 257.168 280.543 256.582C280.006 255.996 279.225 255.703 278.199 255.703C277.158 255.703 276.336 256.069 275.733 256.802C275.147 257.518 274.854 258.877 274.854 260.879V261.953H264.967V259.829C264.967 256.704 266.171 254.1 268.58 252.017C270.989 249.917 274.228 248.867 278.297 248.867C282.659 248.867 285.906 249.779 288.038 251.602C290.17 253.424 291.244 255.866 291.261 258.926C291.261 261.286 290.732 263.361 289.674 265.151C288.632 266.925 287.241 268.683 285.499 270.425L279.078 277.383H292.018V285H265.016Z" fill="#FF0000" fill-opacity="0.5"/>
<path d="M171.035 137.488V134.539C171.035 132.547 171.66 130.991 172.91 129.871C174.16 128.738 175.82 128.172 177.891 128.172C180 128.172 181.667 128.738 182.891 129.871C184.128 131.004 184.746 132.56 184.746 134.539V137.488C184.746 139.598 184.128 141.232 182.891 142.391C181.654 143.536 179.987 144.109 177.891 144.109C175.807 144.109 174.141 143.536 172.891 142.391C171.654 141.232 171.035 139.598 171.035 137.488ZM176.27 138.035C176.27 138.803 176.393 139.37 176.641 139.734C176.888 140.099 177.305 140.281 177.891 140.281C178.49 140.281 178.913 140.099 179.16 139.734C179.408 139.37 179.531 138.803 179.531 138.035V134.324C179.531 133.569 179.408 132.996 179.16 132.605C178.926 132.215 178.503 132.02 177.891 132.02C177.292 132.02 176.868 132.215 176.621 132.605C176.387 132.996 176.27 133.569 176.27 134.324V138.035ZM197.891 130.086L182.051 157.605L177.871 155.203L193.633 127.801L197.891 130.086ZM190.879 150.906V147.957C190.879 145.965 191.504 144.409 192.754 143.289C194.004 142.156 195.664 141.59 197.734 141.59C199.844 141.59 201.51 142.156 202.734 143.289C203.971 144.422 204.59 145.978 204.59 147.957V150.906C204.59 153.016 203.971 154.65 202.734 155.809C201.497 156.954 199.831 157.527 197.734 157.527C195.651 157.527 193.984 156.954 192.734 155.809C191.497 154.65 190.879 153.016 190.879 150.906ZM196.113 151.453C196.113 152.221 196.237 152.788 196.484 153.152C196.732 153.517 197.148 153.699 197.734 153.699C198.333 153.699 198.757 153.517 199.004 153.152C199.251 152.788 199.375 152.221 199.375 151.453V147.742C199.375 146.987 199.251 146.414 199.004 146.023C198.77 145.633 198.346 145.438 197.734 145.438C197.135 145.438 196.712 145.633 196.465 146.023C196.23 146.414 196.113 146.987 196.113 147.742V151.453Z" fill="#DD6262"/>
<path d="M147.412 149.246C147.412 147.371 147.946 145.828 149.014 144.617C150.081 143.406 151.234 142.618 152.471 142.254V142.176C151.221 141.629 150.205 140.822 149.424 139.754C148.643 138.673 148.252 137.339 148.252 135.75C148.252 133.471 149.124 131.629 150.869 130.223C152.614 128.803 155.068 128.094 158.232 128.094C161.41 128.094 163.864 128.81 165.596 130.242C167.34 131.661 168.213 133.497 168.213 135.75C168.213 137.352 167.842 138.699 167.1 139.793C166.357 140.874 165.361 141.668 164.111 142.176V142.254C165.374 142.592 166.514 143.374 167.529 144.598C168.558 145.809 169.072 147.358 169.072 149.246C169.072 151.785 168.096 153.79 166.143 155.262C164.189 156.733 161.553 157.469 158.232 157.469C154.925 157.469 152.295 156.733 150.342 155.262C148.389 153.79 147.412 151.785 147.412 149.246ZM155.166 148.504C155.166 149.832 155.426 150.809 155.947 151.434C156.468 152.046 157.23 152.352 158.232 152.352C159.235 152.352 159.997 152.039 160.518 151.414C161.038 150.789 161.299 149.819 161.299 148.504C161.299 147.15 161.038 146.16 160.518 145.535C160.01 144.91 159.248 144.598 158.232 144.598C157.217 144.598 156.449 144.91 155.928 145.535C155.42 146.16 155.166 147.15 155.166 148.504ZM155.635 136.746C155.635 137.905 155.85 138.797 156.279 139.422C156.709 140.034 157.36 140.34 158.232 140.34C159.105 140.34 159.756 140.034 160.186 139.422C160.628 138.797 160.85 137.905 160.85 136.746C160.85 135.613 160.635 134.754 160.205 134.168C159.775 133.569 159.118 133.27 158.232 133.27C157.334 133.27 156.676 133.562 156.26 134.148C155.843 134.721 155.635 135.587 155.635 136.746Z" fill="#DD6262"/>
<path d="M133.164 157V135.34L125.82 137.781V131.629L135.391 128.367H140.84V157H133.164Z" fill="#DD6262"/>
<path d="M430.258 362H426.326L429.162 357.51L432.879 357.682L430.258 362ZM433.835 362V358.369H431.901L431.203 358.219C429.785 358.219 428.693 357.893 427.927 357.241C427.168 356.582 426.788 355.691 426.788 354.566C426.788 353.456 427.171 352.572 427.938 351.913C428.704 351.254 429.799 350.925 431.225 350.925H437.552V362H433.835ZM432.116 356.092H433.835V353.17H432.116C431.536 353.17 431.121 353.31 430.87 353.589C430.627 353.861 430.505 354.212 430.505 354.642C430.505 355.071 430.627 355.422 430.87 355.694C431.114 355.959 431.529 356.092 432.116 356.092Z" fill="#FF0000" fill-opacity="0.5"/>
<path d="M413.186 362V350.925H416.935V355.759C416.935 355.988 416.927 356.267 416.913 356.597C416.906 356.919 416.884 357.188 416.849 357.402L416.956 357.413C417.049 357.205 417.153 356.991 417.268 356.769C417.382 356.539 417.522 356.26 417.687 355.931L420.437 350.925H424.229V362H420.479V357.112C420.479 356.876 420.479 356.607 420.479 356.307C420.487 356.006 420.497 355.741 420.512 355.512H420.404C420.311 355.727 420.215 355.938 420.114 356.146C420.014 356.353 419.882 356.618 419.717 356.94L416.978 362H413.186Z" fill="#FF0000" fill-opacity="0.5"/>
<path d="M399.486 350.925H403.246V354.975H406.565V350.925H410.325V362H406.565V357.735H403.246V362H399.486V350.925Z" fill="#FF0000" fill-opacity="0.5"/>
<path d="M385.529 358.756C385.529 357.503 386.009 356.564 386.969 355.941C387.928 355.318 389.146 355.003 390.621 354.996H392.791V354.427C392.791 353.99 392.68 353.643 392.458 353.385C392.236 353.12 391.849 352.987 391.298 352.987C390.739 352.987 390.342 353.095 390.105 353.31C389.869 353.524 389.751 353.804 389.751 354.147V354.352H386.12V354.137C386.12 353.091 386.618 352.243 387.613 351.591C388.609 350.939 389.901 350.613 391.491 350.613C393.088 350.613 394.331 350.925 395.219 351.548C396.107 352.171 396.551 353.148 396.551 354.48V359.54C396.551 359.984 396.59 360.41 396.669 360.818C396.755 361.219 396.873 361.556 397.023 361.828V362H393.307C393.221 361.835 393.146 361.628 393.081 361.377C393.024 361.119 392.981 360.868 392.952 360.625C392.744 361.026 392.326 361.388 391.695 361.71C391.072 362.032 390.302 362.193 389.386 362.193C388.269 362.193 387.345 361.91 386.614 361.345C385.891 360.779 385.529 359.916 385.529 358.756ZM389.278 358.412C389.278 358.842 389.4 359.189 389.644 359.454C389.894 359.719 390.285 359.852 390.814 359.852C391.402 359.852 391.878 359.669 392.243 359.304C392.608 358.931 392.791 358.473 392.791 357.929V357.069H391.33C390.621 357.069 390.102 357.184 389.772 357.413C389.443 357.635 389.278 357.968 389.278 358.412Z" fill="#FF0000" fill-opacity="0.5"/>
<path d="M373.775 353.696V350.925H384.099V353.696H380.822V362H377.062V353.696H373.775Z" fill="#FF0000" fill-opacity="0.5"/>
<path d="M360.797 362V350.925H364.546V355.759C364.546 355.988 364.539 356.267 364.524 356.597C364.517 356.919 364.496 357.188 364.46 357.402L364.567 357.413C364.66 357.205 364.764 356.991 364.879 356.769C364.993 356.539 365.133 356.26 365.298 355.931L368.048 350.925H371.84V362H368.091V357.112C368.091 356.876 368.091 356.607 368.091 356.307C368.098 356.006 368.109 355.741 368.123 355.512H368.016C367.923 355.727 367.826 355.938 367.726 356.146C367.625 356.353 367.493 356.618 367.328 356.94L364.589 362H360.797Z" fill="#FF0000" fill-opacity="0.5"/>
<path d="M347.227 350.925H357.947V362H354.188V353.696H350.986V362H347.227V350.925Z" fill="#FF0000" fill-opacity="0.5"/>
<path d="M395.855 334.756C395.855 333.503 396.335 332.564 397.295 331.941C398.255 331.318 399.472 331.003 400.947 330.996H403.117V330.427C403.117 329.99 403.006 329.643 402.784 329.385C402.562 329.12 402.175 328.987 401.624 328.987C401.065 328.987 400.668 329.095 400.432 329.31C400.195 329.524 400.077 329.804 400.077 330.147V330.352H396.446V330.137C396.446 329.091 396.944 328.243 397.939 327.591C398.935 326.939 400.228 326.613 401.817 326.613C403.414 326.613 404.657 326.925 405.545 327.548C406.433 328.171 406.877 329.148 406.877 330.48V335.54C406.877 335.984 406.916 336.41 406.995 336.818C407.081 337.219 407.199 337.556 407.35 337.828V338H403.633C403.547 337.835 403.472 337.628 403.407 337.377C403.35 337.119 403.307 336.868 403.278 336.625C403.071 337.026 402.652 337.388 402.021 337.71C401.398 338.032 400.629 338.193 399.712 338.193C398.595 338.193 397.671 337.91 396.94 337.345C396.217 336.779 395.855 335.916 395.855 334.756ZM399.604 334.412C399.604 334.842 399.726 335.189 399.97 335.454C400.22 335.719 400.611 335.852 401.141 335.852C401.728 335.852 402.204 335.669 402.569 335.304C402.935 334.931 403.117 334.473 403.117 333.929V333.069H401.656C400.947 333.069 400.428 333.184 400.099 333.413C399.769 333.635 399.604 333.968 399.604 334.412Z" fill="#FF0000" fill-opacity="0.5"/>
<path d="M388.796 338.312C386.905 338.312 385.509 337.953 384.606 337.237C383.711 336.514 383.264 335.576 383.264 334.423V334.337H386.83V334.412C386.83 334.827 386.977 335.182 387.271 335.476C387.564 335.762 388.04 335.905 388.699 335.905C389.272 335.905 389.705 335.794 389.999 335.572C390.293 335.343 390.439 335.032 390.439 334.638C390.439 334.265 390.321 333.979 390.085 333.778C389.849 333.578 389.469 333.478 388.946 333.478H387.496V331.297H388.678C389.179 331.297 389.537 331.2 389.752 331.007C389.974 330.813 390.085 330.534 390.085 330.169C390.085 329.804 389.963 329.524 389.72 329.331C389.476 329.131 389.129 329.03 388.678 329.03C388.133 329.03 387.722 329.163 387.442 329.428C387.163 329.693 387.023 330.065 387.023 330.545V330.62H383.457V330.534C383.464 329.295 383.94 328.328 384.886 327.634C385.838 326.939 387.188 326.592 388.936 326.592C390.554 326.592 391.782 326.871 392.62 327.43C393.458 327.981 393.877 328.744 393.877 329.718C393.877 330.391 393.648 330.946 393.189 331.383C392.738 331.82 392.094 332.124 391.256 332.296V332.328C392.244 332.457 392.985 332.74 393.479 333.177C393.974 333.614 394.221 334.197 394.221 334.928C394.221 336.016 393.734 336.854 392.76 337.441C391.786 338.021 390.465 338.312 388.796 338.312Z" fill="#FF0000" fill-opacity="0.5"/>
<path d="M375.42 332.79V329.675H381.833V332.79H375.42Z" fill="#FF0000" fill-opacity="0.5"/>
<path d="M368.509 338.312C366.618 338.312 365.222 337.953 364.319 337.237C363.424 336.514 362.977 335.576 362.977 334.423V334.337H366.543V334.412C366.543 334.827 366.69 335.182 366.983 335.476C367.277 335.762 367.753 335.905 368.412 335.905C368.985 335.905 369.418 335.794 369.712 335.572C370.006 335.343 370.152 335.032 370.152 334.638C370.152 334.265 370.034 333.979 369.798 333.778C369.562 333.578 369.182 333.478 368.659 333.478H367.209V331.297H368.391C368.892 331.297 369.25 331.2 369.465 331.007C369.687 330.813 369.798 330.534 369.798 330.169C369.798 329.804 369.676 329.524 369.433 329.331C369.189 329.131 368.842 329.03 368.391 329.03C367.846 329.03 367.435 329.163 367.155 329.428C366.876 329.693 366.736 330.065 366.736 330.545V330.62H363.17V330.534C363.177 329.295 363.653 328.328 364.599 327.634C365.551 326.939 366.901 326.592 368.648 326.592C370.267 326.592 371.495 326.871 372.333 327.43C373.171 327.981 373.59 328.744 373.59 329.718C373.59 330.391 373.361 330.946 372.902 331.383C372.451 331.82 371.807 332.124 370.969 332.296V332.328C371.957 332.457 372.698 332.74 373.192 333.177C373.687 333.614 373.934 334.197 373.934 334.928C373.934 336.016 373.447 336.854 372.473 337.441C371.499 338.021 370.177 338.312 368.509 338.312Z" fill="#FF0000" fill-opacity="0.5"/>
<path d="M360.644 338H356.776V329.46C356.776 329.181 356.776 328.887 356.776 328.579C356.784 328.271 356.791 327.985 356.798 327.72H356.712C356.612 327.978 356.508 328.225 356.4 328.461C356.3 328.697 356.178 328.966 356.035 329.267L351.652 338H347.463V322.359H351.33V330.889C351.33 331.168 351.326 331.469 351.319 331.791C351.319 332.106 351.316 332.389 351.309 332.64H351.395C351.48 332.425 351.581 332.185 351.695 331.92C351.817 331.648 351.942 331.365 352.071 331.071L356.454 322.359H360.644V338Z" fill="#FF0000" fill-opacity="0.5"/>
<path d="M118.414 102.756C118.414 101.503 118.894 100.564 119.854 99.9414C120.813 99.3184 122.031 99.0033 123.506 98.9961H125.676V98.4268C125.676 97.9899 125.565 97.6426 125.343 97.3848C125.121 97.1198 124.734 96.9873 124.183 96.9873C123.624 96.9873 123.227 97.0947 122.99 97.3096C122.754 97.5244 122.636 97.8037 122.636 98.1475V98.3516H119.005V98.1367C119.005 97.0911 119.503 96.2425 120.498 95.5908C121.493 94.9391 122.786 94.6133 124.376 94.6133C125.973 94.6133 127.216 94.9248 128.104 95.5479C128.992 96.1709 129.436 97.1484 129.436 98.4805V103.54C129.436 103.984 129.475 104.41 129.554 104.818C129.64 105.219 129.758 105.556 129.908 105.828V106H126.191C126.105 105.835 126.03 105.628 125.966 105.377C125.909 105.119 125.866 104.868 125.837 104.625C125.629 105.026 125.21 105.388 124.58 105.71C123.957 106.032 123.187 106.193 122.271 106.193C121.153 106.193 120.229 105.91 119.499 105.345C118.776 104.779 118.414 103.916 118.414 102.756ZM122.163 102.412C122.163 102.842 122.285 103.189 122.528 103.454C122.779 103.719 123.169 103.852 123.699 103.852C124.286 103.852 124.763 103.669 125.128 103.304C125.493 102.931 125.676 102.473 125.676 101.929V101.069H124.215C123.506 101.069 122.987 101.184 122.657 101.413C122.328 101.635 122.163 101.968 122.163 102.412Z" fill="#DD6262"/>
<path d="M106.658 97.6963V94.9248H116.981V97.6963H113.705V106H109.945V97.6963H106.658Z" fill="#DD6262"/>
<path d="M93.7227 110.49V94.9248H97.2998L97.3428 96.1279H97.3965C97.6257 95.7054 98.0231 95.3617 98.5889 95.0967C99.1618 94.8245 99.792 94.6885 100.479 94.6885C101.912 94.6885 103.068 95.1862 103.949 96.1816C104.837 97.1771 105.281 98.5413 105.281 100.274V100.618C105.281 102.337 104.844 103.701 103.971 104.711C103.104 105.714 101.976 106.215 100.587 106.215C99.8994 106.215 99.2764 106.107 98.7178 105.893C98.1663 105.671 97.7546 105.359 97.4824 104.958V110.49H93.7227ZM97.4824 102.122C97.6185 102.494 97.8656 102.817 98.2236 103.089C98.5889 103.361 99.0078 103.497 99.4805 103.497C100.139 103.497 100.633 103.275 100.963 102.831C101.292 102.38 101.457 101.717 101.457 100.844V100.07C101.457 99.1966 101.292 98.5378 100.963 98.0938C100.633 97.6497 100.136 97.4277 99.4697 97.4277C98.9613 97.4277 98.5387 97.5602 98.2021 97.8252C97.8727 98.083 97.6328 98.391 97.4824 98.749V102.122Z" fill="#DD6262"/>
<path d="M79.4004 100.629V100.274C79.4004 98.527 79.959 97.1449 81.0762 96.1279C82.1934 95.1038 83.64 94.5918 85.416 94.5918C87.1921 94.5918 88.6351 95.1038 89.7451 96.1279C90.8623 97.1449 91.4209 98.527 91.4209 100.274V100.629C91.4209 102.383 90.8623 103.769 89.7451 104.786C88.6351 105.803 87.1921 106.312 85.416 106.312C83.6328 106.312 82.1826 105.803 81.0654 104.786C79.9554 103.769 79.4004 102.383 79.4004 100.629ZM83.2354 100.06V100.844C83.2354 101.775 83.4251 102.462 83.8047 102.906C84.1914 103.343 84.7285 103.562 85.416 103.562C86.1035 103.562 86.637 103.343 87.0166 102.906C87.3962 102.462 87.5859 101.775 87.5859 100.844V100.06C87.5859 99.1286 87.389 98.4447 86.9951 98.0078C86.6084 97.571 86.082 97.3525 85.416 97.3525C84.7428 97.3525 84.2093 97.571 83.8154 98.0078C83.4287 98.4447 83.2354 99.1286 83.2354 100.06Z" fill="#DD6262"/>
<path d="M66.3906 94.9248H77.1113V106H73.3516V97.6963H70.1504V106H66.3906V94.9248Z" fill="#DD6262"/>
<path d="M53.0137 100.629V100.274C53.0137 98.5055 53.5544 97.1162 54.6357 96.1064C55.7243 95.0967 57.1566 94.5918 58.9326 94.5918C60.637 94.5918 61.944 94.9964 62.8535 95.8057C63.763 96.6077 64.2572 97.6139 64.3359 98.8242L64.3574 99.0713H60.6943V98.9102C60.6943 98.4303 60.5439 98.0436 60.2432 97.75C59.9495 97.4492 59.5127 97.2988 58.9326 97.2988C58.2523 97.2988 57.7331 97.5387 57.375 98.0186C57.0241 98.4984 56.8486 99.1787 56.8486 100.06V100.844C56.8486 101.725 57.0169 102.409 57.3535 102.896C57.6973 103.382 58.2201 103.626 58.9219 103.626C59.5807 103.626 60.0391 103.465 60.2969 103.143C60.5618 102.82 60.6943 102.441 60.6943 102.004V101.864H64.3467L64.3359 102.047C64.3288 103.243 63.8561 104.253 62.918 105.076C61.9798 105.9 60.6514 106.312 58.9326 106.312C57.1637 106.312 55.735 105.807 54.6465 104.797C53.5579 103.787 53.0137 102.398 53.0137 100.629Z" fill="#DD6262"/>
<path d="M39.873 94.9248H43.6328V98.9746H46.9521V94.9248H50.7119V106H46.9521V101.735H43.6328V106H39.873V94.9248Z" fill="#DD6262"/>
<path d="M25.916 102.756C25.916 101.503 26.3958 100.564 27.3555 99.9414C28.3151 99.3184 29.5326 99.0033 31.0078 98.9961H33.1777V98.4268C33.1777 97.9899 33.0667 97.6426 32.8447 97.3848C32.6227 97.1198 32.236 96.9873 31.6846 96.9873C31.126 96.9873 30.7285 97.0947 30.4922 97.3096C30.2559 97.5244 30.1377 97.8037 30.1377 98.1475V98.3516H26.5068V98.1367C26.5068 97.0911 27.0046 96.2425 28 95.5908C28.9954 94.9391 30.2881 94.6133 31.8779 94.6133C33.4749 94.6133 34.7174 94.9248 35.6055 95.5479C36.4935 96.1709 36.9375 97.1484 36.9375 98.4805V103.54C36.9375 103.984 36.9769 104.41 37.0557 104.818C37.1416 105.219 37.2598 105.556 37.4102 105.828V106H33.6934C33.6074 105.835 33.5322 105.628 33.4678 105.377C33.4105 105.119 33.3675 104.868 33.3389 104.625C33.1312 105.026 32.7122 105.388 32.082 105.71C31.459 106.032 30.6891 106.193 29.7725 106.193C28.6553 106.193 27.7314 105.91 27.001 105.345C26.2777 104.779 25.916 103.916 25.916 102.756ZM29.665 102.412C29.665 102.842 29.7868 103.189 30.0303 103.454C30.2809 103.719 30.6712 103.852 31.2012 103.852C31.7884 103.852 32.2646 103.669 32.6299 103.304C32.9951 102.931 33.1777 102.473 33.1777 101.929V101.069H31.7168C31.0078 101.069 30.4886 101.184 30.1592 101.413C29.8298 101.635 29.665 101.968 29.665 102.412Z" fill="#DD6262"/>
<path d="M12.582 110.49V94.9248H16.1592L16.2021 96.1279H16.2559C16.485 95.7054 16.8825 95.3617 17.4482 95.0967C18.0212 94.8245 18.6514 94.6885 19.3389 94.6885C20.7712 94.6885 21.9277 95.1862 22.8086 96.1816C23.6966 97.1771 24.1406 98.5413 24.1406 100.274V100.618C24.1406 102.337 23.7038 103.701 22.8301 104.711C21.9635 105.714 20.8356 106.215 19.4463 106.215C18.7588 106.215 18.1357 106.107 17.5771 105.893C17.0257 105.671 16.6139 105.359 16.3418 104.958V110.49H12.582ZM16.3418 102.122C16.4779 102.494 16.7249 102.817 17.083 103.089C17.4482 103.361 17.8672 103.497 18.3398 103.497C18.9987 103.497 19.4928 103.275 19.8223 102.831C20.1517 102.38 20.3164 101.717 20.3164 100.844V100.07C20.3164 99.1966 20.1517 98.5378 19.8223 98.0938C19.4928 97.6497 18.9951 97.4277 18.3291 97.4277C17.8206 97.4277 17.3981 97.5602 17.0615 97.8252C16.7321 98.083 16.4922 98.391 16.3418 98.749V102.122Z" fill="#DD6262"/>
<path d="M0.3125 97.6963V94.9248H10.6357V97.6963H7.35938V106H3.59961V97.6963H0.3125Z" fill="#DD6262"/>
<path d="M49.8555 78.7559C49.8555 77.5026 50.3353 76.5645 51.2949 75.9414C52.2546 75.3184 53.472 75.0033 54.9473 74.9961H57.1172V74.4268C57.1172 73.9899 57.0062 73.6426 56.7842 73.3848C56.5622 73.1198 56.1755 72.9873 55.624 72.9873C55.0654 72.9873 54.668 73.0947 54.4316 73.3096C54.1953 73.5244 54.0771 73.8037 54.0771 74.1475V74.3516H50.4463V74.1367C50.4463 73.0911 50.944 72.2425 51.9395 71.5908C52.9349 70.9391 54.2275 70.6133 55.8174 70.6133C57.4144 70.6133 58.6569 70.9248 59.5449 71.5479C60.4329 72.1709 60.877 73.1484 60.877 74.4805V79.54C60.877 79.984 60.9163 80.4102 60.9951 80.8184C61.0811 81.2194 61.1992 81.556 61.3496 81.8281V82H57.6328C57.5469 81.8353 57.4717 81.6276 57.4072 81.377C57.3499 81.1191 57.307 80.8685 57.2783 80.625C57.0706 81.026 56.6517 81.3877 56.0215 81.71C55.3984 82.0322 54.6286 82.1934 53.7119 82.1934C52.5947 82.1934 51.6709 81.9105 50.9404 81.3447C50.2171 80.779 49.8555 79.916 49.8555 78.7559ZM53.6045 78.4121C53.6045 78.8418 53.7262 79.1891 53.9697 79.4541C54.2204 79.7191 54.6107 79.8516 55.1406 79.8516C55.7279 79.8516 56.2041 79.6689 56.5693 79.3037C56.9346 78.9313 57.1172 78.473 57.1172 77.9287V77.0693H55.6562C54.9473 77.0693 54.4281 77.1839 54.0986 77.4131C53.7692 77.6351 53.6045 77.9681 53.6045 78.4121Z" fill="#DD6262"/>
<path d="M42.7939 82.3115C40.9033 82.3115 39.5068 81.9535 38.6045 81.2373C37.7093 80.514 37.2617 79.5758 37.2617 78.4229V78.3369H40.8281V78.4121C40.8281 78.8275 40.9749 79.182 41.2686 79.4756C41.5622 79.762 42.0384 79.9053 42.6973 79.9053C43.2702 79.9053 43.7035 79.7943 43.9971 79.5723C44.2907 79.3431 44.4375 79.0316 44.4375 78.6377C44.4375 78.2653 44.3193 77.9788 44.083 77.7783C43.8467 77.5778 43.4671 77.4775 42.9443 77.4775H41.4941V75.2969H42.6758C43.1771 75.2969 43.5352 75.2002 43.75 75.0068C43.972 74.8135 44.083 74.5342 44.083 74.1689C44.083 73.8037 43.9613 73.5244 43.7178 73.3311C43.4743 73.1305 43.127 73.0303 42.6758 73.0303C42.1315 73.0303 41.7197 73.1628 41.4404 73.4277C41.1611 73.6927 41.0215 74.0651 41.0215 74.5449V74.6201H37.4551V74.5342C37.4622 73.2952 37.9385 72.3285 38.8838 71.6338C39.8363 70.9391 41.1862 70.5918 42.9336 70.5918C44.5521 70.5918 45.7803 70.8711 46.6182 71.4297C47.4561 71.9811 47.875 72.7438 47.875 73.7178C47.875 74.391 47.6458 74.946 47.1875 75.3828C46.7363 75.8197 46.0918 76.124 45.2539 76.2959V76.3281C46.2422 76.457 46.9834 76.7399 47.4775 77.1768C47.9717 77.6136 48.2188 78.1973 48.2188 78.9277C48.2188 80.0163 47.7318 80.8542 46.7578 81.4414C45.7839 82.0215 44.4626 82.3115 42.7939 82.3115Z" fill="#DD6262"/>
<path d="M29.418 76.79V73.6748H35.8311V76.79H29.418Z" fill="#DD6262"/>
<path d="M22.5088 82.3115C20.6182 82.3115 19.2217 81.9535 18.3193 81.2373C17.4242 80.514 16.9766 79.5758 16.9766 78.4229V78.3369H20.543V78.4121C20.543 78.8275 20.6898 79.182 20.9834 79.4756C21.277 79.762 21.7533 79.9053 22.4121 79.9053C22.985 79.9053 23.4183 79.7943 23.7119 79.5723C24.0055 79.3431 24.1523 79.0316 24.1523 78.6377C24.1523 78.2653 24.0342 77.9788 23.7979 77.7783C23.5615 77.5778 23.182 77.4775 22.6592 77.4775H21.209V75.2969H22.3906C22.8919 75.2969 23.25 75.2002 23.4648 75.0068C23.6868 74.8135 23.7979 74.5342 23.7979 74.1689C23.7979 73.8037 23.6761 73.5244 23.4326 73.3311C23.1891 73.1305 22.8418 73.0303 22.3906 73.0303C21.8464 73.0303 21.4346 73.1628 21.1553 73.4277C20.876 73.6927 20.7363 74.0651 20.7363 74.5449V74.6201H17.1699V74.5342C17.1771 73.2952 17.6533 72.3285 18.5986 71.6338C19.5511 70.9391 20.901 70.5918 22.6484 70.5918C24.2669 70.5918 25.4951 70.8711 26.333 71.4297C27.1709 71.9811 27.5898 72.7438 27.5898 73.7178C27.5898 74.391 27.3607 74.946 26.9023 75.3828C26.4512 75.8197 25.8066 76.124 24.9688 76.2959V76.3281C25.957 76.457 26.6982 76.7399 27.1924 77.1768C27.6865 77.6136 27.9336 78.1973 27.9336 78.9277C27.9336 80.0163 27.4466 80.8542 26.4727 81.4414C25.4987 82.0215 24.1774 82.3115 22.5088 82.3115Z" fill="#DD6262"/>
<path d="M14.6416 82H10.7744V73.46C10.7744 73.1807 10.7744 72.887 10.7744 72.5791C10.7816 72.2712 10.7887 71.9847 10.7959 71.7197H10.71C10.6097 71.9775 10.5059 72.2246 10.3984 72.4609C10.2982 72.6973 10.1764 72.9658 10.0332 73.2666L5.65039 82H1.46094V66.3594H5.32812V74.8887C5.32812 75.168 5.32454 75.4688 5.31738 75.791C5.31738 76.1061 5.3138 76.389 5.30664 76.6396H5.39258C5.47852 76.4248 5.57878 76.1849 5.69336 75.9199C5.8151 75.6478 5.94043 75.3649 6.06934 75.0713L10.4521 66.3594H14.6416V82Z" fill="#DD6262"/>
<path d="M394.904 425.136C394.428 425.136 393.995 425.097 393.604 425.019C393.214 424.948 392.923 424.869 392.731 424.784L393.498 422.174C394.08 422.33 394.599 422.398 395.053 422.377C395.508 422.355 395.909 422.185 396.257 421.865C396.612 421.546 396.925 421.024 397.195 420.299L397.589 419.212L391.602 402.636H395.011L399.155 415.335H399.325L403.469 402.636H406.889L400.146 421.183C399.833 422.036 399.435 422.756 398.952 423.346C398.469 423.943 397.894 424.39 397.227 424.688C396.559 424.987 395.785 425.136 394.904 425.136Z" fill="#969AAD"/>
<path d="M374.932 425.136V402.636H378.042V405.289H378.309C378.493 404.948 378.76 404.554 379.108 404.106C379.456 403.659 379.939 403.268 380.557 402.934C381.175 402.593 381.991 402.423 383.007 402.423C384.328 402.423 385.507 402.757 386.544 403.424C387.581 404.092 388.394 405.054 388.983 406.311C389.58 407.568 389.878 409.081 389.878 410.85C389.878 412.618 389.584 414.134 388.994 415.399C388.405 416.656 387.595 417.625 386.565 418.307C385.535 418.982 384.36 419.319 383.039 419.319C382.045 419.319 381.231 419.152 380.599 418.818C379.974 418.485 379.484 418.094 379.129 417.647C378.774 417.199 378.501 416.801 378.309 416.453H378.117V425.136H374.932ZM378.053 410.818C378.053 411.968 378.22 412.977 378.554 413.843C378.888 414.71 379.371 415.388 380.003 415.878C380.635 416.361 381.409 416.603 382.325 416.603C383.277 416.603 384.072 416.35 384.711 415.846C385.351 415.335 385.834 414.642 386.16 413.769C386.494 412.895 386.661 411.911 386.661 410.818C386.661 409.738 386.498 408.769 386.171 407.909C385.851 407.05 385.368 406.372 384.722 405.875C384.083 405.377 383.284 405.129 382.325 405.129C381.402 405.129 380.621 405.367 379.981 405.843C379.349 406.318 378.87 406.983 378.543 407.835C378.216 408.687 378.053 409.681 378.053 410.818Z" fill="#969AAD"/>
<path d="M364.377 419.33C362.765 419.33 361.377 418.985 360.212 418.296C359.054 417.6 358.159 416.624 357.527 415.367C356.902 414.103 356.59 412.622 356.59 410.924C356.59 409.248 356.902 407.771 357.527 406.492C358.159 405.214 359.04 404.216 360.169 403.499C361.306 402.782 362.634 402.423 364.154 402.423C365.077 402.423 365.972 402.576 366.838 402.881C367.705 403.186 368.483 403.666 369.172 404.319C369.86 404.973 370.404 405.821 370.801 406.865C371.199 407.902 371.398 409.163 371.398 410.647V411.777H358.39V409.39H368.277C368.277 408.552 368.106 407.81 367.765 407.164C367.424 406.51 366.945 405.995 366.327 405.619C365.716 405.242 364.999 405.054 364.175 405.054C363.28 405.054 362.499 405.274 361.831 405.715C361.171 406.148 360.659 406.716 360.297 407.419C359.942 408.115 359.765 408.872 359.765 409.688V411.553C359.765 412.647 359.956 413.577 360.34 414.344C360.73 415.111 361.274 415.697 361.97 416.102C362.666 416.5 363.479 416.698 364.409 416.698C365.013 416.698 365.564 416.613 366.061 416.443C366.558 416.265 366.988 416.002 367.35 415.654C367.712 415.306 367.989 414.877 368.181 414.365L371.196 414.909C370.954 415.796 370.521 416.574 369.896 417.242C369.278 417.902 368.5 418.417 367.563 418.786C366.632 419.149 365.571 419.33 364.377 419.33Z" fill="#969AAD"/>
<path d="M342.834 424.572V397.182H346.019V424.572H342.834ZM342.834 419.33C341.676 419.33 340.621 419.131 339.67 418.733C338.718 418.329 337.898 417.753 337.209 417.008C336.52 416.262 335.987 415.371 335.611 414.334C335.241 413.297 335.057 412.15 335.057 410.893C335.057 409.621 335.241 408.467 335.611 407.43C335.987 406.393 336.52 405.502 337.209 404.756C337.898 404.01 338.718 403.435 339.67 403.03C340.621 402.626 341.676 402.423 342.834 402.423H343.622V419.33H342.834ZM342.834 416.645H343.281V405.108H342.834C342.067 405.108 341.399 405.264 340.831 405.577C340.263 405.882 339.79 406.305 339.414 406.844C339.037 407.377 338.753 407.991 338.562 408.687C338.377 409.383 338.285 410.118 338.285 410.893C338.285 411.93 338.452 412.885 338.785 413.758C339.119 414.625 339.623 415.324 340.298 415.857C340.973 416.383 341.818 416.645 342.834 416.645ZM346.019 419.33H345.22V402.423H346.019C347.177 402.423 348.231 402.626 349.183 403.03C350.135 403.435 350.952 404.01 351.633 404.756C352.322 405.502 352.851 406.393 353.221 407.43C353.597 408.467 353.785 409.621 353.785 410.893C353.785 412.15 353.597 413.297 353.221 414.334C352.851 415.371 352.322 416.262 351.633 417.008C350.952 417.753 350.135 418.329 349.183 418.733C348.231 419.131 347.177 419.33 346.019 419.33ZM346.019 416.645C346.786 416.645 347.454 416.496 348.022 416.198C348.59 415.893 349.062 415.474 349.439 414.941C349.815 414.401 350.096 413.787 350.28 413.098C350.465 412.402 350.557 411.667 350.557 410.893C350.557 409.863 350.39 408.911 350.057 408.037C349.73 407.157 349.229 406.45 348.555 405.917C347.88 405.378 347.035 405.108 346.019 405.108H345.561V416.645H346.019Z" fill="#969AAD"/>
<path d="M325.663 419.33C324.079 419.33 322.716 418.971 321.572 418.254C320.436 417.529 319.562 416.532 318.951 415.26C318.341 413.989 318.035 412.533 318.035 410.892C318.035 409.23 318.348 407.764 318.973 406.492C319.598 405.214 320.478 404.216 321.615 403.499C322.751 402.782 324.09 402.423 325.631 402.423C326.874 402.423 327.982 402.654 328.955 403.115C329.928 403.57 330.713 404.209 331.309 405.033C331.913 405.857 332.272 406.819 332.385 407.92H329.285C329.115 407.153 328.724 406.492 328.113 405.938C327.51 405.384 326.7 405.108 325.684 405.108C324.797 405.108 324.019 405.342 323.351 405.811C322.691 406.272 322.176 406.933 321.806 407.792C321.437 408.644 321.252 409.653 321.252 410.818C321.252 412.011 321.434 413.041 321.796 413.907C322.158 414.774 322.669 415.445 323.33 415.921C323.998 416.397 324.782 416.634 325.684 416.634C326.288 416.634 326.835 416.524 327.325 416.304C327.822 416.077 328.238 415.754 328.571 415.335C328.912 414.916 329.15 414.411 329.285 413.822H332.385C332.272 414.88 331.927 415.825 331.352 416.656C330.777 417.487 330.006 418.14 329.04 418.616C328.081 419.092 326.956 419.33 325.663 419.33Z" fill="#969AAD"/>
<path d="M307.587 419.33C306.053 419.33 304.714 418.978 303.57 418.275C302.427 417.572 301.539 416.588 300.907 415.324C300.275 414.06 299.959 412.583 299.959 410.892C299.959 409.195 300.275 407.71 300.907 406.439C301.539 405.168 302.427 404.181 303.57 403.478C304.714 402.774 306.053 402.423 307.587 402.423C309.121 402.423 310.46 402.774 311.603 403.478C312.747 404.181 313.634 405.168 314.267 406.439C314.899 407.71 315.215 409.195 315.215 410.892C315.215 412.583 314.899 414.06 314.267 415.324C313.634 416.588 312.747 417.572 311.603 418.275C310.46 418.978 309.121 419.33 307.587 419.33ZM307.597 416.656C308.592 416.656 309.416 416.393 310.069 415.867C310.722 415.342 311.205 414.642 311.518 413.769C311.838 412.895 311.997 411.933 311.997 410.882C311.997 409.838 311.838 408.879 311.518 408.005C311.205 407.125 310.722 406.418 310.069 405.885C309.416 405.353 308.592 405.086 307.597 405.086C306.596 405.086 305.765 405.353 305.105 405.885C304.451 406.418 303.965 407.125 303.645 408.005C303.333 408.879 303.176 409.838 303.176 410.882C303.176 411.933 303.333 412.895 303.645 413.769C303.965 414.642 304.451 415.342 305.105 415.867C305.765 416.393 306.596 416.656 307.597 416.656Z" fill="#969AAD"/>
<path d="M287.201 415.058L292.485 402.636H295.233L288.383 418.999H286.018L279.307 402.636H282.023L287.201 415.058ZM281.139 402.636V418.999H278.018V402.636H281.139ZM293.348 418.999V402.636H296.448V418.999H293.348Z" fill="#969AAD"/>
<path d="M260.842 405.384V402.636H274.649V405.384H269.311V418.999H266.2V405.384H260.842Z" fill="#969AAD"/>
<path d="M250.553 419.362C249.516 419.362 248.578 419.17 247.74 418.786C246.902 418.396 246.238 417.831 245.748 417.093C245.265 416.354 245.023 415.448 245.023 414.376C245.023 413.453 245.201 412.693 245.556 412.096C245.911 411.5 246.391 411.027 246.994 410.679C247.598 410.331 248.273 410.068 249.018 409.891C249.764 409.713 250.524 409.578 251.298 409.486C252.278 409.372 253.074 409.28 253.685 409.209C254.295 409.131 254.739 409.007 255.016 408.836C255.293 408.666 255.432 408.389 255.432 408.005V407.931C255.432 407 255.169 406.279 254.643 405.768C254.125 405.257 253.351 405.001 252.321 405.001C251.249 405.001 250.403 405.239 249.786 405.715C249.175 406.184 248.752 406.706 248.518 407.281L245.524 406.599C245.879 405.605 246.398 404.802 247.08 404.191C247.768 403.573 248.56 403.126 249.455 402.849C250.35 402.565 251.291 402.423 252.278 402.423C252.932 402.423 253.624 402.501 254.356 402.657C255.094 402.806 255.783 403.083 256.423 403.488C257.069 403.893 257.598 404.472 258.01 405.225C258.422 405.97 258.628 406.94 258.628 408.133V419H255.517V416.762H255.389C255.183 417.174 254.874 417.579 254.462 417.977C254.05 418.375 253.521 418.705 252.875 418.968C252.229 419.23 251.455 419.362 250.553 419.362ZM251.245 416.805C252.126 416.805 252.879 416.631 253.504 416.283C254.136 415.935 254.615 415.48 254.942 414.919C255.276 414.351 255.442 413.744 255.442 413.098V410.988C255.329 411.102 255.109 411.208 254.782 411.308C254.462 411.4 254.097 411.482 253.685 411.553C253.273 411.617 252.871 411.677 252.481 411.734C252.09 411.784 251.764 411.826 251.501 411.862C250.883 411.94 250.318 412.071 249.807 412.256C249.303 412.441 248.898 412.707 248.592 413.055C248.294 413.396 248.145 413.85 248.145 414.419C248.145 415.207 248.436 415.804 249.018 416.208C249.601 416.606 250.343 416.805 251.245 416.805Z" fill="#969AAD"/>
<path d="M220.859 418.999V402.636H227.646C229.492 402.636 230.955 403.03 232.035 403.818C233.114 404.6 233.654 405.661 233.654 407.004C233.654 407.962 233.349 408.722 232.738 409.283C232.127 409.845 231.317 410.221 230.309 410.413C231.04 410.498 231.712 410.718 232.322 411.073C232.933 411.421 233.423 411.89 233.793 412.479C234.169 413.069 234.357 413.772 234.357 414.589C234.357 415.455 234.134 416.222 233.686 416.89C233.239 417.551 232.589 418.069 231.736 418.445C230.891 418.815 229.872 418.999 228.679 418.999H220.859ZM223.853 416.336H228.679C229.467 416.336 230.085 416.148 230.533 415.771C230.98 415.395 231.204 414.884 231.204 414.237C231.204 413.477 230.98 412.881 230.533 412.448C230.085 412.007 229.467 411.787 228.679 411.787H223.853V416.336ZM223.853 409.454H227.678C228.274 409.454 228.786 409.369 229.212 409.198C229.645 409.028 229.975 408.786 230.202 408.474C230.437 408.154 230.554 407.778 230.554 407.345C230.554 406.712 230.295 406.219 229.776 405.864C229.258 405.509 228.548 405.331 227.646 405.331H223.853V409.454Z" fill="#969AAD"/>
<path d="M192.143 408.261H196.895C198.897 408.261 200.439 408.758 201.518 409.752C202.598 410.747 203.137 412.028 203.137 413.598C203.137 414.621 202.896 415.541 202.413 416.357C201.93 417.174 201.223 417.82 200.293 418.296C199.363 418.765 198.23 418.999 196.895 418.999H189.746V402.636H192.868V416.251H196.895C197.811 416.251 198.564 416.013 199.153 415.537C199.743 415.054 200.037 414.44 200.037 413.694C200.037 412.906 199.743 412.263 199.153 411.766C198.564 411.261 197.811 411.009 196.895 411.009H192.143V408.261ZM205.46 418.999V402.636H208.645V418.999H205.46Z" fill="#969AAD"/>
<path d="M179.618 419.33C178.034 419.33 176.671 418.971 175.527 418.254C174.391 417.529 173.517 416.532 172.906 415.26C172.296 413.989 171.99 412.533 171.99 410.892C171.99 409.23 172.303 407.764 172.928 406.492C173.553 405.214 174.433 404.216 175.57 403.499C176.706 402.782 178.045 402.423 179.586 402.423C180.829 402.423 181.937 402.654 182.91 403.115C183.883 403.57 184.668 404.209 185.264 405.033C185.868 405.857 186.227 406.819 186.34 407.92H183.24C183.07 407.153 182.679 406.492 182.068 405.938C181.465 405.384 180.655 405.108 179.639 405.108C178.752 405.108 177.974 405.342 177.306 405.811C176.646 406.272 176.131 406.933 175.762 407.792C175.392 408.644 175.208 409.653 175.208 410.818C175.208 412.011 175.389 413.041 175.751 413.907C176.113 414.774 176.624 415.445 177.285 415.921C177.953 416.397 178.737 416.634 179.639 416.634C180.243 416.634 180.79 416.524 181.28 416.304C181.777 416.077 182.193 415.754 182.526 415.335C182.867 414.916 183.105 414.411 183.24 413.822H186.34C186.227 414.88 185.882 415.825 185.307 416.656C184.732 417.487 183.961 418.14 182.995 418.616C182.036 419.092 180.911 419.33 179.618 419.33Z" fill="#969AAD"/>
<path d="M161.542 419.33C160.008 419.33 158.669 418.978 157.526 418.275C156.382 417.572 155.494 416.588 154.862 415.324C154.23 414.06 153.914 412.583 153.914 410.892C153.914 409.195 154.23 407.71 154.862 406.439C155.494 405.168 156.382 404.181 157.526 403.478C158.669 402.774 160.008 402.423 161.542 402.423C163.076 402.423 164.415 402.774 165.558 403.478C166.702 404.181 167.589 405.168 168.222 406.439C168.854 407.71 169.17 409.195 169.17 410.892C169.17 412.583 168.854 414.06 168.222 415.324C167.589 416.588 166.702 417.572 165.558 418.275C164.415 418.978 163.076 419.33 161.542 419.33ZM161.553 416.656C162.547 416.656 163.371 416.393 164.024 415.867C164.678 415.342 165.161 414.642 165.473 413.769C165.793 412.895 165.952 411.933 165.952 410.882C165.952 409.838 165.793 408.879 165.473 408.005C165.161 407.125 164.678 406.418 164.024 405.885C163.371 405.353 162.547 405.086 161.553 405.086C160.551 405.086 159.72 405.353 159.06 405.885C158.406 406.418 157.92 407.125 157.6 408.005C157.288 408.879 157.131 409.838 157.131 410.882C157.131 411.933 157.288 412.895 157.6 413.769C157.92 414.642 158.406 415.342 159.06 415.867C159.72 416.393 160.551 416.656 161.553 416.656Z" fill="#969AAD"/>
<path d="M136.133 425.136V402.636H139.244V405.289H139.51C139.695 404.948 139.961 404.554 140.309 404.106C140.657 403.659 141.14 403.268 141.758 402.934C142.376 402.593 143.192 402.423 144.208 402.423C145.529 402.423 146.708 402.757 147.745 403.424C148.782 404.092 149.595 405.054 150.185 406.311C150.781 407.568 151.08 409.081 151.08 410.85C151.08 412.618 150.785 414.134 150.195 415.399C149.606 416.656 148.796 417.625 147.766 418.307C146.737 418.982 145.561 419.319 144.24 419.319C143.246 419.319 142.433 419.152 141.8 418.818C141.175 418.485 140.685 418.094 140.33 417.647C139.975 417.199 139.702 416.801 139.51 416.453H139.318V425.136H136.133ZM139.254 410.818C139.254 411.968 139.421 412.977 139.755 413.843C140.089 414.71 140.572 415.388 141.204 415.878C141.836 416.361 142.61 416.603 143.526 416.603C144.478 416.603 145.273 416.35 145.913 415.846C146.552 415.335 147.035 414.642 147.362 413.769C147.695 412.895 147.862 411.911 147.862 410.818C147.862 409.738 147.699 408.769 147.372 407.909C147.053 407.05 146.57 406.372 145.923 405.875C145.284 405.377 144.485 405.129 143.526 405.129C142.603 405.129 141.822 405.367 141.183 405.843C140.55 406.318 140.071 406.983 139.744 407.835C139.418 408.687 139.254 409.681 139.254 410.818Z" fill="#969AAD"/>
<path d="M130.828 396.542L132.149 398.555C131.659 399.003 131.102 399.323 130.477 399.514C129.859 399.699 129.145 399.816 128.335 399.866C127.526 399.908 126.599 399.948 125.555 399.983C124.376 400.019 123.406 400.274 122.646 400.75C121.887 401.219 121.301 401.915 120.889 402.838C120.484 403.754 120.221 404.905 120.1 406.29H120.303C120.835 405.274 121.574 404.514 122.519 404.01C123.47 403.506 124.539 403.254 125.725 403.254C127.046 403.254 128.222 403.555 129.252 404.159C130.281 404.763 131.091 405.647 131.681 406.812C132.277 407.97 132.575 409.386 132.575 411.063C132.575 412.76 132.263 414.227 131.638 415.462C131.02 416.698 130.146 417.653 129.017 418.328C127.895 418.996 126.57 419.33 125.044 419.33C123.517 419.33 122.185 418.985 121.048 418.296C119.919 417.6 119.042 416.57 118.417 415.207C117.799 413.843 117.49 412.16 117.49 410.157V408.538C117.49 404.795 118.158 401.979 119.493 400.09C120.828 398.2 122.824 397.231 125.48 397.181C126.34 397.16 127.107 397.156 127.781 397.171C128.456 397.178 129.046 397.146 129.55 397.075C130.061 396.997 130.487 396.819 130.828 396.542ZM125.054 416.656C125.942 416.656 126.705 416.432 127.345 415.984C127.991 415.53 128.488 414.887 128.836 414.056C129.184 413.225 129.358 412.245 129.358 411.116C129.358 410.008 129.184 409.067 128.836 408.293C128.488 407.519 127.991 406.929 127.345 406.524C126.698 406.112 125.924 405.906 125.022 405.906C124.355 405.906 123.758 406.024 123.232 406.258C122.707 406.485 122.256 406.823 121.879 407.27C121.51 407.717 121.222 408.264 121.017 408.911C120.818 409.55 120.711 410.285 120.697 411.116C120.697 412.806 121.084 414.152 121.858 415.153C122.639 416.155 123.705 416.656 125.054 416.656Z" fill="#969AAD"/>
<path d="M97.4263 408.261H102.178C104.181 408.261 105.722 408.758 106.801 409.752C107.881 410.747 108.421 412.028 108.421 413.598C108.421 414.621 108.179 415.541 107.696 416.357C107.213 417.174 106.507 417.82 105.576 418.296C104.646 418.765 103.513 418.999 102.178 418.999H95.0293V402.636H98.1507V416.251H102.178C103.094 416.251 103.847 416.013 104.436 415.537C105.026 415.054 105.32 414.44 105.32 413.694C105.32 412.906 105.026 412.263 104.436 411.766C103.847 411.261 103.094 411.009 102.178 411.009H97.4263V408.261ZM110.743 418.999V402.636H113.928V418.999H110.743Z" fill="#969AAD"/>
<path d="M75.6562 419V397.182H83.6463C85.1946 397.182 86.4766 397.437 87.4922 397.949C88.5078 398.453 89.2678 399.138 89.772 400.005C90.2763 400.864 90.5284 401.834 90.5284 402.913C90.5284 403.822 90.3615 404.589 90.0277 405.214C89.6939 405.832 89.2464 406.329 88.6854 406.706C88.1314 407.075 87.5206 407.345 86.853 407.515V407.729C87.5774 407.764 88.2841 407.998 88.973 408.432C89.669 408.858 90.2443 409.465 90.6989 410.253C91.1534 411.042 91.3807 412.001 91.3807 413.13C91.3807 414.245 91.1179 415.246 90.5923 416.134C90.0739 417.015 89.2713 417.714 88.1847 418.233C87.098 418.744 85.7095 419 84.0192 419H75.6562ZM78.9482 416.177H83.6996C85.2763 416.177 86.4055 415.871 87.0874 415.26C87.7692 414.65 88.1101 413.886 88.1101 412.97C88.1101 412.281 87.9361 411.649 87.5881 411.074C87.2401 410.498 86.7429 410.04 86.0966 409.699C85.4574 409.358 84.6974 409.188 83.8168 409.188H78.9482V416.177ZM78.9482 406.621H83.3587C84.0973 406.621 84.7614 406.479 85.3509 406.194C85.9474 405.91 86.4197 405.513 86.7678 405.001C87.1229 404.483 87.3004 403.872 87.3004 403.169C87.3004 402.267 86.9844 401.51 86.3523 400.9C85.7202 400.289 84.7507 399.983 83.4439 399.983H78.9482V406.621Z" fill="#969AAD"/>
<defs>
<linearGradient id="paint0_linear_2803_568" x1="343.703" y1="106.215" x2="131.871" y2="318.047" gradientUnits="userSpaceOnUse">
<stop stop-color="#969AAD"/>
<stop offset="1" stop-color="#969AAD" stop-opacity="0"/>
</linearGradient>
<linearGradient id="paint1_linear_2803_568" x1="343.256" y1="106.365" x2="60.7055" y2="294.972" gradientUnits="userSpaceOnUse">
<stop stop-color="#FF0000"/>
<stop offset="1" stop-color="#FF0000" stop-opacity="0"/>
</linearGradient>
<linearGradient id="paint2_linear_2803_568" x1="343.256" y1="106.365" x2="60.7055" y2="294.972" gradientUnits="userSpaceOnUse">
<stop stop-color="#FF0000"/>
<stop offset="1" stop-color="#FF0000" stop-opacity="0"/>
</linearGradient>
<linearGradient id="paint3_linear_2803_568" x1="343.849" y1="107.068" x2="61.2987" y2="295.675" gradientUnits="userSpaceOnUse">
<stop stop-color="#FF0000"/>
<stop offset="1" stop-color="#FF0000" stop-opacity="0"/>
</linearGradient>
</defs>
</svg>
