<svg width="471" height="425" viewBox="0 0 471 425" fill="none" xmlns="http://www.w3.org/2000/svg">
<path d="M344.7 318.047C286.204 376.543 191.364 376.543 132.868 318.047C74.3721 259.552 74.3721 164.711 132.868 106.215C191.364 47.7191 286.204 47.7191 344.7 106.215C403.196 164.711 403.196 259.552 344.7 318.047Z" fill="url(#paint0_linear_1810_89)" fill-opacity="0.14"/>
<path d="M388.187 212.431C388.187 232.922 383.988 253.197 375.85 272.003C367.712 290.809 355.806 307.748 340.869 321.776C325.931 335.803 308.277 346.621 288.997 353.563C269.717 360.504 249.219 363.421 228.768 362.135L238.187 212.431L388.187 212.431Z" fill="url(#paint1_linear_1810_89)" fill-opacity="0.3"/>
<path d="M388.187 212.431C388.187 232.922 383.988 253.197 375.85 272.003C367.712 290.809 355.806 307.748 340.869 321.776C325.931 335.803 308.277 346.621 288.997 353.563C269.717 360.504 249.219 363.421 228.768 362.135L238.187 212.431L388.187 212.431Z" fill="url(#paint2_linear_1810_89)" fill-opacity="0.3"/>
<path d="M93.8909 174.311C101.258 146.816 116.296 121.986 137.248 102.719C158.201 83.4522 184.203 70.5448 212.217 65.5042L238.78 213.134L93.8909 174.311Z" fill="url(#paint3_linear_1810_89)" fill-opacity="0.3"/>
<path d="M93.8909 174.311C101.258 146.816 116.296 121.986 137.248 102.719C158.201 83.4522 184.203 70.5448 212.217 65.5042L238.78 213.134L93.8909 174.311Z" fill="#563B1D"/>
<path d="M324.357 260.464V256.997C324.357 254.474 325.131 252.505 326.677 251.089C328.223 249.673 330.29 248.965 332.878 248.965C335.482 248.965 337.549 249.681 339.079 251.113C340.625 252.546 341.398 254.507 341.398 256.997V260.464C341.398 263.149 340.625 265.225 339.079 266.689C337.533 268.154 335.466 268.887 332.878 268.887C330.29 268.887 328.223 268.154 326.677 266.689C325.131 265.225 324.357 263.149 324.357 260.464ZM330.9 261.27C330.9 262.262 331.047 262.987 331.34 263.442C331.649 263.882 332.162 264.102 332.878 264.102C333.594 264.102 334.099 263.882 334.392 263.442C334.701 262.987 334.855 262.262 334.855 261.27V256.68C334.855 255.703 334.709 254.971 334.416 254.482C334.123 253.994 333.61 253.75 332.878 253.75C332.146 253.75 331.633 253.994 331.34 254.482C331.047 254.971 330.9 255.703 330.9 256.68V261.27ZM357.707 251.479L338.005 285.732L332.634 282.656L352.238 248.574L357.707 251.479ZM348.845 277.236V273.77C348.845 271.247 349.618 269.277 351.164 267.861C352.71 266.445 354.777 265.737 357.365 265.737C359.969 265.737 362.036 266.453 363.566 267.886C365.113 269.318 365.886 271.279 365.886 273.77V277.236C365.886 279.922 365.113 281.997 363.566 283.462C362.02 284.927 359.953 285.659 357.365 285.659C354.777 285.659 352.71 284.927 351.164 283.462C349.618 281.997 348.845 279.922 348.845 277.236ZM355.388 278.042C355.388 279.035 355.534 279.759 355.827 280.215C356.136 280.654 356.649 280.874 357.365 280.874C358.081 280.874 358.586 280.654 358.879 280.215C359.188 279.759 359.343 279.035 359.343 278.042V273.452C359.343 272.476 359.196 271.743 358.903 271.255C358.61 270.767 358.098 270.522 357.365 270.522C356.633 270.522 356.12 270.767 355.827 271.255C355.534 271.743 355.388 272.476 355.388 273.452V278.042Z" fill="#FF0000" fill-opacity="0.5"/>
<path d="M295.125 270.425V268.643C295.125 262.604 296.948 257.835 300.594 254.336C304.24 250.82 309.497 249.062 316.365 249.062H318.318V256.729H316.634C312.76 256.729 309.782 257.689 307.698 259.609C305.631 261.514 304.598 265.078 304.598 270.303L304.842 271.035C304.842 274.29 305.2 276.423 305.916 277.432C306.632 278.441 307.592 278.945 308.797 278.945C309.985 278.945 310.88 278.538 311.482 277.725C312.101 276.895 312.41 275.275 312.41 272.866C312.41 271.141 312.117 269.814 311.531 268.887C310.945 267.943 310.034 267.471 308.797 267.471C307.641 267.471 306.689 267.91 305.94 268.789C305.208 269.668 304.842 270.824 304.842 272.256L303.035 272.231C303.035 269.041 303.906 266.502 305.647 264.614C307.405 262.71 309.611 261.758 312.264 261.758C315.307 261.758 317.724 262.743 319.515 264.712C321.305 266.681 322.2 269.448 322.2 273.013C322.2 276.886 320.963 279.954 318.489 282.217C316.015 284.463 312.776 285.586 308.772 285.586C304.655 285.586 301.351 284.373 298.86 281.948C296.37 279.523 295.125 275.682 295.125 270.425Z" fill="#FF0000" fill-opacity="0.5"/>
<path d="M266.014 285V279.141L278.929 265.957C279.922 264.867 280.743 263.792 281.395 262.734C282.046 261.66 282.371 260.529 282.371 259.341C282.371 258.088 282.094 257.168 281.541 256.582C281.004 255.996 280.223 255.703 279.197 255.703C278.156 255.703 277.334 256.069 276.731 256.802C276.146 257.518 275.853 258.877 275.853 260.879V261.953H265.965V259.829C265.965 256.704 267.169 254.1 269.578 252.017C271.987 249.917 275.226 248.867 279.295 248.867C283.657 248.867 286.904 249.779 289.036 251.602C291.168 253.424 292.243 255.866 292.259 258.926C292.259 261.286 291.73 263.361 290.672 265.151C289.63 266.925 288.239 268.683 286.497 270.425L280.076 277.383H293.016V285H266.014Z" fill="#FF0000" fill-opacity="0.5"/>
<path d="M172.031 137.488V134.539C172.031 132.547 172.656 130.991 173.906 129.871C175.156 128.738 176.816 128.172 178.887 128.172C180.996 128.172 182.663 128.738 183.887 129.871C185.124 131.004 185.742 132.56 185.742 134.539V137.488C185.742 139.598 185.124 141.232 183.887 142.391C182.65 143.536 180.983 144.109 178.887 144.109C176.803 144.109 175.137 143.536 173.887 142.391C172.65 141.232 172.031 139.598 172.031 137.488ZM177.266 138.035C177.266 138.803 177.389 139.37 177.637 139.734C177.884 140.099 178.301 140.281 178.887 140.281C179.486 140.281 179.909 140.099 180.156 139.734C180.404 139.37 180.527 138.803 180.527 138.035V134.324C180.527 133.569 180.404 132.996 180.156 132.605C179.922 132.215 179.499 132.02 178.887 132.02C178.288 132.02 177.865 132.215 177.617 132.605C177.383 132.996 177.266 133.569 177.266 134.324V138.035ZM198.887 130.086L183.047 157.605L178.867 155.203L194.629 127.801L198.887 130.086ZM191.875 150.906V147.957C191.875 145.965 192.5 144.409 193.75 143.289C195 142.156 196.66 141.59 198.73 141.59C200.84 141.59 202.507 142.156 203.73 143.289C204.967 144.422 205.586 145.978 205.586 147.957V150.906C205.586 153.016 204.967 154.65 203.73 155.809C202.493 156.954 200.827 157.527 198.73 157.527C196.647 157.527 194.98 156.954 193.73 155.809C192.493 154.65 191.875 153.016 191.875 150.906ZM197.109 151.453C197.109 152.221 197.233 152.788 197.48 153.152C197.728 153.517 198.145 153.699 198.73 153.699C199.329 153.699 199.753 153.517 200 153.152C200.247 152.788 200.371 152.221 200.371 151.453V147.742C200.371 146.987 200.247 146.414 200 146.023C199.766 145.633 199.342 145.438 198.73 145.438C198.132 145.438 197.708 145.633 197.461 146.023C197.227 146.414 197.109 146.987 197.109 147.742V151.453Z" fill="#DD6262"/>
<path d="M148.409 149.246C148.409 147.371 148.943 145.828 150.011 144.617C151.078 143.406 152.231 142.618 153.468 142.254V142.176C152.218 141.629 151.202 140.822 150.421 139.754C149.64 138.673 149.249 137.339 149.249 135.75C149.249 133.471 150.121 131.629 151.866 130.223C153.611 128.803 156.065 128.094 159.229 128.094C162.407 128.094 164.861 128.81 166.593 130.242C168.338 131.661 169.21 133.497 169.21 135.75C169.21 137.352 168.839 138.699 168.097 139.793C167.354 140.874 166.358 141.668 165.108 142.176V142.254C166.371 142.592 167.511 143.374 168.526 144.598C169.555 145.809 170.069 147.358 170.069 149.246C170.069 151.785 169.093 153.79 167.14 155.262C165.187 156.733 162.55 157.469 159.229 157.469C155.922 157.469 153.292 156.733 151.339 155.262C149.386 153.79 148.409 151.785 148.409 149.246ZM156.163 148.504C156.163 149.832 156.424 150.809 156.944 151.434C157.465 152.046 158.227 152.352 159.229 152.352C160.232 152.352 160.994 152.039 161.515 151.414C162.035 150.789 162.296 149.819 162.296 148.504C162.296 147.15 162.035 146.16 161.515 145.535C161.007 144.91 160.245 144.598 159.229 144.598C158.214 144.598 157.446 144.91 156.925 145.535C156.417 146.16 156.163 147.15 156.163 148.504ZM156.632 136.746C156.632 137.905 156.847 138.797 157.276 139.422C157.706 140.034 158.357 140.34 159.229 140.34C160.102 140.34 160.753 140.034 161.183 139.422C161.625 138.797 161.847 137.905 161.847 136.746C161.847 135.613 161.632 134.754 161.202 134.168C160.772 133.569 160.115 133.27 159.229 133.27C158.331 133.27 157.674 133.562 157.257 134.148C156.84 134.721 156.632 135.587 156.632 136.746Z" fill="#DD6262"/>
<path d="M134.161 157V135.34L126.817 137.781V131.629L136.388 128.367H141.837V157H134.161Z" fill="#DD6262"/>
<path d="M411.046 359.682V352.925H414.806V359.649C414.806 360.33 414.938 360.799 415.203 361.057C415.475 361.314 415.833 361.443 416.277 361.443C416.693 361.443 417.062 361.318 417.384 361.067C417.713 360.817 417.957 360.509 418.114 360.144V352.925H421.874V364H418.243L418.189 362.765H418.136C417.849 363.209 417.42 363.567 416.847 363.839C416.274 364.104 415.618 364.236 414.881 364.236C413.771 364.236 412.854 363.885 412.131 363.184C411.408 362.482 411.046 361.314 411.046 359.682Z" fill="#FF0000" fill-opacity="0.5"/>
<path d="M397.551 364V352.925H401.182L401.235 354.16H401.289C401.533 353.745 401.937 353.397 402.503 353.118C403.076 352.832 403.724 352.688 404.447 352.688C405.593 352.688 406.535 353.011 407.272 353.655C408.01 354.3 408.379 355.438 408.379 357.071V364H404.619V357.125C404.619 356.523 404.49 356.104 404.232 355.868C403.982 355.625 403.624 355.503 403.158 355.503C402.779 355.503 402.417 355.618 402.073 355.847C401.737 356.069 401.482 356.387 401.311 356.803V364H397.551Z" fill="#FF0000" fill-opacity="0.5"/>
<path d="M384.089 358.618V358.274C384.089 356.549 384.633 355.174 385.722 354.149C386.817 353.118 388.217 352.603 389.922 352.603C391.626 352.603 392.965 353.09 393.939 354.063C394.913 355.037 395.4 356.384 395.4 358.103V359.295H386.56V357.286H391.716V357.071C391.716 356.541 391.558 356.101 391.243 355.75C390.928 355.392 390.473 355.213 389.879 355.213C389.213 355.213 388.701 355.46 388.343 355.954C387.992 356.441 387.816 357.132 387.816 358.027V358.812C387.816 359.714 388.01 360.412 388.396 360.906C388.783 361.393 389.338 361.637 390.062 361.637C390.599 361.637 391.061 361.501 391.447 361.229C391.841 360.956 392.156 360.641 392.393 360.283L395.196 361.755C394.838 362.543 394.219 363.169 393.338 363.635C392.457 364.093 391.39 364.322 390.137 364.322C388.268 364.322 386.792 363.807 385.711 362.775C384.63 361.744 384.089 360.358 384.089 358.618Z" fill="#FF0000" fill-opacity="0.5"/>
<path d="M364.224 364V352.936H367.844L367.897 354.214H367.951C368.266 353.72 368.703 353.344 369.262 353.086C369.827 352.828 370.436 352.699 371.088 352.699C371.876 352.699 372.56 352.868 373.14 353.204C373.72 353.534 374.139 354.01 374.396 354.633H374.429C374.787 354.017 375.31 353.541 375.997 353.204C376.685 352.868 377.401 352.699 378.146 352.699C379.248 352.699 380.147 353.05 380.842 353.752C381.536 354.447 381.884 355.614 381.884 357.254V364H378.113V357.211C378.113 356.638 377.995 356.212 377.759 355.933C377.53 355.653 377.182 355.51 376.717 355.503C376.309 355.503 375.951 355.618 375.643 355.847C375.342 356.076 375.105 356.402 374.934 356.824V364H371.163V357.243C371.163 356.656 371.045 356.219 370.809 355.933C370.572 355.646 370.214 355.503 369.734 355.503C369.326 355.503 368.975 355.614 368.682 355.836C368.388 356.058 368.155 356.387 367.983 356.824V364H364.224Z" fill="#FF0000" fill-opacity="0.5"/>
<path d="M459.357 344.447L459.4 341.837C459.594 341.887 459.801 341.926 460.023 341.955C460.253 341.991 460.467 342.009 460.668 342.009C461.155 342.009 461.577 341.869 461.936 341.59C462.294 341.311 462.576 340.77 462.784 339.968L462.666 339.957L458.294 328.925H462.118L464.181 334.93C464.267 335.18 464.327 335.406 464.363 335.606C464.406 335.807 464.449 336.022 464.492 336.251H464.557C464.607 336.022 464.65 335.807 464.686 335.606C464.729 335.406 464.793 335.18 464.879 334.93L466.92 328.925H470.282L465.771 341.031C465.291 342.299 464.675 343.223 463.923 343.803C463.171 344.39 462.243 344.684 461.141 344.684C460.754 344.684 460.414 344.666 460.12 344.63C459.834 344.594 459.579 344.533 459.357 344.447Z" fill="#FF0000" fill-opacity="0.5"/>
<path d="M452.921 340V323.715H456.691V340H452.921Z" fill="#FF0000" fill-opacity="0.5"/>
<path d="M446.258 340V328.925H450.039V340H446.258ZM446 325.81C446 325.265 446.186 324.807 446.559 324.435C446.931 324.055 447.461 323.865 448.148 323.865C448.843 323.865 449.377 324.051 449.749 324.424C450.121 324.796 450.308 325.258 450.308 325.81C450.308 326.361 450.118 326.826 449.738 327.206C449.366 327.586 448.832 327.775 448.138 327.775C447.45 327.775 446.92 327.586 446.548 327.206C446.183 326.826 446 326.361 446 325.81Z" fill="#FF0000" fill-opacity="0.5"/>
<path d="M432.28 336.756C432.28 335.503 432.76 334.564 433.72 333.941C434.679 333.318 435.897 333.003 437.372 332.996H439.542V332.427C439.542 331.99 439.431 331.643 439.209 331.385C438.987 331.12 438.6 330.987 438.049 330.987C437.49 330.987 437.093 331.095 436.856 331.31C436.62 331.524 436.502 331.804 436.502 332.147V332.352H432.871V332.137C432.871 331.091 433.369 330.243 434.364 329.591C435.36 328.939 436.652 328.613 438.242 328.613C439.839 328.613 441.082 328.925 441.97 329.548C442.858 330.171 443.302 331.148 443.302 332.48V337.54C443.302 337.984 443.341 338.41 443.42 338.818C443.506 339.219 443.624 339.556 443.774 339.828V340H440.058C439.972 339.835 439.896 339.628 439.832 339.377C439.775 339.119 439.732 338.868 439.703 338.625C439.495 339.026 439.076 339.388 438.446 339.71C437.823 340.032 437.053 340.193 436.137 340.193C435.02 340.193 434.096 339.91 433.365 339.345C432.642 338.779 432.28 337.916 432.28 336.756ZM436.029 336.412C436.029 336.842 436.151 337.189 436.395 337.454C436.645 337.719 437.035 337.852 437.565 337.852C438.153 337.852 438.629 337.669 438.994 337.304C439.359 336.931 439.542 336.473 439.542 335.929V335.069H438.081C437.372 335.069 436.853 335.184 436.523 335.413C436.194 335.635 436.029 335.968 436.029 336.412Z" fill="#FF0000" fill-opacity="0.5"/>
<path d="M418.366 334.64V334.296C418.366 332.634 418.817 331.288 419.72 330.257C420.622 329.226 421.793 328.71 423.232 328.71C423.927 328.71 424.529 328.832 425.037 329.075C425.553 329.319 425.943 329.637 426.208 330.031V323.715H429.946V340H426.337L426.283 338.722H426.24C426.004 339.151 425.617 339.509 425.08 339.796C424.55 340.075 423.938 340.215 423.243 340.215C421.718 340.215 420.522 339.699 419.655 338.668C418.796 337.63 418.366 336.287 418.366 334.64ZM422.201 334.79C422.201 335.614 422.373 336.272 422.717 336.767C423.068 337.254 423.58 337.497 424.253 337.497C424.726 337.497 425.127 337.368 425.456 337.11C425.785 336.853 426.025 336.541 426.176 336.176V332.738C426.033 332.366 425.803 332.054 425.488 331.804C425.173 331.553 424.765 331.428 424.264 331.428C423.598 331.428 423.086 331.675 422.728 332.169C422.377 332.663 422.201 333.318 422.201 334.135V334.79Z" fill="#FF0000" fill-opacity="0.5"/>
<path d="M404.375 340V328.925H408.027L408.081 330.128H408.135C408.35 329.72 408.654 329.372 409.048 329.086C409.442 328.792 409.871 328.646 410.337 328.646C410.502 328.646 410.663 328.663 410.82 328.699C410.978 328.735 411.089 328.767 411.153 328.796V331.89C411.032 331.847 410.896 331.818 410.745 331.804C410.595 331.782 410.43 331.771 410.251 331.771C409.814 331.771 409.402 331.911 409.016 332.19C408.629 332.463 408.346 332.817 408.167 333.254V340H404.375Z" fill="#FF0000" fill-opacity="0.5"/>
<path d="M390.687 335.682V328.925H394.446V335.649C394.446 336.33 394.579 336.799 394.844 337.057C395.116 337.314 395.474 337.443 395.918 337.443C396.333 337.443 396.702 337.318 397.024 337.067C397.354 336.817 397.597 336.509 397.755 336.144V328.925H401.515V340H397.884L397.83 338.765H397.776C397.49 339.209 397.06 339.567 396.487 339.839C395.914 340.104 395.259 340.236 394.521 340.236C393.411 340.236 392.495 339.885 391.771 339.184C391.048 338.482 390.687 337.314 390.687 335.682Z" fill="#FF0000" fill-opacity="0.5"/>
<path d="M376.462 334.629V334.274C376.462 332.527 377.021 331.145 378.138 330.128C379.255 329.104 380.701 328.592 382.478 328.592C384.254 328.592 385.697 329.104 386.807 330.128C387.924 331.145 388.482 332.527 388.482 334.274V334.629C388.482 336.383 387.924 337.769 386.807 338.786C385.697 339.803 384.254 340.312 382.478 340.312C380.694 340.312 379.244 339.803 378.127 338.786C377.017 337.769 376.462 336.383 376.462 334.629ZM380.297 334.06V334.844C380.297 335.775 380.487 336.462 380.866 336.906C381.253 337.343 381.79 337.562 382.478 337.562C383.165 337.562 383.699 337.343 384.078 336.906C384.458 336.462 384.647 335.775 384.647 334.844V334.06C384.647 333.129 384.451 332.445 384.057 332.008C383.67 331.571 383.144 331.353 382.478 331.353C381.804 331.353 381.271 331.571 380.877 332.008C380.49 332.445 380.297 333.129 380.297 334.06Z" fill="#FF0000" fill-opacity="0.5"/>
<path d="M368.037 340V334.457L362.688 324.359H366.963L369.691 329.709C369.785 329.902 369.867 330.092 369.938 330.278C370.01 330.457 370.075 330.64 370.132 330.826H370.207C370.271 330.64 370.336 330.457 370.4 330.278C370.472 330.092 370.558 329.902 370.658 329.709L373.43 324.359H377.136L371.937 334.264V340H368.037Z" fill="#FF0000" fill-opacity="0.5"/>
<path d="M93.6279 105.621V102.925H100.922V105.621H93.6279ZM95.1855 110.498V104.085L95.207 103.806V100.207H98.9131V110.197C98.9131 110.749 99.0026 111.118 99.1816 111.304C99.3678 111.49 99.6221 111.583 99.9443 111.583C100.109 111.583 100.27 111.565 100.428 111.529C100.585 111.493 100.736 111.447 100.879 111.39V113.968C100.707 114.054 100.449 114.129 100.105 114.193C99.7689 114.265 99.3857 114.301 98.9561 114.301C97.8031 114.301 96.8864 113.996 96.2061 113.388C95.5257 112.772 95.1855 111.809 95.1855 110.498Z" fill="#DD6262"/>
<path d="M85.6113 114V102.925H89.2637L89.3174 104.128H89.3711C89.5859 103.72 89.8903 103.372 90.2842 103.086C90.6781 102.792 91.1077 102.646 91.5732 102.646C91.738 102.646 91.8991 102.663 92.0566 102.699C92.2142 102.735 92.3252 102.767 92.3896 102.796V105.89C92.2679 105.847 92.1318 105.818 91.9814 105.804C91.8311 105.782 91.6663 105.771 91.4873 105.771C91.0505 105.771 90.6387 105.911 90.252 106.19C89.8652 106.463 89.5824 106.817 89.4033 107.254V114H85.6113Z" fill="#DD6262"/>
<path d="M71.29 108.629V108.274C71.29 106.527 71.8486 105.145 72.9658 104.128C74.083 103.104 75.5296 102.592 77.3057 102.592C79.0817 102.592 80.5247 103.104 81.6348 104.128C82.752 105.145 83.3105 106.527 83.3105 108.274V108.629C83.3105 110.383 82.752 111.769 81.6348 112.786C80.5247 113.803 79.0817 114.312 77.3057 114.312C75.5225 114.312 74.0723 113.803 72.9551 112.786C71.8451 111.769 71.29 110.383 71.29 108.629ZM75.125 108.06V108.844C75.125 109.775 75.3148 110.462 75.6943 110.906C76.0811 111.343 76.6182 111.562 77.3057 111.562C77.9932 111.562 78.5267 111.343 78.9062 110.906C79.2858 110.462 79.4756 109.775 79.4756 108.844V108.06C79.4756 107.129 79.2786 106.445 78.8848 106.008C78.498 105.571 77.9717 105.353 77.3057 105.353C76.6325 105.353 76.099 105.571 75.7051 106.008C75.3184 106.445 75.125 107.129 75.125 108.06Z" fill="#DD6262"/>
<path d="M57.999 118.49V102.925H61.5762L61.6191 104.128H61.6729C61.902 103.705 62.2995 103.362 62.8652 103.097C63.4382 102.825 64.0684 102.688 64.7559 102.688C66.1882 102.688 67.3447 103.186 68.2256 104.182C69.1136 105.177 69.5576 106.541 69.5576 108.274V108.618C69.5576 110.337 69.1208 111.701 68.2471 112.711C67.3805 113.714 66.2526 114.215 64.8633 114.215C64.1758 114.215 63.5527 114.107 62.9941 113.893C62.4427 113.671 62.0309 113.359 61.7588 112.958V118.49H57.999ZM61.7588 110.122C61.8949 110.494 62.1419 110.817 62.5 111.089C62.8652 111.361 63.2842 111.497 63.7568 111.497C64.4157 111.497 64.9098 111.275 65.2393 110.831C65.5687 110.38 65.7334 109.717 65.7334 108.844V108.07C65.7334 107.197 65.5687 106.538 65.2393 106.094C64.9098 105.65 64.4121 105.428 63.7461 105.428C63.2376 105.428 62.8151 105.56 62.4785 105.825C62.1491 106.083 61.9092 106.391 61.7588 106.749V110.122Z" fill="#DD6262"/>
<path d="M45.0732 110.423L48.6719 110.444V110.648C48.6719 111.121 48.8223 111.458 49.123 111.658C49.431 111.859 49.8535 111.959 50.3906 111.959C50.9206 111.959 51.3145 111.866 51.5723 111.68C51.8372 111.486 51.9697 111.225 51.9697 110.896C51.9697 110.566 51.8158 110.326 51.5078 110.176C51.1999 110.018 50.4372 109.821 49.2197 109.585C47.8519 109.32 46.8743 108.901 46.2871 108.328C45.6999 107.755 45.4062 107.021 45.4062 106.126C45.4062 105.009 45.8574 104.142 46.7598 103.526C47.6693 102.903 48.901 102.592 50.4551 102.592C51.9948 102.592 53.223 102.918 54.1396 103.569C55.0563 104.221 55.5111 105.113 55.5039 106.244V106.405H51.9268V106.201C51.9268 105.814 51.8014 105.517 51.5508 105.31C51.3073 105.102 50.9313 104.998 50.4229 104.998C49.9287 104.998 49.5706 105.077 49.3486 105.234C49.1338 105.392 49.0264 105.61 49.0264 105.89C49.0264 106.169 49.1768 106.395 49.4775 106.566C49.7783 106.731 50.5446 106.928 51.7764 107.157C53.137 107.415 54.1253 107.816 54.7412 108.36C55.3643 108.905 55.6758 109.649 55.6758 110.595C55.6758 111.791 55.2246 112.711 54.3223 113.355C53.4271 113.993 52.1273 114.312 50.4229 114.312C48.7399 114.312 47.4294 113.993 46.4912 113.355C45.5531 112.711 45.0804 111.784 45.0732 110.573V110.423Z" fill="#DD6262"/>
<path d="M32.1055 114V102.925H35.7363L35.79 104.16H35.8438C36.0872 103.745 36.4919 103.397 37.0576 103.118C37.6305 102.832 38.2786 102.688 39.002 102.688C40.1478 102.688 41.0895 103.011 41.8271 103.655C42.5648 104.3 42.9336 105.438 42.9336 107.071V114H39.1738V107.125C39.1738 106.523 39.0449 106.104 38.7871 105.868C38.5365 105.625 38.1784 105.503 37.7129 105.503C37.3333 105.503 36.9717 105.618 36.6279 105.847C36.2913 106.069 36.0371 106.387 35.8652 106.803V114H32.1055Z" fill="#DD6262"/>
<path d="M18.1484 110.756C18.1484 109.503 18.6283 108.564 19.5879 107.941C20.5475 107.318 21.765 107.003 23.2402 106.996H25.4102V106.427C25.4102 105.99 25.2992 105.643 25.0771 105.385C24.8551 105.12 24.4684 104.987 23.917 104.987C23.3584 104.987 22.9609 105.095 22.7246 105.31C22.4883 105.524 22.3701 105.804 22.3701 106.147V106.352H18.7393V106.137C18.7393 105.091 19.237 104.243 20.2324 103.591C21.2279 102.939 22.5205 102.613 24.1104 102.613C25.7074 102.613 26.9499 102.925 27.8379 103.548C28.7259 104.171 29.1699 105.148 29.1699 106.48V111.54C29.1699 111.984 29.2093 112.41 29.2881 112.818C29.374 113.219 29.4922 113.556 29.6426 113.828V114H25.9258C25.8398 113.835 25.7646 113.628 25.7002 113.377C25.6429 113.119 25.5999 112.868 25.5713 112.625C25.3636 113.026 24.9447 113.388 24.3145 113.71C23.6914 114.032 22.9215 114.193 22.0049 114.193C20.8877 114.193 19.9639 113.91 19.2334 113.345C18.5101 112.779 18.1484 111.916 18.1484 110.756ZM21.8975 110.412C21.8975 110.842 22.0192 111.189 22.2627 111.454C22.5133 111.719 22.9036 111.852 23.4336 111.852C24.0208 111.852 24.4971 111.669 24.8623 111.304C25.2275 110.931 25.4102 110.473 25.4102 109.929V109.069H23.9492C23.2402 109.069 22.721 109.184 22.3916 109.413C22.0622 109.635 21.8975 109.968 21.8975 110.412Z" fill="#DD6262"/>
<path d="M10.3359 114V102.925H13.9883L14.042 104.128H14.0957C14.3105 103.72 14.6149 103.372 15.0088 103.086C15.4027 102.792 15.8324 102.646 16.2979 102.646C16.4626 102.646 16.6237 102.663 16.7812 102.699C16.9388 102.735 17.0498 102.767 17.1143 102.796V105.89C16.9925 105.847 16.8564 105.818 16.7061 105.804C16.5557 105.782 16.391 105.771 16.2119 105.771C15.7751 105.771 15.3633 105.911 14.9766 106.19C14.5898 106.463 14.307 106.817 14.1279 107.254V114H10.3359Z" fill="#DD6262"/>
<path d="M1.03125 105.621V102.925H8.3252V105.621H1.03125ZM2.58887 110.498V104.085L2.61035 103.806V100.207H6.31641V110.197C6.31641 110.749 6.40592 111.118 6.58496 111.304C6.77116 111.49 7.02539 111.583 7.34766 111.583C7.51237 111.583 7.6735 111.565 7.83105 111.529C7.98861 111.493 8.139 111.447 8.28223 111.39V113.968C8.11035 114.054 7.85254 114.129 7.50879 114.193C7.1722 114.265 6.78906 114.301 6.35938 114.301C5.20638 114.301 4.28971 113.996 3.60938 113.388C2.92904 112.772 2.58887 111.809 2.58887 110.498Z" fill="#DD6262"/>
<path d="M113.605 94.4473L113.648 91.8369C113.842 91.887 114.049 91.9264 114.271 91.9551C114.501 91.9909 114.715 92.0088 114.916 92.0088C115.403 92.0088 115.826 91.8691 116.184 91.5898C116.542 91.3105 116.825 90.7699 117.032 89.9678L116.914 89.957L112.542 78.9248H116.366L118.429 84.9297C118.515 85.1803 118.576 85.4059 118.611 85.6064C118.654 85.807 118.697 86.0218 118.74 86.251H118.805C118.855 86.0218 118.898 85.807 118.934 85.6064C118.977 85.4059 119.041 85.1803 119.127 84.9297L121.168 78.9248H124.53L120.019 91.0312C119.539 92.2988 118.923 93.2227 118.171 93.8027C117.419 94.39 116.492 94.6836 115.389 94.6836C115.002 94.6836 114.662 94.6657 114.368 94.6299C114.082 94.5941 113.827 94.5332 113.605 94.4473Z" fill="#DD6262"/>
<path d="M100.11 90V73.7148H103.87V80.0527C104.228 79.6159 104.669 79.2793 105.191 79.043C105.714 78.8066 106.316 78.6885 106.996 78.6885C108.421 78.6885 109.556 79.2041 110.401 80.2354C111.254 81.2594 111.68 82.6022 111.68 84.2637V84.6074C111.68 86.2689 111.25 87.6188 110.391 88.6572C109.538 89.6956 108.4 90.2148 106.975 90.2148C106.287 90.2148 105.65 90.0895 105.062 89.8389C104.475 89.5811 104.063 89.2409 103.827 88.8184H103.784L103.73 90H100.11ZM103.87 86.0576C104.006 86.4372 104.239 86.7702 104.568 87.0566C104.898 87.3431 105.335 87.4863 105.879 87.4863C106.538 87.4863 107.028 87.2393 107.351 86.7451C107.68 86.251 107.845 85.5957 107.845 84.7793V84.124C107.845 83.3076 107.684 82.6559 107.361 82.1689C107.039 81.682 106.534 81.4385 105.847 81.4385C105.331 81.4385 104.905 81.5817 104.568 81.8682C104.239 82.1546 104.006 82.4876 103.87 82.8672V86.0576Z" fill="#DD6262"/>
<path d="M80.4473 94.4902V78.9248H84.0244L84.0674 80.1279H84.1211C84.3503 79.7054 84.7477 79.3617 85.3135 79.0967C85.8864 78.8245 86.5166 78.6885 87.2041 78.6885C88.6364 78.6885 89.793 79.1862 90.6738 80.1816C91.5618 81.1771 92.0059 82.5413 92.0059 84.2744V84.6182C92.0059 86.3369 91.569 87.7012 90.6953 88.7109C89.8288 89.7135 88.7008 90.2148 87.3115 90.2148C86.624 90.2148 86.001 90.1074 85.4424 89.8926C84.891 89.6706 84.4792 89.359 84.207 88.958V94.4902H80.4473ZM84.207 86.1221C84.3431 86.4945 84.5902 86.8167 84.9482 87.0889C85.3135 87.361 85.7324 87.4971 86.2051 87.4971C86.8639 87.4971 87.3581 87.2751 87.6875 86.8311C88.0169 86.3799 88.1816 85.7174 88.1816 84.8438V84.0703C88.1816 83.1966 88.0169 82.5378 87.6875 82.0938C87.3581 81.6497 86.8604 81.4277 86.1943 81.4277C85.6859 81.4277 85.2633 81.5602 84.9268 81.8252C84.5973 82.083 84.3574 82.391 84.207 82.749V86.1221Z" fill="#DD6262"/>
<path d="M73.7949 90V78.9248H77.5762V90H73.7949ZM73.5371 75.8096C73.5371 75.2653 73.7233 74.807 74.0957 74.4346C74.4681 74.055 74.998 73.8652 75.6855 73.8652C76.3802 73.8652 76.9137 74.0514 77.2861 74.4238C77.6585 74.7962 77.8447 75.2581 77.8447 75.8096C77.8447 76.361 77.6549 76.8265 77.2754 77.2061C76.903 77.5856 76.3695 77.7754 75.6748 77.7754C74.9873 77.7754 74.4574 77.5856 74.085 77.2061C73.7197 76.8265 73.5371 76.361 73.5371 75.8096Z" fill="#DD6262"/>
<path d="M65.0381 90V78.9248H68.6904L68.7441 80.1279H68.7979C69.0127 79.7197 69.3171 79.3724 69.7109 79.0859C70.1048 78.7923 70.5345 78.6455 71 78.6455C71.1647 78.6455 71.3258 78.6634 71.4834 78.6992C71.641 78.735 71.752 78.7673 71.8164 78.7959V81.8896C71.6947 81.8467 71.5586 81.818 71.4082 81.8037C71.2578 81.7822 71.0931 81.7715 70.9141 81.7715C70.4772 81.7715 70.0654 81.9111 69.6787 82.1904C69.292 82.4626 69.0091 82.8171 68.8301 83.2539V90H65.0381Z" fill="#DD6262"/>
<path d="M55.7324 81.6211V78.9248H63.0264V81.6211H55.7324ZM57.29 86.498V80.085L57.3115 79.8057V76.207H61.0176V86.1973C61.0176 86.7487 61.1071 87.1175 61.2861 87.3037C61.4723 87.4899 61.7266 87.583 62.0488 87.583C62.2135 87.583 62.3747 87.5651 62.5322 87.5293C62.6898 87.4935 62.8402 87.4469 62.9834 87.3896V89.9678C62.8115 90.0537 62.5537 90.1289 62.21 90.1934C61.8734 90.265 61.4902 90.3008 61.0605 90.3008C59.9076 90.3008 58.9909 89.9964 58.3105 89.3877C57.6302 88.7718 57.29 87.8086 57.29 86.498Z" fill="#DD6262"/>
<path d="M42.375 90V78.9248H46.0273L46.0811 80.1279H46.1348C46.3496 79.7197 46.654 79.3724 47.0479 79.0859C47.4417 78.7923 47.8714 78.6455 48.3369 78.6455C48.5016 78.6455 48.6628 78.6634 48.8203 78.6992C48.9779 78.735 49.0889 78.7673 49.1533 78.7959V81.8896C49.0316 81.8467 48.8955 81.818 48.7451 81.8037C48.5947 81.7822 48.43 81.7715 48.251 81.7715C47.8141 81.7715 47.4023 81.9111 47.0156 82.1904C46.6289 82.4626 46.346 82.8171 46.167 83.2539V90H42.375Z" fill="#DD6262"/>
<path d="M28.6875 85.6816V78.9248H32.4473V85.6494C32.4473 86.3298 32.5798 86.7988 32.8447 87.0566C33.1169 87.3145 33.4749 87.4434 33.9189 87.4434C34.3343 87.4434 34.7031 87.318 35.0254 87.0674C35.3548 86.8167 35.5983 86.5088 35.7559 86.1436V78.9248H39.5156V90H35.8848L35.8311 88.7646H35.7773C35.4909 89.2087 35.0612 89.5667 34.4883 89.8389C33.9154 90.1038 33.2601 90.2363 32.5225 90.2363C31.4124 90.2363 30.4958 89.8854 29.7725 89.1836C29.0492 88.4818 28.6875 87.3145 28.6875 85.6816Z" fill="#DD6262"/>
<path d="M14.4609 84.6289V84.2744C14.4609 82.527 15.0195 81.1449 16.1367 80.1279C17.2539 79.1038 18.7005 78.5918 20.4766 78.5918C22.2526 78.5918 23.6956 79.1038 24.8057 80.1279C25.9229 81.1449 26.4814 82.527 26.4814 84.2744V84.6289C26.4814 86.3835 25.9229 87.7692 24.8057 88.7861C23.6956 89.8031 22.2526 90.3115 20.4766 90.3115C18.6934 90.3115 17.2432 89.8031 16.126 88.7861C15.016 87.7692 14.4609 86.3835 14.4609 84.6289ZM18.2959 84.0596V84.8438C18.2959 85.7747 18.4857 86.4622 18.8652 86.9062C19.252 87.3431 19.7891 87.5615 20.4766 87.5615C21.1641 87.5615 21.6976 87.3431 22.0771 86.9062C22.4567 86.4622 22.6465 85.7747 22.6465 84.8438V84.0596C22.6465 83.1286 22.4495 82.4447 22.0557 82.0078C21.6689 81.571 21.1426 81.3525 20.4766 81.3525C19.8034 81.3525 19.2699 81.571 18.876 82.0078C18.4893 82.4447 18.2959 83.1286 18.2959 84.0596Z" fill="#DD6262"/>
<path d="M6.03711 90V84.457L0.6875 74.3594H4.96289L7.69141 79.709C7.78451 79.9023 7.86686 80.0921 7.93848 80.2783C8.01009 80.4574 8.07454 80.64 8.13184 80.8262H8.20703C8.27148 80.64 8.33594 80.4574 8.40039 80.2783C8.47201 80.0921 8.55794 79.9023 8.6582 79.709L11.4297 74.3594H15.1357L9.93652 84.2637V90H6.03711Z" fill="#DD6262"/>
<path d="M319.242 414.284V424H316.057V407.636H319.114V410.299H319.317C319.693 409.433 320.282 408.737 321.085 408.211C321.895 407.686 322.914 407.423 324.143 407.423C325.258 407.423 326.234 407.657 327.072 408.126C327.91 408.588 328.56 409.277 329.022 410.193C329.483 411.109 329.714 412.242 329.714 413.591V424H326.529V413.975C326.529 412.789 326.22 411.862 325.602 411.194C324.984 410.519 324.135 410.182 323.056 410.182C322.317 410.182 321.66 410.342 321.085 410.661C320.517 410.981 320.066 411.45 319.732 412.068C319.405 412.679 319.242 413.417 319.242 414.284Z" fill="#969AAD"/>
<path d="M304.873 424.33C303.339 424.33 302 423.978 300.857 423.275C299.713 422.572 298.825 421.588 298.193 420.324C297.561 419.06 297.245 417.583 297.245 415.892C297.245 414.195 297.561 412.71 298.193 411.439C298.825 410.168 299.713 409.181 300.857 408.478C302 407.774 303.339 407.423 304.873 407.423C306.407 407.423 307.746 407.774 308.889 408.478C310.033 409.181 310.921 410.168 311.553 411.439C312.185 412.71 312.501 414.195 312.501 415.892C312.501 417.583 312.185 419.06 311.553 420.324C310.921 421.588 310.033 422.572 308.889 423.275C307.746 423.978 306.407 424.33 304.873 424.33ZM304.884 421.656C305.878 421.656 306.702 421.393 307.355 420.867C308.009 420.342 308.492 419.642 308.804 418.769C309.124 417.895 309.283 416.933 309.283 415.882C309.283 414.838 309.124 413.879 308.804 413.005C308.492 412.125 308.009 411.418 307.355 410.885C306.702 410.353 305.878 410.086 304.884 410.086C303.882 410.086 303.051 410.353 302.391 410.885C301.737 411.418 301.251 412.125 300.931 413.005C300.619 413.879 300.462 414.838 300.462 415.882C300.462 416.933 300.619 417.895 300.931 418.769C301.251 419.642 301.737 420.342 302.391 420.867C303.051 421.393 303.882 421.656 304.884 421.656Z" fill="#969AAD"/>
<path d="M290.51 423.999V407.636H293.696V423.999H290.51ZM292.119 405.111C291.565 405.111 291.089 404.926 290.691 404.557C290.301 404.18 290.105 403.733 290.105 403.215C290.105 402.689 290.301 402.242 290.691 401.872C291.089 401.496 291.565 401.308 292.119 401.308C292.673 401.308 293.145 401.496 293.536 401.872C293.934 402.242 294.132 402.689 294.132 403.215C294.132 403.733 293.934 404.18 293.536 404.557C293.145 404.926 292.673 405.111 292.119 405.111Z" fill="#969AAD"/>
<path d="M286.688 411.631L283.801 412.142C283.68 411.773 283.488 411.421 283.225 411.088C282.97 410.754 282.622 410.48 282.181 410.267C281.741 410.054 281.191 409.948 280.53 409.948C279.628 409.948 278.875 410.15 278.271 410.555C277.668 410.953 277.366 411.468 277.366 412.1C277.366 412.647 277.568 413.087 277.973 413.421C278.378 413.755 279.031 414.028 279.933 414.241L282.533 414.838C284.039 415.186 285.161 415.722 285.899 416.446C286.638 417.171 287.007 418.112 287.007 419.269C287.007 420.25 286.723 421.123 286.155 421.89C285.594 422.65 284.809 423.247 283.801 423.68C282.799 424.113 281.638 424.33 280.317 424.33C278.485 424.33 276.99 423.939 275.832 423.158C274.674 422.37 273.964 421.251 273.701 419.802L276.78 419.333C276.972 420.136 277.366 420.743 277.963 421.155C278.559 421.56 279.337 421.762 280.296 421.762C281.34 421.762 282.174 421.546 282.799 421.112C283.424 420.672 283.737 420.136 283.737 419.504C283.737 418.992 283.545 418.563 283.161 418.215C282.785 417.867 282.206 417.604 281.425 417.426L278.655 416.819C277.128 416.471 275.999 415.917 275.267 415.157C274.543 414.397 274.181 413.435 274.181 412.27C274.181 411.304 274.45 410.459 274.99 409.735C275.53 409.01 276.276 408.446 277.227 408.041C278.179 407.629 279.269 407.423 280.498 407.423C282.267 407.423 283.659 407.806 284.674 408.573C285.69 409.333 286.361 410.353 286.688 411.631Z" fill="#969AAD"/>
<path d="M270.604 411.631L267.717 412.142C267.596 411.773 267.404 411.421 267.141 411.088C266.886 410.754 266.538 410.48 266.097 410.267C265.657 410.054 265.107 409.948 264.446 409.948C263.544 409.948 262.791 410.15 262.188 410.555C261.584 410.953 261.282 411.468 261.282 412.1C261.282 412.647 261.484 413.087 261.889 413.421C262.294 413.755 262.947 414.028 263.849 414.241L266.449 414.838C267.955 415.186 269.077 415.722 269.815 416.446C270.554 417.171 270.923 418.112 270.923 419.269C270.923 420.25 270.639 421.123 270.071 421.89C269.51 422.65 268.725 423.247 267.717 423.68C266.715 424.113 265.554 424.33 264.233 424.33C262.401 424.33 260.906 423.939 259.748 423.158C258.59 422.37 257.88 421.251 257.617 419.802L260.696 419.333C260.888 420.136 261.282 420.743 261.879 421.155C262.475 421.56 263.253 421.762 264.212 421.762C265.256 421.762 266.09 421.546 266.715 421.112C267.34 420.672 267.653 420.136 267.653 419.504C267.653 418.992 267.461 418.563 267.077 418.215C266.701 417.867 266.122 417.604 265.341 417.426L262.571 416.819C261.044 416.471 259.915 415.917 259.183 415.157C258.459 414.397 258.097 413.435 258.097 412.27C258.097 411.304 258.366 410.459 258.906 409.735C259.446 409.01 260.192 408.446 261.143 408.041C262.095 407.629 263.185 407.423 264.414 407.423C266.183 407.423 267.575 407.806 268.59 408.573C269.606 409.333 270.277 410.353 270.604 411.631Z" fill="#969AAD"/>
<path d="M250.872 423.999V407.636H254.057V423.999H250.872ZM252.48 405.111C251.926 405.111 251.45 404.926 251.053 404.557C250.662 404.18 250.467 403.733 250.467 403.215C250.467 402.689 250.662 402.242 251.053 401.872C251.45 401.496 251.926 401.308 252.48 401.308C253.034 401.308 253.507 401.496 253.897 401.872C254.295 402.242 254.494 402.689 254.494 403.215C254.494 403.733 254.295 404.18 253.897 404.557C253.507 404.926 253.034 405.111 252.48 405.111Z" fill="#969AAD"/>
<path d="M224.357 424V407.636H227.415V410.299H227.617C227.958 409.397 228.516 408.694 229.29 408.19C230.064 407.679 230.991 407.423 232.07 407.423C233.164 407.423 234.08 407.679 234.819 408.19C235.565 408.701 236.115 409.404 236.47 410.299H236.641C237.031 409.426 237.653 408.73 238.505 408.211C239.357 407.686 240.373 407.423 241.552 407.423C243.036 407.423 244.247 407.888 245.185 408.818C246.129 409.749 246.602 411.152 246.602 413.027V424H243.416V413.325C243.416 412.217 243.115 411.414 242.511 410.917C241.907 410.42 241.186 410.171 240.348 410.171C239.311 410.171 238.505 410.491 237.93 411.13C237.355 411.762 237.067 412.576 237.067 413.57V424H233.892V413.122C233.892 412.235 233.615 411.521 233.061 410.981C232.507 410.441 231.786 410.171 230.899 410.171C230.295 410.171 229.737 410.331 229.226 410.651C228.722 410.963 228.313 411.4 228.001 411.961C227.695 412.522 227.543 413.172 227.543 413.911V424H224.357Z" fill="#969AAD"/>
<path d="M213.802 424.33C212.19 424.33 210.802 423.985 209.637 423.296C208.479 422.6 207.584 421.624 206.952 420.367C206.327 419.103 206.015 417.622 206.015 415.924C206.015 414.248 206.327 412.771 206.952 411.492C207.584 410.214 208.465 409.216 209.594 408.499C210.731 407.782 212.059 407.423 213.579 407.423C214.502 407.423 215.397 407.576 216.263 407.881C217.13 408.186 217.907 408.666 218.596 409.319C219.285 409.973 219.829 410.821 220.226 411.865C220.624 412.902 220.823 414.163 220.823 415.647V416.777H207.815V414.39H217.701C217.701 413.552 217.531 412.81 217.19 412.164C216.849 411.51 216.37 410.995 215.752 410.619C215.141 410.242 214.424 410.054 213.6 410.054C212.705 410.054 211.924 410.274 211.256 410.715C210.596 411.148 210.084 411.716 209.722 412.419C209.367 413.115 209.189 413.872 209.189 414.688V416.553C209.189 417.647 209.381 418.577 209.765 419.344C210.155 420.111 210.699 420.697 211.395 421.102C212.091 421.5 212.904 421.698 213.834 421.698C214.438 421.698 214.988 421.613 215.486 421.443C215.983 421.265 216.412 421.002 216.775 420.654C217.137 420.306 217.414 419.877 217.606 419.365L220.62 419.909C220.379 420.796 219.946 421.574 219.321 422.242C218.703 422.902 217.925 423.417 216.988 423.786C216.057 424.149 214.995 424.33 213.802 424.33Z" fill="#969AAD"/>
<path d="M180.37 423.999V421.613L187.753 413.964C188.541 413.133 189.191 412.405 189.702 411.78C190.221 411.148 190.608 410.548 190.864 409.979C191.119 409.411 191.247 408.808 191.247 408.168C191.247 407.444 191.077 406.819 190.736 406.293C190.395 405.761 189.93 405.352 189.34 405.068C188.751 404.777 188.087 404.631 187.348 404.631C186.567 404.631 185.885 404.791 185.302 405.111C184.72 405.43 184.273 405.881 183.96 406.464C183.648 407.046 183.491 407.728 183.491 408.509H180.349C180.349 407.181 180.654 406.02 181.265 405.026C181.876 404.031 182.714 403.261 183.779 402.714C184.844 402.16 186.055 401.883 187.412 401.883C188.783 401.883 189.99 402.156 191.034 402.703C192.085 403.243 192.905 403.982 193.495 404.919C194.084 405.849 194.379 406.901 194.379 408.072C194.379 408.882 194.226 409.674 193.921 410.448C193.623 411.222 193.101 412.085 192.355 413.037C191.609 413.982 190.572 415.129 189.244 416.478L184.908 421.016V421.176H194.731V423.999H180.37Z" fill="#969AAD"/>
<path d="M176.564 413.09C176.564 415.42 176.138 417.423 175.285 419.099C174.433 420.768 173.265 422.053 171.78 422.955C170.303 423.85 168.623 424.298 166.741 424.298C164.852 424.298 163.165 423.85 161.681 422.955C160.204 422.053 159.039 420.764 158.187 419.088C157.334 417.412 156.908 415.413 156.908 413.09C156.908 410.761 157.334 408.761 158.187 407.092C159.039 405.416 160.204 404.131 161.681 403.236C163.165 402.334 164.852 401.883 166.741 401.883C168.623 401.883 170.303 402.334 171.78 403.236C173.265 404.131 174.433 405.416 175.285 407.092C176.138 408.761 176.564 410.761 176.564 413.09ZM173.304 413.09C173.304 411.315 173.016 409.82 172.441 408.605C171.873 407.384 171.091 406.46 170.097 405.835C169.11 405.203 167.991 404.887 166.741 404.887C165.484 404.887 164.362 405.203 163.375 405.835C162.388 406.46 161.606 407.384 161.031 408.605C160.463 409.82 160.179 411.315 160.179 413.09C160.179 414.866 160.463 416.364 161.031 417.586C161.606 418.8 162.388 419.724 163.375 420.356C164.362 420.981 165.484 421.293 166.741 421.293C167.991 421.293 169.11 420.981 170.097 420.356C171.091 419.724 171.873 418.8 172.441 417.586C173.016 416.364 173.304 414.866 173.304 413.09Z" fill="#969AAD"/>
<path d="M153.672 409.276H150.348C150.221 408.566 149.983 407.941 149.635 407.401C149.287 406.862 148.86 406.403 148.356 406.027C147.852 405.651 147.287 405.366 146.662 405.175C146.044 404.983 145.387 404.887 144.691 404.887C143.434 404.887 142.309 405.203 141.314 405.835C140.327 406.467 139.546 407.394 138.971 408.616C138.402 409.837 138.118 411.329 138.118 413.09C138.118 414.866 138.402 416.364 138.971 417.586C139.546 418.808 140.331 419.731 141.325 420.356C142.319 420.981 143.438 421.293 144.681 421.293C145.37 421.293 146.023 421.201 146.641 421.016C147.266 420.825 147.831 420.544 148.335 420.175C148.839 419.805 149.265 419.354 149.613 418.822C149.968 418.282 150.213 417.664 150.348 416.968L153.672 416.979C153.495 418.051 153.15 419.038 152.639 419.94C152.135 420.835 151.485 421.609 150.689 422.263C149.901 422.909 148.999 423.41 147.983 423.765C146.968 424.12 145.86 424.298 144.659 424.298C142.77 424.298 141.087 423.85 139.61 422.955C138.132 422.053 136.968 420.764 136.115 419.088C135.27 417.412 134.848 415.413 134.848 413.09C134.848 410.761 135.274 408.761 136.126 407.092C136.978 405.416 138.143 404.131 139.62 403.236C141.098 402.334 142.777 401.883 144.659 401.883C145.817 401.883 146.897 402.05 147.898 402.384C148.907 402.71 149.812 403.193 150.615 403.832C151.417 404.464 152.081 405.239 152.607 406.155C153.132 407.064 153.488 408.104 153.672 409.276Z" fill="#969AAD"/>
<defs>
<linearGradient id="paint0_linear_1810_89" x1="344.7" y1="106.215" x2="132.868" y2="318.047" gradientUnits="userSpaceOnUse">
<stop stop-color="#969AAD"/>
<stop offset="1" stop-color="#969AAD" stop-opacity="0"/>
</linearGradient>
<linearGradient id="paint1_linear_1810_89" x1="344.253" y1="106.365" x2="61.7025" y2="294.972" gradientUnits="userSpaceOnUse">
<stop stop-color="#FF0000"/>
<stop offset="1" stop-color="#FF0000" stop-opacity="0"/>
</linearGradient>
<linearGradient id="paint2_linear_1810_89" x1="344.253" y1="106.365" x2="61.7025" y2="294.972" gradientUnits="userSpaceOnUse">
<stop stop-color="#FF0000"/>
<stop offset="1" stop-color="#FF0000" stop-opacity="0"/>
</linearGradient>
<linearGradient id="paint3_linear_1810_89" x1="344.846" y1="107.068" x2="62.2958" y2="295.675" gradientUnits="userSpaceOnUse">
<stop stop-color="#FF0000"/>
<stop offset="1" stop-color="#FF0000" stop-opacity="0"/>
</linearGradient>
</defs>
</svg>
