<svg width="467" height="424" viewBox="0 0 467 424" fill="none" xmlns="http://www.w3.org/2000/svg">
<path d="M344.703 318.047C286.207 376.543 191.367 376.543 132.871 318.047C74.375 259.552 74.375 164.711 132.871 106.215C191.367 47.7191 286.207 47.7191 344.703 106.215C403.199 164.711 403.199 259.552 344.703 318.047Z" fill="url(#paint0_linear_1827_89)" fill-opacity="0.14"/>
<path d="M388.189 212.431C388.189 232.922 383.991 253.197 375.853 272.003C367.714 290.809 355.809 307.748 340.872 321.776C325.934 335.803 308.28 346.621 289 353.563C269.72 360.504 249.222 363.421 228.771 362.135L238.189 212.431L388.189 212.431Z" fill="url(#paint1_linear_1827_89)" fill-opacity="0.3"/>
<path d="M388.189 212.431C388.189 232.922 383.991 253.197 375.853 272.003C367.714 290.809 355.809 307.748 340.872 321.776C325.934 335.803 308.28 346.621 289 353.563C269.72 360.504 249.222 363.421 228.771 362.135L238.189 212.431L388.189 212.431Z" fill="url(#paint2_linear_1827_89)" fill-opacity="0.3"/>
<path d="M93.8939 174.311C101.261 146.816 116.299 121.986 137.251 102.719C158.204 83.4522 184.206 70.5448 212.22 65.5042L238.783 213.134L93.8939 174.311Z" fill="url(#paint3_linear_1827_89)" fill-opacity="0.3"/>
<path d="M93.8939 174.311C101.261 146.816 116.299 121.986 137.251 102.719C158.204 83.4522 184.206 70.5448 212.22 65.5042L238.783 213.134L93.8939 174.311Z" fill="url(#paint4_linear_1827_89)"/>
<path d="M324.359 260.464V256.997C324.359 254.474 325.132 252.505 326.679 251.089C328.225 249.673 330.292 248.965 332.88 248.965C335.484 248.965 337.551 249.681 339.081 251.113C340.627 252.546 341.4 254.507 341.4 256.997V260.464C341.4 263.149 340.627 265.225 339.081 266.689C337.535 268.154 335.468 268.887 332.88 268.887C330.292 268.887 328.225 268.154 326.679 266.689C325.132 265.225 324.359 263.149 324.359 260.464ZM330.902 261.27C330.902 262.262 331.049 262.987 331.342 263.442C331.651 263.882 332.164 264.102 332.88 264.102C333.596 264.102 334.101 263.882 334.394 263.442C334.703 262.987 334.857 262.262 334.857 261.27V256.68C334.857 255.703 334.711 254.971 334.418 254.482C334.125 253.994 333.612 253.75 332.88 253.75C332.147 253.75 331.635 253.994 331.342 254.482C331.049 254.971 330.902 255.703 330.902 256.68V261.27ZM357.709 251.479L338.007 285.732L332.636 282.656L352.24 248.574L357.709 251.479ZM348.847 277.236V273.77C348.847 271.247 349.62 269.277 351.166 267.861C352.712 266.445 354.779 265.737 357.367 265.737C359.971 265.737 362.038 266.453 363.568 267.886C365.115 269.318 365.888 271.279 365.888 273.77V277.236C365.888 279.922 365.115 281.997 363.568 283.462C362.022 284.927 359.955 285.659 357.367 285.659C354.779 285.659 352.712 284.927 351.166 283.462C349.62 281.997 348.847 279.922 348.847 277.236ZM355.39 278.042C355.39 279.035 355.536 279.759 355.829 280.215C356.138 280.654 356.651 280.874 357.367 280.874C358.083 280.874 358.588 280.654 358.881 280.215C359.19 279.759 359.345 279.035 359.345 278.042V273.452C359.345 272.476 359.198 271.743 358.905 271.255C358.612 270.767 358.1 270.522 357.367 270.522C356.635 270.522 356.122 270.767 355.829 271.255C355.536 271.743 355.39 272.476 355.39 273.452V278.042Z" fill="#FF0000"/>
<path d="M295.127 270.425V268.643C295.127 262.604 296.95 257.835 300.596 254.336C304.242 250.82 309.499 249.062 316.367 249.062H318.32V256.729H316.636C312.762 256.729 309.784 257.689 307.7 259.609C305.633 261.514 304.6 265.078 304.6 270.303L304.844 271.035C304.844 274.29 305.202 276.423 305.918 277.432C306.634 278.441 307.594 278.945 308.799 278.945C309.987 278.945 310.882 278.538 311.484 277.725C312.103 276.895 312.412 275.275 312.412 272.866C312.412 271.141 312.119 269.814 311.533 268.887C310.947 267.943 310.036 267.471 308.799 267.471C307.643 267.471 306.691 267.91 305.942 268.789C305.21 269.668 304.844 270.824 304.844 272.256L303.037 272.231C303.037 269.041 303.908 266.502 305.649 264.614C307.407 262.71 309.613 261.758 312.266 261.758C315.309 261.758 317.726 262.743 319.517 264.712C321.307 266.681 322.202 269.448 322.202 273.013C322.202 276.886 320.965 279.954 318.491 282.217C316.017 284.463 312.778 285.586 308.774 285.586C304.657 285.586 301.353 284.373 298.862 281.948C296.372 279.523 295.127 275.682 295.127 270.425Z" fill="#FF0000"/>
<path d="M266.016 285V279.141L278.931 265.957C279.924 264.867 280.745 263.792 281.396 262.734C282.048 261.66 282.373 260.529 282.373 259.341C282.373 258.088 282.096 257.168 281.543 256.582C281.006 255.996 280.225 255.703 279.199 255.703C278.158 255.703 277.336 256.069 276.733 256.802C276.147 257.518 275.854 258.877 275.854 260.879V261.953H265.967V259.829C265.967 256.704 267.171 254.1 269.58 252.017C271.989 249.917 275.228 248.867 279.297 248.867C283.659 248.867 286.906 249.779 289.038 251.602C291.17 253.424 292.244 255.866 292.261 258.926C292.261 261.286 291.732 263.361 290.674 265.151C289.632 266.925 288.241 268.683 286.499 270.425L280.078 277.383H293.018V285H266.016Z" fill="#FF0000"/>
<path d="M172.035 137.488V134.539C172.035 132.547 172.66 130.991 173.91 129.871C175.16 128.738 176.82 128.172 178.891 128.172C181 128.172 182.667 128.738 183.891 129.871C185.128 131.004 185.746 132.56 185.746 134.539V137.488C185.746 139.598 185.128 141.232 183.891 142.391C182.654 143.536 180.987 144.109 178.891 144.109C176.807 144.109 175.141 143.536 173.891 142.391C172.654 141.232 172.035 139.598 172.035 137.488ZM177.27 138.035C177.27 138.803 177.393 139.37 177.641 139.734C177.888 140.099 178.305 140.281 178.891 140.281C179.49 140.281 179.913 140.099 180.16 139.734C180.408 139.37 180.531 138.803 180.531 138.035V134.324C180.531 133.569 180.408 132.996 180.16 132.605C179.926 132.215 179.503 132.02 178.891 132.02C178.292 132.02 177.868 132.215 177.621 132.605C177.387 132.996 177.27 133.569 177.27 134.324V138.035ZM198.891 130.086L183.051 157.605L178.871 155.203L194.633 127.801L198.891 130.086ZM191.879 150.906V147.957C191.879 145.965 192.504 144.409 193.754 143.289C195.004 142.156 196.664 141.59 198.734 141.59C200.844 141.59 202.51 142.156 203.734 143.289C204.971 144.422 205.59 145.978 205.59 147.957V150.906C205.59 153.016 204.971 154.65 203.734 155.809C202.497 156.954 200.831 157.527 198.734 157.527C196.651 157.527 194.984 156.954 193.734 155.809C192.497 154.65 191.879 153.016 191.879 150.906ZM197.113 151.453C197.113 152.221 197.237 152.788 197.484 153.152C197.732 153.517 198.148 153.699 198.734 153.699C199.333 153.699 199.757 153.517 200.004 153.152C200.251 152.788 200.375 152.221 200.375 151.453V147.742C200.375 146.987 200.251 146.414 200.004 146.023C199.77 145.633 199.346 145.438 198.734 145.438C198.135 145.438 197.712 145.633 197.465 146.023C197.23 146.414 197.113 146.987 197.113 147.742V151.453Z" fill="#DD6262"/>
<path d="M148.412 149.246C148.412 147.371 148.946 145.828 150.014 144.617C151.081 143.406 152.234 142.618 153.471 142.254V142.176C152.221 141.629 151.205 140.822 150.424 139.754C149.643 138.673 149.252 137.339 149.252 135.75C149.252 133.471 150.124 131.629 151.869 130.223C153.614 128.803 156.068 128.094 159.232 128.094C162.41 128.094 164.864 128.81 166.596 130.242C168.34 131.661 169.213 133.497 169.213 135.75C169.213 137.352 168.842 138.699 168.1 139.793C167.357 140.874 166.361 141.668 165.111 142.176V142.254C166.374 142.592 167.514 143.374 168.529 144.598C169.558 145.809 170.072 147.358 170.072 149.246C170.072 151.785 169.096 153.79 167.143 155.262C165.189 156.733 162.553 157.469 159.232 157.469C155.925 157.469 153.295 156.733 151.342 155.262C149.389 153.79 148.412 151.785 148.412 149.246ZM156.166 148.504C156.166 149.832 156.426 150.809 156.947 151.434C157.468 152.046 158.23 152.352 159.232 152.352C160.235 152.352 160.997 152.039 161.518 151.414C162.038 150.789 162.299 149.819 162.299 148.504C162.299 147.15 162.038 146.16 161.518 145.535C161.01 144.91 160.248 144.598 159.232 144.598C158.217 144.598 157.449 144.91 156.928 145.535C156.42 146.16 156.166 147.15 156.166 148.504ZM156.635 136.746C156.635 137.905 156.85 138.797 157.279 139.422C157.709 140.034 158.36 140.34 159.232 140.34C160.105 140.34 160.756 140.034 161.186 139.422C161.628 138.797 161.85 137.905 161.85 136.746C161.85 135.613 161.635 134.754 161.205 134.168C160.775 133.569 160.118 133.27 159.232 133.27C158.334 133.27 157.676 133.562 157.26 134.148C156.843 134.721 156.635 135.587 156.635 136.746Z" fill="#DD6262"/>
<path d="M134.164 157V135.34L126.82 137.781V131.629L136.391 128.367H141.84V157H134.164Z" fill="#DD6262"/>
<path d="M417.67 326.37V320.833H420.685V326.414C420.685 327 420.799 327.401 421.027 327.618C421.256 327.829 421.558 327.935 421.933 327.935C422.278 327.935 422.589 327.829 422.864 327.618C423.146 327.407 423.351 327.149 423.479 326.845V320.833H426.485V330H423.603L423.55 328.998H423.506C423.26 329.361 422.902 329.651 422.434 329.868C421.965 330.079 421.435 330.185 420.843 330.185C419.929 330.185 419.17 329.892 418.566 329.306C417.969 328.72 417.67 327.741 417.67 326.37Z" fill="url(#paint5_linear_1827_89)"/>
<path d="M406.531 330V320.833H409.423L409.467 321.835H409.52C409.719 321.495 410.053 321.211 410.521 320.982C410.99 320.748 411.512 320.631 412.086 320.631C413.035 320.631 413.814 320.9 414.424 321.439C415.039 321.973 415.347 322.925 415.347 324.296V330H412.341V324.261C412.341 323.751 412.232 323.396 412.016 323.197C411.799 322.998 411.494 322.898 411.102 322.898C410.779 322.898 410.475 322.992 410.188 323.18C409.9 323.367 409.684 323.64 409.537 323.997V330H406.531Z" fill="url(#paint6_linear_1827_89)"/>
<path d="M395.416 325.544V325.263C395.416 323.833 395.861 322.693 396.752 321.844C397.648 320.988 398.785 320.561 400.162 320.561C401.551 320.561 402.644 320.965 403.44 321.773C404.243 322.576 404.645 323.692 404.645 325.122V326.115H397.446V324.428H401.691V324.243C401.691 323.798 401.557 323.423 401.287 323.118C401.018 322.813 400.634 322.661 400.136 322.661C399.573 322.661 399.14 322.869 398.835 323.285C398.536 323.701 398.387 324.296 398.387 325.069V325.711C398.387 326.473 398.551 327.062 398.879 327.478C399.207 327.894 399.679 328.102 400.294 328.102C400.745 328.102 401.135 327.987 401.463 327.759C401.797 327.524 402.066 327.255 402.271 326.95L404.46 328.225C404.167 328.846 403.657 329.341 402.931 329.71C402.21 330.079 401.352 330.264 400.355 330.264C398.826 330.264 397.619 329.836 396.734 328.98C395.855 328.125 395.416 326.979 395.416 325.544Z" fill="url(#paint7_linear_1827_89)"/>
<path d="M379.047 330V320.833H381.93L381.974 321.861H382.026C382.284 321.463 382.642 321.161 383.099 320.956C383.562 320.751 384.051 320.648 384.566 320.648C385.217 320.648 385.782 320.786 386.263 321.062C386.743 321.337 387.089 321.729 387.3 322.239H387.335C387.622 321.729 388.047 321.337 388.609 321.062C389.178 320.78 389.764 320.64 390.367 320.64C391.281 320.64 392.025 320.936 392.6 321.527C393.174 322.113 393.461 323.092 393.461 324.463V330H390.455V324.34C390.455 323.865 390.355 323.508 390.156 323.268C389.963 323.027 389.67 322.904 389.277 322.898C388.926 322.898 388.621 322.995 388.363 323.188C388.105 323.382 387.903 323.657 387.757 324.015V330H384.742V324.375C384.742 323.877 384.643 323.508 384.443 323.268C384.244 323.021 383.942 322.898 383.538 322.898C383.192 322.898 382.894 322.992 382.642 323.18C382.396 323.361 382.199 323.64 382.053 324.015V330H379.047Z" fill="url(#paint8_linear_1827_89)"/>
<path d="M457.662 315.647L457.706 313.521C457.853 313.567 458.014 313.603 458.189 313.626C458.371 313.655 458.544 313.67 458.708 313.67C459.106 313.67 459.452 313.553 459.745 313.318C460.038 313.09 460.27 312.639 460.439 311.965H460.325L456.713 302.833H459.78L461.512 307.86C461.582 308.071 461.635 308.265 461.67 308.44C461.705 308.61 461.74 308.795 461.775 308.994H461.828C461.863 308.795 461.898 308.61 461.934 308.44C461.969 308.271 462.021 308.077 462.092 307.86L463.797 302.833H466.478L462.725 312.949C462.355 313.934 461.866 314.66 461.257 315.129C460.647 315.598 459.9 315.832 459.016 315.832C458.723 315.832 458.468 315.817 458.251 315.788C458.034 315.759 457.838 315.712 457.662 315.647Z" fill="url(#paint9_linear_1827_89)"/>
<path d="M452.287 312V298.614H455.302V312H452.287Z" fill="url(#paint10_linear_1827_89)"/>
<path d="M446.746 312V302.833H449.77V312H446.746ZM446.518 300.311C446.518 299.865 446.667 299.493 446.966 299.194C447.271 298.89 447.701 298.737 448.258 298.737C448.814 298.737 449.242 298.89 449.541 299.194C449.84 299.493 449.989 299.865 449.989 300.311C449.989 300.756 449.84 301.131 449.541 301.436C449.242 301.74 448.812 301.893 448.249 301.893C447.692 301.893 447.265 301.74 446.966 301.436C446.667 301.131 446.518 300.756 446.518 300.311Z" fill="url(#paint11_linear_1827_89)"/>
<path d="M435.184 309.311C435.184 308.262 435.585 307.482 436.388 306.973C437.19 306.457 438.201 306.196 439.42 306.19H441.151V305.716C441.151 305.353 441.058 305.062 440.87 304.846C440.688 304.623 440.36 304.512 439.886 304.512C439.417 304.512 439.083 304.603 438.884 304.784C438.69 304.966 438.594 305.197 438.594 305.479V305.646H435.658V305.479C435.658 304.611 436.065 303.911 436.88 303.378C437.694 302.839 438.743 302.569 440.026 302.569C441.321 302.569 442.332 302.824 443.059 303.334C443.791 303.844 444.157 304.646 444.157 305.742V309.961C444.157 310.33 444.192 310.682 444.263 311.016C444.333 311.35 444.427 311.631 444.544 311.859V312H441.582C441.518 311.865 441.459 311.692 441.406 311.481C441.354 311.271 441.315 311.065 441.292 310.866C441.128 311.2 440.788 311.502 440.272 311.771C439.757 312.035 439.124 312.167 438.374 312.167C437.46 312.167 436.698 311.933 436.089 311.464C435.485 310.989 435.184 310.271 435.184 309.311ZM438.198 309.029C438.198 309.387 438.301 309.68 438.506 309.908C438.711 310.131 439.039 310.242 439.49 310.242C439.988 310.242 440.39 310.087 440.694 309.776C440.999 309.466 441.151 309.079 441.151 308.616V307.904H439.912C439.32 307.904 438.887 307.998 438.611 308.186C438.336 308.373 438.198 308.654 438.198 309.029Z" fill="url(#paint12_linear_1827_89)"/>
<path d="M423.699 307.553V307.271C423.699 305.9 424.071 304.79 424.815 303.94C425.565 303.085 426.535 302.657 427.725 302.657C428.287 302.657 428.776 302.757 429.192 302.956C429.608 303.149 429.928 303.407 430.15 303.729V298.614H433.139V312H430.256L430.212 310.963H430.168C429.986 311.314 429.676 311.604 429.236 311.833C428.797 312.062 428.296 312.176 427.733 312.176C426.468 312.176 425.478 311.748 424.763 310.893C424.054 310.037 423.699 308.924 423.699 307.553ZM426.767 307.702C426.767 308.394 426.913 308.944 427.206 309.354C427.505 309.765 427.936 309.97 428.498 309.97C428.896 309.97 429.233 309.864 429.509 309.653C429.79 309.437 429.995 309.173 430.124 308.862V305.962C430.001 305.646 429.808 305.382 429.544 305.171C429.28 304.96 428.935 304.854 428.507 304.854C427.95 304.854 427.52 305.062 427.215 305.479C426.916 305.889 426.767 306.437 426.767 307.122V307.702Z" fill="url(#paint13_linear_1827_89)"/>
<path d="M412.221 312V302.833H415.13L415.174 303.8H415.218C415.388 303.466 415.631 303.182 415.947 302.947C416.264 302.707 416.609 302.587 416.984 302.587C417.113 302.587 417.239 302.602 417.362 302.631C417.485 302.66 417.573 302.687 417.626 302.71V305.232C417.526 305.203 417.418 305.183 417.301 305.171C417.184 305.153 417.055 305.145 416.914 305.145C416.557 305.145 416.223 305.256 415.912 305.479C415.607 305.701 415.385 305.991 415.244 306.349V312H412.221Z" fill="url(#paint14_linear_1827_89)"/>
<path d="M400.906 308.37V302.833H403.921V308.414C403.921 309 404.035 309.401 404.264 309.618C404.492 309.829 404.794 309.935 405.169 309.935C405.515 309.935 405.825 309.829 406.101 309.618C406.382 309.407 406.587 309.149 406.716 308.845V302.833H409.722V312H406.839L406.786 310.998H406.742C406.496 311.361 406.139 311.651 405.67 311.868C405.201 312.079 404.671 312.185 404.079 312.185C403.165 312.185 402.406 311.892 401.803 311.306C401.205 310.72 400.906 309.741 400.906 308.37Z" fill="url(#paint15_linear_1827_89)"/>
<path d="M389.141 307.544V307.263C389.141 305.81 389.595 304.664 390.503 303.826C391.417 302.982 392.601 302.561 394.054 302.561C395.501 302.561 396.682 302.982 397.596 303.826C398.51 304.664 398.967 305.81 398.967 307.263V307.544C398.967 309.003 398.51 310.154 397.596 310.998C396.682 311.842 395.501 312.264 394.054 312.264C392.601 312.264 391.417 311.842 390.503 310.998C389.595 310.154 389.141 309.003 389.141 307.544ZM392.208 307.078V307.737C392.208 308.534 392.369 309.117 392.691 309.486C393.02 309.85 393.474 310.031 394.054 310.031C394.634 310.031 395.085 309.85 395.407 309.486C395.729 309.117 395.891 308.534 395.891 307.737V307.078C395.891 306.281 395.724 305.701 395.39 305.338C395.062 304.969 394.616 304.784 394.054 304.784C393.485 304.784 393.034 304.969 392.7 305.338C392.372 305.701 392.208 306.281 392.208 307.078Z" fill="url(#paint16_linear_1827_89)"/>
<path d="M382.167 312V307.509L377.746 299.203H381.174L383.459 303.668C383.541 303.832 383.611 303.99 383.67 304.143C383.729 304.295 383.784 304.45 383.837 304.608H383.898C383.951 304.45 384.004 304.295 384.057 304.143C384.115 303.99 384.188 303.832 384.276 303.668L386.605 299.203H389.559L385.278 307.333V312H382.167Z" fill="url(#paint17_linear_1827_89)"/>
<path d="M77.334 84.9951V82.833H83.249V84.9951H77.334ZM78.6172 89.1084V83.835L78.6348 83.5977V80.6445H81.6055V88.9502C81.6055 89.3838 81.6816 89.6797 81.834 89.8379C81.9863 89.9902 82.1914 90.0664 82.4492 90.0664C82.5781 90.0664 82.707 90.0518 82.8359 90.0225C82.9648 89.9873 83.0879 89.9463 83.2051 89.8994V91.9824C83.0703 92.0527 82.8711 92.1143 82.6074 92.167C82.3438 92.2197 82.0508 92.2461 81.7285 92.2461C80.7852 92.2461 80.0293 91.9941 79.4609 91.4902C78.8984 90.9863 78.6172 90.1924 78.6172 89.1084Z" fill="url(#paint18_linear_1827_89)"/>
<path d="M70.8359 92V82.833H73.7451L73.7891 83.7998H73.833C74.0029 83.4658 74.2461 83.1816 74.5625 82.9473C74.8789 82.707 75.2246 82.5869 75.5996 82.5869C75.7285 82.5869 75.8545 82.6016 75.9775 82.6309C76.1006 82.6602 76.1885 82.6865 76.2412 82.71V85.2324C76.1416 85.2031 76.0332 85.1826 75.916 85.1709C75.7988 85.1533 75.6699 85.1445 75.5293 85.1445C75.1719 85.1445 74.8379 85.2559 74.5273 85.4785C74.2227 85.7012 74 85.9912 73.8594 86.3486V92H70.8359Z" fill="url(#paint19_linear_1827_89)"/>
<path d="M58.9824 87.5439V87.2627C58.9824 85.8096 59.4365 84.6641 60.3447 83.8262C61.2588 82.9824 62.4424 82.5605 63.8955 82.5605C65.3428 82.5605 66.5234 82.9824 67.4375 83.8262C68.3516 84.6641 68.8086 85.8096 68.8086 87.2627V87.5439C68.8086 89.0029 68.3516 90.1543 67.4375 90.998C66.5234 91.8418 65.3428 92.2637 63.8955 92.2637C62.4424 92.2637 61.2588 91.8418 60.3447 90.998C59.4365 90.1543 58.9824 89.0029 58.9824 87.5439ZM62.0498 87.0781V87.7373C62.0498 88.5342 62.2109 89.1172 62.5332 89.4863C62.8613 89.8496 63.3154 90.0312 63.8955 90.0312C64.4756 90.0312 64.9268 89.8496 65.249 89.4863C65.5713 89.1172 65.7324 88.5342 65.7324 87.7373V87.0781C65.7324 86.2812 65.5654 85.7012 65.2314 85.3379C64.9033 84.9688 64.458 84.7842 63.8955 84.7842C63.3271 84.7842 62.876 84.9688 62.542 85.3379C62.2139 85.7012 62.0498 86.2812 62.0498 87.0781Z" fill="url(#paint20_linear_1827_89)"/>
<path d="M47.9922 95.665V82.833H50.8398L50.8838 83.8174H50.9277C51.1094 83.4717 51.4346 83.1904 51.9033 82.9736C52.3779 82.751 52.8936 82.6396 53.4502 82.6396C54.6338 82.6396 55.5918 83.0527 56.3242 83.8789C57.0566 84.7051 57.4229 85.833 57.4229 87.2627V87.5439C57.4229 88.9678 57.0625 90.0957 56.3418 90.9277C55.627 91.7598 54.6953 92.1758 53.5469 92.1758C52.9902 92.1758 52.4805 92.0879 52.0176 91.9121C51.5547 91.7305 51.2148 91.4727 50.998 91.1387V95.665H47.9922ZM50.998 88.8096C51.1152 89.126 51.3262 89.3984 51.6309 89.627C51.9355 89.8555 52.29 89.9697 52.6943 89.9697C53.2451 89.9697 53.6582 89.7822 53.9336 89.4072C54.2148 89.0322 54.3555 88.4756 54.3555 87.7373V87.0869C54.3555 86.3428 54.2148 85.7861 53.9336 85.417C53.6582 85.042 53.2393 84.8545 52.6768 84.8545C52.249 84.8545 51.8945 84.9658 51.6133 85.1885C51.3379 85.4053 51.1328 85.6631 50.998 85.9619V88.8096Z" fill="url(#paint21_linear_1827_89)"/>
<path d="M37.291 89.0381L40.2002 89.0557V89.2314C40.2002 89.624 40.3262 89.9053 40.5781 90.0752C40.8359 90.2451 41.1904 90.3301 41.6416 90.3301C42.0869 90.3301 42.418 90.248 42.6348 90.084C42.8574 89.9199 42.9688 89.7002 42.9688 89.4248C42.9688 89.1436 42.8398 88.9385 42.582 88.8096C42.3242 88.6807 41.6914 88.5166 40.6836 88.3174C39.5645 88.1006 38.7676 87.7549 38.293 87.2803C37.8184 86.8057 37.5811 86.2021 37.5811 85.4697C37.5811 84.5498 37.9502 83.835 38.6885 83.3252C39.4268 82.8154 40.4258 82.5605 41.6855 82.5605C42.9453 82.5605 43.9473 82.8301 44.6914 83.3691C45.4414 83.9082 45.8164 84.6436 45.8164 85.5752V85.707H42.916V85.5312C42.916 85.2148 42.8135 84.9688 42.6084 84.793C42.4033 84.6113 42.0898 84.5205 41.668 84.5205C41.252 84.5205 40.9502 84.5879 40.7627 84.7227C40.5811 84.8574 40.4902 85.042 40.4902 85.2764C40.4902 85.5166 40.6162 85.707 40.8682 85.8477C41.1201 85.9883 41.7588 86.1553 42.7842 86.3486C43.8916 86.5596 44.6943 86.8906 45.1924 87.3418C45.6963 87.793 45.9482 88.4111 45.9482 89.1963C45.9482 90.1748 45.5791 90.9307 44.8408 91.4639C44.1084 91.9971 43.0479 92.2637 41.6592 92.2637C40.2822 92.2637 39.21 92 38.4424 91.4727C37.6807 90.9395 37.2969 90.1689 37.291 89.1611V89.0381Z" fill="url(#paint22_linear_1827_89)"/>
<path d="M26.6074 92V82.833H29.499L29.543 83.835H29.5957C29.7949 83.4951 30.1289 83.2109 30.5977 82.9824C31.0664 82.748 31.5879 82.6309 32.1621 82.6309C33.1113 82.6309 33.8906 82.9004 34.5 83.4395C35.1152 83.9727 35.4229 84.9248 35.4229 86.2959V92H32.417V86.2607C32.417 85.751 32.3086 85.3965 32.0918 85.1973C31.875 84.998 31.5703 84.8984 31.1777 84.8984C30.8555 84.8984 30.5508 84.9922 30.2637 85.1797C29.9766 85.3672 29.7598 85.6396 29.6133 85.9971V92H26.6074Z" fill="url(#paint23_linear_1827_89)"/>
<path d="M15.0645 89.3105C15.0645 88.2617 15.4658 87.4824 16.2686 86.9727C17.0713 86.457 18.082 86.1963 19.3008 86.1904H21.0322V85.7158C21.0322 85.3525 20.9385 85.0625 20.751 84.8457C20.5693 84.623 20.2412 84.5117 19.7666 84.5117C19.2979 84.5117 18.9639 84.6025 18.7646 84.7842C18.5713 84.9658 18.4746 85.1973 18.4746 85.4785V85.6455H15.5391V85.4785C15.5391 84.6113 15.9463 83.9111 16.7607 83.3779C17.5752 82.8389 18.624 82.5693 19.9072 82.5693C21.2021 82.5693 22.2129 82.8242 22.9395 83.334C23.6719 83.8438 24.0381 84.6465 24.0381 85.7422V89.9609C24.0381 90.3301 24.0732 90.6816 24.1436 91.0156C24.2139 91.3496 24.3076 91.6309 24.4248 91.8594V92H21.4629C21.3984 91.8652 21.3398 91.6924 21.2871 91.4814C21.2344 91.2705 21.1963 91.0654 21.1729 90.8662C21.0088 91.2002 20.6689 91.502 20.1533 91.7715C19.6377 92.0352 19.0049 92.167 18.2549 92.167C17.3408 92.167 16.5791 91.9326 15.9697 91.4639C15.3662 90.9893 15.0645 90.2715 15.0645 89.3105ZM18.0791 89.0293C18.0791 89.3867 18.1816 89.6797 18.3867 89.9082C18.5918 90.1309 18.9199 90.2422 19.3711 90.2422C19.8691 90.2422 20.2705 90.0869 20.5752 89.7764C20.8799 89.4658 21.0322 89.0791 21.0322 88.6162V87.9043H19.793C19.2012 87.9043 18.7676 87.998 18.4922 88.1855C18.2168 88.373 18.0791 88.6543 18.0791 89.0293Z" fill="url(#paint24_linear_1827_89)"/>
<path d="M8.70508 92V82.833H11.6143L11.6582 83.7998H11.7021C11.8721 83.4658 12.1152 83.1816 12.4316 82.9473C12.748 82.707 13.0937 82.5869 13.4687 82.5869C13.5977 82.5869 13.7236 82.6016 13.8467 82.6309C13.9697 82.6602 14.0576 82.6865 14.1104 82.71V85.2324C14.0107 85.2031 13.9023 85.1826 13.7852 85.1709C13.668 85.1533 13.5391 85.1445 13.3984 85.1445C13.041 85.1445 12.707 85.2559 12.3965 85.4785C12.0918 85.7012 11.8691 85.9912 11.7285 86.3486V92H8.70508Z" fill="url(#paint25_linear_1827_89)"/>
<path d="M1.00977 84.9951V82.833H6.9248V84.9951H1.00977ZM2.29297 89.1084V83.835L2.31055 83.5977V80.6445H5.28125V88.9502C5.28125 89.3838 5.35742 89.6797 5.50977 89.8379C5.66211 89.9902 5.86719 90.0664 6.125 90.0664C6.25391 90.0664 6.38281 90.0518 6.51172 90.0225C6.64062 89.9873 6.76367 89.9463 6.88086 89.8994V91.9824C6.74609 92.0527 6.54688 92.1143 6.2832 92.167C6.01953 92.2197 5.72656 92.2461 5.4043 92.2461C4.46094 92.2461 3.70508 91.9941 3.13672 91.4902C2.57422 90.9863 2.29297 90.1924 2.29297 89.1084Z" fill="url(#paint26_linear_1827_89)"/>
<path d="M93.9941 77.6475L94.0381 75.5205C94.1846 75.5674 94.3457 75.6025 94.5215 75.626C94.7031 75.6553 94.876 75.6699 95.04 75.6699C95.4385 75.6699 95.7842 75.5527 96.0771 75.3184C96.3701 75.0898 96.6016 74.6387 96.7715 73.9648H96.6572L93.0449 64.833H96.1123L97.8438 69.8604C97.9141 70.0713 97.9668 70.2646 98.002 70.4404C98.0371 70.6104 98.0723 70.7949 98.1074 70.9941H98.1602C98.1953 70.7949 98.2305 70.6104 98.2656 70.4404C98.3008 70.2705 98.3535 70.0771 98.4238 69.8604L100.129 64.833H102.81L99.0566 74.9492C98.6875 75.9336 98.1982 76.6602 97.5889 77.1289C96.9795 77.5977 96.2324 77.832 95.3477 77.832C95.0547 77.832 94.7998 77.8174 94.583 77.7881C94.3662 77.7588 94.1699 77.7119 93.9941 77.6475Z" fill="url(#paint27_linear_1827_89)"/>
<path d="M82.7754 74V60.6143H85.7812V65.7383C86.0742 65.3867 86.4346 65.1172 86.8623 64.9297C87.2959 64.7363 87.7881 64.6396 88.3389 64.6396C89.5283 64.6396 90.4688 65.0674 91.1602 65.9229C91.8574 66.7725 92.2061 67.8828 92.2061 69.2539V69.5352C92.2061 70.9238 91.8545 72.0459 91.1514 72.9014C90.4541 73.751 89.5137 74.1758 88.3301 74.1758C87.7734 74.1758 87.249 74.0703 86.7568 73.8594C86.2705 73.6484 85.9336 73.3701 85.7461 73.0244H85.7021L85.6582 74H82.7754ZM85.7812 70.7568C85.8984 71.0791 86.0947 71.3633 86.3701 71.6094C86.6514 71.8496 87.0205 71.9697 87.4775 71.9697C88.0342 71.9697 88.4502 71.7646 88.7256 71.3545C89.001 70.9385 89.1387 70.3848 89.1387 69.6934V69.1221C89.1387 68.4307 89.001 67.8828 88.7256 67.4785C88.4561 67.0684 88.0312 66.8633 87.4512 66.8633C87.0176 66.8633 86.6602 66.9863 86.3789 67.2324C86.0977 67.4727 85.8984 67.751 85.7812 68.0674V70.7568Z" fill="url(#paint28_linear_1827_89)"/>
<path d="M66.5059 77.665V64.833H69.3535L69.3975 65.8174H69.4414C69.623 65.4717 69.9482 65.1904 70.417 64.9736C70.8916 64.751 71.4072 64.6396 71.9639 64.6396C73.1475 64.6396 74.1055 65.0527 74.8379 65.8789C75.5703 66.7051 75.9365 67.833 75.9365 69.2627V69.5439C75.9365 70.9678 75.5762 72.0957 74.8555 72.9277C74.1406 73.7598 73.209 74.1758 72.0605 74.1758C71.5039 74.1758 70.9941 74.0879 70.5312 73.9121C70.0684 73.7305 69.7285 73.4727 69.5117 73.1387V77.665H66.5059ZM69.5117 70.8096C69.6289 71.126 69.8398 71.3984 70.1445 71.627C70.4492 71.8555 70.8037 71.9697 71.208 71.9697C71.7588 71.9697 72.1719 71.7822 72.4473 71.4072C72.7285 71.0322 72.8691 70.4756 72.8691 69.7373V69.0869C72.8691 68.3428 72.7285 67.7861 72.4473 67.417C72.1719 67.042 71.7529 66.8545 71.1904 66.8545C70.7627 66.8545 70.4082 66.9658 70.127 67.1885C69.8516 67.4053 69.6465 67.6631 69.5117 67.9619V70.8096Z" fill="url(#paint29_linear_1827_89)"/>
<path d="M60.9746 74V64.833H63.998V74H60.9746ZM60.7461 62.3105C60.7461 61.8652 60.8955 61.4932 61.1943 61.1943C61.499 60.8896 61.9297 60.7373 62.4863 60.7373C63.043 60.7373 63.4707 60.8896 63.7695 61.1943C64.0684 61.4932 64.2178 61.8652 64.2178 62.3105C64.2178 62.7559 64.0684 63.1309 63.7695 63.4355C63.4707 63.7402 63.04 63.8926 62.4775 63.8926C61.9209 63.8926 61.4932 63.7402 61.1943 63.4355C60.8955 63.1309 60.7461 62.7559 60.7461 62.3105Z" fill="url(#paint30_linear_1827_89)"/>
<path d="M53.8242 74V64.833H56.7334L56.7773 65.7998H56.8213C56.9912 65.4658 57.2344 65.1816 57.5508 64.9473C57.8672 64.707 58.2129 64.5869 58.5879 64.5869C58.7168 64.5869 58.8428 64.6016 58.9658 64.6309C59.0889 64.6602 59.1768 64.6865 59.2295 64.71V67.2324C59.1299 67.2031 59.0215 67.1826 58.9043 67.1709C58.7871 67.1533 58.6582 67.1445 58.5176 67.1445C58.1602 67.1445 57.8262 67.2559 57.5156 67.4785C57.2109 67.7012 56.9883 67.9912 56.8477 68.3486V74H53.8242Z" fill="url(#paint31_linear_1827_89)"/>
<path d="M46.1289 66.9951V64.833H52.0439V66.9951H46.1289ZM47.4121 71.1084V65.835L47.4297 65.5977V62.6445H50.4004V70.9502C50.4004 71.3838 50.4766 71.6797 50.6289 71.8379C50.7812 71.9902 50.9863 72.0664 51.2441 72.0664C51.373 72.0664 51.502 72.0518 51.6309 72.0225C51.7598 71.9873 51.8828 71.9463 52 71.8994V73.9824C51.8652 74.0527 51.666 74.1143 51.4023 74.167C51.1387 74.2197 50.8457 74.2461 50.5234 74.2461C49.5801 74.2461 48.8242 73.9941 48.2559 73.4902C47.6934 72.9863 47.4121 72.1924 47.4121 71.1084Z" fill="url(#paint32_linear_1827_89)"/>
<path d="M35.2207 74V64.833H38.1299L38.1738 65.7998H38.2178C38.3877 65.4658 38.6309 65.1816 38.9473 64.9473C39.2637 64.707 39.6094 64.5869 39.9844 64.5869C40.1133 64.5869 40.2393 64.6016 40.3623 64.6309C40.4854 64.6602 40.5732 64.6865 40.626 64.71V67.2324C40.5264 67.2031 40.418 67.1826 40.3008 67.1709C40.1836 67.1533 40.0547 67.1445 39.9141 67.1445C39.5566 67.1445 39.2227 67.2559 38.9121 67.4785C38.6074 67.7012 38.3848 67.9912 38.2441 68.3486V74H35.2207Z" fill="url(#paint33_linear_1827_89)"/>
<path d="M23.9062 70.3701V64.833H26.9209V70.4141C26.9209 71 27.0352 71.4014 27.2637 71.6182C27.4922 71.8291 27.7939 71.9346 28.1689 71.9346C28.5146 71.9346 28.8252 71.8291 29.1006 71.6182C29.3818 71.4072 29.5869 71.1494 29.7158 70.8447V64.833H32.7217V74H29.8389L29.7861 72.998H29.7422C29.4961 73.3613 29.1387 73.6514 28.6699 73.8682C28.2012 74.0791 27.6709 74.1846 27.0791 74.1846C26.165 74.1846 25.4062 73.8916 24.8027 73.3057C24.2051 72.7197 23.9062 71.7412 23.9062 70.3701Z" fill="url(#paint34_linear_1827_89)"/>
<path d="M12.1406 69.5439V69.2627C12.1406 67.8096 12.5947 66.6641 13.5029 65.8262C14.417 64.9824 15.6006 64.5605 17.0537 64.5605C18.501 64.5605 19.6816 64.9824 20.5957 65.8262C21.5098 66.6641 21.9668 67.8096 21.9668 69.2627V69.5439C21.9668 71.0029 21.5098 72.1543 20.5957 72.998C19.6816 73.8418 18.501 74.2637 17.0537 74.2637C15.6006 74.2637 14.417 73.8418 13.5029 72.998C12.5947 72.1543 12.1406 71.0029 12.1406 69.5439ZM15.208 69.0781V69.7373C15.208 70.5342 15.3691 71.1172 15.6914 71.4863C16.0195 71.8496 16.4736 72.0312 17.0537 72.0312C17.6338 72.0312 18.085 71.8496 18.4072 71.4863C18.7295 71.1172 18.8906 70.5342 18.8906 69.7373V69.0781C18.8906 68.2812 18.7236 67.7012 18.3896 67.3379C18.0615 66.9688 17.6162 66.7842 17.0537 66.7842C16.4854 66.7842 16.0342 66.9688 15.7002 67.3379C15.3721 67.7012 15.208 68.2812 15.208 69.0781Z" fill="url(#paint35_linear_1827_89)"/>
<path d="M5.16699 74V69.5088L0.746094 61.2031H4.17383L6.45898 65.668C6.54102 65.832 6.61133 65.9902 6.66992 66.1426C6.72852 66.2949 6.78418 66.4502 6.83691 66.6084H6.89844C6.95117 66.4502 7.00391 66.2949 7.05664 66.1426C7.11523 65.9902 7.18848 65.832 7.27637 65.668L9.60547 61.2031H12.5586L8.27832 69.333V74H5.16699Z" fill="url(#paint36_linear_1827_89)"/>
<path d="M325.244 401.284V411H322.059V394.636H325.116V397.299H325.319C325.695 396.433 326.284 395.737 327.087 395.211C327.897 394.686 328.916 394.423 330.145 394.423C331.26 394.423 332.236 394.657 333.074 395.126C333.912 395.588 334.562 396.277 335.024 397.193C335.485 398.109 335.716 399.242 335.716 400.591V411H332.531V400.975C332.531 399.789 332.222 398.862 331.604 398.194C330.986 397.519 330.137 397.182 329.058 397.182C328.319 397.182 327.662 397.342 327.087 397.661C326.519 397.981 326.068 398.45 325.734 399.068C325.407 399.679 325.244 400.417 325.244 401.284Z" fill="url(#paint37_linear_1827_89)"/>
<path d="M310.876 411.33C309.342 411.33 308.003 410.978 306.86 410.275C305.716 409.572 304.828 408.588 304.196 407.324C303.564 406.06 303.248 404.583 303.248 402.892C303.248 401.195 303.564 399.71 304.196 398.439C304.828 397.168 305.716 396.181 306.86 395.478C308.003 394.774 309.342 394.423 310.876 394.423C312.41 394.423 313.749 394.774 314.892 395.478C316.036 396.181 316.923 397.168 317.556 398.439C318.188 399.71 318.504 401.195 318.504 402.892C318.504 404.583 318.188 406.06 317.556 407.324C316.923 408.588 316.036 409.572 314.892 410.275C313.749 410.978 312.41 411.33 310.876 411.33ZM310.887 408.656C311.881 408.656 312.705 408.393 313.358 407.867C314.012 407.342 314.494 406.642 314.807 405.769C315.127 404.895 315.286 403.933 315.286 402.882C315.286 401.838 315.127 400.879 314.807 400.005C314.494 399.125 314.012 398.418 313.358 397.885C312.705 397.353 311.881 397.086 310.887 397.086C309.885 397.086 309.054 397.353 308.394 397.885C307.74 398.418 307.254 399.125 306.934 400.005C306.622 400.879 306.465 401.838 306.465 402.882C306.465 403.933 306.622 404.895 306.934 405.769C307.254 406.642 307.74 407.342 308.394 407.867C309.054 408.393 309.885 408.656 310.887 408.656Z" fill="url(#paint38_linear_1827_89)"/>
<path d="M296.512 410.999V394.636H299.698V410.999H296.512ZM298.121 392.111C297.567 392.111 297.091 391.926 296.693 391.557C296.303 391.18 296.107 390.733 296.107 390.215C296.107 389.689 296.303 389.242 296.693 388.872C297.091 388.496 297.567 388.308 298.121 388.308C298.675 388.308 299.147 388.496 299.538 388.872C299.936 389.242 300.134 389.689 300.134 390.215C300.134 390.733 299.936 391.18 299.538 391.557C299.147 391.926 298.675 392.111 298.121 392.111Z" fill="url(#paint39_linear_1827_89)"/>
<path d="M292.69 398.631L289.803 399.142C289.682 398.773 289.49 398.421 289.227 398.088C288.972 397.754 288.624 397.48 288.183 397.267C287.743 397.054 287.192 396.948 286.532 396.948C285.63 396.948 284.877 397.15 284.273 397.555C283.67 397.953 283.368 398.468 283.368 399.1C283.368 399.647 283.57 400.087 283.975 400.421C284.38 400.755 285.033 401.028 285.935 401.241L288.535 401.838C290.04 402.186 291.163 402.722 291.901 403.446C292.64 404.171 293.009 405.112 293.009 406.269C293.009 407.25 292.725 408.123 292.157 408.89C291.596 409.65 290.811 410.247 289.803 410.68C288.801 411.113 287.64 411.33 286.319 411.33C284.487 411.33 282.991 410.939 281.834 410.158C280.676 409.37 279.966 408.251 279.703 406.802L282.782 406.333C282.974 407.136 283.368 407.743 283.964 408.155C284.561 408.56 285.339 408.762 286.298 408.762C287.342 408.762 288.176 408.546 288.801 408.112C289.426 407.672 289.739 407.136 289.739 406.504C289.739 405.992 289.547 405.563 289.163 405.215C288.787 404.867 288.208 404.604 287.427 404.426L284.657 403.819C283.13 403.471 282.001 402.917 281.269 402.157C280.545 401.397 280.183 400.435 280.183 399.27C280.183 398.304 280.452 397.459 280.992 396.735C281.532 396.01 282.278 395.446 283.229 395.041C284.181 394.629 285.271 394.423 286.5 394.423C288.268 394.423 289.661 394.806 290.676 395.573C291.692 396.333 292.363 397.353 292.69 398.631Z" fill="url(#paint40_linear_1827_89)"/>
<path d="M276.606 398.631L273.719 399.142C273.598 398.773 273.406 398.421 273.143 398.088C272.888 397.754 272.54 397.48 272.099 397.267C271.659 397.054 271.108 396.948 270.448 396.948C269.546 396.948 268.793 397.15 268.189 397.555C267.586 397.953 267.284 398.468 267.284 399.1C267.284 399.647 267.486 400.087 267.891 400.421C268.296 400.755 268.949 401.028 269.851 401.241L272.451 401.838C273.957 402.186 275.079 402.722 275.817 403.446C276.556 404.171 276.925 405.112 276.925 406.269C276.925 407.25 276.641 408.123 276.073 408.89C275.512 409.65 274.727 410.247 273.719 410.68C272.717 411.113 271.556 411.33 270.235 411.33C268.403 411.33 266.908 410.939 265.75 410.158C264.592 409.37 263.882 408.251 263.619 406.802L266.698 406.333C266.89 407.136 267.284 407.743 267.881 408.155C268.477 408.56 269.255 408.762 270.214 408.762C271.258 408.762 272.092 408.546 272.717 408.112C273.342 407.672 273.655 407.136 273.655 406.504C273.655 405.992 273.463 405.563 273.079 405.215C272.703 404.867 272.124 404.604 271.343 404.426L268.573 403.819C267.046 403.471 265.917 402.917 265.185 402.157C264.461 401.397 264.099 400.435 264.099 399.27C264.099 398.304 264.368 397.459 264.908 396.735C265.448 396.01 266.194 395.446 267.145 395.041C268.097 394.629 269.187 394.423 270.416 394.423C272.184 394.423 273.577 394.806 274.592 395.573C275.608 396.333 276.279 397.353 276.606 398.631Z" fill="url(#paint41_linear_1827_89)"/>
<path d="M256.874 410.999V394.636H260.059V410.999H256.874ZM258.482 392.111C257.928 392.111 257.452 391.926 257.055 391.557C256.664 391.18 256.469 390.733 256.469 390.215C256.469 389.689 256.664 389.242 257.055 388.872C257.452 388.496 257.928 388.308 258.482 388.308C259.036 388.308 259.509 388.496 259.899 388.872C260.297 389.242 260.496 389.689 260.496 390.215C260.496 390.733 260.297 391.18 259.899 391.557C259.509 391.926 259.036 392.111 258.482 392.111Z" fill="url(#paint42_linear_1827_89)"/>
<path d="M230.359 411V394.636H233.417V397.299H233.619C233.96 396.397 234.518 395.694 235.292 395.19C236.066 394.679 236.993 394.423 238.072 394.423C239.166 394.423 240.082 394.679 240.821 395.19C241.567 395.701 242.117 396.404 242.472 397.299H242.643C243.033 396.426 243.655 395.73 244.507 395.211C245.359 394.686 246.375 394.423 247.554 394.423C249.038 394.423 250.249 394.888 251.187 395.818C252.131 396.749 252.604 398.152 252.604 400.027V411H249.418V400.325C249.418 399.217 249.116 398.414 248.513 397.917C247.909 397.42 247.188 397.171 246.35 397.171C245.313 397.171 244.507 397.491 243.932 398.13C243.357 398.762 243.069 399.576 243.069 400.57V411H239.894V400.122C239.894 399.235 239.617 398.521 239.063 397.981C238.509 397.441 237.788 397.171 236.901 397.171C236.297 397.171 235.739 397.331 235.228 397.651C234.724 397.963 234.315 398.4 234.003 398.961C233.697 399.522 233.545 400.172 233.545 400.911V411H230.359Z" fill="url(#paint43_linear_1827_89)"/>
<path d="M219.805 411.33C218.193 411.33 216.805 410.985 215.64 410.296C214.482 409.6 213.587 408.624 212.955 407.367C212.33 406.103 212.018 404.622 212.018 402.924C212.018 401.248 212.33 399.771 212.955 398.492C213.587 397.214 214.468 396.216 215.597 395.499C216.733 394.782 218.062 394.423 219.581 394.423C220.505 394.423 221.4 394.576 222.266 394.881C223.133 395.186 223.91 395.666 224.599 396.319C225.288 396.973 225.831 397.821 226.229 398.865C226.627 399.902 226.826 401.163 226.826 402.647V403.777H213.818V401.39H223.704C223.704 400.552 223.534 399.81 223.193 399.164C222.852 398.51 222.373 397.995 221.755 397.619C221.144 397.242 220.427 397.054 219.603 397.054C218.708 397.054 217.927 397.274 217.259 397.715C216.599 398.148 216.087 398.716 215.725 399.419C215.37 400.115 215.192 400.872 215.192 401.688V403.553C215.192 404.647 215.384 405.577 215.768 406.344C216.158 407.111 216.702 407.697 217.398 408.102C218.094 408.5 218.907 408.698 219.837 408.698C220.441 408.698 220.991 408.613 221.488 408.443C221.986 408.265 222.415 408.002 222.778 407.654C223.14 407.306 223.417 406.877 223.608 406.365L226.623 406.909C226.382 407.796 225.949 408.574 225.324 409.242C224.706 409.902 223.928 410.417 222.991 410.786C222.06 411.149 220.998 411.33 219.805 411.33Z" fill="url(#paint44_linear_1827_89)"/>
<path d="M186.371 410.999V408.613L193.754 400.964C194.542 400.133 195.192 399.405 195.703 398.78C196.222 398.148 196.609 397.548 196.865 396.979C197.12 396.411 197.248 395.808 197.248 395.168C197.248 394.444 197.078 393.819 196.737 393.293C196.396 392.761 195.931 392.352 195.341 392.068C194.752 391.777 194.088 391.631 193.349 391.631C192.568 391.631 191.886 391.791 191.303 392.111C190.721 392.43 190.274 392.881 189.961 393.464C189.649 394.046 189.492 394.728 189.492 395.509H186.35C186.35 394.181 186.655 393.02 187.266 392.026C187.877 391.031 188.715 390.261 189.78 389.714C190.845 389.16 192.056 388.883 193.413 388.883C194.784 388.883 195.991 389.156 197.035 389.703C198.086 390.243 198.906 390.982 199.496 391.919C200.085 392.849 200.38 393.901 200.38 395.072C200.38 395.882 200.227 396.674 199.922 397.448C199.624 398.222 199.102 399.085 198.356 400.037C197.61 400.982 196.573 402.129 195.245 403.478L190.909 408.016V408.176H200.732V410.999H186.371Z" fill="url(#paint45_linear_1827_89)"/>
<path d="M182.566 400.09C182.566 402.42 182.14 404.423 181.287 406.099C180.435 407.768 179.267 409.053 177.782 409.955C176.305 410.85 174.625 411.298 172.743 411.298C170.854 411.298 169.167 410.85 167.683 409.955C166.206 409.053 165.041 407.764 164.189 406.088C163.336 404.412 162.91 402.413 162.91 400.09C162.91 397.761 163.336 395.761 164.189 394.092C165.041 392.416 166.206 391.131 167.683 390.236C169.167 389.334 170.854 388.883 172.743 388.883C174.625 388.883 176.305 389.334 177.782 390.236C179.267 391.131 180.435 392.416 181.287 394.092C182.14 395.761 182.566 397.761 182.566 400.09ZM179.306 400.09C179.306 398.315 179.018 396.82 178.443 395.605C177.875 394.384 177.093 393.46 176.099 392.835C175.112 392.203 173.993 391.887 172.743 391.887C171.486 391.887 170.364 392.203 169.377 392.835C168.39 393.46 167.608 394.384 167.033 395.605C166.465 396.82 166.181 398.315 166.181 400.09C166.181 401.866 166.465 403.364 167.033 404.586C167.608 405.8 168.39 406.724 169.377 407.356C170.364 407.981 171.486 408.293 172.743 408.293C173.993 408.293 175.112 407.981 176.099 407.356C177.093 406.724 177.875 405.8 178.443 404.586C179.018 403.364 179.306 401.866 179.306 400.09Z" fill="url(#paint46_linear_1827_89)"/>
<path d="M159.674 396.276H156.35C156.222 395.566 155.985 394.941 155.637 394.401C155.289 393.862 154.862 393.403 154.358 393.027C153.854 392.651 153.289 392.366 152.664 392.175C152.046 391.983 151.389 391.887 150.693 391.887C149.436 391.887 148.311 392.203 147.316 392.835C146.329 393.467 145.548 394.394 144.972 395.616C144.404 396.837 144.12 398.329 144.12 400.09C144.12 401.866 144.404 403.364 144.972 404.586C145.548 405.808 146.333 406.731 147.327 407.356C148.321 407.981 149.44 408.293 150.683 408.293C151.372 408.293 152.025 408.201 152.643 408.016C153.268 407.825 153.833 407.544 154.337 407.175C154.841 406.805 155.267 406.354 155.615 405.822C155.97 405.282 156.215 404.664 156.35 403.968L159.674 403.979C159.497 405.051 159.152 406.038 158.641 406.94C158.137 407.835 157.487 408.609 156.691 409.263C155.903 409.909 155.001 410.41 153.985 410.765C152.97 411.12 151.862 411.298 150.661 411.298C148.772 411.298 147.089 410.85 145.612 409.955C144.134 409.053 142.97 407.764 142.117 406.088C141.272 404.412 140.85 402.413 140.85 400.09C140.85 397.761 141.276 395.761 142.128 394.092C142.98 392.416 144.145 391.131 145.622 390.236C147.1 389.334 148.779 388.883 150.661 388.883C151.819 388.883 152.899 389.05 153.9 389.384C154.909 389.71 155.814 390.193 156.617 390.832C157.419 391.464 158.083 392.239 158.609 393.155C159.134 394.064 159.49 395.104 159.674 396.276Z" fill="url(#paint47_linear_1827_89)"/>
<defs>
<linearGradient id="paint0_linear_1827_89" x1="344.703" y1="106.215" x2="132.871" y2="318.047" gradientUnits="userSpaceOnUse">
<stop stop-color="#969AAD"/>
<stop offset="1" stop-color="#969AAD" stop-opacity="0"/>
</linearGradient>
<linearGradient id="paint1_linear_1827_89" x1="344.256" y1="106.365" x2="61.7055" y2="294.972" gradientUnits="userSpaceOnUse">
<stop stop-color="#FF0000"/>
<stop offset="1" stop-color="#FF0000" stop-opacity="0"/>
</linearGradient>
<linearGradient id="paint2_linear_1827_89" x1="344.256" y1="106.365" x2="61.7055" y2="294.972" gradientUnits="userSpaceOnUse">
<stop stop-color="#FF0000"/>
<stop offset="1" stop-color="#FF0000" stop-opacity="0"/>
</linearGradient>
<linearGradient id="paint3_linear_1827_89" x1="344.849" y1="107.068" x2="62.2987" y2="295.675" gradientUnits="userSpaceOnUse">
<stop stop-color="#FF0000"/>
<stop offset="1" stop-color="#FF0000" stop-opacity="0"/>
</linearGradient>
<linearGradient id="paint4_linear_1827_89" x1="344.849" y1="107.068" x2="132.717" y2="319.2" gradientUnits="userSpaceOnUse">
<stop stop-color="#563B1D"/>
<stop offset="1" stop-color="#563B1D" stop-opacity="0"/>
</linearGradient>
<linearGradient id="paint5_linear_1827_89" x1="422" y1="297" x2="391.5" y2="344.5" gradientUnits="userSpaceOnUse">
<stop offset="0.695" stop-color="#FF0000"/>
<stop offset="1" stop-color="#FF0000" stop-opacity="0"/>
</linearGradient>
<linearGradient id="paint6_linear_1827_89" x1="422.002" y1="297" x2="391.502" y2="344.5" gradientUnits="userSpaceOnUse">
<stop offset="0.695" stop-color="#FF0000"/>
<stop offset="1" stop-color="#FF0000" stop-opacity="0"/>
</linearGradient>
<linearGradient id="paint7_linear_1827_89" x1="422" y1="297" x2="391.5" y2="344.5" gradientUnits="userSpaceOnUse">
<stop offset="0.695" stop-color="#FF0000"/>
<stop offset="1" stop-color="#FF0000" stop-opacity="0"/>
</linearGradient>
<linearGradient id="paint8_linear_1827_89" x1="422.001" y1="297" x2="391.501" y2="344.5" gradientUnits="userSpaceOnUse">
<stop offset="0.695" stop-color="#FF0000"/>
<stop offset="1" stop-color="#FF0000" stop-opacity="0"/>
</linearGradient>
<linearGradient id="paint9_linear_1827_89" x1="422.002" y1="297" x2="391.502" y2="344.5" gradientUnits="userSpaceOnUse">
<stop offset="0.695" stop-color="#FF0000"/>
<stop offset="1" stop-color="#FF0000" stop-opacity="0"/>
</linearGradient>
<linearGradient id="paint10_linear_1827_89" x1="422.001" y1="297" x2="391.501" y2="344.5" gradientUnits="userSpaceOnUse">
<stop offset="0.695" stop-color="#FF0000"/>
<stop offset="1" stop-color="#FF0000" stop-opacity="0"/>
</linearGradient>
<linearGradient id="paint11_linear_1827_89" x1="422.002" y1="297" x2="391.502" y2="344.5" gradientUnits="userSpaceOnUse">
<stop offset="0.695" stop-color="#FF0000"/>
<stop offset="1" stop-color="#FF0000" stop-opacity="0"/>
</linearGradient>
<linearGradient id="paint12_linear_1827_89" x1="422.001" y1="297" x2="391.501" y2="344.5" gradientUnits="userSpaceOnUse">
<stop offset="0.695" stop-color="#FF0000"/>
<stop offset="1" stop-color="#FF0000" stop-opacity="0"/>
</linearGradient>
<linearGradient id="paint13_linear_1827_89" x1="422" y1="297" x2="391.5" y2="344.5" gradientUnits="userSpaceOnUse">
<stop offset="0.695" stop-color="#FF0000"/>
<stop offset="1" stop-color="#FF0000" stop-opacity="0"/>
</linearGradient>
<linearGradient id="paint14_linear_1827_89" x1="422" y1="297" x2="391.5" y2="344.5" gradientUnits="userSpaceOnUse">
<stop offset="0.695" stop-color="#FF0000"/>
<stop offset="1" stop-color="#FF0000" stop-opacity="0"/>
</linearGradient>
<linearGradient id="paint15_linear_1827_89" x1="422.002" y1="297" x2="391.502" y2="344.5" gradientUnits="userSpaceOnUse">
<stop offset="0.695" stop-color="#FF0000"/>
<stop offset="1" stop-color="#FF0000" stop-opacity="0"/>
</linearGradient>
<linearGradient id="paint16_linear_1827_89" x1="422" y1="297" x2="391.5" y2="344.5" gradientUnits="userSpaceOnUse">
<stop offset="0.695" stop-color="#FF0000"/>
<stop offset="1" stop-color="#FF0000" stop-opacity="0"/>
</linearGradient>
<linearGradient id="paint17_linear_1827_89" x1="422.001" y1="297" x2="391.501" y2="344.5" gradientUnits="userSpaceOnUse">
<stop offset="0.695" stop-color="#FF0000"/>
<stop offset="1" stop-color="#FF0000" stop-opacity="0"/>
</linearGradient>
<linearGradient id="paint18_linear_1827_89" x1="62.5002" y1="59" x2="62.5002" y2="95" gradientUnits="userSpaceOnUse">
<stop stop-color="#DD6262"/>
<stop offset="0.73" stop-color="#DD6262"/>
<stop offset="1" stop-color="#DD6262" stop-opacity="0"/>
</linearGradient>
<linearGradient id="paint19_linear_1827_89" x1="62.5018" y1="59" x2="62.5018" y2="95" gradientUnits="userSpaceOnUse">
<stop stop-color="#DD6262"/>
<stop offset="0.73" stop-color="#DD6262"/>
<stop offset="1" stop-color="#DD6262" stop-opacity="0"/>
</linearGradient>
<linearGradient id="paint20_linear_1827_89" x1="62.5004" y1="59" x2="62.5004" y2="95" gradientUnits="userSpaceOnUse">
<stop stop-color="#DD6262"/>
<stop offset="0.73" stop-color="#DD6262"/>
<stop offset="1" stop-color="#DD6262" stop-opacity="0"/>
</linearGradient>
<linearGradient id="paint21_linear_1827_89" x1="62.501" y1="59" x2="62.501" y2="95" gradientUnits="userSpaceOnUse">
<stop stop-color="#DD6262"/>
<stop offset="0.73" stop-color="#DD6262"/>
<stop offset="1" stop-color="#DD6262" stop-opacity="0"/>
</linearGradient>
<linearGradient id="paint22_linear_1827_89" x1="62.5006" y1="59" x2="62.5006" y2="95" gradientUnits="userSpaceOnUse">
<stop stop-color="#DD6262"/>
<stop offset="0.73" stop-color="#DD6262"/>
<stop offset="1" stop-color="#DD6262" stop-opacity="0"/>
</linearGradient>
<linearGradient id="paint23_linear_1827_89" x1="62.5002" y1="59" x2="62.5002" y2="95" gradientUnits="userSpaceOnUse">
<stop stop-color="#DD6262"/>
<stop offset="0.73" stop-color="#DD6262"/>
<stop offset="1" stop-color="#DD6262" stop-opacity="0"/>
</linearGradient>
<linearGradient id="paint24_linear_1827_89" x1="62.5018" y1="59" x2="62.5018" y2="95" gradientUnits="userSpaceOnUse">
<stop stop-color="#DD6262"/>
<stop offset="0.73" stop-color="#DD6262"/>
<stop offset="1" stop-color="#DD6262" stop-opacity="0"/>
</linearGradient>
<linearGradient id="paint25_linear_1827_89" x1="62.5014" y1="59" x2="62.5014" y2="95" gradientUnits="userSpaceOnUse">
<stop stop-color="#DD6262"/>
<stop offset="0.73" stop-color="#DD6262"/>
<stop offset="1" stop-color="#DD6262" stop-opacity="0"/>
</linearGradient>
<linearGradient id="paint26_linear_1827_89" x1="62.501" y1="59" x2="62.501" y2="95" gradientUnits="userSpaceOnUse">
<stop stop-color="#DD6262"/>
<stop offset="0.73" stop-color="#DD6262"/>
<stop offset="1" stop-color="#DD6262" stop-opacity="0"/>
</linearGradient>
<linearGradient id="paint27_linear_1827_89" x1="62.5004" y1="59" x2="62.5004" y2="95" gradientUnits="userSpaceOnUse">
<stop stop-color="#DD6262"/>
<stop offset="0.73" stop-color="#DD6262"/>
<stop offset="1" stop-color="#DD6262" stop-opacity="0"/>
</linearGradient>
<linearGradient id="paint28_linear_1827_89" x1="62.501" y1="59" x2="62.501" y2="95" gradientUnits="userSpaceOnUse">
<stop stop-color="#DD6262"/>
<stop offset="0.73" stop-color="#DD6262"/>
<stop offset="1" stop-color="#DD6262" stop-opacity="0"/>
</linearGradient>
<linearGradient id="paint29_linear_1827_89" x1="62.5002" y1="59" x2="62.5002" y2="95" gradientUnits="userSpaceOnUse">
<stop stop-color="#DD6262"/>
<stop offset="0.73" stop-color="#DD6262"/>
<stop offset="1" stop-color="#DD6262" stop-opacity="0"/>
</linearGradient>
<linearGradient id="paint30_linear_1827_89" x1="62.5018" y1="59" x2="62.5018" y2="95" gradientUnits="userSpaceOnUse">
<stop stop-color="#DD6262"/>
<stop offset="0.73" stop-color="#DD6262"/>
<stop offset="1" stop-color="#DD6262" stop-opacity="0"/>
</linearGradient>
<linearGradient id="paint31_linear_1827_89" x1="62.5014" y1="59" x2="62.5014" y2="95" gradientUnits="userSpaceOnUse">
<stop stop-color="#DD6262"/>
<stop offset="0.73" stop-color="#DD6262"/>
<stop offset="1" stop-color="#DD6262" stop-opacity="0"/>
</linearGradient>
<linearGradient id="paint32_linear_1827_89" x1="62.501" y1="59" x2="62.501" y2="95" gradientUnits="userSpaceOnUse">
<stop stop-color="#DD6262"/>
<stop offset="0.73" stop-color="#DD6262"/>
<stop offset="1" stop-color="#DD6262" stop-opacity="0"/>
</linearGradient>
<linearGradient id="paint33_linear_1827_89" x1="62.5002" y1="59" x2="62.5002" y2="95" gradientUnits="userSpaceOnUse">
<stop stop-color="#DD6262"/>
<stop offset="0.73" stop-color="#DD6262"/>
<stop offset="1" stop-color="#DD6262" stop-opacity="0"/>
</linearGradient>
<linearGradient id="paint34_linear_1827_89" x1="62.5018" y1="59" x2="62.5018" y2="95" gradientUnits="userSpaceOnUse">
<stop stop-color="#DD6262"/>
<stop offset="0.73" stop-color="#DD6262"/>
<stop offset="1" stop-color="#DD6262" stop-opacity="0"/>
</linearGradient>
<linearGradient id="paint35_linear_1827_89" x1="62.5004" y1="59" x2="62.5004" y2="95" gradientUnits="userSpaceOnUse">
<stop stop-color="#DD6262"/>
<stop offset="0.73" stop-color="#DD6262"/>
<stop offset="1" stop-color="#DD6262" stop-opacity="0"/>
</linearGradient>
<linearGradient id="paint36_linear_1827_89" x1="62.501" y1="59" x2="62.501" y2="95" gradientUnits="userSpaceOnUse">
<stop stop-color="#DD6262"/>
<stop offset="0.73" stop-color="#DD6262"/>
<stop offset="1" stop-color="#DD6262" stop-opacity="0"/>
</linearGradient>
<linearGradient id="paint37_linear_1827_89" x1="238.501" y1="383" x2="238.501" y2="424" gradientUnits="userSpaceOnUse">
<stop stop-color="#F7FCFF"/>
<stop offset="1" stop-color="#F7FCFF" stop-opacity="0"/>
</linearGradient>
<linearGradient id="paint38_linear_1827_89" x1="238.502" y1="383" x2="238.502" y2="424" gradientUnits="userSpaceOnUse">
<stop stop-color="#F7FCFF"/>
<stop offset="1" stop-color="#F7FCFF" stop-opacity="0"/>
</linearGradient>
<linearGradient id="paint39_linear_1827_89" x1="238.502" y1="382.999" x2="238.502" y2="423.999" gradientUnits="userSpaceOnUse">
<stop stop-color="#F7FCFF"/>
<stop offset="1" stop-color="#F7FCFF" stop-opacity="0"/>
</linearGradient>
<linearGradient id="paint40_linear_1827_89" x1="238.501" y1="383" x2="238.501" y2="424" gradientUnits="userSpaceOnUse">
<stop stop-color="#F7FCFF"/>
<stop offset="1" stop-color="#F7FCFF" stop-opacity="0"/>
</linearGradient>
<linearGradient id="paint41_linear_1827_89" x1="238.501" y1="383" x2="238.501" y2="424" gradientUnits="userSpaceOnUse">
<stop stop-color="#F7FCFF"/>
<stop offset="1" stop-color="#F7FCFF" stop-opacity="0"/>
</linearGradient>
<linearGradient id="paint42_linear_1827_89" x1="238.502" y1="382.999" x2="238.502" y2="423.999" gradientUnits="userSpaceOnUse">
<stop stop-color="#F7FCFF"/>
<stop offset="1" stop-color="#F7FCFF" stop-opacity="0"/>
</linearGradient>
<linearGradient id="paint43_linear_1827_89" x1="238.501" y1="383" x2="238.501" y2="424" gradientUnits="userSpaceOnUse">
<stop stop-color="#F7FCFF"/>
<stop offset="1" stop-color="#F7FCFF" stop-opacity="0"/>
</linearGradient>
<linearGradient id="paint44_linear_1827_89" x1="238.502" y1="383" x2="238.502" y2="424" gradientUnits="userSpaceOnUse">
<stop stop-color="#F7FCFF"/>
<stop offset="1" stop-color="#F7FCFF" stop-opacity="0"/>
</linearGradient>
<linearGradient id="paint45_linear_1827_89" x1="238.501" y1="382.999" x2="238.501" y2="423.999" gradientUnits="userSpaceOnUse">
<stop stop-color="#F7FCFF"/>
<stop offset="1" stop-color="#F7FCFF" stop-opacity="0"/>
</linearGradient>
<linearGradient id="paint46_linear_1827_89" x1="238.501" y1="382.999" x2="238.501" y2="423.999" gradientUnits="userSpaceOnUse">
<stop stop-color="#F7FCFF"/>
<stop offset="1" stop-color="#F7FCFF" stop-opacity="0"/>
</linearGradient>
<linearGradient id="paint47_linear_1827_89" x1="238.501" y1="382.999" x2="238.501" y2="423.999" gradientUnits="userSpaceOnUse">
<stop stop-color="#F7FCFF"/>
<stop offset="1" stop-color="#F7FCFF" stop-opacity="0"/>
</linearGradient>
</defs>
</svg>
