<svg width="469" height="424" viewBox="0 0 469 424" fill="none" xmlns="http://www.w3.org/2000/svg">
<path d="M343.703 318.047C285.207 376.543 190.367 376.543 131.871 318.047C73.375 259.552 73.375 164.711 131.871 106.215C190.367 47.7191 285.207 47.7191 343.703 106.215C402.199 164.711 402.199 259.552 343.703 318.047Z" fill="url(#paint0_linear_2803_1182)" fill-opacity="0.14"/>
<path d="M387.189 212.431C387.189 232.922 382.991 253.197 374.853 272.003C366.714 290.809 354.809 307.748 339.872 321.776C324.934 335.803 307.28 346.621 288 353.563C268.72 360.504 248.222 363.421 227.771 362.135L237.189 212.431L387.189 212.431Z" fill="url(#paint1_linear_2803_1182)" fill-opacity="0.3"/>
<path d="M387.189 212.431C387.189 232.922 382.991 253.197 374.853 272.003C366.714 290.809 354.809 307.748 339.872 321.776C324.934 335.803 307.28 346.621 288 353.563C268.72 360.504 248.222 363.421 227.771 362.135L237.189 212.431L387.189 212.431Z" fill="url(#paint2_linear_2803_1182)" fill-opacity="0.3"/>
<path d="M92.8939 174.311C100.261 146.816 115.299 121.986 136.251 102.719C157.204 83.4522 183.206 70.5448 211.22 65.5042L237.783 213.134L92.8939 174.311Z" fill="url(#paint3_linear_2803_1182)" fill-opacity="0.3"/>
<path d="M92.8939 174.311C100.261 146.816 115.299 121.986 136.251 102.719C157.204 83.4522 183.206 70.5448 211.22 65.5042L237.783 213.134L92.8939 174.311Z" fill="url(#paint4_linear_2803_1182)"/>
<path d="M323.359 260.464V256.997C323.359 254.474 324.132 252.505 325.679 251.089C327.225 249.673 329.292 248.965 331.88 248.965C334.484 248.965 336.551 249.681 338.081 251.113C339.627 252.546 340.4 254.507 340.4 256.997V260.464C340.4 263.149 339.627 265.225 338.081 266.689C336.535 268.154 334.468 268.887 331.88 268.887C329.292 268.887 327.225 268.154 325.679 266.689C324.132 265.225 323.359 263.149 323.359 260.464ZM329.902 261.27C329.902 262.262 330.049 262.987 330.342 263.442C330.651 263.882 331.164 264.102 331.88 264.102C332.596 264.102 333.101 263.882 333.394 263.442C333.703 262.987 333.857 262.262 333.857 261.27V256.68C333.857 255.703 333.711 254.971 333.418 254.482C333.125 253.994 332.612 253.75 331.88 253.75C331.147 253.75 330.635 253.994 330.342 254.482C330.049 254.971 329.902 255.703 329.902 256.68V261.27ZM356.709 251.479L337.007 285.732L331.636 282.656L351.24 248.574L356.709 251.479ZM347.847 277.236V273.77C347.847 271.247 348.62 269.277 350.166 267.861C351.712 266.445 353.779 265.737 356.367 265.737C358.971 265.737 361.038 266.453 362.568 267.886C364.115 269.318 364.888 271.279 364.888 273.77V277.236C364.888 279.922 364.115 281.997 362.568 283.462C361.022 284.927 358.955 285.659 356.367 285.659C353.779 285.659 351.712 284.927 350.166 283.462C348.62 281.997 347.847 279.922 347.847 277.236ZM354.39 278.042C354.39 279.035 354.536 279.759 354.829 280.215C355.138 280.654 355.651 280.874 356.367 280.874C357.083 280.874 357.588 280.654 357.881 280.215C358.19 279.759 358.345 279.035 358.345 278.042V273.452C358.345 272.476 358.198 271.743 357.905 271.255C357.612 270.767 357.1 270.522 356.367 270.522C355.635 270.522 355.122 270.767 354.829 271.255C354.536 271.743 354.39 272.476 354.39 273.452V278.042Z" fill="#FF0000"/>
<path d="M294.127 270.425V268.643C294.127 262.604 295.95 257.835 299.596 254.336C303.242 250.82 308.499 249.062 315.367 249.062H317.32V256.729H315.636C311.762 256.729 308.784 257.689 306.7 259.609C304.633 261.514 303.6 265.078 303.6 270.303L303.844 271.035C303.844 274.29 304.202 276.423 304.918 277.432C305.634 278.441 306.594 278.945 307.799 278.945C308.987 278.945 309.882 278.538 310.484 277.725C311.103 276.895 311.412 275.275 311.412 272.866C311.412 271.141 311.119 269.814 310.533 268.887C309.947 267.943 309.036 267.471 307.799 267.471C306.643 267.471 305.691 267.91 304.942 268.789C304.21 269.668 303.844 270.824 303.844 272.256L302.037 272.231C302.037 269.041 302.908 266.502 304.649 264.614C306.407 262.71 308.613 261.758 311.266 261.758C314.309 261.758 316.726 262.743 318.517 264.712C320.307 266.681 321.202 269.448 321.202 273.013C321.202 276.886 319.965 279.954 317.491 282.217C315.017 284.463 311.778 285.586 307.774 285.586C303.657 285.586 300.353 284.373 297.862 281.948C295.372 279.523 294.127 275.682 294.127 270.425Z" fill="#FF0000"/>
<path d="M265.016 285V279.141L277.931 265.957C278.924 264.867 279.745 263.792 280.396 262.734C281.048 261.66 281.373 260.529 281.373 259.341C281.373 258.088 281.096 257.168 280.543 256.582C280.006 255.996 279.225 255.703 278.199 255.703C277.158 255.703 276.336 256.069 275.733 256.802C275.147 257.518 274.854 258.877 274.854 260.879V261.953H264.967V259.829C264.967 256.704 266.171 254.1 268.58 252.017C270.989 249.917 274.228 248.867 278.297 248.867C282.659 248.867 285.906 249.779 288.038 251.602C290.17 253.424 291.244 255.866 291.261 258.926C291.261 261.286 290.732 263.361 289.674 265.151C288.632 266.925 287.241 268.683 285.499 270.425L279.078 277.383H292.018V285H265.016Z" fill="#FF0000"/>
<path d="M171.035 137.488V134.539C171.035 132.547 171.66 130.991 172.91 129.871C174.16 128.738 175.82 128.172 177.891 128.172C180 128.172 181.667 128.738 182.891 129.871C184.128 131.004 184.746 132.56 184.746 134.539V137.488C184.746 139.598 184.128 141.232 182.891 142.391C181.654 143.536 179.987 144.109 177.891 144.109C175.807 144.109 174.141 143.536 172.891 142.391C171.654 141.232 171.035 139.598 171.035 137.488ZM176.27 138.035C176.27 138.803 176.393 139.37 176.641 139.734C176.888 140.099 177.305 140.281 177.891 140.281C178.49 140.281 178.913 140.099 179.16 139.734C179.408 139.37 179.531 138.803 179.531 138.035V134.324C179.531 133.569 179.408 132.996 179.16 132.605C178.926 132.215 178.503 132.02 177.891 132.02C177.292 132.02 176.868 132.215 176.621 132.605C176.387 132.996 176.27 133.569 176.27 134.324V138.035ZM197.891 130.086L182.051 157.605L177.871 155.203L193.633 127.801L197.891 130.086ZM190.879 150.906V147.957C190.879 145.965 191.504 144.409 192.754 143.289C194.004 142.156 195.664 141.59 197.734 141.59C199.844 141.59 201.51 142.156 202.734 143.289C203.971 144.422 204.59 145.978 204.59 147.957V150.906C204.59 153.016 203.971 154.65 202.734 155.809C201.497 156.954 199.831 157.527 197.734 157.527C195.651 157.527 193.984 156.954 192.734 155.809C191.497 154.65 190.879 153.016 190.879 150.906ZM196.113 151.453C196.113 152.221 196.237 152.788 196.484 153.152C196.732 153.517 197.148 153.699 197.734 153.699C198.333 153.699 198.757 153.517 199.004 153.152C199.251 152.788 199.375 152.221 199.375 151.453V147.742C199.375 146.987 199.251 146.414 199.004 146.023C198.77 145.633 198.346 145.438 197.734 145.438C197.135 145.438 196.712 145.633 196.465 146.023C196.23 146.414 196.113 146.987 196.113 147.742V151.453Z" fill="#DD6262"/>
<path d="M147.412 149.246C147.412 147.371 147.946 145.828 149.014 144.617C150.081 143.406 151.234 142.618 152.471 142.254V142.176C151.221 141.629 150.205 140.822 149.424 139.754C148.643 138.673 148.252 137.339 148.252 135.75C148.252 133.471 149.124 131.629 150.869 130.223C152.614 128.803 155.068 128.094 158.232 128.094C161.41 128.094 163.864 128.81 165.596 130.242C167.34 131.661 168.213 133.497 168.213 135.75C168.213 137.352 167.842 138.699 167.1 139.793C166.357 140.874 165.361 141.668 164.111 142.176V142.254C165.374 142.592 166.514 143.374 167.529 144.598C168.558 145.809 169.072 147.358 169.072 149.246C169.072 151.785 168.096 153.79 166.143 155.262C164.189 156.733 161.553 157.469 158.232 157.469C154.925 157.469 152.295 156.733 150.342 155.262C148.389 153.79 147.412 151.785 147.412 149.246ZM155.166 148.504C155.166 149.832 155.426 150.809 155.947 151.434C156.468 152.046 157.23 152.352 158.232 152.352C159.235 152.352 159.997 152.039 160.518 151.414C161.038 150.789 161.299 149.819 161.299 148.504C161.299 147.15 161.038 146.16 160.518 145.535C160.01 144.91 159.248 144.598 158.232 144.598C157.217 144.598 156.449 144.91 155.928 145.535C155.42 146.16 155.166 147.15 155.166 148.504ZM155.635 136.746C155.635 137.905 155.85 138.797 156.279 139.422C156.709 140.034 157.36 140.34 158.232 140.34C159.105 140.34 159.756 140.034 160.186 139.422C160.628 138.797 160.85 137.905 160.85 136.746C160.85 135.613 160.635 134.754 160.205 134.168C159.775 133.569 159.118 133.27 158.232 133.27C157.334 133.27 156.676 133.562 156.26 134.148C155.843 134.721 155.635 135.587 155.635 136.746Z" fill="#DD6262"/>
<path d="M133.164 157V135.34L125.82 137.781V131.629L135.391 128.367H140.84V157H133.164Z" fill="#DD6262"/>
<path d="M461.258 341H457.326L460.162 336.51L463.879 336.682L461.258 341ZM464.835 341V337.369H462.901L462.203 337.219C460.785 337.219 459.693 336.893 458.927 336.241C458.168 335.582 457.788 334.691 457.788 333.566C457.788 332.456 458.171 331.572 458.938 330.913C459.704 330.254 460.799 329.925 462.225 329.925H468.552V341H464.835ZM463.116 335.092H464.835V332.17H463.116C462.536 332.17 462.121 332.31 461.87 332.589C461.627 332.861 461.505 333.212 461.505 333.642C461.505 334.071 461.627 334.422 461.87 334.694C462.114 334.959 462.529 335.092 463.116 335.092Z" fill="#FF0000" fill-opacity="0.5"/>
<path d="M444.186 341V329.925H447.935V334.759C447.935 334.988 447.927 335.267 447.913 335.597C447.906 335.919 447.884 336.188 447.849 336.402L447.956 336.413C448.049 336.205 448.153 335.991 448.268 335.769C448.382 335.539 448.522 335.26 448.687 334.931L451.437 329.925H455.229V341H451.479V336.112C451.479 335.876 451.479 335.607 451.479 335.307C451.487 335.006 451.497 334.741 451.512 334.512H451.404C451.311 334.727 451.215 334.938 451.114 335.146C451.014 335.353 450.882 335.618 450.717 335.94L447.978 341H444.186Z" fill="#FF0000" fill-opacity="0.5"/>
<path d="M430.486 329.925H434.246V333.975H437.565V329.925H441.325V341H437.565V336.735H434.246V341H430.486V329.925Z" fill="#FF0000" fill-opacity="0.5"/>
<path d="M416.529 337.756C416.529 336.503 417.009 335.564 417.969 334.941C418.928 334.318 420.146 334.003 421.621 333.996H423.791V333.427C423.791 332.99 423.68 332.643 423.458 332.385C423.236 332.12 422.849 331.987 422.298 331.987C421.739 331.987 421.342 332.095 421.105 332.31C420.869 332.524 420.751 332.804 420.751 333.147V333.352H417.12V333.137C417.12 332.091 417.618 331.243 418.613 330.591C419.609 329.939 420.901 329.613 422.491 329.613C424.088 329.613 425.331 329.925 426.219 330.548C427.107 331.171 427.551 332.148 427.551 333.48V338.54C427.551 338.984 427.59 339.41 427.669 339.818C427.755 340.219 427.873 340.556 428.023 340.828V341H424.307C424.221 340.835 424.146 340.628 424.081 340.377C424.024 340.119 423.981 339.868 423.952 339.625C423.744 340.026 423.326 340.388 422.695 340.71C422.072 341.032 421.302 341.193 420.386 341.193C419.269 341.193 418.345 340.91 417.614 340.345C416.891 339.779 416.529 338.916 416.529 337.756ZM420.278 337.412C420.278 337.842 420.4 338.189 420.644 338.454C420.894 338.719 421.285 338.852 421.814 338.852C422.402 338.852 422.878 338.669 423.243 338.304C423.608 337.931 423.791 337.473 423.791 336.929V336.069H422.33C421.621 336.069 421.102 336.184 420.772 336.413C420.443 336.635 420.278 336.968 420.278 337.412Z" fill="#FF0000" fill-opacity="0.5"/>
<path d="M404.775 332.696V329.925H415.099V332.696H411.822V341H408.062V332.696H404.775Z" fill="#FF0000" fill-opacity="0.5"/>
<path d="M391.797 341V329.925H395.546V334.759C395.546 334.988 395.539 335.267 395.524 335.597C395.517 335.919 395.496 336.188 395.46 336.402L395.567 336.413C395.66 336.205 395.764 335.991 395.879 335.769C395.993 335.539 396.133 335.26 396.298 334.931L399.048 329.925H402.84V341H399.091V336.112C399.091 335.876 399.091 335.607 399.091 335.307C399.098 335.006 399.109 334.741 399.123 334.512H399.016C398.923 334.727 398.826 334.938 398.726 335.146C398.625 335.353 398.493 335.618 398.328 335.94L395.589 341H391.797Z" fill="#FF0000" fill-opacity="0.5"/>
<path d="M378.227 329.925H388.947V341H385.188V332.696H381.986V341H378.227V329.925Z" fill="#FF0000" fill-opacity="0.5"/>
<path d="M426.855 313.756C426.855 312.503 427.335 311.564 428.295 310.941C429.255 310.318 430.472 310.003 431.947 309.996H434.117V309.427C434.117 308.99 434.006 308.643 433.784 308.385C433.562 308.12 433.175 307.987 432.624 307.987C432.065 307.987 431.668 308.095 431.432 308.31C431.195 308.524 431.077 308.804 431.077 309.147V309.352H427.446V309.137C427.446 308.091 427.944 307.243 428.939 306.591C429.935 305.939 431.228 305.613 432.817 305.613C434.414 305.613 435.657 305.925 436.545 306.548C437.433 307.171 437.877 308.148 437.877 309.48V314.54C437.877 314.984 437.916 315.41 437.995 315.818C438.081 316.219 438.199 316.556 438.35 316.828V317H434.633C434.547 316.835 434.472 316.628 434.407 316.377C434.35 316.119 434.307 315.868 434.278 315.625C434.071 316.026 433.652 316.388 433.021 316.71C432.398 317.032 431.629 317.193 430.712 317.193C429.595 317.193 428.671 316.91 427.94 316.345C427.217 315.779 426.855 314.916 426.855 313.756ZM430.604 313.412C430.604 313.842 430.726 314.189 430.97 314.454C431.22 314.719 431.611 314.852 432.141 314.852C432.728 314.852 433.204 314.669 433.569 314.304C433.935 313.931 434.117 313.473 434.117 312.929V312.069H432.656C431.947 312.069 431.428 312.184 431.099 312.413C430.769 312.635 430.604 312.968 430.604 313.412Z" fill="#FF0000" fill-opacity="0.5"/>
<path d="M419.796 317.312C417.905 317.312 416.509 316.953 415.606 316.237C414.711 315.514 414.264 314.576 414.264 313.423V313.337H417.83V313.412C417.83 313.827 417.977 314.182 418.271 314.476C418.564 314.762 419.04 314.905 419.699 314.905C420.272 314.905 420.705 314.794 420.999 314.572C421.293 314.343 421.439 314.032 421.439 313.638C421.439 313.265 421.321 312.979 421.085 312.778C420.849 312.578 420.469 312.478 419.946 312.478H418.496V310.297H419.678C420.179 310.297 420.537 310.2 420.752 310.007C420.974 309.813 421.085 309.534 421.085 309.169C421.085 308.804 420.963 308.524 420.72 308.331C420.476 308.131 420.129 308.03 419.678 308.03C419.133 308.03 418.722 308.163 418.442 308.428C418.163 308.693 418.023 309.065 418.023 309.545V309.62H414.457V309.534C414.464 308.295 414.94 307.328 415.886 306.634C416.838 305.939 418.188 305.592 419.936 305.592C421.554 305.592 422.782 305.871 423.62 306.43C424.458 306.981 424.877 307.744 424.877 308.718C424.877 309.391 424.648 309.946 424.189 310.383C423.738 310.82 423.094 311.124 422.256 311.296V311.328C423.244 311.457 423.985 311.74 424.479 312.177C424.974 312.614 425.221 313.197 425.221 313.928C425.221 315.016 424.734 315.854 423.76 316.441C422.786 317.021 421.465 317.312 419.796 317.312Z" fill="#FF0000" fill-opacity="0.5"/>
<path d="M406.42 311.79V308.675H412.833V311.79H406.42Z" fill="#FF0000" fill-opacity="0.5"/>
<path d="M399.509 317.312C397.618 317.312 396.222 316.953 395.319 316.237C394.424 315.514 393.977 314.576 393.977 313.423V313.337H397.543V313.412C397.543 313.827 397.69 314.182 397.983 314.476C398.277 314.762 398.753 314.905 399.412 314.905C399.985 314.905 400.418 314.794 400.712 314.572C401.006 314.343 401.152 314.032 401.152 313.638C401.152 313.265 401.034 312.979 400.798 312.778C400.562 312.578 400.182 312.478 399.659 312.478H398.209V310.297H399.391C399.892 310.297 400.25 310.2 400.465 310.007C400.687 309.813 400.798 309.534 400.798 309.169C400.798 308.804 400.676 308.524 400.433 308.331C400.189 308.131 399.842 308.03 399.391 308.03C398.846 308.03 398.435 308.163 398.155 308.428C397.876 308.693 397.736 309.065 397.736 309.545V309.62H394.17V309.534C394.177 308.295 394.653 307.328 395.599 306.634C396.551 305.939 397.901 305.592 399.648 305.592C401.267 305.592 402.495 305.871 403.333 306.43C404.171 306.981 404.59 307.744 404.59 308.718C404.59 309.391 404.361 309.946 403.902 310.383C403.451 310.82 402.807 311.124 401.969 311.296V311.328C402.957 311.457 403.698 311.74 404.192 312.177C404.687 312.614 404.934 313.197 404.934 313.928C404.934 315.016 404.447 315.854 403.473 316.441C402.499 317.021 401.177 317.312 399.509 317.312Z" fill="#FF0000" fill-opacity="0.5"/>
<path d="M391.644 317H387.776V308.46C387.776 308.181 387.776 307.887 387.776 307.579C387.784 307.271 387.791 306.985 387.798 306.72H387.712C387.612 306.978 387.508 307.225 387.4 307.461C387.3 307.697 387.178 307.966 387.035 308.267L382.652 317H378.463V301.359H382.33V309.889C382.33 310.168 382.326 310.469 382.319 310.791C382.319 311.106 382.316 311.389 382.309 311.64H382.395C382.48 311.425 382.581 311.185 382.695 310.92C382.817 310.648 382.942 310.365 383.071 310.071L387.454 301.359H391.644V317Z" fill="#FF0000" fill-opacity="0.5"/>
<path d="M118.414 99.7559C118.414 98.5026 118.894 97.5645 119.854 96.9414C120.813 96.3184 122.031 96.0033 123.506 95.9961H125.676V95.4268C125.676 94.9899 125.565 94.6426 125.343 94.3848C125.121 94.1198 124.734 93.9873 124.183 93.9873C123.624 93.9873 123.227 94.0947 122.99 94.3096C122.754 94.5244 122.636 94.8037 122.636 95.1475V95.3516H119.005V95.1367C119.005 94.0911 119.503 93.2425 120.498 92.5908C121.493 91.9391 122.786 91.6133 124.376 91.6133C125.973 91.6133 127.216 91.9248 128.104 92.5479C128.992 93.1709 129.436 94.1484 129.436 95.4805V100.54C129.436 100.984 129.475 101.41 129.554 101.818C129.64 102.219 129.758 102.556 129.908 102.828V103H126.191C126.105 102.835 126.03 102.628 125.966 102.377C125.909 102.119 125.866 101.868 125.837 101.625C125.629 102.026 125.21 102.388 124.58 102.71C123.957 103.032 123.187 103.193 122.271 103.193C121.153 103.193 120.229 102.91 119.499 102.345C118.776 101.779 118.414 100.916 118.414 99.7559ZM122.163 99.4121C122.163 99.8418 122.285 100.189 122.528 100.454C122.779 100.719 123.169 100.852 123.699 100.852C124.286 100.852 124.763 100.669 125.128 100.304C125.493 99.9313 125.676 99.473 125.676 98.9287V98.0693H124.215C123.506 98.0693 122.987 98.1839 122.657 98.4131C122.328 98.6351 122.163 98.9681 122.163 99.4121Z" fill="#DD6262"/>
<path d="M106.658 94.6963V91.9248H116.981V94.6963H113.705V103H109.945V94.6963H106.658Z" fill="#DD6262"/>
<path d="M93.7227 107.49V91.9248H97.2998L97.3428 93.1279H97.3965C97.6257 92.7054 98.0231 92.3617 98.5889 92.0967C99.1618 91.8245 99.792 91.6885 100.479 91.6885C101.912 91.6885 103.068 92.1862 103.949 93.1816C104.837 94.1771 105.281 95.5413 105.281 97.2744V97.6182C105.281 99.3369 104.844 100.701 103.971 101.711C103.104 102.714 101.976 103.215 100.587 103.215C99.8994 103.215 99.2764 103.107 98.7178 102.893C98.1663 102.671 97.7546 102.359 97.4824 101.958V107.49H93.7227ZM97.4824 99.1221C97.6185 99.4945 97.8656 99.8167 98.2236 100.089C98.5889 100.361 99.0078 100.497 99.4805 100.497C100.139 100.497 100.633 100.275 100.963 99.8311C101.292 99.3799 101.457 98.7174 101.457 97.8438V97.0703C101.457 96.1966 101.292 95.5378 100.963 95.0938C100.633 94.6497 100.136 94.4277 99.4697 94.4277C98.9613 94.4277 98.5387 94.5602 98.2021 94.8252C97.8727 95.083 97.6328 95.391 97.4824 95.749V99.1221Z" fill="#DD6262"/>
<path d="M79.4004 97.6289V97.2744C79.4004 95.527 79.959 94.1449 81.0762 93.1279C82.1934 92.1038 83.64 91.5918 85.416 91.5918C87.1921 91.5918 88.6351 92.1038 89.7451 93.1279C90.8623 94.1449 91.4209 95.527 91.4209 97.2744V97.6289C91.4209 99.3835 90.8623 100.769 89.7451 101.786C88.6351 102.803 87.1921 103.312 85.416 103.312C83.6328 103.312 82.1826 102.803 81.0654 101.786C79.9554 100.769 79.4004 99.3835 79.4004 97.6289ZM83.2354 97.0596V97.8438C83.2354 98.7747 83.4251 99.4622 83.8047 99.9062C84.1914 100.343 84.7285 100.562 85.416 100.562C86.1035 100.562 86.637 100.343 87.0166 99.9062C87.3962 99.4622 87.5859 98.7747 87.5859 97.8438V97.0596C87.5859 96.1286 87.389 95.4447 86.9951 95.0078C86.6084 94.571 86.082 94.3525 85.416 94.3525C84.7428 94.3525 84.2093 94.571 83.8154 95.0078C83.4287 95.4447 83.2354 96.1286 83.2354 97.0596Z" fill="#DD6262"/>
<path d="M66.3906 91.9248H77.1113V103H73.3516V94.6963H70.1504V103H66.3906V91.9248Z" fill="#DD6262"/>
<path d="M53.0137 97.6289V97.2744C53.0137 95.5055 53.5544 94.1162 54.6357 93.1064C55.7243 92.0967 57.1566 91.5918 58.9326 91.5918C60.637 91.5918 61.944 91.9964 62.8535 92.8057C63.763 93.6077 64.2572 94.6139 64.3359 95.8242L64.3574 96.0713H60.6943V95.9102C60.6943 95.4303 60.5439 95.0436 60.2432 94.75C59.9495 94.4492 59.5127 94.2988 58.9326 94.2988C58.2523 94.2988 57.7331 94.5387 57.375 95.0186C57.0241 95.4984 56.8486 96.1787 56.8486 97.0596V97.8438C56.8486 98.7246 57.0169 99.4085 57.3535 99.8955C57.6973 100.382 58.2201 100.626 58.9219 100.626C59.5807 100.626 60.0391 100.465 60.2969 100.143C60.5618 99.8203 60.6943 99.4408 60.6943 99.0039V98.8643H64.3467L64.3359 99.0469C64.3288 100.243 63.8561 101.253 62.918 102.076C61.9798 102.9 60.6514 103.312 58.9326 103.312C57.1637 103.312 55.735 102.807 54.6465 101.797C53.5579 100.787 53.0137 99.3978 53.0137 97.6289Z" fill="#DD6262"/>
<path d="M39.873 91.9248H43.6328V95.9746H46.9521V91.9248H50.7119V103H46.9521V98.7354H43.6328V103H39.873V91.9248Z" fill="#DD6262"/>
<path d="M25.916 99.7559C25.916 98.5026 26.3958 97.5645 27.3555 96.9414C28.3151 96.3184 29.5326 96.0033 31.0078 95.9961H33.1777V95.4268C33.1777 94.9899 33.0667 94.6426 32.8447 94.3848C32.6227 94.1198 32.236 93.9873 31.6846 93.9873C31.126 93.9873 30.7285 94.0947 30.4922 94.3096C30.2559 94.5244 30.1377 94.8037 30.1377 95.1475V95.3516H26.5068V95.1367C26.5068 94.0911 27.0046 93.2425 28 92.5908C28.9954 91.9391 30.2881 91.6133 31.8779 91.6133C33.4749 91.6133 34.7174 91.9248 35.6055 92.5479C36.4935 93.1709 36.9375 94.1484 36.9375 95.4805V100.54C36.9375 100.984 36.9769 101.41 37.0557 101.818C37.1416 102.219 37.2598 102.556 37.4102 102.828V103H33.6934C33.6074 102.835 33.5322 102.628 33.4678 102.377C33.4105 102.119 33.3675 101.868 33.3389 101.625C33.1312 102.026 32.7122 102.388 32.082 102.71C31.459 103.032 30.6891 103.193 29.7725 103.193C28.6553 103.193 27.7314 102.91 27.001 102.345C26.2777 101.779 25.916 100.916 25.916 99.7559ZM29.665 99.4121C29.665 99.8418 29.7868 100.189 30.0303 100.454C30.2809 100.719 30.6712 100.852 31.2012 100.852C31.7884 100.852 32.2646 100.669 32.6299 100.304C32.9951 99.9313 33.1777 99.473 33.1777 98.9287V98.0693H31.7168C31.0078 98.0693 30.4886 98.1839 30.1592 98.4131C29.8298 98.6351 29.665 98.9681 29.665 99.4121Z" fill="#DD6262"/>
<path d="M12.582 107.49V91.9248H16.1592L16.2021 93.1279H16.2559C16.485 92.7054 16.8825 92.3617 17.4482 92.0967C18.0212 91.8245 18.6514 91.6885 19.3389 91.6885C20.7712 91.6885 21.9277 92.1862 22.8086 93.1816C23.6966 94.1771 24.1406 95.5413 24.1406 97.2744V97.6182C24.1406 99.3369 23.7038 100.701 22.8301 101.711C21.9635 102.714 20.8356 103.215 19.4463 103.215C18.7588 103.215 18.1357 103.107 17.5771 102.893C17.0257 102.671 16.6139 102.359 16.3418 101.958V107.49H12.582ZM16.3418 99.1221C16.4779 99.4945 16.7249 99.8167 17.083 100.089C17.4482 100.361 17.8672 100.497 18.3398 100.497C18.9987 100.497 19.4928 100.275 19.8223 99.8311C20.1517 99.3799 20.3164 98.7174 20.3164 97.8438V97.0703C20.3164 96.1966 20.1517 95.5378 19.8223 95.0938C19.4928 94.6497 18.9951 94.4277 18.3291 94.4277C17.8206 94.4277 17.3981 94.5602 17.0615 94.8252C16.7321 95.083 16.4922 95.391 16.3418 95.749V99.1221Z" fill="#DD6262"/>
<path d="M0.3125 94.6963V91.9248H10.6357V94.6963H7.35938V103H3.59961V94.6963H0.3125Z" fill="#DD6262"/>
<path d="M49.8555 75.7559C49.8555 74.5026 50.3353 73.5645 51.2949 72.9414C52.2546 72.3184 53.472 72.0033 54.9473 71.9961H57.1172V71.4268C57.1172 70.9899 57.0062 70.6426 56.7842 70.3848C56.5622 70.1198 56.1755 69.9873 55.624 69.9873C55.0654 69.9873 54.668 70.0947 54.4316 70.3096C54.1953 70.5244 54.0771 70.8037 54.0771 71.1475V71.3516H50.4463V71.1367C50.4463 70.0911 50.944 69.2425 51.9395 68.5908C52.9349 67.9391 54.2275 67.6133 55.8174 67.6133C57.4144 67.6133 58.6569 67.9248 59.5449 68.5479C60.4329 69.1709 60.877 70.1484 60.877 71.4805V76.54C60.877 76.984 60.9163 77.4102 60.9951 77.8184C61.0811 78.2194 61.1992 78.556 61.3496 78.8281V79H57.6328C57.5469 78.8353 57.4717 78.6276 57.4072 78.377C57.3499 78.1191 57.307 77.8685 57.2783 77.625C57.0706 78.026 56.6517 78.3877 56.0215 78.71C55.3984 79.0322 54.6286 79.1934 53.7119 79.1934C52.5947 79.1934 51.6709 78.9105 50.9404 78.3447C50.2171 77.779 49.8555 76.916 49.8555 75.7559ZM53.6045 75.4121C53.6045 75.8418 53.7262 76.1891 53.9697 76.4541C54.2204 76.7191 54.6107 76.8516 55.1406 76.8516C55.7279 76.8516 56.2041 76.6689 56.5693 76.3037C56.9346 75.9313 57.1172 75.473 57.1172 74.9287V74.0693H55.6562C54.9473 74.0693 54.4281 74.1839 54.0986 74.4131C53.7692 74.6351 53.6045 74.9681 53.6045 75.4121Z" fill="#DD6262"/>
<path d="M42.7939 79.3115C40.9033 79.3115 39.5068 78.9535 38.6045 78.2373C37.7093 77.514 37.2617 76.5758 37.2617 75.4229V75.3369H40.8281V75.4121C40.8281 75.8275 40.9749 76.182 41.2686 76.4756C41.5622 76.762 42.0384 76.9053 42.6973 76.9053C43.2702 76.9053 43.7035 76.7943 43.9971 76.5723C44.2907 76.3431 44.4375 76.0316 44.4375 75.6377C44.4375 75.2653 44.3193 74.9788 44.083 74.7783C43.8467 74.5778 43.4671 74.4775 42.9443 74.4775H41.4941V72.2969H42.6758C43.1771 72.2969 43.5352 72.2002 43.75 72.0068C43.972 71.8135 44.083 71.5342 44.083 71.1689C44.083 70.8037 43.9613 70.5244 43.7178 70.3311C43.4743 70.1305 43.127 70.0303 42.6758 70.0303C42.1315 70.0303 41.7197 70.1628 41.4404 70.4277C41.1611 70.6927 41.0215 71.0651 41.0215 71.5449V71.6201H37.4551V71.5342C37.4622 70.2952 37.9385 69.3285 38.8838 68.6338C39.8363 67.9391 41.1862 67.5918 42.9336 67.5918C44.5521 67.5918 45.7803 67.8711 46.6182 68.4297C47.4561 68.9811 47.875 69.7438 47.875 70.7178C47.875 71.391 47.6458 71.946 47.1875 72.3828C46.7363 72.8197 46.0918 73.124 45.2539 73.2959V73.3281C46.2422 73.457 46.9834 73.7399 47.4775 74.1768C47.9717 74.6136 48.2188 75.1973 48.2188 75.9277C48.2188 77.0163 47.7318 77.8542 46.7578 78.4414C45.7839 79.0215 44.4626 79.3115 42.7939 79.3115Z" fill="#DD6262"/>
<path d="M29.418 73.79V70.6748H35.8311V73.79H29.418Z" fill="#DD6262"/>
<path d="M22.5088 79.3115C20.6182 79.3115 19.2217 78.9535 18.3193 78.2373C17.4242 77.514 16.9766 76.5758 16.9766 75.4229V75.3369H20.543V75.4121C20.543 75.8275 20.6898 76.182 20.9834 76.4756C21.277 76.762 21.7533 76.9053 22.4121 76.9053C22.985 76.9053 23.4183 76.7943 23.7119 76.5723C24.0055 76.3431 24.1523 76.0316 24.1523 75.6377C24.1523 75.2653 24.0342 74.9788 23.7979 74.7783C23.5615 74.5778 23.182 74.4775 22.6592 74.4775H21.209V72.2969H22.3906C22.8919 72.2969 23.25 72.2002 23.4648 72.0068C23.6868 71.8135 23.7979 71.5342 23.7979 71.1689C23.7979 70.8037 23.6761 70.5244 23.4326 70.3311C23.1891 70.1305 22.8418 70.0303 22.3906 70.0303C21.8464 70.0303 21.4346 70.1628 21.1553 70.4277C20.876 70.6927 20.7363 71.0651 20.7363 71.5449V71.6201H17.1699V71.5342C17.1771 70.2952 17.6533 69.3285 18.5986 68.6338C19.5511 67.9391 20.901 67.5918 22.6484 67.5918C24.2669 67.5918 25.4951 67.8711 26.333 68.4297C27.1709 68.9811 27.5898 69.7438 27.5898 70.7178C27.5898 71.391 27.3607 71.946 26.9023 72.3828C26.4512 72.8197 25.8066 73.124 24.9688 73.2959V73.3281C25.957 73.457 26.6982 73.7399 27.1924 74.1768C27.6865 74.6136 27.9336 75.1973 27.9336 75.9277C27.9336 77.0163 27.4466 77.8542 26.4727 78.4414C25.4987 79.0215 24.1774 79.3115 22.5088 79.3115Z" fill="#DD6262"/>
<path d="M14.6416 79H10.7744V70.46C10.7744 70.1807 10.7744 69.887 10.7744 69.5791C10.7816 69.2712 10.7887 68.9847 10.7959 68.7197H10.71C10.6097 68.9775 10.5059 69.2246 10.3984 69.4609C10.2982 69.6973 10.1764 69.9658 10.0332 70.2666L5.65039 79H1.46094V63.3594H5.32812V71.8887C5.32812 72.168 5.32454 72.4688 5.31738 72.791C5.31738 73.1061 5.3138 73.389 5.30664 73.6396H5.39258C5.47852 73.4248 5.57878 73.1849 5.69336 72.9199C5.8151 72.6478 5.94043 72.3649 6.06934 72.0713L10.4521 63.3594H14.6416V79Z" fill="#DD6262"/>
<path d="M389.404 417.136C388.928 417.136 388.495 417.097 388.104 417.019C387.714 416.948 387.423 416.869 387.231 416.784L387.998 414.174C388.58 414.33 389.099 414.398 389.553 414.377C390.008 414.355 390.409 414.185 390.757 413.865C391.112 413.546 391.425 413.024 391.695 412.299L392.089 411.212L386.102 394.636H389.511L393.655 407.335H393.825L397.969 394.636H401.389L394.646 413.183C394.333 414.036 393.935 414.756 393.452 415.346C392.969 415.943 392.394 416.39 391.727 416.688C391.059 416.987 390.285 417.136 389.404 417.136Z" fill="#969AAD"/>
<path d="M369.432 417.136V394.636H372.542V397.289H372.809C372.993 396.948 373.26 396.554 373.608 396.106C373.956 395.659 374.439 395.268 375.057 394.934C375.675 394.593 376.491 394.423 377.507 394.423C378.828 394.423 380.007 394.757 381.044 395.424C382.081 396.092 382.894 397.054 383.483 398.311C384.08 399.568 384.378 401.081 384.378 402.85C384.378 404.618 384.084 406.134 383.494 407.399C382.905 408.656 382.095 409.625 381.065 410.307C380.035 410.982 378.86 411.319 377.539 411.319C376.545 411.319 375.731 411.152 375.099 410.818C374.474 410.485 373.984 410.094 373.629 409.647C373.274 409.199 373.001 408.801 372.809 408.453H372.617V417.136H369.432ZM372.553 402.818C372.553 403.968 372.72 404.977 373.054 405.843C373.388 406.71 373.871 407.388 374.503 407.878C375.135 408.361 375.909 408.603 376.825 408.603C377.777 408.603 378.572 408.35 379.211 407.846C379.851 407.335 380.334 406.642 380.66 405.769C380.994 404.895 381.161 403.911 381.161 402.818C381.161 401.738 380.998 400.769 380.671 399.909C380.351 399.05 379.868 398.372 379.222 397.875C378.583 397.377 377.784 397.129 376.825 397.129C375.902 397.129 375.121 397.367 374.481 397.843C373.849 398.318 373.37 398.983 373.043 399.835C372.716 400.687 372.553 401.681 372.553 402.818Z" fill="#969AAD"/>
<path d="M358.877 411.33C357.265 411.33 355.877 410.985 354.712 410.296C353.554 409.6 352.659 408.624 352.027 407.367C351.402 406.103 351.09 404.622 351.09 402.924C351.09 401.248 351.402 399.771 352.027 398.492C352.659 397.214 353.54 396.216 354.669 395.499C355.806 394.782 357.134 394.423 358.654 394.423C359.577 394.423 360.472 394.576 361.338 394.881C362.205 395.186 362.983 395.666 363.672 396.319C364.36 396.973 364.904 397.821 365.301 398.865C365.699 399.902 365.898 401.163 365.898 402.647V403.777H352.89V401.39H362.777C362.777 400.552 362.606 399.81 362.265 399.164C361.924 398.51 361.445 397.995 360.827 397.619C360.216 397.242 359.499 397.054 358.675 397.054C357.78 397.054 356.999 397.274 356.331 397.715C355.671 398.148 355.159 398.716 354.797 399.419C354.442 400.115 354.265 400.872 354.265 401.688V403.553C354.265 404.647 354.456 405.577 354.84 406.344C355.23 407.111 355.774 407.697 356.47 408.102C357.166 408.5 357.979 408.698 358.909 408.698C359.513 408.698 360.064 408.613 360.561 408.443C361.058 408.265 361.488 408.002 361.85 407.654C362.212 407.306 362.489 406.877 362.681 406.365L365.696 406.909C365.454 407.796 365.021 408.574 364.396 409.242C363.778 409.902 363 410.417 362.063 410.786C361.132 411.149 360.071 411.33 358.877 411.33Z" fill="#969AAD"/>
<path d="M337.334 416.572V389.182H340.519V416.572H337.334ZM337.334 411.33C336.176 411.33 335.121 411.131 334.17 410.733C333.218 410.329 332.398 409.753 331.709 409.008C331.02 408.262 330.487 407.371 330.111 406.334C329.741 405.297 329.557 404.15 329.557 402.893C329.557 401.621 329.741 400.467 330.111 399.43C330.487 398.393 331.02 397.502 331.709 396.756C332.398 396.01 333.218 395.435 334.17 395.03C335.121 394.626 336.176 394.423 337.334 394.423H338.122V411.33H337.334ZM337.334 408.645H337.781V397.108H337.334C336.567 397.108 335.899 397.264 335.331 397.577C334.763 397.882 334.29 398.305 333.914 398.844C333.537 399.377 333.253 399.991 333.062 400.687C332.877 401.383 332.785 402.118 332.785 402.893C332.785 403.93 332.952 404.885 333.285 405.758C333.619 406.625 334.123 407.324 334.798 407.857C335.473 408.383 336.318 408.645 337.334 408.645ZM340.519 411.33H339.72V394.423H340.519C341.677 394.423 342.731 394.626 343.683 395.03C344.635 395.435 345.452 396.01 346.133 396.756C346.822 397.502 347.351 398.393 347.721 399.43C348.097 400.467 348.285 401.621 348.285 402.893C348.285 404.15 348.097 405.297 347.721 406.334C347.351 407.371 346.822 408.262 346.133 409.008C345.452 409.753 344.635 410.329 343.683 410.733C342.731 411.131 341.677 411.33 340.519 411.33ZM340.519 408.645C341.286 408.645 341.954 408.496 342.522 408.198C343.09 407.893 343.562 407.474 343.939 406.941C344.315 406.401 344.596 405.787 344.78 405.098C344.965 404.402 345.057 403.667 345.057 402.893C345.057 401.863 344.89 400.911 344.557 400.037C344.23 399.157 343.729 398.45 343.055 397.917C342.38 397.378 341.535 397.108 340.519 397.108H340.061V408.645H340.519Z" fill="#969AAD"/>
<path d="M320.163 411.33C318.579 411.33 317.216 410.971 316.072 410.254C314.936 409.529 314.062 408.532 313.451 407.26C312.841 405.989 312.535 404.533 312.535 402.892C312.535 401.23 312.848 399.764 313.473 398.492C314.098 397.214 314.978 396.216 316.115 395.499C317.251 394.782 318.59 394.423 320.131 394.423C321.374 394.423 322.482 394.654 323.455 395.115C324.428 395.57 325.213 396.209 325.809 397.033C326.413 397.857 326.772 398.819 326.885 399.92H323.785C323.615 399.153 323.224 398.492 322.613 397.938C322.01 397.384 321.2 397.108 320.184 397.108C319.297 397.108 318.519 397.342 317.851 397.811C317.191 398.272 316.676 398.933 316.306 399.792C315.937 400.644 315.752 401.653 315.752 402.818C315.752 404.011 315.934 405.041 316.296 405.907C316.658 406.774 317.169 407.445 317.83 407.921C318.498 408.397 319.282 408.634 320.184 408.634C320.788 408.634 321.335 408.524 321.825 408.304C322.322 408.077 322.738 407.754 323.071 407.335C323.412 406.916 323.65 406.411 323.785 405.822H326.885C326.772 406.88 326.427 407.825 325.852 408.656C325.277 409.487 324.506 410.14 323.54 410.616C322.581 411.092 321.456 411.33 320.163 411.33Z" fill="#969AAD"/>
<path d="M302.087 411.33C300.553 411.33 299.214 410.978 298.07 410.275C296.927 409.572 296.039 408.588 295.407 407.324C294.775 406.06 294.459 404.583 294.459 402.892C294.459 401.195 294.775 399.71 295.407 398.439C296.039 397.168 296.927 396.181 298.07 395.478C299.214 394.774 300.553 394.423 302.087 394.423C303.621 394.423 304.96 394.774 306.103 395.478C307.247 396.181 308.134 397.168 308.767 398.439C309.399 399.71 309.715 401.195 309.715 402.892C309.715 404.583 309.399 406.06 308.767 407.324C308.134 408.588 307.247 409.572 306.103 410.275C304.96 410.978 303.621 411.33 302.087 411.33ZM302.097 408.656C303.092 408.656 303.916 408.393 304.569 407.867C305.222 407.342 305.705 406.642 306.018 405.769C306.338 404.895 306.497 403.933 306.497 402.882C306.497 401.838 306.338 400.879 306.018 400.005C305.705 399.125 305.222 398.418 304.569 397.885C303.916 397.353 303.092 397.086 302.097 397.086C301.096 397.086 300.265 397.353 299.605 397.885C298.951 398.418 298.465 399.125 298.145 400.005C297.833 400.879 297.676 401.838 297.676 402.882C297.676 403.933 297.833 404.895 298.145 405.769C298.465 406.642 298.951 407.342 299.605 407.867C300.265 408.393 301.096 408.656 302.097 408.656Z" fill="#969AAD"/>
<path d="M281.701 407.058L286.985 394.636H289.733L282.883 410.999H280.518L273.807 394.636H276.523L281.701 407.058ZM275.639 394.636V410.999H272.518V394.636H275.639ZM287.848 410.999V394.636H290.948V410.999H287.848Z" fill="#969AAD"/>
<path d="M255.342 397.384V394.636H269.149V397.384H263.811V410.999H260.7V397.384H255.342Z" fill="#969AAD"/>
<path d="M245.053 411.362C244.016 411.362 243.078 411.17 242.24 410.786C241.402 410.396 240.738 409.831 240.248 409.093C239.765 408.354 239.523 407.448 239.523 406.376C239.523 405.453 239.701 404.693 240.056 404.096C240.411 403.5 240.891 403.027 241.494 402.679C242.098 402.331 242.773 402.068 243.518 401.891C244.264 401.713 245.024 401.578 245.798 401.486C246.778 401.372 247.574 401.28 248.185 401.209C248.795 401.131 249.239 401.007 249.516 400.836C249.793 400.666 249.932 400.389 249.932 400.005V399.931C249.932 399 249.669 398.279 249.143 397.768C248.625 397.257 247.851 397.001 246.821 397.001C245.749 397.001 244.903 397.239 244.286 397.715C243.675 398.184 243.252 398.706 243.018 399.281L240.024 398.599C240.379 397.605 240.898 396.802 241.58 396.191C242.268 395.573 243.06 395.126 243.955 394.849C244.85 394.565 245.791 394.423 246.778 394.423C247.432 394.423 248.124 394.501 248.856 394.657C249.594 394.806 250.283 395.083 250.923 395.488C251.569 395.893 252.098 396.472 252.51 397.225C252.922 397.97 253.128 398.94 253.128 400.133V411H250.017V408.762H249.889C249.683 409.174 249.374 409.579 248.962 409.977C248.55 410.375 248.021 410.705 247.375 410.968C246.729 411.23 245.955 411.362 245.053 411.362ZM245.745 408.805C246.626 408.805 247.379 408.631 248.004 408.283C248.636 407.935 249.115 407.48 249.442 406.919C249.776 406.351 249.942 405.744 249.942 405.098V402.988C249.829 403.102 249.609 403.208 249.282 403.308C248.962 403.4 248.597 403.482 248.185 403.553C247.773 403.617 247.371 403.677 246.981 403.734C246.59 403.784 246.264 403.826 246.001 403.862C245.383 403.94 244.818 404.071 244.307 404.256C243.803 404.441 243.398 404.707 243.092 405.055C242.794 405.396 242.645 405.85 242.645 406.419C242.645 407.207 242.936 407.804 243.518 408.208C244.101 408.606 244.843 408.805 245.745 408.805Z" fill="#969AAD"/>
<path d="M215.359 410.999V394.636H222.146C223.992 394.636 225.455 395.03 226.535 395.818C227.614 396.6 228.154 397.661 228.154 399.004C228.154 399.962 227.849 400.722 227.238 401.283C226.627 401.845 225.817 402.221 224.809 402.413C225.54 402.498 226.212 402.718 226.822 403.073C227.433 403.421 227.923 403.89 228.293 404.479C228.669 405.069 228.857 405.772 228.857 406.589C228.857 407.455 228.634 408.222 228.186 408.89C227.739 409.551 227.089 410.069 226.236 410.445C225.391 410.815 224.372 410.999 223.179 410.999H215.359ZM218.353 408.336H223.179C223.967 408.336 224.585 408.148 225.033 407.771C225.48 407.395 225.704 406.884 225.704 406.237C225.704 405.477 225.48 404.881 225.033 404.448C224.585 404.007 223.967 403.787 223.179 403.787H218.353V408.336ZM218.353 401.454H222.178C222.774 401.454 223.286 401.369 223.712 401.198C224.145 401.028 224.475 400.786 224.702 400.474C224.937 400.154 225.054 399.778 225.054 399.345C225.054 398.712 224.795 398.219 224.276 397.864C223.758 397.509 223.048 397.331 222.146 397.331H218.353V401.454Z" fill="#969AAD"/>
<path d="M186.643 400.261H191.395C193.397 400.261 194.939 400.758 196.018 401.752C197.098 402.747 197.637 404.028 197.637 405.598C197.637 406.621 197.396 407.541 196.913 408.357C196.43 409.174 195.723 409.82 194.793 410.296C193.863 410.765 192.73 410.999 191.395 410.999H184.246V394.636H187.368V408.251H191.395C192.311 408.251 193.064 408.013 193.653 407.537C194.243 407.054 194.537 406.44 194.537 405.694C194.537 404.906 194.243 404.263 193.653 403.766C193.064 403.261 192.311 403.009 191.395 403.009H186.643V400.261ZM199.96 410.999V394.636H203.145V410.999H199.96Z" fill="#969AAD"/>
<path d="M174.118 411.33C172.534 411.33 171.171 410.971 170.027 410.254C168.891 409.529 168.017 408.532 167.406 407.26C166.796 405.989 166.49 404.533 166.49 402.892C166.49 401.23 166.803 399.764 167.428 398.492C168.053 397.214 168.933 396.216 170.07 395.499C171.206 394.782 172.545 394.423 174.086 394.423C175.329 394.423 176.437 394.654 177.41 395.115C178.383 395.57 179.168 396.209 179.764 397.033C180.368 397.857 180.727 398.819 180.84 399.92H177.74C177.57 399.153 177.179 398.492 176.568 397.938C175.965 397.384 175.155 397.108 174.139 397.108C173.252 397.108 172.474 397.342 171.806 397.811C171.146 398.272 170.631 398.933 170.262 399.792C169.892 400.644 169.708 401.653 169.708 402.818C169.708 404.011 169.889 405.041 170.251 405.907C170.613 406.774 171.124 407.445 171.785 407.921C172.453 408.397 173.237 408.634 174.139 408.634C174.743 408.634 175.29 408.524 175.78 408.304C176.277 408.077 176.693 407.754 177.026 407.335C177.367 406.916 177.605 406.411 177.74 405.822H180.84C180.727 406.88 180.382 407.825 179.807 408.656C179.232 409.487 178.461 410.14 177.495 410.616C176.536 411.092 175.411 411.33 174.118 411.33Z" fill="#969AAD"/>
<path d="M156.042 411.33C154.508 411.33 153.169 410.978 152.026 410.275C150.882 409.572 149.994 408.588 149.362 407.324C148.73 406.06 148.414 404.583 148.414 402.892C148.414 401.195 148.73 399.71 149.362 398.439C149.994 397.168 150.882 396.181 152.026 395.478C153.169 394.774 154.508 394.423 156.042 394.423C157.576 394.423 158.915 394.774 160.058 395.478C161.202 396.181 162.089 397.168 162.722 398.439C163.354 399.71 163.67 401.195 163.67 402.892C163.67 404.583 163.354 406.06 162.722 407.324C162.089 408.588 161.202 409.572 160.058 410.275C158.915 410.978 157.576 411.33 156.042 411.33ZM156.053 408.656C157.047 408.656 157.871 408.393 158.524 407.867C159.178 407.342 159.661 406.642 159.973 405.769C160.293 404.895 160.452 403.933 160.452 402.882C160.452 401.838 160.293 400.879 159.973 400.005C159.661 399.125 159.178 398.418 158.524 397.885C157.871 397.353 157.047 397.086 156.053 397.086C155.051 397.086 154.22 397.353 153.56 397.885C152.906 398.418 152.42 399.125 152.1 400.005C151.788 400.879 151.631 401.838 151.631 402.882C151.631 403.933 151.788 404.895 152.1 405.769C152.42 406.642 152.906 407.342 153.56 407.867C154.22 408.393 155.051 408.656 156.053 408.656Z" fill="#969AAD"/>
<path d="M130.633 417.136V394.636H133.744V397.289H134.01C134.195 396.948 134.461 396.554 134.809 396.106C135.157 395.659 135.64 395.268 136.258 394.934C136.876 394.593 137.692 394.423 138.708 394.423C140.029 394.423 141.208 394.757 142.245 395.424C143.282 396.092 144.095 397.054 144.685 398.311C145.281 399.568 145.58 401.081 145.58 402.85C145.58 404.618 145.285 406.134 144.695 407.399C144.106 408.656 143.296 409.625 142.266 410.307C141.236 410.982 140.061 411.319 138.74 411.319C137.746 411.319 136.933 411.152 136.3 410.818C135.675 410.485 135.185 410.094 134.83 409.647C134.475 409.199 134.202 408.801 134.01 408.453H133.818V417.136H130.633ZM133.754 402.818C133.754 403.968 133.921 404.977 134.255 405.843C134.589 406.71 135.072 407.388 135.704 407.878C136.336 408.361 137.11 408.603 138.026 408.603C138.978 408.603 139.773 408.35 140.413 407.846C141.052 407.335 141.535 406.642 141.861 405.769C142.195 404.895 142.362 403.911 142.362 402.818C142.362 401.738 142.199 400.769 141.872 399.909C141.553 399.05 141.07 398.372 140.423 397.875C139.784 397.377 138.985 397.129 138.026 397.129C137.103 397.129 136.322 397.367 135.683 397.843C135.05 398.318 134.571 398.983 134.244 399.835C133.918 400.687 133.754 401.681 133.754 402.818Z" fill="#969AAD"/>
<path d="M125.328 388.542L126.649 390.555C126.159 391.003 125.602 391.323 124.977 391.514C124.359 391.699 123.645 391.816 122.835 391.866C122.026 391.908 121.099 391.948 120.055 391.983C118.876 392.019 117.906 392.274 117.146 392.75C116.387 393.219 115.801 393.915 115.389 394.838C114.984 395.754 114.721 396.905 114.6 398.29H114.803C115.335 397.274 116.074 396.514 117.019 396.01C117.97 395.506 119.039 395.254 120.225 395.254C121.546 395.254 122.722 395.555 123.752 396.159C124.781 396.763 125.591 397.647 126.181 398.812C126.777 399.97 127.075 401.386 127.075 403.063C127.075 404.76 126.763 406.227 126.138 407.462C125.52 408.698 124.646 409.653 123.517 410.328C122.395 410.996 121.07 411.33 119.544 411.33C118.017 411.33 116.685 410.985 115.548 410.296C114.419 409.6 113.542 408.57 112.917 407.207C112.299 405.843 111.99 404.16 111.99 402.157V400.538C111.99 396.795 112.658 393.979 113.993 392.09C115.328 390.2 117.324 389.231 119.98 389.181C120.84 389.16 121.607 389.156 122.281 389.171C122.956 389.178 123.546 389.146 124.05 389.075C124.561 388.997 124.987 388.819 125.328 388.542ZM119.554 408.656C120.442 408.656 121.205 408.432 121.845 407.984C122.491 407.53 122.988 406.887 123.336 406.056C123.684 405.225 123.858 404.245 123.858 403.116C123.858 402.008 123.684 401.067 123.336 400.293C122.988 399.519 122.491 398.929 121.845 398.524C121.198 398.112 120.424 397.906 119.522 397.906C118.855 397.906 118.258 398.024 117.732 398.258C117.207 398.485 116.756 398.823 116.379 399.27C116.01 399.717 115.722 400.264 115.517 400.911C115.318 401.55 115.211 402.285 115.197 403.116C115.197 404.806 115.584 406.152 116.358 407.153C117.139 408.155 118.205 408.656 119.554 408.656Z" fill="#969AAD"/>
<path d="M91.9263 400.261H96.6777C98.6806 400.261 100.222 400.758 101.301 401.752C102.381 402.747 102.921 404.028 102.921 405.598C102.921 406.621 102.679 407.541 102.196 408.357C101.713 409.174 101.007 409.82 100.076 410.296C99.1458 410.765 98.013 410.999 96.6777 410.999H89.5293V394.636H92.6507V408.251H96.6777C97.5939 408.251 98.3468 408.013 98.9363 407.537C99.5257 407.054 99.8205 406.44 99.8205 405.694C99.8205 404.906 99.5257 404.263 98.9363 403.766C98.3468 403.261 97.5939 403.009 96.6777 403.009H91.9263V400.261ZM105.243 410.999V394.636H108.428V410.999H105.243Z" fill="#969AAD"/>
<path d="M70.1562 411V389.182H78.1463C79.6946 389.182 80.9766 389.437 81.9922 389.949C83.0078 390.453 83.7678 391.138 84.272 392.005C84.7763 392.864 85.0284 393.834 85.0284 394.913C85.0284 395.822 84.8615 396.589 84.5277 397.214C84.1939 397.832 83.7465 398.329 83.1854 398.706C82.6314 399.075 82.0206 399.345 81.353 399.515V399.729C82.0774 399.764 82.7841 399.998 83.473 400.432C84.169 400.858 84.7443 401.465 85.1989 402.253C85.6534 403.042 85.8807 404.001 85.8807 405.13C85.8807 406.245 85.6179 407.246 85.0923 408.134C84.5739 409.015 83.7713 409.714 82.6847 410.233C81.598 410.744 80.2095 411 78.5192 411H70.1562ZM73.4482 408.177H78.1996C79.7763 408.177 80.9055 407.871 81.5874 407.26C82.2692 406.65 82.6101 405.886 82.6101 404.97C82.6101 404.281 82.4361 403.649 82.0881 403.074C81.7401 402.498 81.2429 402.04 80.5966 401.699C79.9574 401.358 79.1974 401.188 78.3168 401.188H73.4482V408.177ZM73.4482 398.621H77.8587C78.5973 398.621 79.2614 398.479 79.8509 398.194C80.4474 397.91 80.9197 397.513 81.2678 397.001C81.6229 396.483 81.8004 395.872 81.8004 395.169C81.8004 394.267 81.4844 393.51 80.8523 392.9C80.2202 392.289 79.2507 391.983 77.9439 391.983H73.4482V398.621Z" fill="#969AAD"/>
<defs>
<linearGradient id="paint0_linear_2803_1182" x1="343.703" y1="106.215" x2="131.871" y2="318.047" gradientUnits="userSpaceOnUse">
<stop stop-color="#969AAD"/>
<stop offset="1" stop-color="#969AAD" stop-opacity="0"/>
</linearGradient>
<linearGradient id="paint1_linear_2803_1182" x1="343.256" y1="106.365" x2="60.7055" y2="294.972" gradientUnits="userSpaceOnUse">
<stop stop-color="#FF0000"/>
<stop offset="1" stop-color="#FF0000" stop-opacity="0"/>
</linearGradient>
<linearGradient id="paint2_linear_2803_1182" x1="343.256" y1="106.365" x2="60.7055" y2="294.972" gradientUnits="userSpaceOnUse">
<stop stop-color="#FF0000"/>
<stop offset="1" stop-color="#FF0000" stop-opacity="0"/>
</linearGradient>
<linearGradient id="paint3_linear_2803_1182" x1="343.849" y1="107.068" x2="61.2987" y2="295.675" gradientUnits="userSpaceOnUse">
<stop stop-color="#FF0000"/>
<stop offset="1" stop-color="#FF0000" stop-opacity="0"/>
</linearGradient>
<linearGradient id="paint4_linear_2803_1182" x1="343.849" y1="107.068" x2="131.717" y2="319.2" gradientUnits="userSpaceOnUse">
<stop stop-color="#563B1D"/>
<stop offset="1" stop-color="#563B1D" stop-opacity="0"/>
</linearGradient>
</defs>
</svg>
