<svg width="100" height="100" viewBox="0 0 100 100" fill="none" xmlns="http://www.w3.org/2000/svg">
<path d="M0 4C0 1.79086 1.79086 0 4 0V4H0ZM4 0H8V4H4V0ZM8 0H12V4H8V0ZM12 0H16V4H12V0ZM16 0H20V4H16V0ZM20 0H24V4H20V0ZM24 0C26.2091 0 28 1.79086 28 4H24V0ZM36 2C36 0.895431 36.8954 0 38 0C39.1046 0 40 0.895431 40 2V4H36V2ZM52 2C52 0.895431 52.8954 0 54 0C55.1046 0 56 0.895431 56 2C56 3.10457 55.1046 4 54 4H52V2ZM64 2C64 0.895431 64.8954 0 66 0C67.1046 0 68 0.895431 68 2C68 3.10457 67.1046 4 66 4H64V2ZM72 4C72 1.79086 73.7909 0 76 0V4H72ZM76 0H80V4H76V0ZM80 0H84V4H80V0ZM84 0H88V4H84V0ZM88 0H92V4H88V0ZM92 0H96V4H92V0ZM96 0C98.2091 0 100 1.79086 100 4H96V0ZM0 4H4V8H0V4ZM24 4H28V8H24V4ZM32 6C32 4.89543 32.8954 4 34 4H36V8H34C32.8954 8 32 7.10457 32 6ZM36 4H40V8H36V4ZM44 8C44 5.79086 45.7909 4 48 4V8H44ZM48 4H52C52 6.20914 50.2091 8 48 8V4ZM60 8C60 5.79086 61.7909 4 64 4V8H60ZM72 4H76V8H72V4ZM96 4H100V8H96V4ZM0 8H4V12H0V8ZM8 12C8 9.79086 9.79086 8 12 8V12H8ZM12 8H16V12H12V8ZM16 8C18.2091 8 20 9.79086 20 12H16V8ZM24 8H28V12H24V8ZM36 8H40V12H36V8ZM40 8H44V12H40V8ZM44 8H48V12H44V8ZM56 12C56 9.79086 57.7909 8 60 8V12H56ZM60 8H64V12H60V8ZM72 8H76V12H72V8ZM80 12C80 9.79086 81.7909 8 84 8V12H80ZM84 8H88V12H84V8ZM88 8C90.2091 8 92 9.79086 92 12H88V8ZM96 8H100V12H96V8ZM0 12H4V16H0V12ZM8 12H12V16H8V12ZM12 12H16V16H12V12ZM16 12H20V16H16V12ZM24 12H28V16H24V12ZM32 14C32 12.8954 32.8954 12 34 12H36V16H34C32.8954 16 32 15.1046 32 14ZM36 12H40V16H36V12ZM44 12H48V16H44V12ZM52 16C52 13.7909 53.7909 12 56 12V16H52ZM56 12H60V16H56V12ZM60 12H64V16H60V12ZM64 12C66.2091 12 68 13.7909 68 16H64V12ZM72 12H76V16H72V12ZM80 12H84V16H80V12ZM84 12H88V16H84V12ZM88 12H92V16H88V12ZM96 12H100V16H96V12ZM0 16H4V20H0V16ZM8 16H12V20C9.79086 20 8 18.2091 8 16ZM12 16H16V20H12V16ZM16 16H20C20 18.2091 18.2091 20 16 20V16ZM24 16H28V20H24V16ZM40 16H44V20H40V16ZM48 16H52V20C49.7909 20 48 18.2091 48 16ZM60 16H64V20H60V16ZM64 16H68V20H64V16ZM72 16H76V20H72V16ZM80 16H84V20C81.7909 20 80 18.2091 80 16ZM84 16H88V20H84V16ZM88 16H92C92 18.2091 90.2091 20 88 20V16ZM96 16H100V20H96V16ZM0 20H4V24H0V20ZM24 20H28V24H24V20ZM32 22C32 20.8954 32.8954 20 34 20C35.1046 20 36 20.8954 36 22V24H32V22ZM40 20H44V24H40V20ZM52 20C54.2091 20 56 21.7909 56 24H52V20ZM60 20H64V24H60V20ZM64 20H68V24H64V20ZM72 20H76V24H72V20ZM96 20H100V24H96V20ZM0 24H4V28C1.79086 28 0 26.2091 0 24ZM4 24H8V28H4V24ZM8 24H12V28H8V24ZM12 24H16V28H12V24ZM16 24H20V28H16V24ZM20 24H24V28H20V24ZM24 24H28C28 26.2091 26.2091 28 24 28V24ZM32 24H36V26C36 27.1046 35.1046 28 34 28C32.8954 28 32 27.1046 32 26V24ZM40 24H44V26C44 27.1046 43.1046 28 42 28C40.8954 28 40 27.1046 40 26V24ZM48 28C48 25.7909 49.7909 24 52 24V28H48ZM56 24H60V28H56V24ZM64 24H68V28H64V24ZM72 24H76V28C73.7909 28 72 26.2091 72 24ZM76 24H80V28H76V24ZM80 24H84V28H80V24ZM84 24H88V28H84V24ZM88 24H92V28H88V24ZM92 24H96V28H92V24ZM96 24H100C100 26.2091 98.2091 28 96 28V24ZM48 28H52V32H48V28ZM56 28H60V32H56V28ZM60 28H64V32H60V28ZM64 28H68V32H64V28ZM0 34C0 32.8954 0.895431 32 2 32H4V36H2C0.895431 36 0 35.1046 0 34ZM4 32H8V36H4V32ZM8 32H12V36H8V32ZM12 32H16V36H12V32ZM16 32H18C19.1046 32 20 32.8954 20 34C20 35.1046 19.1046 36 18 36H16V32ZM24 34C24 32.8954 24.8954 32 26 32H28V36H26C24.8954 36 24 35.1046 24 34ZM28 32H32V36H28V32ZM32 32H36V36H32V32ZM36 32H40V36H36V32ZM40 32H42C43.1046 32 44 32.8954 44 34C44 35.1046 43.1046 36 42 36H40V32ZM48 32H52V36C49.7909 36 48 34.2091 48 32ZM52 32H56V36H52V32ZM56 32H60C60 34.2091 58.2091 36 56 36V32ZM68 32C70.2091 32 72 33.7909 72 36H68V32ZM76 34C76 32.8954 76.8954 32 78 32C79.1046 32 80 32.8954 80 34V36H76V34ZM84 34C84 32.8954 84.8954 32 86 32C87.1046 32 88 32.8954 88 34C88 35.1046 87.1046 36 86 36C84.8954 36 84 35.1046 84 34ZM92 34C92 32.8954 92.8954 32 94 32C95.1046 32 96 32.8954 96 34V36H92V34ZM8 36H12V40H8V36ZM12 36H16C16 38.2091 14.2091 40 12 40V36ZM28 36H32V40H28V36ZM32 36H36V40H32V36ZM36 36H40V40H36V36ZM52 36H56V40H52V36ZM64 40C64 37.7909 65.7909 36 68 36V40H64ZM68 36H72V40H68V36ZM76 36H80V40H76V36ZM92 36H96V40H92V36ZM8 40H12V42C12 43.1046 11.1046 44 10 44C8.89543 44 8 43.1046 8 42V40ZM24 44C24 41.7909 25.7909 40 28 40V44H24ZM28 40H32V44H28V40ZM36 40H40V44H36V40ZM44 44C44 41.7909 45.7909 40 48 40V44H44ZM48 40H52V44H48V40ZM52 40H56V44H52V40ZM60 44C60 41.7909 61.7909 40 64 40V44H60ZM64 40H68V44H64V40ZM72 40H76V44H72V40ZM76 40H80C80 42.2091 78.2091 44 76 44V40ZM84 42C84 40.8954 84.8954 40 86 40C87.1046 40 88 40.8954 88 42C88 43.1046 87.1046 44 86 44C84.8954 44 84 43.1046 84 42ZM92 40H96V44C93.7909 44 92 42.2091 92 40ZM96 40C98.2091 40 100 41.7909 100 44H96V40ZM20 48C20 45.7909 21.7909 44 24 44V48H20ZM28 44H32V48H28V44ZM32 44H36V48H32V44ZM36 44H40V48H36V44ZM40 44H44V48H40V44ZM44 44H48V48H44V44ZM56 44H60V48H56V44ZM60 44H64V48H60V44ZM64 44H68V48H64V44ZM72 44H76V48H72V44ZM96 44H100V48H96V44ZM4 52C4 49.7909 5.79086 48 8 48V52H4ZM8 48C10.2091 48 12 49.7909 12 52H8V48ZM16 52C16 49.7909 17.7909 48 20 48V52H16ZM20 48H24V52H20V48ZM24 48H28V52H24V48ZM28 48H32V52H28V48ZM36 48H40V52H36V48ZM44 48H48V52H44V48ZM52 52C52 49.7909 53.7909 48 56 48V52H52ZM60 48H64V52C61.7909 52 60 50.2091 60 48ZM64 48H68V52H64V48ZM68 48H72V52H68V48ZM72 48H76V52H72V48ZM80 50C80 48.8954 80.8954 48 82 48C83.1046 48 84 48.8954 84 50V52H80V50ZM88 52C88 49.7909 89.7909 48 92 48V52H88ZM92 48H96V52H92V48ZM96 48H100C100 50.2091 98.2091 52 96 52V48ZM0 56C0 53.7909 1.79086 52 4 52V56H0ZM12 52H16V56H12V52ZM16 52H20V56H16V52ZM28 52H32V56H28V52ZM32 52H36V56H32V52ZM40 52H44V54C44 55.1046 43.1046 56 42 56C40.8954 56 40 55.1046 40 54V52ZM48 52H52V56C49.7909 56 48 54.2091 48 52ZM52 52H56V56H52V52ZM64 52H68V56H64V52ZM68 52H72V56H68V52ZM76 52H80V56H76V52ZM84 52H88V56H84V52ZM92 52H96V56H92V52ZM0 56H4V60H0V56ZM12 56H16V60H12V56ZM16 56H20V60H16V56ZM20 56H24V60H20V56ZM24 56H28V60H24V56ZM28 56H32V60H28V56ZM32 56H36V60H32V56ZM52 56H56V60H52V56ZM56 56H60V60H56V56ZM60 56H64C64 58.2091 62.2091 60 60 60V56ZM72 56H76V60H72V56ZM76 56H80V60H76V56ZM80 56H84V60H80V56ZM84 56H88C88 58.2091 86.2091 60 84 60V56ZM92 56H96V60C93.7909 60 92 58.2091 92 56ZM96 56C98.2091 56 100 57.7909 100 60H96V56ZM0 60H4V64H0V60ZM8 62C8 60.8954 8.89543 60 10 60H12V64H10C8.89543 64 8 63.1046 8 62ZM12 60H16V64H12V60ZM16 60H20C20 62.2091 18.2091 64 16 64V60ZM28 60H32V64H28V60ZM32 60H36V64H32V60ZM36 60H40V64H36V60ZM40 60C42.2091 60 44 61.7909 44 64H40V60ZM48 64C48 61.7909 49.7909 60 52 60V64H48ZM72 60H76V64H72V60ZM76 60H80V64H76V60ZM80 60H84V64H80V60ZM96 60H100V62C100 63.1046 99.1046 64 98 64C96.8954 64 96 63.1046 96 62V60ZM0 64H4V66C4 67.1046 3.10457 68 2 68C0.895431 68 0 67.1046 0 66V64ZM12 64H16V66C16 67.1046 15.1046 68 14 68C12.8954 68 12 67.1046 12 66V64ZM24 66C24 64.8954 24.8954 64 26 64H28V68H26C24.8954 68 24 67.1046 24 66ZM28 64H32V68H28V64ZM36 64H40V68H36V64ZM40 64H44V68H40V64ZM48 64H52V68C49.7909 68 48 66.2091 48 64ZM52 64H56V68H52V64ZM56 64H60V68H56V64ZM60 64H64V68H60V64ZM64 64H68V68H64V64ZM68 64H72V68H68V64ZM72 64H76V68H72V64ZM76 64H80V68H76V64ZM80 64H84V68H80V64ZM88 66C88 64.8954 88.8954 64 90 64C91.1046 64 92 64.8954 92 66C92 67.1046 91.1046 68 90 68H88V66ZM32 68H36V72H32V68ZM36 68H40V72H36V68ZM40 68H44V72H40V68ZM64 68H68V72H64V68ZM80 68H84V72H80V68ZM84 68H88V72H84V68ZM0 76C0 73.7909 1.79086 72 4 72V76H0ZM4 72H8V76H4V72ZM8 72H12V76H8V72ZM12 72H16V76H12V72ZM16 72H20V76H16V72ZM20 72H24V76H20V72ZM24 72C26.2091 72 28 73.7909 28 76H24V72ZM32 72H36V74C36 75.1046 35.1046 76 34 76C32.8954 76 32 75.1046 32 74V72ZM40 72H44V76C41.7909 76 40 74.2091 40 72ZM44 72H48V76H44V72ZM48 72H52V76H48V72ZM52 72C54.2091 72 56 73.7909 56 76H52V72ZM64 72H68V76H64V72ZM72 74C72 72.8954 72.8954 72 74 72C75.1046 72 76 72.8954 76 74C76 75.1046 75.1046 76 74 76C72.8954 76 72 75.1046 72 74ZM80 72H84V76H80V72ZM88 72H92V76H88V72ZM92 72H96V76H92V72ZM96 72C98.2091 72 100 73.7909 100 76H96V72ZM0 76H4V80H0V76ZM24 76H28V80H24V76ZM44 76H48V80H44V76ZM56 76C58.2091 76 60 77.7909 60 80H56V76ZM64 76H68V80H64V76ZM80 76H84V80H80V76ZM84 76H88V80H84V76ZM96 76H100V78C100 79.1046 99.1046 80 98 80C96.8954 80 96 79.1046 96 78V76ZM0 80H4V84H0V80ZM8 84C8 81.7909 9.79086 80 12 80V84H8ZM12 80H16V84H12V80ZM16 80C18.2091 80 20 81.7909 20 84H16V80ZM24 80H28V84H24V80ZM32 84C32 81.7909 33.7909 80 36 80V84H32ZM36 80H40V84H36V80ZM40 80H44V84H40V80ZM44 80H48V84H44V80ZM48 80H52V84H48V80ZM52 80H56V84H52V80ZM56 80H60V84H56V80ZM60 80H64V84H60V80ZM64 80H68V84H64V80ZM68 80H72V84H68V80ZM72 80H76V84H72V80ZM76 80H80V84H76V80ZM80 80H84V84H80V80ZM88 80C90.2091 80 92 81.7909 92 84H88V80ZM0 84H4V88H0V84ZM8 84H12V88H8V84ZM12 84H16V88H12V84ZM16 84H20V88H16V84ZM24 84H28V88H24V84ZM32 84H36V88H32V84ZM36 84H40V88H36V84ZM48 84H52V88C49.7909 88 48 86.2091 48 84ZM52 84H56V88H52V84ZM60 84H64C64 86.2091 62.2091 88 60 88V84ZM72 84H76V86C76 87.1046 75.1046 88 74 88C72.8954 88 72 87.1046 72 86V84ZM80 84H84V88C81.7909 88 80 86.2091 80 84ZM84 84H88V88H84V84ZM88 84H92V88H88V84ZM92 84H96V88H92V84ZM96 84C98.2091 84 100 85.7909 100 88H96V84ZM0 88H4V92H0V88ZM8 88H12V92C9.79086 92 8 90.2091 8 88ZM12 88H16V92H12V88ZM16 88H20C20 90.2091 18.2091 92 16 92V88ZM24 88H28V92H24V88ZM32 88H36V92H32V88ZM36 88H40V92H36V88ZM40 88H42C43.1046 88 44 88.8954 44 90C44 91.1046 43.1046 92 42 92H40V88ZM52 88H56V92C53.7909 92 52 90.2091 52 88ZM56 88H60V92H56V88ZM84 88H88V92H84V88ZM88 88H92C92 90.2091 90.2091 92 88 92V88ZM96 88H100V92H96V88ZM0 92H4V96H0V92ZM24 92H28V96H24V92ZM32 92H36V96H32V92ZM36 92H40V96H36V92ZM56 92H60V96H56V92ZM68 94C68 92.8954 68.8954 92 70 92C71.1046 92 72 92.8954 72 94C72 95.1046 71.1046 96 70 96C68.8954 96 68 95.1046 68 94ZM76 96C76 93.7909 77.7909 92 80 92V96H76ZM80 92H84V96H80V92ZM84 92H88V96H84V92ZM96 92H100V96H96V92ZM0 96H4V100C1.79086 100 0 98.2091 0 96ZM4 96H8V100H4V96ZM8 96H12V100H8V96ZM12 96H16V100H12V96ZM16 96H20V100H16V96ZM20 96H24V100H20V96ZM24 96H28C28 98.2091 26.2091 100 24 100V96ZM32 96H36V98C36 99.1046 35.1046 100 34 100C32.8954 100 32 99.1046 32 98V96ZM40 96H44V100C41.7909 100 40 98.2091 40 96ZM44 96H48V100H44V96ZM48 96H52V100H48V96ZM52 96H56V100H52V96ZM56 96H60C60 98.2091 58.2091 100 56 100V96ZM76 96H80V100C77.7909 100 76 98.2091 76 96ZM80 96H84V100H80V96ZM84 96H88V100H84V96ZM88 96H92V100H88V96ZM92 96H96V100H92V96ZM96 96H100C100 98.2091 98.2091 100 96 100V96Z" fill="url(#paint0_linear_702_1051)"/>
<defs>
<linearGradient id="paint0_linear_702_1051" x1="10" y1="4.6" x2="61.4" y2="115.6" gradientUnits="userSpaceOnUse">
<stop offset="0.215" stop-color="white"/>
<stop offset="1" stop-color="#00B800"/>
</linearGradient>
</defs>
</svg>
