<svg width="175" height="31" viewBox="0 0 175 31" fill="none" xmlns="http://www.w3.org/2000/svg">
<path d="M154.48 30V0.859375H160.77V17.5L166.805 10.8398H173.875L160.77 24.5703V30H154.48ZM167.43 30L161.062 20.9766L164.988 16.6406L174.812 30H167.43Z" fill="black" fill-opacity="0.74"/>
<path d="M131.619 20.7031V20.0781C131.619 17.0312 132.537 14.6354 134.373 12.8906C136.209 11.1458 138.67 10.2734 141.756 10.2734C144.751 10.2734 147.049 10.957 148.65 12.3242C150.252 13.6914 151.105 15.5013 151.209 17.7539L151.229 18.1445H145.135V17.8906C145.135 16.9661 144.861 16.2174 144.314 15.6445C143.768 15.0716 142.947 14.7852 141.854 14.7852C140.604 14.7852 139.646 15.2279 138.982 16.1133C138.331 16.9987 138.006 18.2292 138.006 19.8047V20.957C138.006 22.5195 138.325 23.7565 138.963 24.668C139.601 25.5794 140.558 26.0352 141.834 26.0352C142.993 26.0352 143.833 25.7422 144.354 25.1562C144.887 24.5703 145.154 23.8346 145.154 22.9492V22.7148H151.229V23.0664C151.202 25.2799 150.369 27.0768 148.729 28.457C147.101 29.8372 144.783 30.5273 141.775 30.5273C138.702 30.5273 136.242 29.6484 134.393 27.8906C132.544 26.1328 131.619 23.737 131.619 20.7031Z" fill="black" fill-opacity="0.74"/>
<path d="M121.727 30V10.8594H128.074V30H121.727ZM121.316 4.80469C121.316 3.88021 121.622 3.10547 122.234 2.48047C122.859 1.85547 123.751 1.54297 124.91 1.54297C126.069 1.54297 126.954 1.85547 127.566 2.48047C128.178 3.09245 128.484 3.86719 128.484 4.80469C128.484 5.72917 128.172 6.51042 127.547 7.14844C126.922 7.78646 126.03 8.10547 124.871 8.10547C123.725 8.10547 122.846 7.78646 122.234 7.14844C121.622 6.4974 121.316 5.71615 121.316 4.80469Z" fill="black" fill-opacity="0.74"/>
<path d="M97.498 30V1.5625H108.963C112.036 1.5625 114.386 2.41536 116.014 4.12109C117.654 5.82682 118.475 8.13802 118.475 11.0547C118.475 13.9844 117.667 16.3086 116.053 18.0273C114.438 19.7331 112.049 20.5859 108.885 20.5859H103.982V30H97.498ZM103.982 16.0156H107.752C109.34 16.0156 110.447 15.5664 111.072 14.668C111.697 13.7565 112.01 12.5846 112.01 11.1523C112.01 9.73307 111.697 8.58073 111.072 7.69531C110.447 6.79688 109.34 6.34115 107.752 6.32812H103.982V16.0156Z" fill="black" fill-opacity="0.74"/>
<path d="M62.0977 30V10.8594H68.1719L68.2305 13.3594H68.3086C68.9336 12.4349 69.7474 11.7122 70.75 11.1914C71.7656 10.6706 72.9115 10.4102 74.1875 10.4102C75.5547 10.4102 76.7331 10.6966 77.7227 11.2695C78.7253 11.8424 79.4349 12.6823 79.8516 13.7891H79.9102C80.6003 12.7083 81.5312 11.875 82.7031 11.2891C83.875 10.7031 85.1575 10.4102 86.5508 10.4102C88.4648 10.4102 90.0013 10.9766 91.1602 12.1094C92.332 13.2422 92.918 15.1367 92.918 17.793V30H86.6094V18.2617C86.6094 17.1419 86.3815 16.3411 85.9258 15.8594C85.4831 15.3776 84.832 15.1302 83.9727 15.1172C83.2044 15.1172 82.5404 15.3451 81.9805 15.8008C81.4336 16.2435 80.9909 16.8359 80.6523 17.5781V30H74.3437V18.2812C74.3437 17.1615 74.1159 16.3542 73.6602 15.8594C73.2044 15.3646 72.5404 15.1172 71.668 15.1172C70.9128 15.1172 70.2552 15.3385 69.6953 15.7812C69.1484 16.224 68.7122 16.8229 68.3867 17.5781V30H62.0977Z" fill="#00B800"/>
<path d="M38.8867 23.0469V10.8594H45.1758V22.5781C45.1758 23.776 45.4232 24.6094 45.918 25.0781C46.4128 25.5469 47.0898 25.7812 47.9492 25.7812C48.7174 25.7812 49.3945 25.5534 49.9805 25.0977C50.5794 24.6289 51.0417 24.043 51.3672 23.3398V10.8594H57.6562V30H51.5625L51.4844 27.5781H51.4258C50.8919 28.4505 50.1107 29.1471 49.082 29.668C48.0534 30.1888 46.8424 30.4492 45.4492 30.4492C43.5091 30.4492 41.9271 29.8763 40.7031 28.7305C39.4922 27.5846 38.8867 25.6901 38.8867 23.0469Z" fill="#00B800"/>
<path d="M23.7598 30V10.8594H29.9707L30.0293 13.2422H30.0879C30.5566 12.4349 31.1751 11.7643 31.9434 11.2305C32.7246 10.6966 33.61 10.4297 34.5996 10.4297C34.9382 10.4297 35.2637 10.4557 35.5762 10.5078C35.8887 10.5599 36.11 10.612 36.2402 10.6641V15.6055C36.0059 15.5273 35.7324 15.4688 35.4199 15.4297C35.1074 15.3906 34.7689 15.3711 34.4043 15.3711C33.5319 15.3711 32.7051 15.638 31.9238 16.1719C31.1556 16.7057 30.5632 17.4023 30.1465 18.2617V30H23.7598Z" fill="#00B800"/>
<path d="M0.292969 6.62109V1.5625H22.6562V6.62109H14.7656V30H8.22266V6.62109H0.292969Z" fill="#00B800"/>
</svg>
